<svg width="11" height="11" viewBox="0 0 11 11" fill="none" xmlns="http://www.w3.org/2000/svg">
<path d="M5.66699 9C5.76588 9 5.86255 8.97068 5.94478 8.91574C6.027 8.86079 6.09109 8.7827 6.12893 8.69134C6.16678 8.59998 6.17668 8.49944 6.15738 8.40245C6.13809 8.30546 6.09047 8.21637 6.02055 8.14645C5.95062 8.07652 5.86153 8.0289 5.76454 8.00961C5.66755 7.99031 5.56701 8.00022 5.47565 8.03806C5.38429 8.0759 5.3062 8.13999 5.25126 8.22221C5.19632 8.30444 5.16699 8.40111 5.16699 8.5C5.16699 8.63261 5.21967 8.75979 5.31344 8.85355C5.40721 8.94732 5.53438 9 5.66699 9ZM8.16699 9C8.26588 9 8.36255 8.97068 8.44478 8.91574C8.527 8.86079 8.59109 8.7827 8.62893 8.69134C8.66678 8.59998 8.67668 8.49944 8.65738 8.40245C8.63809 8.30546 8.59047 8.21637 8.52055 8.14645C8.45062 8.07652 8.36153 8.0289 8.26454 8.00961C8.16755 7.99031 8.06701 8.00022 7.97565 8.03806C7.88429 8.0759 7.8062 8.13999 7.75126 8.22221C7.69632 8.30444 7.66699 8.40111 7.66699 8.5C7.66699 8.63261 7.71967 8.75979 7.81344 8.85355C7.90721 8.94732 8.03438 9 8.16699 9ZM8.16699 7C8.26588 7 8.36255 6.97068 8.44478 6.91573C8.527 6.86079 8.59109 6.7827 8.62893 6.69134C8.66678 6.59998 8.67668 6.49945 8.65738 6.40245C8.63809 6.30546 8.59047 6.21637 8.52055 6.14645C8.45062 6.07652 8.36153 6.0289 8.26454 6.00961C8.16755 5.99031 8.06701 6.00022 7.97565 6.03806C7.88429 6.0759 7.8062 6.13999 7.75126 6.22221C7.69632 6.30444 7.66699 6.40111 7.66699 6.5C7.66699 6.63261 7.71967 6.75979 7.81344 6.85355C7.90721 6.94732 8.03438 7 8.16699 7ZM5.66699 7C5.76588 7 5.86255 6.97068 5.94478 6.91573C6.027 6.86079 6.09109 6.7827 6.12893 6.69134C6.16678 6.59998 6.17668 6.49945 6.15738 6.40245C6.13809 6.30546 6.09047 6.21637 6.02055 6.14645C5.95062 6.07652 5.86153 6.0289 5.76454 6.00961C5.66755 5.99031 5.56701 6.00022 5.47565 6.03806C5.38429 6.0759 5.3062 6.13999 5.25126 6.22221C5.19632 6.30444 5.16699 6.40111 5.16699 6.5C5.16699 6.63261 5.21967 6.75979 5.31344 6.85355C5.40721 6.94732 5.53438 7 5.66699 7ZM9.16699 1H8.66699V0.5C8.66699 0.367392 8.61431 0.240215 8.52055 0.146447C8.42678 0.0526784 8.2996 0 8.16699 0C8.03438 0 7.90721 0.0526784 7.81344 0.146447C7.71967 0.240215 7.66699 0.367392 7.66699 0.5V1H3.66699V0.5C3.66699 0.367392 3.61431 0.240215 3.52055 0.146447C3.42678 0.0526784 3.2996 0 3.16699 0C3.03438 0 2.90721 0.0526784 2.81344 0.146447C2.71967 0.240215 2.66699 0.367392 2.66699 0.5V1H2.16699C1.76917 1 1.38764 1.15804 1.10633 1.43934C0.825027 1.72064 0.666992 2.10218 0.666992 2.5V9.5C0.666992 9.89782 0.825027 10.2794 1.10633 10.5607C1.38764 10.842 1.76917 11 2.16699 11H9.16699C9.56482 11 9.94635 10.842 10.2277 10.5607C10.509 10.2794 10.667 9.89782 10.667 9.5V2.5C10.667 2.10218 10.509 1.72064 10.2277 1.43934C9.94635 1.15804 9.56482 1 9.16699 1ZM9.66699 9.5C9.66699 9.63261 9.61431 9.75979 9.52055 9.85355C9.42678 9.94732 9.2996 10 9.16699 10H2.16699C2.03438 10 1.90721 9.94732 1.81344 9.85355C1.71967 9.75979 1.66699 9.63261 1.66699 9.5V5H9.66699V9.5ZM9.66699 4H1.66699V2.5C1.66699 2.36739 1.71967 2.24021 1.81344 2.14645C1.90721 2.05268 2.03438 2 2.16699 2H2.66699V2.5C2.66699 2.63261 2.71967 2.75979 2.81344 2.85355C2.90721 2.94732 3.03438 3 3.16699 3C3.2996 3 3.42678 2.94732 3.52055 2.85355C3.61431 2.75979 3.66699 2.63261 3.66699 2.5V2H7.66699V2.5C7.66699 2.63261 7.71967 2.75979 7.81344 2.85355C7.90721 2.94732 8.03438 3 8.16699 3C8.2996 3 8.42678 2.94732 8.52055 2.85355C8.61431 2.75979 8.66699 2.63261 8.66699 2.5V2H9.16699C9.2996 2 9.42678 2.05268 9.52055 2.14645C9.61431 2.24021 9.66699 2.36739 9.66699 2.5V4ZM3.16699 7C3.26588 7 3.36255 6.97068 3.44478 6.91573C3.527 6.86079 3.59109 6.7827 3.62893 6.69134C3.66678 6.59998 3.67668 6.49945 3.65738 6.40245C3.63809 6.30546 3.59047 6.21637 3.52055 6.14645C3.45062 6.07652 3.36153 6.0289 3.26454 6.00961C3.16755 5.99031 3.06701 6.00022 2.97565 6.03806C2.88429 6.0759 2.8062 6.13999 2.75126 6.22221C2.69632 6.30444 2.66699 6.40111 2.66699 6.5C2.66699 6.63261 2.71967 6.75979 2.81344 6.85355C2.90721 6.94732 3.03438 7 3.16699 7ZM3.16699 9C3.26588 9 3.36255 8.97068 3.44478 8.91574C3.527 8.86079 3.59109 8.7827 3.62893 8.69134C3.66678 8.59998 3.67668 8.49944 3.65738 8.40245C3.63809 8.30546 3.59047 8.21637 3.52055 8.14645C3.45062 8.07652 3.36153 8.0289 3.26454 8.00961C3.16755 7.99031 3.06701 8.00022 2.97565 8.03806C2.88429 8.0759 2.8062 8.13999 2.75126 8.22221C2.69632 8.30444 2.66699 8.40111 2.66699 8.5C2.66699 8.63261 2.71967 8.75979 2.81344 8.85355C2.90721 8.94732 3.03438 9 3.16699 9Z" fill="#FF8833"/>
</svg>
