<svg width="10" height="11" viewBox="0 0 10 11" fill="none" xmlns="http://www.w3.org/2000/svg">
<path d="M5.47168 7.35028H2.53986C2.41027 7.35028 2.28598 7.40175 2.19435 7.49337C2.10271 7.58499 2.05123 7.70925 2.05123 7.83882C2.05123 7.96839 2.10271 8.09265 2.19435 8.18427C2.28598 8.27589 2.41027 8.32736 2.53986 8.32736H5.47168C5.60128 8.32736 5.72556 8.27589 5.8172 8.18427C5.90884 8.09265 5.96032 7.96839 5.96032 7.83882C5.96032 7.70925 5.90884 7.58499 5.8172 7.49337C5.72556 7.40175 5.60128 7.35028 5.47168 7.35028ZM3.51714 4.41905H4.49441C4.624 4.41905 4.74829 4.36757 4.83993 4.27596C4.93156 4.18434 4.98305 4.06007 4.98305 3.93051C4.98305 3.80094 4.93156 3.67668 4.83993 3.58506C4.74829 3.49344 4.624 3.44197 4.49441 3.44197H3.51714C3.38754 3.44197 3.26326 3.49344 3.17162 3.58506C3.07998 3.67668 3.0285 3.80094 3.0285 3.93051C3.0285 4.06007 3.07998 4.18434 3.17162 4.27596C3.26326 4.36757 3.38754 4.41905 3.51714 4.41905ZM9.38077 5.39612H7.91486V0.99927C7.91521 0.913185 7.89279 0.828537 7.84988 0.753899C7.80698 0.679261 7.74511 0.617283 7.67055 0.574241C7.59626 0.531363 7.512 0.508789 7.42623 0.508789C7.34045 0.508789 7.25619 0.531363 7.18191 0.574241L5.716 1.41453L4.25009 0.574241C4.17581 0.531363 4.09155 0.508789 4.00577 0.508789C3.92 0.508789 3.83574 0.531363 3.76146 0.574241L2.29555 1.41453L0.829638 0.574241C0.755356 0.531363 0.671093 0.508789 0.58532 0.508789C0.499546 0.508789 0.415284 0.531363 0.341002 0.574241C0.266434 0.617283 0.204565 0.679261 0.161662 0.753899C0.118758 0.828537 0.0963417 0.913185 0.0966835 0.99927V8.8159C0.0966835 9.20461 0.251127 9.57739 0.526038 9.85225C0.80095 10.1271 1.17381 10.2815 1.56259 10.2815H8.4035C8.79228 10.2815 9.16514 10.1271 9.44005 9.85225C9.71496 9.57739 9.86941 9.20461 9.86941 8.8159V5.88466C9.86941 5.75509 9.81793 5.63083 9.72629 5.53921C9.63465 5.4476 9.51037 5.39612 9.38077 5.39612ZM1.56259 9.30444C1.433 9.30444 1.30871 9.25297 1.21707 9.16135C1.12544 9.06973 1.07396 8.94547 1.07396 8.8159V1.84444L2.05123 2.40138C2.12664 2.44076 2.21046 2.46133 2.29555 2.46133C2.38063 2.46133 2.46445 2.44076 2.53986 2.40138L4.00577 1.56109L5.47168 2.40138C5.5471 2.44076 5.63092 2.46133 5.716 2.46133C5.80108 2.46133 5.8849 2.44076 5.96032 2.40138L6.93759 1.84444V8.8159C6.93891 8.98256 6.96866 9.14778 7.02555 9.30444H1.56259ZM8.89214 8.8159C8.89214 8.94547 8.84065 9.06973 8.74902 9.16135C8.65738 9.25297 8.53309 9.30444 8.4035 9.30444C8.2739 9.30444 8.14962 9.25297 8.05798 9.16135C7.96634 9.06973 7.91486 8.94547 7.91486 8.8159V6.3732H8.89214V8.8159ZM5.47168 5.39612H2.53986C2.41027 5.39612 2.28598 5.4476 2.19435 5.53921C2.10271 5.63083 2.05123 5.75509 2.05123 5.88466C2.05123 6.01423 2.10271 6.13849 2.19435 6.23011C2.28598 6.32173 2.41027 6.3732 2.53986 6.3732H5.47168C5.60128 6.3732 5.72556 6.32173 5.8172 6.23011C5.90884 6.13849 5.96032 6.01423 5.96032 5.88466C5.96032 5.75509 5.90884 5.63083 5.8172 5.53921C5.72556 5.4476 5.60128 5.39612 5.47168 5.39612Z" fill="#FF8833"/>
</svg>
