<svg width="18" height="18" viewBox="0 0 18 18" fill="none" xmlns="http://www.w3.org/2000/svg">
<path d="M13.2933 9.87005V7.58124C13.2923 6.56144 12.9304 5.57492 12.2717 4.79637C11.613 4.01782 10.7001 3.49749 9.69455 3.32752V2.54299C9.69455 2.3521 9.61871 2.16903 9.48374 2.03405C9.34876 1.89907 9.16569 1.82324 8.9748 1.82324C8.78391 1.82324 8.60084 1.89907 8.46586 2.03405C8.33088 2.16903 8.25505 2.3521 8.25505 2.54299V3.32752C7.24951 3.49749 6.33657 4.01782 5.6779 4.79637C5.01923 5.57492 4.65733 6.56144 4.6563 7.58124V9.87005C4.23629 10.0185 3.87249 10.2933 3.61477 10.6567C3.35706 11.0201 3.21805 11.4543 3.2168 11.8997V13.3392C3.2168 13.5301 3.29263 13.7132 3.42761 13.8482C3.56259 13.9832 3.74566 14.059 3.93655 14.059H6.19656C6.36231 14.6689 6.72414 15.2073 7.22623 15.5911C7.72833 15.975 8.34278 16.183 8.9748 16.183C9.60681 16.183 10.2213 15.975 10.7234 15.5911C11.2255 15.2073 11.5873 14.6689 11.753 14.059H14.013C14.2039 14.059 14.387 13.9832 14.522 13.8482C14.657 13.7132 14.7328 13.5301 14.7328 13.3392V11.8997C14.7315 11.4543 14.5925 11.0201 14.3348 10.6567C14.0771 10.2933 13.7133 10.0185 13.2933 9.87005ZM6.0958 7.58124C6.0958 6.81768 6.39912 6.0854 6.93904 5.54548C7.47895 5.00556 8.21124 4.70224 8.9748 4.70224C9.73835 4.70224 10.4706 5.00556 11.0106 5.54548C11.5505 6.0854 11.8538 6.81768 11.8538 7.58124V9.74049H6.0958V7.58124ZM8.9748 14.7787C8.72358 14.7772 8.47714 14.71 8.25996 14.5837C8.04278 14.4575 7.86243 14.2766 7.73683 14.059H10.2128C10.0872 14.2766 9.90681 14.4575 9.68963 14.5837C9.47245 14.71 9.22601 14.7772 8.9748 14.7787ZM13.2933 12.6195H4.6563V11.8997C4.6563 11.7088 4.73213 11.5258 4.86711 11.3908C5.00209 11.2558 5.18516 11.18 5.37605 11.18H12.5735C12.7644 11.18 12.9475 11.2558 13.0825 11.3908C13.2175 11.5258 13.2933 11.7088 13.2933 11.8997V12.6195Z" fill="#00B1BB"/>
<circle cx="12.8144" cy="4.22207" r="1.91933" fill="#FF8833"/>
</svg>
