<svg width="12" height="11" viewBox="0 0 12 11" fill="none" xmlns="http://www.w3.org/2000/svg">
<path d="M10.7631 7.64915H1.2017C1.07491 7.64915 0.953313 7.69952 0.863657 7.78917C0.774001 7.87883 0.723633 8.00043 0.723633 8.12722C0.723633 8.25401 0.774001 8.37561 0.863657 8.46527C0.953313 8.55492 1.07491 8.60529 1.2017 8.60529H10.7631C10.8899 8.60529 11.0115 8.55492 11.1012 8.46527C11.1908 8.37561 11.2412 8.25401 11.2412 8.12722C11.2412 8.00043 11.1908 7.87883 11.1012 7.78917C11.0115 7.69952 10.8899 7.64915 10.7631 7.64915ZM10.7631 9.56143H1.2017C1.07491 9.56143 0.953313 9.6118 0.863657 9.70146C0.774001 9.79111 0.723633 9.91271 0.723633 10.0395C0.723633 10.1663 0.774001 10.2879 0.863657 10.3776C0.953313 10.4672 1.07491 10.5176 1.2017 10.5176H10.7631C10.8899 10.5176 11.0115 10.4672 11.1012 10.3776C11.1908 10.2879 11.2412 10.1663 11.2412 10.0395C11.2412 9.91271 11.1908 9.79111 11.1012 9.70146C11.0115 9.6118 10.8899 9.56143 10.7631 9.56143ZM3.11399 2.86843C3.01944 2.86843 2.92701 2.89647 2.84839 2.949C2.76977 3.00153 2.70849 3.0762 2.67231 3.16355C2.63613 3.25091 2.62666 3.34703 2.64511 3.43977C2.66355 3.53251 2.70908 3.61769 2.77594 3.68455C2.8428 3.75141 2.92799 3.79694 3.02072 3.81539C3.11346 3.83383 3.20959 3.82437 3.29694 3.78818C3.3843 3.752 3.45896 3.69072 3.51149 3.6121C3.56402 3.53349 3.59206 3.44106 3.59206 3.3465C3.59206 3.21971 3.54169 3.09811 3.45204 3.00845C3.36238 2.9188 3.24078 2.86843 3.11399 2.86843ZM9.807 0H2.15785C1.77747 0 1.41267 0.151104 1.1437 0.420072C0.874737 0.689039 0.723633 1.05384 0.723633 1.43422V5.25879C0.723633 5.63917 0.874737 6.00396 1.1437 6.27293C1.41267 6.5419 1.77747 6.693 2.15785 6.693H9.807C10.1874 6.693 10.5522 6.5419 10.8211 6.27293C11.0901 6.00396 11.2412 5.63917 11.2412 5.25879V1.43422C11.2412 1.05384 11.0901 0.689039 10.8211 0.420072C10.5522 0.151104 10.1874 0 9.807 0ZM10.2851 5.25879C10.2851 5.38558 10.2347 5.50718 10.145 5.59684C10.0554 5.68649 9.93379 5.73686 9.807 5.73686H2.15785C2.03106 5.73686 1.90946 5.68649 1.8198 5.59684C1.73014 5.50718 1.67978 5.38558 1.67978 5.25879V1.43422C1.67978 1.30742 1.73014 1.18582 1.8198 1.09617C1.90946 1.00651 2.03106 0.956143 2.15785 0.956143H9.807C9.93379 0.956143 10.0554 1.00651 10.145 1.09617C10.2347 1.18582 10.2851 1.30742 10.2851 1.43422V5.25879ZM5.98242 1.91229C5.69876 1.91229 5.42147 1.9964 5.18561 2.154C4.94976 2.31159 4.76593 2.53558 4.65738 2.79765C4.54883 3.05972 4.52043 3.34809 4.57576 3.6263C4.6311 3.90451 4.7677 4.16007 4.96828 4.36065C5.16886 4.56122 5.42441 4.69782 5.70262 4.75316C5.98083 4.8085 6.2692 4.7801 6.53127 4.67154C6.79334 4.56299 7.01733 4.37916 7.17493 4.14331C7.33252 3.90745 7.41664 3.63016 7.41664 3.3465C7.41664 2.96612 7.26553 2.60133 6.99657 2.33236C6.7276 2.06339 6.3628 1.91229 5.98242 1.91229ZM5.98242 3.82457C5.88787 3.82457 5.79544 3.79654 5.71682 3.744C5.6382 3.69147 5.57693 3.61681 5.54074 3.52945C5.50456 3.4421 5.49509 3.34597 5.51354 3.25323C5.53198 3.1605 5.57751 3.07531 5.64437 3.00845C5.71123 2.94159 5.79642 2.89606 5.88915 2.87762C5.98189 2.85917 6.07802 2.86864 6.16537 2.90482C6.25273 2.94101 6.32739 3.00228 6.37992 3.0809C6.43246 3.15952 6.46049 3.25195 6.46049 3.3465C6.46049 3.47329 6.41013 3.59489 6.32047 3.68455C6.23081 3.77421 6.10921 3.82457 5.98242 3.82457ZM8.85085 2.86843C8.7563 2.86843 8.66387 2.89647 8.58525 2.949C8.50663 3.00153 8.44536 3.0762 8.40917 3.16355C8.37299 3.25091 8.36352 3.34703 8.38197 3.43977C8.40041 3.53251 8.44594 3.61769 8.5128 3.68455C8.57966 3.75141 8.66485 3.79694 8.75758 3.81539C8.85032 3.83383 8.94645 3.82437 9.0338 3.78818C9.12116 3.752 9.19582 3.69072 9.24835 3.6121C9.30089 3.53349 9.32892 3.44106 9.32892 3.3465C9.32892 3.21971 9.27856 3.09811 9.1889 3.00845C9.09924 2.9188 8.97764 2.86843 8.85085 2.86843Z" fill="#FF8833"/>
</svg>
