<svg width="14" height="14" viewBox="0 0 14 14" fill="none" xmlns="http://www.w3.org/2000/svg">
<g clip-path="url(#clip0_2801_39871)">
<path d="M12.0414 1.23926H1.29141C1.14885 1.23926 1.01214 1.29589 0.911336 1.39669C0.810536 1.49749 0.753906 1.6342 0.753906 1.77676V6.07676C0.753906 6.21931 0.810536 6.35603 0.911336 6.45683C1.01214 6.55763 1.14885 6.61426 1.29141 6.61426H2.90391V11.4518C2.90391 11.5943 2.96054 11.731 3.06134 11.8318C3.16214 11.9326 3.29885 11.9893 3.44141 11.9893H9.89141C10.034 11.9893 10.1707 11.9326 10.2715 11.8318C10.3723 11.731 10.4289 11.5943 10.4289 11.4518V6.61426H12.0414C12.184 6.61426 12.3207 6.55763 12.4215 6.45683C12.5223 6.35603 12.5789 6.21931 12.5789 6.07676V1.77676C12.5789 1.6342 12.5223 1.49749 12.4215 1.39669C12.3207 1.29589 12.184 1.23926 12.0414 1.23926ZM3.97891 10.9143V9.83926C4.26401 9.83926 4.53744 9.95252 4.73905 10.1541C4.94065 10.3557 5.05391 10.6292 5.05391 10.9143H3.97891ZM9.35391 10.9143H8.27891C8.27891 10.6292 8.39217 10.3557 8.59377 10.1541C8.79537 9.95252 9.0688 9.83926 9.35391 9.83926V10.9143ZM9.35391 8.76426C8.78369 8.76426 8.23683 8.99078 7.83363 9.39398C7.43042 9.79718 7.20391 10.344 7.20391 10.9143H6.12891C6.12891 10.344 5.90239 9.79718 5.49919 9.39398C5.09598 8.99078 4.54912 8.76426 3.97891 8.76426V4.46426H9.35391V8.76426ZM11.5039 5.53926H10.4289V3.92676C10.4289 3.7842 10.3723 3.64749 10.2715 3.54669C10.1707 3.44589 10.034 3.38926 9.89141 3.38926H3.44141C3.29885 3.38926 3.16214 3.44589 3.06134 3.54669C2.96054 3.64749 2.90391 3.7842 2.90391 3.92676V5.53926H1.82891V2.31426H11.5039V5.53926ZM6.66641 8.22676C6.98533 8.22676 7.29709 8.13219 7.56226 7.955C7.82744 7.77782 8.03412 7.52598 8.15616 7.23134C8.27821 6.93669 8.31014 6.61247 8.24792 6.29967C8.1857 5.98688 8.03213 5.69956 7.80662 5.47405C7.5811 5.24854 7.29378 5.09496 6.98099 5.03274C6.6682 4.97052 6.34398 5.00246 6.04933 5.1245C5.75468 5.24655 5.50285 5.45323 5.32566 5.7184C5.14848 5.98358 5.05391 6.29534 5.05391 6.61426C5.05391 7.04192 5.22379 7.45207 5.5262 7.75447C5.8286 8.05687 6.23874 8.22676 6.66641 8.22676ZM6.66641 6.07676C6.77271 6.07676 6.87663 6.10828 6.96503 6.16734C7.05342 6.2264 7.12231 6.31035 7.16299 6.40857C7.20367 6.50678 7.21432 6.61485 7.19358 6.71912C7.17284 6.82338 7.12165 6.91916 7.04648 6.99433C6.97131 7.0695 6.87553 7.12069 6.77127 7.14143C6.667 7.16217 6.55893 7.15153 6.46071 7.11084C6.3625 7.07016 6.27855 7.00127 6.21949 6.91288C6.16043 6.82449 6.12891 6.72057 6.12891 6.61426C6.12891 6.4717 6.18554 6.33499 6.28634 6.23419C6.38714 6.13339 6.52385 6.07676 6.66641 6.07676Z" fill="#FF8833"/>
</g>
<defs>
<clipPath id="clip0_2801_39871">
<rect width="12.9" height="12.9" fill="white" transform="translate(0.216797 0.164062)"/>
</clipPath>
</defs>
</svg>
