<svg width="11" height="11" viewBox="0 0 11 11" fill="none" xmlns="http://www.w3.org/2000/svg">
<path d="M9.66926 4.65266C9.64274 4.57586 9.59451 4.50841 9.53042 4.45847C9.46633 4.40854 9.38912 4.37827 9.30817 4.37135L6.91907 4.02285L5.84839 1.85209C5.81401 1.7811 5.76032 1.72123 5.69349 1.67934C5.62666 1.63745 5.54938 1.61523 5.4705 1.61523C5.39162 1.61523 5.31434 1.63745 5.24751 1.67934C5.18067 1.72123 5.12699 1.7811 5.09261 1.85209L4.02193 4.01865L1.63283 4.37135C1.55512 4.38239 1.48207 4.415 1.42195 4.46547C1.36183 4.51593 1.31707 4.58224 1.29273 4.65686C1.27046 4.72978 1.26846 4.8074 1.28695 4.88137C1.30544 4.95534 1.34373 5.02288 1.3977 5.07674L3.13179 6.75624L2.71191 9.14114C2.69692 9.21986 2.70477 9.30122 2.73453 9.37562C2.76429 9.45002 2.81472 9.51435 2.87986 9.56102C2.94336 9.60641 3.01824 9.6332 3.09612 9.63839C3.174 9.64358 3.25178 9.62697 3.32073 9.59041L5.4705 8.46934L7.61187 9.59461C7.6708 9.62785 7.73735 9.64521 7.80501 9.64499C7.89395 9.64531 7.9807 9.61737 8.05274 9.56521C8.11788 9.51855 8.16831 9.45422 8.19807 9.37982C8.22783 9.30542 8.23568 9.22406 8.22069 9.14534L7.80081 6.76044L9.5349 5.08094C9.59552 5.02958 9.64033 4.96207 9.66411 4.88626C9.68789 4.81045 9.68968 4.72945 9.66926 4.65266ZM7.08702 6.33217C7.03778 6.3798 7.00094 6.43875 6.97972 6.50389C6.95849 6.56902 6.95353 6.63836 6.96526 6.70586L7.26757 8.46514L5.68884 7.62539C5.62809 7.59304 5.56032 7.57612 5.49149 7.57612C5.42267 7.57612 5.3549 7.59304 5.29415 7.62539L3.71542 8.46514L4.01773 6.70586C4.02946 6.63836 4.02449 6.56902 4.00327 6.50389C3.98205 6.43875 3.94521 6.3798 3.89596 6.33217L2.63634 5.07254L4.40401 4.81642C4.47203 4.80695 4.53669 4.78095 4.59233 4.74069C4.64796 4.70043 4.69287 4.64714 4.72312 4.58548L5.4705 2.98576L6.25987 4.58968C6.29012 4.65134 6.33502 4.70463 6.39066 4.74489C6.44629 4.78515 6.51095 4.81115 6.57897 4.82061L8.34665 5.07674L7.08702 6.33217Z" fill="#00B1BB"/>
</svg>
