<svg width="11" height="11" viewBox="0 0 11 11" fill="none" xmlns="http://www.w3.org/2000/svg">
<path d="M5.67051 2.27148L4.83076 4.5808L2.10156 4.79074L3.78107 6.68018L3.57113 9.19944L5.67051 7.93981L7.97983 8.9895L7.55995 6.68018L9.02952 4.79074L6.7202 4.37086L5.67051 2.27148Z" fill="#00B1BB"/>
<path d="M9.86946 4.65266C9.84294 4.57586 9.79471 4.50841 9.73062 4.45847C9.66652 4.40854 9.58932 4.37827 9.50836 4.37135L7.11927 4.02285L6.04858 1.85209C6.0142 1.7811 5.96052 1.72123 5.89369 1.67934C5.82685 1.63745 5.74957 1.61523 5.67069 1.61523C5.59182 1.61523 5.51454 1.63745 5.4477 1.67934C5.38087 1.72123 5.32719 1.7811 5.29281 1.85209L4.22212 4.01865L1.83303 4.37135C1.75532 4.38239 1.68226 4.415 1.62215 4.46547C1.56203 4.51593 1.51726 4.58224 1.49293 4.65686C1.47065 4.72978 1.46865 4.8074 1.48715 4.88137C1.50564 4.95534 1.54393 5.02288 1.5979 5.07674L3.33199 6.75624L2.91211 9.14114C2.89712 9.21986 2.90497 9.30122 2.93473 9.37562C2.96449 9.45002 3.01492 9.51435 3.08006 9.56102C3.14355 9.60641 3.21844 9.6332 3.29632 9.63839C3.37419 9.64358 3.45197 9.62697 3.52093 9.59041L5.67069 8.46934L7.81206 9.59461C7.87099 9.62785 7.93755 9.64521 8.00521 9.64499C8.09415 9.64531 8.18089 9.61737 8.25293 9.56521C8.31807 9.51855 8.3685 9.45422 8.39826 9.37982C8.42802 9.30542 8.43587 9.22406 8.42088 9.14534L8.00101 6.76044L9.7351 5.08094C9.79572 5.02958 9.84052 4.96207 9.86431 4.88626C9.88809 4.81045 9.88988 4.72945 9.86946 4.65266ZM7.28722 6.33217C7.23798 6.3798 7.20114 6.43875 7.17991 6.50389C7.15869 6.56902 7.15372 6.63836 7.16545 6.70586L7.46776 8.46514L5.88903 7.62539C5.82828 7.59304 5.76051 7.57612 5.69169 7.57612C5.62286 7.57612 5.5551 7.59304 5.49435 7.62539L3.91561 8.46514L4.21792 6.70586C4.22965 6.63836 4.22469 6.56902 4.20347 6.50389C4.18224 6.43875 4.1454 6.3798 4.09616 6.33217L2.83653 5.07254L4.60421 4.81642C4.67223 4.80695 4.73689 4.78095 4.79252 4.74069C4.84816 4.70043 4.89307 4.64714 4.92332 4.58548L5.67069 2.98576L6.46006 4.58968C6.49031 4.65134 6.53522 4.70463 6.59085 4.74489C6.64649 4.78515 6.71115 4.81115 6.77917 4.82061L8.54685 5.07674L7.28722 6.33217Z" fill="#00B1BB"/>
</svg>
