<svg width="23" height="23" viewBox="0 0 23 23" fill="none" xmlns="http://www.w3.org/2000/svg">
<path d="M14.6946 10.6752L9.34237 5.33245C9.25446 5.24382 9.14988 5.17347 9.03464 5.12546C8.91941 5.07745 8.79581 5.05273 8.67098 5.05273C8.54615 5.05273 8.42255 5.07745 8.30732 5.12546C8.19208 5.17347 8.0875 5.24382 7.99959 5.33245C7.82347 5.50962 7.72461 5.74929 7.72461 5.99911C7.72461 6.24893 7.82347 6.4886 7.99959 6.66577L12.6804 11.3939L7.99959 16.0747C7.82347 16.2519 7.72461 16.4916 7.72461 16.7414C7.72461 16.9912 7.82347 17.2309 7.99959 17.408C8.08717 17.4974 8.19161 17.5685 8.30685 17.6172C8.4221 17.6659 8.54587 17.6912 8.67098 17.6917C8.79609 17.6912 8.91986 17.6659 9.03511 17.6172C9.15035 17.5685 9.25479 17.4974 9.34237 17.408L14.6946 12.0653C14.7906 11.9767 14.8672 11.8693 14.9196 11.7496C14.972 11.63 14.999 11.5008 14.999 11.3702C14.999 11.2397 14.972 11.1105 14.9196 10.9909C14.8672 10.8712 14.7906 10.7638 14.6946 10.6752V10.6752Z" fill="#ACACAC"/>
</svg>
