<svg width="20" height="20" viewBox="0 0 20 20" fill="none" xmlns="http://www.w3.org/2000/svg">
<path d="M14.371 10.5229V7.98392C14.3699 6.85268 13.9684 5.75834 13.2378 4.89471C12.5071 4.03108 11.4944 3.45389 10.379 3.26535V2.39509C10.379 2.18333 10.2949 1.98026 10.1452 1.83053C9.99543 1.6808 9.79235 1.59668 9.5806 1.59668C9.36885 1.59668 9.16578 1.6808 9.01605 1.83053C8.86632 1.98026 8.7822 2.18333 8.7822 2.39509V3.26535C7.66678 3.45389 6.65407 4.03108 5.92342 4.89471C5.19276 5.75834 4.79132 6.85268 4.79017 7.98392V10.5229C4.32426 10.6876 3.92071 10.9924 3.63483 11.3955C3.34895 11.7985 3.19475 12.2802 3.19336 12.7744V14.3712C3.19336 14.5829 3.27748 14.786 3.42721 14.9357C3.57694 15.0855 3.78001 15.1696 3.99176 15.1696H6.49876C6.68262 15.8461 7.08399 16.4434 7.64095 16.8692C8.19792 17.295 8.87952 17.5257 9.5806 17.5257C10.2817 17.5257 10.9633 17.295 11.5203 16.8692C12.0772 16.4434 12.4786 15.8461 12.6624 15.1696H15.1694C15.3812 15.1696 15.5843 15.0855 15.734 14.9357C15.8837 14.786 15.9678 14.5829 15.9678 14.3712V12.7744C15.9665 12.2802 15.8123 11.7985 15.5264 11.3955C15.2405 10.9924 14.8369 10.6876 14.371 10.5229ZM6.38698 7.98392C6.38698 7.13692 6.72345 6.32461 7.32237 5.72569C7.92129 5.12677 8.7336 4.7903 9.5806 4.7903C10.4276 4.7903 11.2399 5.12677 11.8388 5.72569C12.4378 6.32461 12.7742 7.13692 12.7742 7.98392V10.3791H6.38698V7.98392ZM9.5806 15.968C9.30194 15.9663 9.02857 15.8917 8.78765 15.7517C8.54674 15.6116 8.34668 15.4109 8.20735 15.1696H10.9539C10.8145 15.4109 10.6145 15.6116 10.3736 15.7517C10.1326 15.8917 9.85927 15.9663 9.5806 15.968ZM14.371 13.5728H4.79017V12.7744C4.79017 12.5626 4.87429 12.3595 5.02402 12.2098C5.17375 12.0601 5.37683 11.976 5.58858 11.976H13.5726C13.7844 11.976 13.9875 12.0601 14.1372 12.2098C14.2869 12.3595 14.371 12.5626 14.371 12.7744V13.5728Z" fill="white"/>
</svg>
