<svg width="37" height="38" viewBox="0 0 37 38" fill="none" xmlns="http://www.w3.org/2000/svg">
<path d="M33.8641 29.4114L32.3685 23.576L27.6576 6.05446C27.5558 5.66795 27.3067 5.33798 26.9647 5.1368C26.6227 4.93563 26.2158 4.87963 25.8331 4.98109L20.0454 6.49287C19.9073 6.33813 19.739 6.21394 19.5511 6.12808C19.3633 6.04223 19.1599 5.99658 18.9537 5.99398H3.99845C3.60182 5.99398 3.22142 6.15326 2.94096 6.43677C2.66049 6.72029 2.50293 7.10481 2.50293 7.50576V31.6942C2.50293 32.0952 2.66049 32.4797 2.94096 32.7632C3.22142 33.0467 3.60182 33.206 3.99845 33.206H18.9537C19.3503 33.206 19.7307 33.0467 20.0112 32.7632C20.2917 32.4797 20.4492 32.0952 20.4492 31.6942V19.6L23.7394 32.0268C23.827 32.3566 24.0225 32.6467 24.2941 32.8499C24.5657 33.053 24.8973 33.1572 25.2349 33.1455C25.3641 33.1604 25.4945 33.1604 25.6237 33.1455L32.8471 31.1953C33.0381 31.1437 33.217 31.0544 33.3736 30.9324C33.5302 30.8104 33.6613 30.6583 33.7594 30.4848C33.9171 30.1503 33.9542 29.7706 33.8641 29.4114ZM9.93568 30.2429H5.44911V27.2194H9.93568V30.2429ZM9.93568 24.1958H5.44911V15.1251H9.93568V24.1958ZM9.93568 12.1016H5.44911V9.07801H9.93568V12.1016ZM17.4133 30.2429H12.9267V27.2194H17.4133V30.2429ZM17.4133 24.1958H12.9267V15.1251H17.4133V24.1958ZM17.4133 12.1016H12.9267V9.07801H17.4133V12.1016ZM20.7782 9.47108L25.1153 8.29189L25.8929 11.2096L21.5559 12.3888L20.7782 9.47108ZM24.6516 24.0749L22.3336 15.3065L26.6706 14.1274L28.9887 22.8957L24.6516 24.0749ZM26.1472 29.9103L25.3695 26.9926L29.7065 25.8134L30.4842 28.7311L26.1472 29.9103Z" fill="#FF8833"/>
</svg>
