<svg width="28" height="28" viewBox="0 0 28 28" fill="none" xmlns="http://www.w3.org/2000/svg">
<path d="M25.9964 21.6298L24.8744 17.2987L21.34 4.29429C21.2636 4.00743 21.0766 3.76252 20.8201 3.61321C20.5635 3.4639 20.2582 3.42234 19.9711 3.49764L15.6288 4.61968C15.5252 4.50483 15.3989 4.41265 15.2579 4.34893C15.117 4.28521 14.9644 4.25133 14.8097 4.24941H3.58932C3.29174 4.24941 3.00634 4.36762 2.79592 4.57804C2.5855 4.78847 2.46729 5.07386 2.46729 5.37144V23.324C2.46729 23.6216 2.5855 23.907 2.79592 24.1174C3.00634 24.3279 3.29174 24.4461 3.58932 24.4461H14.8097C15.1073 24.4461 15.3927 24.3279 15.6031 24.1174C15.8135 23.907 15.9317 23.6216 15.9317 23.324V14.3477L18.4002 23.5709C18.466 23.8157 18.6127 24.031 18.8164 24.1818C19.0201 24.3325 19.2689 24.4099 19.5223 24.4012C19.6192 24.4122 19.717 24.4122 19.814 24.4012L25.2334 22.9538C25.3767 22.9155 25.511 22.8491 25.6284 22.7586C25.7459 22.6681 25.8443 22.5552 25.9179 22.4264C26.0362 22.1782 26.064 21.8963 25.9964 21.6298ZM8.04381 22.2469H4.6777V20.0028H8.04381V22.2469ZM8.04381 17.7587H4.6777V11.0265H8.04381V17.7587ZM8.04381 8.78244H4.6777V6.53836H8.04381V8.78244ZM13.654 22.2469H10.2879V20.0028H13.654V22.2469ZM13.654 17.7587H10.2879V11.0265H13.654V17.7587ZM13.654 8.78244H10.2879V6.53836H13.654V8.78244ZM16.1786 6.83009L19.4325 5.9549L20.0159 8.12043L16.762 8.99562L16.1786 6.83009ZM19.0847 17.669L17.3455 11.1612L20.5994 10.286L22.3386 16.7938L19.0847 17.669ZM20.2067 22L19.6232 19.8345L22.8771 18.9593L23.4606 21.1248L20.2067 22Z" fill="white"/>
</svg>
