<svg width="30" height="30" viewBox="0 0 30 30" fill="none" xmlns="http://www.w3.org/2000/svg">
<path d="M1.87598 15.5105V20.2735C1.87598 20.5893 2.00143 20.8922 2.22473 21.1155C2.44804 21.3388 2.75091 21.4642 3.06671 21.4642H4.25744C4.25744 22.4116 4.6338 23.3202 5.30372 23.9901C5.97363 24.6601 6.88224 25.0364 7.82964 25.0364C8.77705 25.0364 9.68565 24.6601 10.3556 23.9901C11.0255 23.3202 11.4018 22.4116 11.4018 21.4642H18.5462C18.5462 22.4116 18.9226 23.3202 19.5925 23.9901C20.2624 24.6601 21.171 25.0364 22.1184 25.0364C23.0658 25.0364 23.9745 24.6601 24.6444 23.9901C25.3143 23.3202 25.6906 22.4116 25.6906 21.4642H26.8814C27.1972 21.4642 27.5 21.3388 27.7234 21.1155C27.9467 20.8922 28.0721 20.5893 28.0721 20.2735V8.36615C28.0721 7.41874 27.6958 6.51014 27.0258 5.84022C26.3559 5.1703 25.4473 4.79395 24.4999 4.79395H10.735C9.98671 4.79535 9.25773 5.03171 8.65097 5.46969C8.04421 5.90767 7.59032 6.52514 7.35335 7.23495L5.63869 12.367L2.41181 14.5222C2.24801 14.6301 2.11339 14.7768 2.01991 14.9492C1.92643 15.1216 1.87699 15.3144 1.87598 15.5105ZM25.6906 11.9383H23.3092V7.17541H24.4999C24.8157 7.17541 25.1186 7.30086 25.3419 7.52417C25.5652 7.74748 25.6906 8.05034 25.6906 8.36615V11.9383ZM20.9277 21.4642C20.9277 21.2287 20.9975 20.9985 21.1284 20.8027C21.2592 20.6069 21.4452 20.4542 21.6628 20.3641C21.8803 20.274 22.1198 20.2504 22.3507 20.2964C22.5817 20.3423 22.7939 20.4557 22.9604 20.6222C23.1269 20.7888 23.2404 21.0009 23.2863 21.2319C23.3322 21.4629 23.3087 21.7023 23.2185 21.9199C23.1284 22.1375 22.9758 22.3234 22.78 22.4543C22.5842 22.5851 22.3539 22.6549 22.1184 22.6549C21.8026 22.6549 21.4998 22.5295 21.2765 22.3062C21.0532 22.0829 20.9277 21.78 20.9277 21.4642ZM18.5462 14.3198H25.6906V19.0827H24.7619C24.4271 18.7144 24.019 18.4201 23.5637 18.2187C23.1085 18.0173 22.6162 17.9132 22.1184 17.9132C21.6207 17.9132 21.1284 18.0173 20.6732 18.2187C20.2179 18.4201 19.8098 18.7144 19.475 19.0827H18.5462V14.3198ZM18.5462 7.17541H20.9277V11.9383H18.5462V7.17541ZM13.7833 14.3198H16.1648V19.0827H13.7833V14.3198ZM13.7833 7.17541H16.1648V11.9383H13.7833V7.17541ZM11.4018 11.9383H8.29403L9.60384 7.98511C9.68372 7.74861 9.83591 7.54319 10.0389 7.39789C10.2419 7.25259 10.4854 7.17477 10.735 7.17541H11.4018V11.9383ZM6.63891 21.4642C6.63891 21.2287 6.70875 20.9985 6.83958 20.8027C6.97042 20.6069 7.15639 20.4542 7.37397 20.3641C7.59155 20.274 7.83096 20.2504 8.06194 20.2964C8.29292 20.3423 8.50509 20.4557 8.67162 20.6222C8.83815 20.7888 8.95155 21.0009 8.9975 21.2319C9.04344 21.4629 9.01986 21.7023 8.92974 21.9199C8.83961 22.1375 8.68699 22.3234 8.49118 22.4543C8.29536 22.5851 8.06515 22.6549 7.82964 22.6549C7.51384 22.6549 7.21097 22.5295 6.98767 22.3062C6.76436 22.0829 6.63891 21.78 6.63891 21.4642ZM4.25744 16.1059L6.99613 14.3198H11.4018V19.0827H10.4731C10.1383 18.7144 9.73016 18.4201 9.27493 18.2187C8.81971 18.0173 8.32743 17.9132 7.82964 17.9132C7.33186 17.9132 6.83957 18.0173 6.38435 18.2187C5.92913 18.4201 5.52103 18.7144 5.18622 19.0827H4.25744V16.1059Z" fill="white"/>
</svg>
