<svg width="12" height="12" viewBox="0 0 12 12" fill="none" xmlns="http://www.w3.org/2000/svg">
<g clip-path="url(#clip0_3071_45965)">
<path d="M6.05853 9.59198C6.15112 9.59198 6.24162 9.56453 6.3186 9.51309C6.39558 9.46166 6.45558 9.38855 6.49101 9.30301C6.52644 9.21748 6.53571 9.12335 6.51765 9.03255C6.49959 8.94175 6.455 8.85834 6.38954 8.79287C6.32407 8.7274 6.24066 8.68282 6.14986 8.66476C6.05905 8.6467 5.96493 8.65597 5.8794 8.6914C5.79386 8.72683 5.72075 8.78683 5.66932 8.86381C5.61788 8.94079 5.59043 9.03129 5.59043 9.12387C5.59043 9.24802 5.63974 9.36709 5.72753 9.45488C5.81532 9.54267 5.93438 9.59198 6.05853 9.59198ZM8.39908 9.59198C8.49166 9.59198 8.58217 9.56453 8.65915 9.51309C8.73613 9.46166 8.79613 9.38855 8.83156 9.30301C8.86699 9.21748 8.87626 9.12335 8.8582 9.03255C8.84013 8.94175 8.79555 8.85834 8.73008 8.79287C8.66462 8.7274 8.58121 8.68282 8.49041 8.66476C8.3996 8.6467 8.30548 8.65597 8.21994 8.6914C8.13441 8.72683 8.0613 8.78683 8.00986 8.86381C7.95843 8.94079 7.93097 9.03129 7.93097 9.12387C7.93097 9.24802 7.98029 9.36709 8.06808 9.45488C8.15586 9.54267 8.27493 9.59198 8.39908 9.59198ZM8.39908 7.71955C8.49166 7.71955 8.58217 7.69209 8.65915 7.64066C8.73613 7.58922 8.79613 7.51611 8.83156 7.43057C8.86699 7.34504 8.87626 7.25092 8.8582 7.16011C8.84013 7.06931 8.79555 6.9859 8.73008 6.92043C8.66462 6.85497 8.58121 6.81038 8.49041 6.79232C8.3996 6.77426 8.30548 6.78353 8.21994 6.81896C8.13441 6.85439 8.0613 6.91439 8.00986 6.99137C7.95843 7.06835 7.93097 7.15885 7.93097 7.25144C7.93097 7.37559 7.98029 7.49465 8.06808 7.58244C8.15586 7.67023 8.27493 7.71955 8.39908 7.71955ZM6.05853 7.71955C6.15112 7.71955 6.24162 7.69209 6.3186 7.64066C6.39558 7.58922 6.45558 7.51611 6.49101 7.43057C6.52644 7.34504 6.53571 7.25092 6.51765 7.16011C6.49959 7.06931 6.455 6.9859 6.38954 6.92043C6.32407 6.85497 6.24066 6.81038 6.14986 6.79232C6.05905 6.77426 5.96493 6.78353 5.8794 6.81896C5.79386 6.85439 5.72075 6.91439 5.66932 6.99137C5.61788 7.06835 5.59043 7.15885 5.59043 7.25144C5.59043 7.37559 5.63974 7.49465 5.72753 7.58244C5.81532 7.67023 5.93438 7.71955 6.05853 7.71955ZM9.3353 2.10223H8.86719V1.63412C8.86719 1.50997 8.81787 1.39091 8.73008 1.30312C8.6423 1.21533 8.52323 1.16602 8.39908 1.16602C8.27493 1.16602 8.15586 1.21533 8.06808 1.30312C7.98029 1.39091 7.93097 1.50997 7.93097 1.63412V2.10223H4.1861V1.63412C4.1861 1.50997 4.13678 1.39091 4.04899 1.30312C3.9612 1.21533 3.84214 1.16602 3.71799 1.16602C3.59384 1.16602 3.47477 1.21533 3.38698 1.30312C3.2992 1.39091 3.24988 1.50997 3.24988 1.63412V2.10223H2.78177C2.40932 2.10223 2.05212 2.25019 1.78876 2.51355C1.5254 2.77692 1.37744 3.13411 1.37744 3.50656V10.0601C1.37744 10.4325 1.5254 10.7897 1.78876 11.0531C2.05212 11.3165 2.40932 11.4644 2.78177 11.4644H9.3353C9.70775 11.4644 10.0649 11.3165 10.3283 11.0531C10.5917 10.7897 10.7396 10.4325 10.7396 10.0601V3.50656C10.7396 3.13411 10.5917 2.77692 10.3283 2.51355C10.0649 2.25019 9.70775 2.10223 9.3353 2.10223ZM9.80341 10.0601C9.80341 10.1842 9.75409 10.3033 9.6663 10.3911C9.57852 10.4789 9.45945 10.5282 9.3353 10.5282H2.78177C2.65762 10.5282 2.53855 10.4789 2.45077 10.3911C2.36298 10.3033 2.31366 10.1842 2.31366 10.0601V5.84711H9.80341V10.0601ZM9.80341 4.91089H2.31366V3.50656C2.31366 3.38241 2.36298 3.26335 2.45077 3.17556C2.53855 3.08777 2.65762 3.03845 2.78177 3.03845H3.24988V3.50656C3.24988 3.63071 3.2992 3.74978 3.38698 3.83757C3.47477 3.92535 3.59384 3.97467 3.71799 3.97467C3.84214 3.97467 3.9612 3.92535 4.04899 3.83757C4.13678 3.74978 4.1861 3.63071 4.1861 3.50656V3.03845H7.93097V3.50656C7.93097 3.63071 7.98029 3.74978 8.06808 3.83757C8.15586 3.92535 8.27493 3.97467 8.39908 3.97467C8.52323 3.97467 8.6423 3.92535 8.73008 3.83757C8.81787 3.74978 8.86719 3.63071 8.86719 3.50656V3.03845H9.3353C9.45945 3.03845 9.57852 3.08777 9.6663 3.17556C9.75409 3.26335 9.80341 3.38241 9.80341 3.50656V4.91089ZM3.71799 7.71955C3.81057 7.71955 3.90108 7.69209 3.97806 7.64066C4.05504 7.58922 4.11503 7.51611 4.15046 7.43057C4.18589 7.34504 4.19516 7.25092 4.1771 7.16011C4.15904 7.06931 4.11446 6.9859 4.04899 6.92043C3.98352 6.85497 3.90012 6.81038 3.80931 6.79232C3.71851 6.77426 3.62439 6.78353 3.53885 6.81896C3.45331 6.85439 3.38021 6.91439 3.32877 6.99137C3.27733 7.06835 3.24988 7.15885 3.24988 7.25144C3.24988 7.37559 3.2992 7.49465 3.38698 7.58244C3.47477 7.67023 3.59384 7.71955 3.71799 7.71955ZM3.71799 9.59198C3.81057 9.59198 3.90108 9.56453 3.97806 9.51309C4.05504 9.46166 4.11503 9.38855 4.15046 9.30301C4.18589 9.21748 4.19516 9.12335 4.1771 9.03255C4.15904 8.94175 4.11446 8.85834 4.04899 8.79287C3.98352 8.7274 3.90012 8.68282 3.80931 8.66476C3.71851 8.6467 3.62439 8.65597 3.53885 8.6914C3.45331 8.72683 3.38021 8.78683 3.32877 8.86381C3.27733 8.94079 3.24988 9.03129 3.24988 9.12387C3.24988 9.24802 3.2992 9.36709 3.38698 9.45488C3.47477 9.54267 3.59384 9.59198 3.71799 9.59198Z" fill="white"/>
</g>
<defs>
<clipPath id="clip0_3071_45965">
<rect width="11.2346" height="11.2346" fill="white" transform="translate(0.441406 0.698242)"/>
</clipPath>
</defs>
</svg>
