<svg width="12" height="13" viewBox="0 0 12 13" fill="none" xmlns="http://www.w3.org/2000/svg">
<path d="M6.17851 10.0659C6.27307 10.0659 6.36551 10.0378 6.44413 9.98528C6.52276 9.93274 6.58404 9.85807 6.62022 9.77071C6.65641 9.68335 6.66588 9.58722 6.64743 9.49448C6.62898 9.40173 6.58345 9.31654 6.51658 9.24968C6.44972 9.18281 6.36453 9.13728 6.27179 9.11883C6.17904 9.10038 6.08291 9.10985 5.99555 9.14604C5.90819 9.18222 5.83352 9.2435 5.78098 9.32213C5.72845 9.40075 5.70041 9.49319 5.70041 9.58775C5.70041 9.71455 5.75078 9.83616 5.84044 9.92582C5.9301 10.0155 6.05171 10.0659 6.17851 10.0659ZM8.56904 10.0659C8.6636 10.0659 8.75604 10.0378 8.83466 9.98528C8.91328 9.93274 8.97456 9.85807 9.01075 9.77071C9.04694 9.68335 9.0564 9.58722 9.03796 9.49448C9.01951 9.40173 8.97397 9.31654 8.90711 9.24968C8.84025 9.18281 8.75506 9.13728 8.66231 9.11883C8.56957 9.10038 8.47344 9.10985 8.38608 9.14604C8.29871 9.18222 8.22404 9.2435 8.17151 9.32213C8.11897 9.40075 8.09093 9.49319 8.09093 9.58775C8.09093 9.71455 8.1413 9.83616 8.23097 9.92582C8.32063 10.0155 8.44224 10.0659 8.56904 10.0659ZM8.56904 8.15343C8.6636 8.15343 8.75604 8.12539 8.83466 8.07286C8.91328 8.02032 8.97456 7.94565 9.01075 7.85829C9.04694 7.77093 9.0564 7.6748 9.03796 7.58205C9.01951 7.48931 8.97397 7.40412 8.90711 7.33726C8.84025 7.27039 8.75506 7.22486 8.66231 7.20641C8.56957 7.18796 8.47344 7.19743 8.38608 7.23362C8.29871 7.2698 8.22404 7.33108 8.17151 7.40971C8.11897 7.48833 8.09093 7.58077 8.09093 7.67533C8.09093 7.80213 8.1413 7.92374 8.23097 8.0134C8.32063 8.10306 8.44224 8.15343 8.56904 8.15343ZM6.17851 8.15343C6.27307 8.15343 6.36551 8.12539 6.44413 8.07286C6.52276 8.02032 6.58404 7.94565 6.62022 7.85829C6.65641 7.77093 6.66588 7.6748 6.64743 7.58205C6.62898 7.48931 6.58345 7.40412 6.51658 7.33726C6.44972 7.27039 6.36453 7.22486 6.27179 7.20641C6.17904 7.18796 6.08291 7.19743 5.99555 7.23362C5.90819 7.2698 5.83352 7.33108 5.78098 7.40971C5.72845 7.48833 5.70041 7.58077 5.70041 7.67533C5.70041 7.80213 5.75078 7.92374 5.84044 8.0134C5.9301 8.10306 6.05171 8.15343 6.17851 8.15343ZM9.52525 2.41617H9.04714V1.93807C9.04714 1.81126 8.99677 1.68966 8.90711 1.59999C8.81745 1.51033 8.69584 1.45996 8.56904 1.45996C8.44224 1.45996 8.32063 1.51033 8.23097 1.59999C8.1413 1.68966 8.09093 1.81126 8.09093 1.93807V2.41617H4.26609V1.93807C4.26609 1.81126 4.21572 1.68966 4.12606 1.59999C4.0364 1.51033 3.91479 1.45996 3.78799 1.45996C3.66119 1.45996 3.53958 1.51033 3.44992 1.59999C3.36025 1.68966 3.30988 1.81126 3.30988 1.93807V2.41617H2.83178C2.45137 2.41617 2.08655 2.56729 1.81756 2.83627C1.54858 3.10526 1.39746 3.47008 1.39746 3.85049V10.544C1.39746 10.9244 1.54858 11.2892 1.81756 11.5582C2.08655 11.8272 2.45137 11.9783 2.83178 11.9783H9.52525C9.90565 11.9783 10.2705 11.8272 10.5395 11.5582C10.8084 11.2892 10.9596 10.9244 10.9596 10.544V3.85049C10.9596 3.47008 10.8084 3.10526 10.5395 2.83627C10.2705 2.56729 9.90565 2.41617 9.52525 2.41617ZM10.0034 10.544C10.0034 10.6708 9.95298 10.7924 9.86332 10.882C9.77366 10.9717 9.65205 11.0221 9.52525 11.0221H2.83178C2.70498 11.0221 2.58337 10.9717 2.49371 10.882C2.40404 10.7924 2.35367 10.6708 2.35367 10.544V6.24101H10.0034V10.544ZM10.0034 5.2848H2.35367V3.85049C2.35367 3.72369 2.40404 3.60208 2.49371 3.51242C2.58337 3.42275 2.70498 3.37238 2.83178 3.37238H3.30988V3.85049C3.30988 3.97729 3.36025 4.0989 3.44992 4.18856C3.53958 4.27822 3.66119 4.32859 3.78799 4.32859C3.91479 4.32859 4.0364 4.27822 4.12606 4.18856C4.21572 4.0989 4.26609 3.97729 4.26609 3.85049V3.37238H8.09093V3.85049C8.09093 3.97729 8.1413 4.0989 8.23097 4.18856C8.32063 4.27822 8.44224 4.32859 8.56904 4.32859C8.69584 4.32859 8.81745 4.27822 8.90711 4.18856C8.99677 4.0989 9.04714 3.97729 9.04714 3.85049V3.37238H9.52525C9.65205 3.37238 9.77366 3.42275 9.86332 3.51242C9.95298 3.60208 10.0034 3.72369 10.0034 3.85049V5.2848ZM3.78799 8.15343C3.88255 8.15343 3.97498 8.12539 4.05361 8.07286C4.13223 8.02032 4.19351 7.94565 4.2297 7.85829C4.26588 7.77093 4.27535 7.6748 4.25691 7.58205C4.23846 7.48931 4.19292 7.40412 4.12606 7.33726C4.05919 7.27039 3.974 7.22486 3.88126 7.20641C3.78852 7.18796 3.69239 7.19743 3.60502 7.23362C3.51766 7.2698 3.44299 7.33108 3.39046 7.40971C3.33792 7.48833 3.30988 7.58077 3.30988 7.67533C3.30988 7.80213 3.36025 7.92374 3.44992 8.0134C3.53958 8.10306 3.66119 8.15343 3.78799 8.15343ZM3.78799 10.0659C3.88255 10.0659 3.97498 10.0378 4.05361 9.98528C4.13223 9.93274 4.19351 9.85807 4.2297 9.77071C4.26588 9.68335 4.27535 9.58722 4.25691 9.49448C4.23846 9.40173 4.19292 9.31654 4.12606 9.24968C4.05919 9.18281 3.974 9.13728 3.88126 9.11883C3.78852 9.10038 3.69239 9.10985 3.60502 9.14604C3.51766 9.18222 3.44299 9.2435 3.39046 9.32213C3.33792 9.40075 3.30988 9.49319 3.30988 9.58775C3.30988 9.71455 3.36025 9.83616 3.44992 9.92582C3.53958 10.0155 3.66119 10.0659 3.78799 10.0659Z" fill="#ACACAC"/>
</svg>
