<svg width="16" height="16" viewBox="0 0 16 16" fill="none" xmlns="http://www.w3.org/2000/svg">
<path d="M12.2683 3.69434H3.61261C3.12069 3.69434 2.64891 3.88975 2.30107 4.23759C1.95323 4.58543 1.75781 5.05721 1.75781 5.54913V11.1135C1.75781 11.6054 1.95323 12.0772 2.30107 12.4251C2.64891 12.7729 3.12069 12.9683 3.61261 12.9683H12.2683C12.7602 12.9683 13.232 12.7729 13.5799 12.4251C13.9277 12.0772 14.1231 11.6054 14.1231 11.1135V5.54913C14.1231 5.05721 13.9277 4.58543 13.5799 4.23759C13.232 3.88975 12.7602 3.69434 12.2683 3.69434ZM12.8866 11.1135C12.8866 11.2775 12.8215 11.4348 12.7055 11.5507C12.5896 11.6666 12.4323 11.7318 12.2683 11.7318H3.61261C3.44863 11.7318 3.29138 11.6666 3.17543 11.5507C3.05948 11.4348 2.99434 11.2775 2.99434 11.1135V5.54913C2.99434 5.38516 3.05948 5.2279 3.17543 5.11195C3.29138 4.99601 3.44863 4.93087 3.61261 4.93087H12.2683C12.4323 4.93087 12.5896 4.99601 12.7055 5.11195C12.8215 5.2279 12.8866 5.38516 12.8866 5.54913V11.1135ZM10.4135 7.40393C10.0848 7.40623 9.76263 7.49585 9.47995 7.6636C9.19833 7.4965 8.8775 7.40693 8.55005 7.404C8.2226 7.40107 7.90021 7.48489 7.61565 7.64692C7.33109 7.80896 7.0945 8.04344 6.92993 8.32654C6.76535 8.60964 6.67866 8.93126 6.67866 9.25872C6.67866 9.58618 6.76535 9.90781 6.92993 10.1909C7.0945 10.474 7.33109 10.7085 7.61565 10.8705C7.90021 11.0326 8.2226 11.1164 8.55005 11.1134C8.8775 11.1105 9.19833 11.021 9.47995 10.8538C9.72589 10.9998 10.0022 11.0868 10.2874 11.1083C10.5726 11.1297 10.8589 11.0849 11.1238 10.9773C11.3888 10.8698 11.6254 10.7024 11.8149 10.4884C12.0045 10.2743 12.1421 10.0192 12.2168 9.74318C12.2915 9.46713 12.3013 9.17755 12.2456 8.89706C12.1898 8.61658 12.07 8.35278 11.8954 8.12629C11.7208 7.8998 11.4962 7.71674 11.2391 7.59143C10.982 7.46612 10.6995 7.40195 10.4135 7.40393ZM8.66384 9.87699C8.62887 9.87997 8.5937 9.87997 8.55873 9.87699C8.39476 9.87699 8.2375 9.81185 8.12155 9.6959C8.00561 9.57996 7.94047 9.4227 7.94047 9.25872C7.94047 9.09475 8.00561 8.93749 8.12155 8.82155C8.2375 8.7056 8.39476 8.64046 8.55873 8.64046C8.5937 8.63748 8.62887 8.63748 8.66384 8.64046C8.52393 9.02378 8.52393 9.44421 8.66384 9.82753V9.87699ZM10.4135 9.87699C10.2912 9.87699 10.1717 9.84073 10.07 9.77279C9.96836 9.70486 9.88912 9.6083 9.84233 9.49532C9.79553 9.38235 9.78329 9.25804 9.80714 9.13811C9.831 9.01818 9.88988 8.90801 9.97635 8.82155C10.0628 8.73508 10.173 8.67619 10.2929 8.65234C10.4128 8.62848 10.5372 8.64073 10.6501 8.68752C10.7631 8.73432 10.8597 8.81356 10.9276 8.91523C10.9955 9.01691 11.0318 9.13644 11.0318 9.25872C11.0318 9.4227 10.9667 9.57996 10.8507 9.6959C10.7348 9.81185 10.5775 9.87699 10.4135 9.87699Z" fill="white"/>
</svg>
