<svg width="15" height="15" viewBox="0 0 15 15" fill="none" xmlns="http://www.w3.org/2000/svg">
<path d="M6.7294 2.0752C5.62221 2.0752 4.53989 2.40352 3.61929 3.01864C2.6987 3.63376 1.98118 4.50806 1.55748 5.53097C1.13377 6.55388 1.02291 7.67946 1.23892 8.76538C1.45492 9.85129 1.98808 10.8488 2.77098 11.6317C3.55388 12.4146 4.55136 12.9477 5.63728 13.1637C6.7232 13.3797 7.84878 13.2689 8.87169 12.8452C9.8946 12.4215 10.7689 11.704 11.384 10.7834C11.9991 9.86277 12.3275 8.78044 12.3275 7.67325C12.3275 6.9381 12.1827 6.21015 11.9013 5.53097C11.62 4.85178 11.2077 4.23465 10.6878 3.71483C10.168 3.195 9.55087 2.78265 8.87169 2.50132C8.1925 2.21999 7.46455 2.0752 6.7294 2.0752ZM6.7294 12.1517C5.84365 12.1517 4.97779 11.889 4.24131 11.3969C3.50484 10.9048 2.93083 10.2054 2.59186 9.38708C2.2529 8.56875 2.16421 7.66828 2.33701 6.79955C2.50981 5.93082 2.93635 5.13283 3.56267 4.50651C4.18899 3.88019 4.98697 3.45366 5.8557 3.28086C6.72444 3.10806 7.6249 3.19674 8.44323 3.53571C9.26156 3.87467 9.961 4.44868 10.4531 5.18516C10.9452 5.92164 11.2078 6.7875 11.2078 7.67325C11.2078 8.86101 10.736 10.0001 9.89614 10.84C9.05627 11.6799 7.91716 12.1517 6.7294 12.1517ZM6.7294 4.31442C6.58094 4.31442 6.43855 4.3734 6.33356 4.47838C6.22858 4.58336 6.1696 4.72575 6.1696 4.87422V7.34856L4.99401 8.02593C4.88617 8.08704 4.80165 8.18221 4.75373 8.29653C4.7058 8.41084 4.69717 8.53783 4.72919 8.65757C4.76121 8.77732 4.83206 8.88305 4.93064 8.95819C5.02923 9.03333 5.14996 9.07363 5.27391 9.07276C5.37197 9.07344 5.4685 9.04835 5.55381 8.99999L7.00931 8.16028L7.05969 8.1099L7.14926 8.03712C7.17115 8.00941 7.18992 7.97937 7.20524 7.94755C7.22348 7.9175 7.2385 7.8856 7.25002 7.85239C7.26525 7.81679 7.2747 7.779 7.27801 7.74043L7.28921 7.67325V4.87422C7.28921 4.72575 7.23023 4.58336 7.12525 4.47838C7.02026 4.3734 6.87787 4.31442 6.7294 4.31442Z" fill="#ACACAC"/>
</svg>
