<svg width="13" height="13" viewBox="0 0 13 13" fill="none" xmlns="http://www.w3.org/2000/svg">
<path d="M4.28569 6.41671C4.18696 6.41671 4.09044 6.44599 4.00835 6.50084C3.92625 6.5557 3.86227 6.63366 3.82448 6.72488C3.7867 6.8161 3.77681 6.91647 3.79608 7.01331C3.81534 7.11015 3.86288 7.1991 3.9327 7.26891C4.00251 7.33873 4.09146 7.38627 4.1883 7.40554C4.28514 7.4248 4.38551 7.41491 4.47673 7.37713C4.56795 7.33934 4.64592 7.27536 4.70077 7.19326C4.75562 7.11117 4.7849 7.01465 4.7849 6.91592C4.7849 6.78352 4.73231 6.65654 4.63869 6.56292C4.54507 6.4693 4.41809 6.41671 4.28569 6.41671ZM6.28253 6.41671C6.1838 6.41671 6.08728 6.44599 6.00518 6.50084C5.92309 6.5557 5.8591 6.63366 5.82132 6.72488C5.78354 6.8161 5.77365 6.91647 5.79291 7.01331C5.81217 7.11015 5.85972 7.1991 5.92954 7.26891C5.99935 7.33873 6.0883 7.38627 6.18514 7.40554C6.28198 7.4248 6.38235 7.41491 6.47357 7.37713C6.56479 7.33934 6.64275 7.27536 6.69761 7.19326C6.75246 7.11117 6.78174 7.01465 6.78174 6.91592C6.78174 6.78352 6.72914 6.65654 6.63552 6.56292C6.5419 6.4693 6.41493 6.41671 6.28253 6.41671ZM8.27937 6.41671C8.18063 6.41671 8.08412 6.44599 8.00202 6.50084C7.91993 6.5557 7.85594 6.63366 7.81816 6.72488C7.78037 6.8161 7.77049 6.91647 7.78975 7.01331C7.80901 7.11015 7.85656 7.1991 7.92637 7.26891C7.99619 7.33873 8.08514 7.38627 8.18198 7.40554C8.27881 7.4248 8.37919 7.41491 8.47041 7.37713C8.56162 7.33934 8.63959 7.27536 8.69444 7.19326C8.7493 7.11117 8.77858 7.01465 8.77858 6.91592C8.77858 6.78352 8.72598 6.65654 8.63236 6.56292C8.53874 6.4693 8.41176 6.41671 8.27937 6.41671ZM6.28253 1.92383C5.62696 1.92383 4.97781 2.05295 4.37214 2.30383C3.76647 2.5547 3.21615 2.92242 2.75259 3.38598C1.81639 4.32218 1.29044 5.59193 1.29044 6.91592C1.28607 8.06866 1.68521 9.18659 2.41865 10.0759L1.42023 11.0743C1.35096 11.1445 1.30404 11.2337 1.28538 11.3305C1.26672 11.4274 1.27717 11.5276 1.3154 11.6185C1.35686 11.7083 1.42408 11.7838 1.50852 11.8353C1.59295 11.8869 1.6908 11.9122 1.78965 11.908H6.28253C7.60651 11.908 8.87627 11.3821 9.81247 10.4459C10.7487 9.50966 11.2746 8.2399 11.2746 6.91592C11.2746 5.59193 10.7487 4.32218 9.81247 3.38598C8.87627 2.44978 7.60651 1.92383 6.28253 1.92383ZM6.28253 10.9096H2.99274L3.45701 10.4453C3.50418 10.3991 3.5417 10.344 3.56741 10.2831C3.59312 10.2223 3.60649 10.1569 3.60677 10.0909C3.60489 9.95921 3.55106 9.83361 3.45701 9.74144C2.80333 9.0885 2.39627 8.22911 2.30518 7.30969C2.21408 6.39028 2.44458 5.46772 2.95741 4.69919C3.47024 3.93067 4.23367 3.36373 5.11763 3.09496C6.00159 2.82619 6.9514 2.87223 7.80523 3.22522C8.65905 3.57822 9.36407 4.21633 9.80018 5.03085C10.2363 5.84537 10.3765 6.7859 10.1969 7.69219C10.0173 8.59849 9.52904 9.41448 8.81529 10.0012C8.10153 10.5878 7.20645 10.9089 6.28253 10.9096Z" fill="#00B1BB"/>
</svg>
