<svg width="21" height="20" viewBox="0 0 21 20" fill="none" xmlns="http://www.w3.org/2000/svg">
<path d="M17.9027 7.62464L16.3938 7.12165L17.1043 5.70049C17.1764 5.55173 17.2005 5.38429 17.1733 5.22126C17.1461 5.05823 17.069 4.90766 16.9526 4.7903L15.252 3.0897C15.1341 2.97161 14.982 2.89346 14.8173 2.86625C14.6526 2.83904 14.4836 2.86413 14.3339 2.938L12.9127 3.64858L12.4097 2.1396C12.3566 1.98231 12.2558 1.84549 12.1212 1.74818C11.9867 1.65087 11.8252 1.59792 11.6592 1.59668H9.26399C9.09661 1.59625 8.93332 1.64843 8.79722 1.74586C8.66111 1.84328 8.55907 1.98102 8.5055 2.1396L8.00251 3.64858L6.58135 2.938C6.43259 2.86597 6.26515 2.84188 6.10212 2.86905C5.93909 2.89622 5.78852 2.97332 5.67116 3.0897L3.97056 4.7903C3.85246 4.90828 3.77432 5.06031 3.74711 5.225C3.7199 5.3897 3.74499 5.55878 3.81886 5.70847L4.52944 7.12963L3.02046 7.63263C2.86317 7.68575 2.72635 7.78658 2.62904 7.9211C2.53173 8.05561 2.47877 8.21711 2.47754 8.38313V10.7783C2.47711 10.9457 2.52929 11.109 2.62672 11.2451C2.72414 11.3812 2.86188 11.4833 3.02046 11.5368L4.52944 12.0398L3.81886 13.461C3.74683 13.6097 3.72274 13.7772 3.74991 13.9402C3.77708 14.1032 3.85418 14.2538 3.97056 14.3712L5.67116 16.0718C5.78914 16.1899 5.94117 16.268 6.10586 16.2952C6.27056 16.3224 6.43964 16.2973 6.58933 16.2235L8.01049 15.5129L8.51349 17.0219C8.56705 17.1805 8.6691 17.3182 8.8052 17.4156C8.94131 17.513 9.10459 17.5652 9.27197 17.5648H11.6672C11.8346 17.5652 11.9979 17.513 12.134 17.4156C12.2701 17.3182 12.3721 17.1805 12.4257 17.0219L12.9287 15.5129L14.3498 16.2235C14.4976 16.2937 14.6634 16.3168 14.8248 16.2897C14.9862 16.2625 15.1353 16.1865 15.252 16.0718L16.9526 14.3712C17.0707 14.2532 17.1489 14.1012 17.1761 13.9365C17.2033 13.7718 17.1782 13.6027 17.1043 13.453L16.3938 12.0318L17.9027 11.5288C18.06 11.4757 18.1968 11.3749 18.2942 11.2404C18.3915 11.1059 18.4444 10.9444 18.4457 10.7783V8.38313C18.4461 8.21575 18.3939 8.05247 18.2965 7.91636C18.1991 7.78025 18.0613 7.67821 17.9027 7.62464ZM16.8488 10.2035L15.8908 10.5229C15.6704 10.5943 15.4683 10.7129 15.2984 10.8702C15.1285 11.0276 14.9948 11.2201 14.9067 11.4343C14.8186 11.6485 14.7781 11.8793 14.7881 12.1107C14.7981 12.3421 14.8583 12.5686 14.9646 12.7744L15.4197 13.6845L14.5415 14.5628L13.6552 14.0837C13.4505 13.9817 13.2262 13.9249 12.9976 13.9171C12.769 13.9093 12.5413 13.9507 12.3301 14.0386C12.1189 14.1264 11.929 14.2585 11.7733 14.4261C11.6176 14.5937 11.4997 14.7928 11.4277 15.0099L11.1083 15.968H9.83884L9.51948 15.0099C9.44801 14.7896 9.32948 14.5875 9.17209 14.4175C9.01471 14.2476 8.82224 14.1139 8.60804 14.0258C8.39383 13.9377 8.16303 13.8973 7.93163 13.9073C7.70023 13.9173 7.47378 13.9775 7.26798 14.0837L6.35779 14.5388L5.47955 13.6606L5.95859 12.7744C6.06485 12.5686 6.12507 12.3421 6.13507 12.1107C6.14507 11.8793 6.10462 11.6485 6.01651 11.4343C5.92839 11.2201 5.79474 11.0276 5.62481 10.8702C5.45489 10.7129 5.25275 10.5943 5.03244 10.5229L4.07435 10.2035V8.95798L5.03244 8.63862C5.25275 8.56716 5.45489 8.44862 5.62481 8.29123C5.79474 8.13385 5.92839 7.94138 6.01651 7.72718C6.10462 7.51297 6.14507 7.28217 6.13507 7.05077C6.12507 6.81937 6.06485 6.59292 5.95859 6.38712L5.5035 5.50089L6.38174 4.62264L7.26798 5.07773C7.47378 5.18399 7.70023 5.24421 7.93163 5.25421C8.16303 5.26422 8.39383 5.22376 8.60804 5.13565C8.82224 5.04753 9.01471 4.91388 9.17209 4.74395C9.32948 4.57403 9.44801 4.37189 9.51948 4.15158L9.83884 3.19349H11.0844L11.4037 4.15158C11.4752 4.37189 11.5937 4.57403 11.7511 4.74395C11.9085 4.91388 12.101 5.04753 12.3152 5.13565C12.5294 5.22376 12.7602 5.26422 12.9916 5.25421C13.223 5.24421 13.4494 5.18399 13.6552 5.07773L14.5654 4.62264L15.4436 5.50089L14.9646 6.38712C14.8626 6.59186 14.8058 6.81614 14.798 7.04475C14.7902 7.27337 14.8316 7.50099 14.9194 7.71222C15.0072 7.92344 15.1394 8.11332 15.307 8.26902C15.4746 8.42472 15.6737 8.5426 15.8908 8.61467L16.8488 8.93403V10.2035ZM10.4616 6.38712C9.82996 6.38712 9.2125 6.57442 8.68732 6.92534C8.16213 7.27626 7.75279 7.77503 7.51107 8.35859C7.26936 8.94215 7.20611 9.58428 7.32934 10.2038C7.45257 10.8233 7.75673 11.3923 8.20337 11.839C8.65 12.2856 9.21905 12.5898 9.83855 12.713C10.4581 12.8362 11.1002 12.773 11.6837 12.5313C12.2673 12.2895 12.7661 11.8802 13.117 11.355C13.4679 10.8298 13.6552 10.2124 13.6552 9.58074C13.6552 8.73374 13.3187 7.92143 12.7198 7.32251C12.1209 6.72359 11.3086 6.38712 10.4616 6.38712V6.38712ZM10.4616 11.1775C10.1458 11.1775 9.83705 11.0839 9.57446 10.9084C9.31186 10.733 9.10719 10.4836 8.98634 10.1918C8.86548 9.90003 8.83385 9.57897 8.89547 9.26922C8.95708 8.95946 9.10916 8.67494 9.33248 8.45162C9.5558 8.2283 9.84032 8.07622 10.1501 8.01461C10.4598 7.953 10.7809 7.98462 11.0727 8.10548C11.3644 8.22634 11.6138 8.431 11.7893 8.6936C11.9648 8.95619 12.0584 9.26492 12.0584 9.58074C12.0584 10.0042 11.8902 10.4104 11.5907 10.7099C11.2913 11.0093 10.8851 11.1775 10.4616 11.1775Z" fill="white"/>
</svg>
