<svg width="14" height="14" viewBox="0 0 14 14" fill="none" xmlns="http://www.w3.org/2000/svg">
<path d="M7.31637 5.64941C7.10094 5.64941 6.89036 5.71329 6.71125 5.83297C6.53213 5.95266 6.39253 6.12276 6.31009 6.32179C6.22765 6.52081 6.20608 6.73981 6.24811 6.95109C6.29014 7.16237 6.39387 7.35644 6.5462 7.50877C6.69852 7.66109 6.8926 7.76483 7.10388 7.80685C7.31516 7.84888 7.53416 7.82731 7.73318 7.74487C7.9322 7.66243 8.10231 7.52283 8.22199 7.34372C8.34167 7.1646 8.40555 6.95402 8.40555 6.7386C8.40555 6.44973 8.2908 6.17269 8.08653 5.96843C7.88227 5.76417 7.60523 5.64941 7.31637 5.64941ZM3.50422 5.64941C3.2888 5.64941 3.07822 5.71329 2.89911 5.83297C2.71999 5.95266 2.58039 6.12276 2.49795 6.32179C2.41551 6.52081 2.39394 6.73981 2.43597 6.95109C2.47799 7.16237 2.58173 7.35644 2.73405 7.50877C2.88638 7.66109 3.08045 7.76483 3.29173 7.80685C3.50301 7.84888 3.72201 7.82731 3.92104 7.74487C4.12006 7.66243 4.29016 7.52283 4.40985 7.34372C4.52953 7.1646 4.59341 6.95402 4.59341 6.7386C4.59341 6.44973 4.47865 6.17269 4.27439 5.96843C4.07013 5.76417 3.79309 5.64941 3.50422 5.64941ZM11.1285 5.64941C10.9131 5.64941 10.7025 5.71329 10.5234 5.83297C10.3443 5.95266 10.2047 6.12276 10.1222 6.32179C10.0398 6.52081 10.0182 6.73981 10.0603 6.95109C10.1023 7.16237 10.206 7.35644 10.3583 7.50877C10.5107 7.66109 10.7047 7.76483 10.916 7.80685C11.1273 7.84888 11.3463 7.82731 11.5453 7.74487C11.7443 7.66243 11.9144 7.52283 12.0341 7.34372C12.1538 7.1646 12.2177 6.95402 12.2177 6.7386C12.2177 6.44973 12.1029 6.17269 11.8987 5.96843C11.6944 5.76417 11.4174 5.64941 11.1285 5.64941Z" fill="#00B1BB"/>
</svg>
