<svg width="20" height="20" viewBox="0 0 20 20" fill="none" xmlns="http://www.w3.org/2000/svg">
<path d="M15.1319 8.63862C14.9202 8.63862 14.7171 8.72273 14.5674 8.87246C14.4176 9.02219 14.3335 9.22527 14.3335 9.43702V15.1696C14.3335 15.3813 14.2494 15.5844 14.0997 15.7341C13.9499 15.8839 13.7469 15.968 13.5351 15.968H4.75264C4.54089 15.968 4.33781 15.8839 4.18808 15.7341C4.03835 15.5844 3.95423 15.3813 3.95423 15.1696V6.38711C3.95423 6.17536 4.03835 5.97229 4.18808 5.82256C4.33781 5.67283 4.54089 5.58871 4.75264 5.58871H10.4852C10.6969 5.58871 10.9 5.50459 11.0497 5.35486C11.1995 5.20513 11.2836 5.00205 11.2836 4.7903C11.2836 4.57855 11.1995 4.37547 11.0497 4.22574C10.9 4.07601 10.6969 3.9919 10.4852 3.9919H4.75264C4.11739 3.9919 3.50815 4.24425 3.05896 4.69344C2.60977 5.14263 2.35742 5.75186 2.35742 6.38711V15.1696C2.35742 15.8048 2.60977 16.4141 3.05896 16.8632C3.50815 17.3124 4.11739 17.5648 4.75264 17.5648H13.5351C14.1704 17.5648 14.7796 17.3124 15.2288 16.8632C15.678 16.4141 15.9303 15.8048 15.9303 15.1696V9.43702C15.9303 9.22527 15.8462 9.02219 15.6965 8.87246C15.5467 8.72273 15.3437 8.63862 15.1319 8.63862ZM18.2617 2.09169C18.1806 1.8966 18.0256 1.74157 17.8305 1.66055C17.7345 1.61964 17.6315 1.59794 17.5271 1.59668H12.7367C12.5249 1.59668 12.3219 1.6808 12.1721 1.83053C12.0224 1.98026 11.9383 2.18333 11.9383 2.39509C11.9383 2.60684 12.0224 2.80991 12.1721 2.95964C12.3219 3.10937 12.5249 3.19349 12.7367 3.19349H15.603L7.37939 11.4091C7.30456 11.4833 7.24516 11.5716 7.20463 11.6689C7.16409 11.7662 7.14323 11.8706 7.14323 11.976C7.14323 12.0814 7.16409 12.1857 7.20463 12.283C7.24516 12.3803 7.30456 12.4686 7.37939 12.5428C7.45362 12.6177 7.54192 12.6771 7.63921 12.7176C7.73651 12.7581 7.84086 12.779 7.94626 12.779C8.05166 12.779 8.15602 12.7581 8.25331 12.7176C8.3506 12.6771 8.43891 12.6177 8.51313 12.5428L16.7287 4.31924V7.18552C16.7287 7.39727 16.8128 7.60035 16.9626 7.75008C17.1123 7.89981 17.3154 7.98392 17.5271 7.98392C17.7389 7.98392 17.942 7.89981 18.0917 7.75008C18.2414 7.60035 18.3255 7.39727 18.3255 7.18552V2.39509C18.3243 2.29075 18.3026 2.18768 18.2617 2.09169Z" fill="white"/>
</svg>
