<svg width="14" height="14" viewBox="0 0 14 14" fill="none" xmlns="http://www.w3.org/2000/svg">
<path d="M11.1082 2.89175C10.53 2.3134 9.76348 1.96177 8.94796 1.90081C8.13244 1.83984 7.32212 2.07359 6.66436 2.55955C5.97146 2.04417 5.109 1.81047 4.25069 1.90552C3.39237 2.00056 2.60195 2.41729 2.03859 3.07179C1.47522 3.72628 1.18077 4.56993 1.21453 5.43283C1.24828 6.29573 1.60773 7.11379 2.22049 7.72228L6.2777 11.7795C6.32833 11.8305 6.38856 11.871 6.45493 11.8987C6.52129 11.9263 6.59247 11.9406 6.66436 11.9406C6.73626 11.9406 6.80744 11.9263 6.8738 11.8987C6.94016 11.871 7.0004 11.8305 7.05102 11.7795L11.1082 7.72228C11.4255 7.40518 11.6773 7.02866 11.849 6.61424C12.0207 6.19982 12.1091 5.75562 12.1091 5.30702C12.1091 4.85842 12.0207 4.41422 11.849 3.9998C11.6773 3.58538 11.4255 3.20886 11.1082 2.89175ZM10.3404 6.95441L6.66436 10.625L2.98837 6.95441C2.66443 6.62912 2.44376 6.21542 2.35404 5.76521C2.26433 5.31499 2.30955 4.8483 2.48405 4.42369C2.65855 3.99907 2.95455 3.63545 3.33492 3.37841C3.71529 3.12138 4.16309 2.9824 4.62214 2.97889C5.23542 2.98039 5.82302 3.22523 6.25592 3.65963C6.30655 3.71067 6.36678 3.75119 6.43314 3.77884C6.49951 3.80648 6.57069 3.82072 6.64258 3.82072C6.71447 3.82072 6.78565 3.80648 6.85202 3.77884C6.91838 3.75119 6.97861 3.71067 7.02924 3.65963C7.47489 3.27345 8.05062 3.071 8.63989 3.09327C9.22917 3.11553 9.78798 3.36084 10.2032 3.77954C10.6185 4.19825 10.8591 4.75907 10.8765 5.34851C10.8939 5.93795 10.6867 6.51198 10.2968 6.95441H10.3404Z" fill="#00B1BB"/>
</svg>
