<svg width="14" height="14" viewBox="0 0 14 14" fill="none" xmlns="http://www.w3.org/2000/svg">
<path d="M11.5653 3.08609C10.9871 2.50774 10.2205 2.15611 9.40499 2.09514C8.58947 2.03418 7.77915 2.26793 7.12139 2.75389C6.42849 2.23851 5.56604 2.00481 4.70772 2.09986C3.84941 2.1949 3.05898 2.61163 2.49562 3.26612C1.93226 3.92062 1.6378 4.76426 1.67156 5.62716C1.70531 6.49007 2.06476 7.30813 2.67753 7.91662L6.73473 11.9738C6.78536 12.0249 6.84559 12.0654 6.91196 12.093C6.97832 12.1207 7.0495 12.1349 7.12139 12.1349C7.19329 12.1349 7.26447 12.1207 7.33083 12.093C7.3972 12.0654 7.45743 12.0249 7.50805 11.9738L11.5653 7.91662C11.8826 7.59952 12.1343 7.223 12.306 6.80857C12.4778 6.39415 12.5662 5.94995 12.5662 5.50135C12.5662 5.05276 12.4778 4.60856 12.306 4.19414C12.1343 3.77971 11.8826 3.40319 11.5653 3.08609ZM10.7974 7.14875L7.12139 10.8193L3.4454 7.14875C3.12146 6.82346 2.90079 6.40976 2.81108 5.95954C2.72136 5.50932 2.76658 5.04264 2.94108 4.61802C3.11558 4.19341 3.41158 3.82978 3.79195 3.57275C4.17232 3.31572 4.62012 3.17673 5.07918 3.17323C5.69245 3.17473 6.28005 3.41956 6.71295 3.85396C6.76358 3.90501 6.82381 3.94552 6.89017 3.97317C6.95654 4.00082 7.02772 4.01505 7.09961 4.01505C7.1715 4.01505 7.24268 4.00082 7.30905 3.97317C7.37541 3.94552 7.43564 3.90501 7.48627 3.85396C7.93192 3.46779 8.50765 3.26534 9.09692 3.2876C9.6862 3.30987 10.245 3.55517 10.6603 3.97388C11.0755 4.39258 11.3162 4.95341 11.3335 5.54285C11.3509 6.13229 11.1437 6.70631 10.7538 7.14875H10.7974Z" fill="#00B1BB"/>
</svg>
