<svg width="15" height="15" viewBox="0 0 15 15" fill="none" xmlns="http://www.w3.org/2000/svg">
<path d="M12.0248 6.13425C11.9462 5.31633 11.6571 4.53269 11.1857 3.85966C10.7143 3.18663 10.0767 2.64713 9.33491 2.2937C8.59311 1.94028 7.77243 1.78497 6.95278 1.8429C6.13314 1.90083 5.34246 2.17002 4.65774 2.62427C4.0695 3.01762 3.57567 3.53636 3.21173 4.14324C2.8478 4.75012 2.62279 5.43007 2.55287 6.13425C2.48429 6.83382 2.57228 7.53988 2.81048 8.20121C3.04867 8.86254 3.43109 9.46255 3.92999 9.95772L6.89696 12.9303C6.949 12.9828 7.01092 13.0244 7.07914 13.0528C7.14735 13.0812 7.22052 13.0959 7.29442 13.0959C7.36833 13.0959 7.4415 13.0812 7.50971 13.0528C7.57793 13.0244 7.63985 12.9828 7.69189 12.9303L10.6477 9.95772C11.1466 9.46255 11.529 8.86254 11.7672 8.20121C12.0054 7.53988 12.0934 6.83382 12.0248 6.13425ZM9.86393 9.1684L7.28883 11.7435L4.71372 9.1684C4.33422 8.78888 4.04352 8.32999 3.86252 7.82473C3.68152 7.31947 3.6147 6.78038 3.66689 6.24621C3.71941 5.70382 3.89179 5.17987 4.17159 4.71226C4.45138 4.24464 4.83159 3.84504 5.28472 3.54235C5.87865 3.14782 6.57581 2.93737 7.28883 2.93737C8.00185 2.93737 8.69901 3.14782 9.29293 3.54235C9.74469 3.84387 10.1241 4.24171 10.4038 4.70727C10.6835 5.17284 10.8567 5.69458 10.9108 6.23502C10.9647 6.77099 10.8987 7.31224 10.7176 7.81957C10.5366 8.32691 10.245 8.78764 9.86393 9.1684ZM7.28883 4.10216C6.79059 4.10216 6.30354 4.2499 5.88928 4.52671C5.47501 4.80351 5.15213 5.19694 4.96146 5.65725C4.77079 6.11756 4.72091 6.62408 4.81811 7.11274C4.91531 7.6014 5.15523 8.05027 5.50754 8.40257C5.85984 8.75488 6.30871 8.9948 6.79737 9.092C7.28603 9.1892 7.79254 9.13932 8.25285 8.94865C8.71316 8.75798 9.1066 8.4351 9.3834 8.02083C9.66021 7.60656 9.80795 7.11952 9.80795 6.62128C9.80647 5.95362 9.54059 5.31373 9.06848 4.84162C8.59638 4.36952 7.95649 4.10364 7.28883 4.10216ZM7.28883 8.0208C7.01203 8.0208 6.74145 7.93872 6.5113 7.78493C6.28115 7.63115 6.10177 7.41258 5.99584 7.15685C5.88992 6.90112 5.8622 6.61973 5.9162 6.34825C5.9702 6.07677 6.1035 5.8274 6.29922 5.63168C6.49495 5.43595 6.74432 5.30266 7.01579 5.24866C7.28727 5.19466 7.56867 5.22237 7.8244 5.3283C8.08012 5.43423 8.2987 5.6136 8.45248 5.84375C8.60626 6.0739 8.68834 6.34448 8.68834 6.62128C8.68834 6.99246 8.54089 7.34843 8.27843 7.61089C8.01597 7.87335 7.66 8.0208 7.28883 8.0208Z" fill="#ACACAC"/>
</svg>
