<svg width="14" height="14" viewBox="0 0 14 14" fill="none" xmlns="http://www.w3.org/2000/svg">
<path d="M7.11784 6.12207C6.79644 6.12207 6.48227 6.21738 6.21504 6.39593C5.94781 6.57449 5.73953 6.82828 5.61653 7.12521C5.49354 7.42214 5.46136 7.74887 5.52406 8.06409C5.58676 8.37931 5.74153 8.66886 5.96879 8.89612C6.19605 9.12338 6.4856 9.27815 6.80082 9.34085C7.11604 9.40355 7.44277 9.37137 7.7397 9.24837C8.03663 9.12538 8.29042 8.9171 8.46898 8.64987C8.64753 8.38264 8.74284 8.06847 8.74284 7.74707C8.74284 7.31609 8.57163 6.90277 8.26689 6.59802C7.96214 6.29328 7.54882 6.12207 7.11784 6.12207ZM7.11784 8.28874C7.01071 8.28874 6.90598 8.25697 6.8169 8.19745C6.72783 8.13793 6.6584 8.05333 6.6174 7.95436C6.57641 7.85538 6.56568 7.74647 6.58658 7.6414C6.60748 7.53632 6.65907 7.43981 6.73482 7.36405C6.81058 7.2883 6.90709 7.23671 7.01216 7.21581C7.11724 7.19491 7.22615 7.20564 7.32513 7.24664C7.4241 7.28763 7.5087 7.35706 7.56822 7.44614C7.62774 7.53521 7.65951 7.63994 7.65951 7.74707C7.65951 7.89073 7.60244 8.0285 7.50085 8.13009C7.39927 8.23167 7.2615 8.28874 7.11784 8.28874ZM10.9095 3.41374H9.28451V2.87207C9.28451 2.44109 9.1133 2.02777 8.80855 1.72302C8.50381 1.41828 8.09048 1.24707 7.65951 1.24707H6.57617C6.1452 1.24707 5.73187 1.41828 5.42712 1.72302C5.12238 2.02777 4.95117 2.44109 4.95117 2.87207V3.41374H3.32617C2.8952 3.41374 2.48187 3.58494 2.17712 3.88969C1.87238 4.19444 1.70117 4.60776 1.70117 5.03874V10.4554C1.70117 10.8864 1.87238 11.2997 2.17712 11.6045C2.48187 11.9092 2.8952 12.0804 3.32617 12.0804H10.9095C11.3405 12.0804 11.7538 11.9092 12.0586 11.6045C12.3633 11.2997 12.5345 10.8864 12.5345 10.4554V5.03874C12.5345 4.60776 12.3633 4.19444 12.0586 3.88969C11.7538 3.58494 11.3405 3.41374 10.9095 3.41374ZM6.03451 2.87207C6.03451 2.72841 6.09157 2.59064 6.19316 2.48905C6.29474 2.38747 6.43251 2.3304 6.57617 2.3304H7.65951C7.80316 2.3304 7.94094 2.38747 8.04252 2.48905C8.1441 2.59064 8.20117 2.72841 8.20117 2.87207V3.41374H6.03451V2.87207ZM2.78451 5.03874C2.78451 4.89508 2.84157 4.7573 2.94316 4.65572C3.04474 4.55414 3.18251 4.49707 3.32617 4.49707H3.86784C3.86784 4.78439 3.7537 5.05994 3.55054 5.2631C3.34737 5.46627 3.07182 5.5804 2.78451 5.5804V5.03874ZM3.32617 10.9971C3.18251 10.9971 3.04474 10.94 2.94316 10.8384C2.84157 10.7368 2.78451 10.5991 2.78451 10.4554V9.91374C3.07182 9.91374 3.34737 10.0279 3.55054 10.231C3.7537 10.4342 3.86784 10.7098 3.86784 10.9971H3.32617ZM11.4512 10.4554C11.4512 10.5991 11.3941 10.7368 11.2925 10.8384C11.1909 10.94 11.0532 10.9971 10.9095 10.9971H10.3678C10.3678 10.7098 10.482 10.4342 10.6851 10.231C10.8883 10.0279 11.1639 9.91374 11.4512 9.91374V10.4554ZM11.4512 8.8304C10.8765 8.8304 10.3254 9.05868 9.91911 9.46501C9.51278 9.87134 9.28451 10.4224 9.28451 10.9971H4.95117C4.95117 10.4224 4.7229 9.87134 4.31657 9.46501C3.91024 9.05868 3.35914 8.8304 2.78451 8.8304V6.66374C3.35914 6.66374 3.91024 6.43546 4.31657 6.02914C4.7229 5.62281 4.95117 5.07171 4.95117 4.49707H9.28451C9.28451 5.07171 9.51278 5.62281 9.91911 6.02914C10.3254 6.43546 10.8765 6.66374 11.4512 6.66374V8.8304ZM11.4512 5.5804C11.1639 5.5804 10.8883 5.46627 10.6851 5.2631C10.482 5.05994 10.3678 4.78439 10.3678 4.49707H10.9095C11.0532 4.49707 11.1909 4.55414 11.2925 4.65572C11.3941 4.7573 11.4512 4.89508 11.4512 5.03874V5.5804Z" fill="#FF8833"/>
</svg>
