<svg width="14" height="14" viewBox="0 0 14 14" fill="none" xmlns="http://www.w3.org/2000/svg">
<g clip-path="url(#clip0_2801_40378)">
<path d="M3.78797 6.51178C3.67765 6.51178 3.56981 6.54449 3.47808 6.60578C3.38635 6.66707 3.31486 6.75418 3.27264 6.85611C3.23042 6.95803 3.21938 7.07018 3.2409 7.17838C3.26242 7.28658 3.31555 7.38597 3.39355 7.46398C3.47156 7.54199 3.57095 7.59511 3.67915 7.61664C3.78735 7.63816 3.8995 7.62711 4.00143 7.58489C4.10335 7.54268 4.19046 7.47118 4.25176 7.37946C4.31305 7.28773 4.34576 7.17988 4.34576 7.06956C4.34576 6.92163 4.28699 6.77975 4.18239 6.67515C4.07778 6.57054 3.93591 6.51178 3.78797 6.51178ZM10.4814 6.51178C10.3711 6.51178 10.2633 6.54449 10.1716 6.60578C10.0798 6.66707 10.0083 6.75418 9.96611 6.85611C9.92389 6.95803 9.91285 7.07018 9.93437 7.17838C9.95589 7.28658 10.009 7.38597 10.087 7.46398C10.165 7.54199 10.2644 7.59511 10.3726 7.61664C10.4808 7.63816 10.593 7.62711 10.6949 7.58489C10.7968 7.54268 10.8839 7.47118 10.9452 7.37946C11.0065 7.28773 11.0392 7.17988 11.0392 7.06956C11.0392 6.92163 10.9805 6.77975 10.8759 6.67515C10.7713 6.57054 10.6294 6.51178 10.4814 6.51178ZM11.597 3.16504H2.67239C2.22859 3.16504 1.80296 3.34134 1.48914 3.65516C1.17532 3.96897 0.999023 4.3946 0.999023 4.83841V9.30072C0.999023 9.74453 1.17532 10.1702 1.48914 10.484C1.80296 10.7978 2.22859 10.9741 2.67239 10.9741H11.597C12.0408 10.9741 12.4665 10.7978 12.7803 10.484C13.0941 10.1702 13.2704 9.74453 13.2704 9.30072V4.83841C13.2704 4.3946 13.0941 3.96897 12.7803 3.65516C12.4665 3.34134 12.0408 3.16504 11.597 3.16504ZM12.1548 9.30072C12.1548 9.44866 12.096 9.59053 11.9914 9.69514C11.8868 9.79974 11.745 9.85851 11.597 9.85851H2.67239C2.52446 9.85851 2.38258 9.79974 2.27797 9.69514C2.17337 9.59053 2.1146 9.44866 2.1146 9.30072V4.83841C2.1146 4.69047 2.17337 4.5486 2.27797 4.44399C2.38258 4.33938 2.52446 4.28062 2.67239 4.28062H11.597C11.745 4.28062 11.8868 4.33938 11.9914 4.44399C12.096 4.5486 12.1548 4.69047 12.1548 4.83841V9.30072ZM7.13471 5.3962C6.80375 5.3962 6.48022 5.49434 6.20503 5.67821C5.92985 5.86208 5.71537 6.12343 5.58872 6.42919C5.46206 6.73496 5.42892 7.07142 5.49349 7.39602C5.55806 7.72062 5.71743 8.01879 5.95146 8.25281C6.18548 8.48684 6.48365 8.64621 6.80825 8.71078C7.13285 8.77535 7.46931 8.74221 7.77508 8.61555C8.08084 8.4889 8.34219 8.27442 8.52606 7.99924C8.70993 7.72405 8.80807 7.40053 8.80807 7.06956C8.80807 6.62576 8.63177 6.20013 8.31796 5.88631C8.00414 5.5725 7.57851 5.3962 7.13471 5.3962ZM7.13471 7.62735C7.02439 7.62735 6.91654 7.59464 6.82482 7.53335C6.73309 7.47206 6.66159 7.38494 6.61938 7.28302C6.57716 7.1811 6.56611 7.06895 6.58764 6.96075C6.60916 6.85254 6.66228 6.75316 6.74029 6.67515C6.8183 6.59714 6.91769 6.54402 7.02589 6.52249C7.13409 6.50097 7.24624 6.51202 7.34816 6.55423C7.45009 6.59645 7.5372 6.66794 7.59849 6.75967C7.65978 6.8514 7.6925 6.95924 7.6925 7.06956C7.6925 7.2175 7.63373 7.35938 7.52912 7.46398C7.42452 7.56859 7.28264 7.62735 7.13471 7.62735Z" fill="#ACACAC"/>
</g>
<defs>
<clipPath id="clip0_2801_40378">
<rect width="13.3869" height="13.3869" fill="white" transform="translate(0.441406 0.375977)"/>
</clipPath>
</defs>
</svg>
