<svg width="25" height="24" viewBox="0 0 25 24" fill="none" xmlns="http://www.w3.org/2000/svg">
<path d="M22.141 17.1985H2.90608C2.65101 17.1985 2.40639 17.2998 2.22602 17.4802C2.04566 17.6605 1.94434 17.9052 1.94434 18.1602C1.94434 18.4153 2.04566 18.6599 2.22602 18.8403C2.40639 19.0207 2.65101 19.122 2.90608 19.122H22.141C22.3961 19.122 22.6407 19.0207 22.8211 18.8403C23.0014 18.6599 23.1028 18.4153 23.1028 18.1602C23.1028 17.9052 23.0014 17.6605 22.8211 17.4802C22.6407 17.2998 22.3961 17.1985 22.141 17.1985ZM22.141 21.0455H2.90608C2.65101 21.0455 2.40639 21.1468 2.22602 21.3272C2.04566 21.5075 1.94434 21.7521 1.94434 22.0072C1.94434 22.2623 2.04566 22.5069 2.22602 22.6873C2.40639 22.8676 2.65101 22.969 2.90608 22.969H22.141C22.3961 22.969 22.6407 22.8676 22.8211 22.6873C23.0014 22.5069 23.1028 22.2623 23.1028 22.0072C23.1028 21.7521 23.0014 21.5075 22.8211 21.3272C22.6407 21.1468 22.3961 21.0455 22.141 21.0455ZM6.75307 7.58102C6.56285 7.58102 6.37691 7.63743 6.21875 7.74311C6.06059 7.84879 5.93732 7.99899 5.86453 8.17473C5.79174 8.35046 5.77269 8.54384 5.8098 8.7304C5.84691 8.91696 5.93851 9.08832 6.07301 9.22283C6.20751 9.35733 6.37888 9.44893 6.56544 9.48604C6.752 9.52315 6.94538 9.5041 7.12111 9.43131C7.29685 9.35852 7.44705 9.23525 7.55273 9.07709C7.65841 8.91893 7.71481 8.73299 7.71481 8.54277C7.71481 8.2877 7.61349 8.04308 7.43312 7.86271C7.25276 7.68235 7.00814 7.58102 6.75307 7.58102ZM20.2175 1.81055H4.82957C4.06436 1.81055 3.33049 2.11453 2.7894 2.65561C2.24832 3.1967 1.94434 3.93057 1.94434 4.69579V12.3898C1.94434 13.155 2.24832 13.8888 2.7894 14.4299C3.33049 14.971 4.06436 15.275 4.82957 15.275H20.2175C20.9827 15.275 21.7166 14.971 22.2577 14.4299C22.7988 13.8888 23.1028 13.155 23.1028 12.3898V4.69579C23.1028 3.93057 22.7988 3.1967 22.2577 2.65561C21.7166 2.11453 20.9827 1.81055 20.2175 1.81055V1.81055ZM21.1793 12.3898C21.1793 12.6448 21.0779 12.8894 20.8976 13.0698C20.7172 13.2502 20.4726 13.3515 20.2175 13.3515H4.82957C4.5745 13.3515 4.32988 13.2502 4.14952 13.0698C3.96915 12.8894 3.86783 12.6448 3.86783 12.3898V4.69579C3.86783 4.44071 3.96915 4.19609 4.14952 4.01573C4.32988 3.83537 4.5745 3.73404 4.82957 3.73404H20.2175C20.4726 3.73404 20.7172 3.83537 20.8976 4.01573C21.0779 4.19609 21.1793 4.44071 21.1793 4.69579V12.3898ZM12.5235 5.65753C11.9529 5.65753 11.3951 5.82675 10.9206 6.14378C10.4461 6.46082 10.0763 6.91143 9.85793 7.43864C9.63955 7.96585 9.58242 8.54597 9.69374 9.10565C9.80507 9.66533 10.0799 10.1794 10.4834 10.5829C10.8869 10.9865 11.401 11.2612 11.9607 11.3726C12.5203 11.4839 13.1005 11.4268 13.6277 11.2084C14.1549 10.99 14.6055 10.6202 14.9225 10.1457C15.2396 9.67125 15.4088 9.11342 15.4088 8.54277C15.4088 7.77756 15.1048 7.04369 14.5637 6.5026C14.0226 5.96151 13.2888 5.65753 12.5235 5.65753ZM12.5235 9.50452C12.3333 9.50452 12.1474 9.44811 11.9892 9.34243C11.8311 9.23676 11.7078 9.08655 11.635 8.91082C11.5622 8.73508 11.5432 8.5417 11.5803 8.35514C11.6174 8.16858 11.709 7.99722 11.8435 7.86271C11.978 7.72821 12.1494 7.63661 12.3359 7.5995C12.5225 7.56239 12.7159 7.58144 12.8916 7.65423C13.0673 7.72702 13.2175 7.85029 13.3232 8.00845C13.4289 8.16661 13.4853 8.35255 13.4853 8.54277C13.4853 8.79784 13.384 9.04247 13.2036 9.22283C13.0232 9.40319 12.7786 9.50452 12.5235 9.50452ZM18.294 7.58102C18.1038 7.58102 17.9179 7.63743 17.7597 7.74311C17.6015 7.84879 17.4783 7.99899 17.4055 8.17473C17.3327 8.35046 17.3136 8.54384 17.3508 8.7304C17.3879 8.91696 17.4795 9.08832 17.614 9.22283C17.7485 9.35733 17.9198 9.44893 18.1064 9.48604C18.293 9.52315 18.4863 9.5041 18.6621 9.43131C18.8378 9.35852 18.988 9.23525 19.0937 9.07709C19.1994 8.91893 19.2558 8.73299 19.2558 8.54277C19.2558 8.2877 19.1544 8.04308 18.9741 7.86271C18.7937 7.68235 18.5491 7.58102 18.294 7.58102Z" fill="white"/>
</svg>
