<svg width="24" height="24" viewBox="0 0 24 24" fill="none" xmlns="http://www.w3.org/2000/svg">
<path d="M6.19217 11.0083C6.00361 11.0083 5.81928 11.0642 5.6625 11.169C5.50572 11.2738 5.38352 11.4227 5.31136 11.5969C5.2392 11.7711 5.22032 11.9628 5.25711 12.1477C5.2939 12.3326 5.3847 12.5025 5.51803 12.6358C5.65136 12.7692 5.82124 12.86 6.00617 12.8968C6.19111 12.9336 6.3828 12.9147 6.55701 12.8425C6.73121 12.7704 6.88011 12.6482 6.98487 12.4914C7.08963 12.3346 7.14554 12.1503 7.14554 11.9617C7.14554 11.7089 7.0451 11.4664 6.8663 11.2876C6.68751 11.1088 6.44502 11.0083 6.19217 11.0083ZM17.6327 11.0083C17.4441 11.0083 17.2598 11.0642 17.103 11.169C16.9462 11.2738 16.824 11.4227 16.7519 11.5969C16.6797 11.7711 16.6608 11.9628 16.6976 12.1477C16.7344 12.3326 16.8252 12.5025 16.9585 12.6358C17.0919 12.7692 17.2617 12.86 17.4467 12.8968C17.6316 12.9336 17.8233 12.9147 17.9975 12.8425C18.1717 12.7704 18.3206 12.6482 18.4254 12.4914C18.5301 12.3346 18.586 12.1503 18.586 11.9617C18.586 11.7089 18.4856 11.4664 18.3068 11.2876C18.128 11.1088 17.8855 11.0083 17.6327 11.0083ZM19.5394 5.28809H4.28542C3.52687 5.28809 2.79938 5.58942 2.263 6.1258C1.72663 6.66217 1.42529 7.38966 1.42529 8.14821V15.7752C1.42529 16.5338 1.72663 17.2612 2.263 17.7976C2.79938 18.334 3.52687 18.6353 4.28542 18.6353H19.5394C20.298 18.6353 21.0255 18.334 21.5618 17.7976C22.0982 17.2612 22.3995 16.5338 22.3995 15.7752V8.14821C22.3995 7.38966 22.0982 6.66217 21.5618 6.1258C21.0255 5.58942 20.298 5.28809 19.5394 5.28809ZM20.4928 15.7752C20.4928 16.0281 20.3923 16.2706 20.2136 16.4493C20.0348 16.6281 19.7923 16.7286 19.5394 16.7286H4.28542C4.03257 16.7286 3.79007 16.6281 3.61128 16.4493C3.43249 16.2706 3.33204 16.0281 3.33204 15.7752V8.14821C3.33204 7.89536 3.43249 7.65287 3.61128 7.47407C3.79007 7.29528 4.03257 7.19484 4.28542 7.19484H19.5394C19.7923 7.19484 20.0348 7.29528 20.2136 7.47407C20.3923 7.65287 20.4928 7.89536 20.4928 8.14821V15.7752ZM11.9124 9.10159C11.3467 9.10159 10.7938 9.26933 10.3234 9.5836C9.85307 9.89788 9.48648 10.3446 9.27001 10.8672C9.05353 11.3898 8.99689 11.9649 9.10725 12.5197C9.21761 13.0745 9.49001 13.5841 9.89 13.9841C10.29 14.3841 10.7996 14.6565 11.3544 14.7669C11.9092 14.8772 12.4843 14.8206 13.0069 14.6041C13.5296 14.3876 13.9762 14.0211 14.2905 13.5507C14.6048 13.0804 14.7725 12.5274 14.7725 11.9617C14.7725 11.2032 14.4712 10.4757 13.9348 9.9393C13.3985 9.40292 12.671 9.10159 11.9124 9.10159ZM11.9124 12.9151C11.7239 12.9151 11.5395 12.8592 11.3827 12.7544C11.226 12.6497 11.1038 12.5008 11.0316 12.3266C10.9595 12.1523 10.9406 11.9607 10.9774 11.7757C11.0141 11.5908 11.1049 11.4209 11.2383 11.2876C11.3716 11.1542 11.5415 11.0634 11.7264 11.0267C11.9114 10.9899 12.1031 11.0087 12.2773 11.0809C12.4515 11.1531 12.6004 11.2753 12.7051 11.432C12.8099 11.5888 12.8658 11.7731 12.8658 11.9617C12.8658 12.2146 12.7653 12.4571 12.5866 12.6358C12.4078 12.8146 12.1653 12.9151 11.9124 12.9151Z" fill="#ACACAC"/>
</svg>
