<svg width="14" height="14" viewBox="0 0 14 14" fill="none" xmlns="http://www.w3.org/2000/svg">
<g clip-path="url(#clip0_3071_45971)">
<path d="M3.71794 6.4838C3.60993 6.4838 3.50434 6.51583 3.41453 6.57584C3.32472 6.63584 3.25472 6.72114 3.21339 6.82093C3.17205 6.92072 3.16124 7.03053 3.18231 7.13647C3.20338 7.24241 3.25539 7.33972 3.33177 7.41609C3.40815 7.49247 3.50546 7.54449 3.6114 7.56556C3.71734 7.58663 3.82714 7.57581 3.92694 7.53448C4.02673 7.49314 4.11202 7.42315 4.17203 7.33334C4.23204 7.24353 4.26407 7.13794 4.26407 7.02992C4.26407 6.88508 4.20653 6.74617 4.10411 6.64375C4.00169 6.54133 3.86278 6.4838 3.71794 6.4838ZM10.2715 6.4838C10.1635 6.4838 10.0579 6.51583 9.96806 6.57584C9.87825 6.63584 9.80825 6.72114 9.76692 6.82093C9.72558 6.92072 9.71477 7.03053 9.73584 7.13647C9.75691 7.24241 9.80892 7.33972 9.8853 7.41609C9.96168 7.49247 10.059 7.54449 10.1649 7.56556C10.2709 7.58663 10.3807 7.57581 10.4805 7.53448C10.5803 7.49314 10.6656 7.42315 10.7256 7.33334C10.7856 7.24353 10.8176 7.13794 10.8176 7.02992C10.8176 6.88508 10.7601 6.74617 10.6576 6.64375C10.5552 6.54133 10.4163 6.4838 10.2715 6.4838ZM11.3637 3.20703H2.62569C2.19116 3.20703 1.77443 3.37965 1.46718 3.6869C1.15992 3.99416 0.987305 4.41089 0.987305 4.84541V9.21443C0.987305 9.64896 1.15992 10.0657 1.46718 10.3729C1.77443 10.6802 2.19116 10.8528 2.62569 10.8528H11.3637C11.7983 10.8528 12.215 10.6802 12.5222 10.3729C12.8295 10.0657 13.0021 9.64896 13.0021 9.21443V4.84541C13.0021 4.41089 12.8295 3.99416 12.5222 3.6869C12.215 3.37965 11.7983 3.20703 11.3637 3.20703ZM11.9099 9.21443C11.9099 9.35928 11.8523 9.49819 11.7499 9.6006C11.6475 9.70302 11.5086 9.76056 11.3637 9.76056H2.62569C2.48085 9.76056 2.34194 9.70302 2.23952 9.6006C2.1371 9.49819 2.07956 9.35928 2.07956 9.21443V4.84541C2.07956 4.70057 2.1371 4.56166 2.23952 4.45924C2.34194 4.35682 2.48085 4.29929 2.62569 4.29929H11.3637C11.5086 4.29929 11.6475 4.35682 11.7499 4.45924C11.8523 4.56166 11.9099 4.70057 11.9099 4.84541V9.21443ZM6.99471 5.39154C6.67067 5.39154 6.3539 5.48763 6.08447 5.66766C5.81504 5.84769 5.60504 6.10357 5.48104 6.40294C5.35703 6.70232 5.32459 7.03174 5.38781 7.34956C5.45102 7.66737 5.60706 7.9593 5.8362 8.18844C6.06533 8.41757 6.35726 8.57361 6.67508 8.63683C6.99289 8.70004 7.32231 8.6676 7.62169 8.54359C7.92106 8.41959 8.17695 8.20959 8.35697 7.94016C8.537 7.67073 8.63309 7.35397 8.63309 7.02992C8.63309 6.5954 8.46048 6.17867 8.15322 5.87141C7.84596 5.56416 7.42923 5.39154 6.99471 5.39154ZM6.99471 7.57605C6.88669 7.57605 6.78111 7.54402 6.6913 7.48401C6.60149 7.424 6.53149 7.33871 6.49015 7.23892C6.44882 7.13913 6.438 7.02932 6.45907 6.92338C6.48015 6.81744 6.53216 6.72013 6.60854 6.64375C6.68491 6.56738 6.78223 6.51536 6.88816 6.49429C6.9941 6.47322 7.10391 6.48403 7.2037 6.52537C7.30349 6.5667 7.38879 6.6367 7.4488 6.72651C7.50881 6.81632 7.54084 6.92191 7.54084 7.02992C7.54084 7.17477 7.4833 7.31368 7.38088 7.41609C7.27846 7.51851 7.13955 7.57605 6.99471 7.57605Z" fill="white"/>
</g>
<defs>
<clipPath id="clip0_3071_45971">
<rect width="13.1071" height="13.1071" fill="white" transform="translate(0.441406 0.476562)"/>
</clipPath>
</defs>
</svg>
