<svg width="14" height="14" viewBox="0 0 14 14" fill="none" xmlns="http://www.w3.org/2000/svg">
<g clip-path="url(#clip0_2801_39874)">
<path d="M6.2908 3.38951L6.58105 3.07238V5.00201C6.58105 5.14456 6.63768 5.28128 6.73849 5.38208C6.83929 5.48288 6.976 5.53951 7.11856 5.53951C7.26111 5.53951 7.39782 5.48288 7.49862 5.38208C7.59943 5.28128 7.65605 5.14456 7.65605 5.00201V3.07238L7.9463 3.36801C7.99509 3.42311 8.05468 3.46761 8.12137 3.49874C8.18807 3.52988 8.26044 3.54698 8.33402 3.549C8.40759 3.55101 8.48079 3.5379 8.54909 3.51046C8.61739 3.48303 8.67932 3.44186 8.73106 3.38951C8.78143 3.33954 8.82142 3.28009 8.84871 3.21459C8.876 3.14909 8.89005 3.07884 8.89005 3.00788C8.89005 2.93693 8.876 2.86667 8.84871 2.80117C8.82142 2.73567 8.78143 2.67622 8.73106 2.62626L7.50018 1.39538C7.44906 1.34645 7.38878 1.30809 7.3228 1.28251C7.19194 1.22875 7.04517 1.22875 6.9143 1.28251C6.84833 1.30809 6.78805 1.34645 6.73693 1.39538L5.50605 2.60476C5.40199 2.70882 5.34353 2.84996 5.34353 2.99713C5.34353 3.1443 5.40199 3.28544 5.50605 3.38951C5.61012 3.49357 5.75126 3.55203 5.89843 3.55203C6.0456 3.55203 6.18674 3.49357 6.2908 3.38951ZM7.11856 6.61451C6.79963 6.61451 6.48787 6.70908 6.2227 6.88626C5.95752 7.06345 5.75085 7.31528 5.6288 7.60993C5.50675 7.90458 5.47482 8.2288 5.53704 8.54159C5.59926 8.85438 5.75283 9.14171 5.97834 9.36722C6.20386 9.59273 6.49118 9.74631 6.80397 9.80852C7.11677 9.87074 7.44099 9.83881 7.73563 9.71676C8.03028 9.59472 8.28212 9.38804 8.4593 9.12286C8.63648 8.85769 8.73105 8.54593 8.73106 8.22701C8.73105 7.79935 8.56117 7.3892 8.25876 7.0868C7.95636 6.7844 7.54622 6.61451 7.11856 6.61451ZM7.11856 8.76451C7.01225 8.76451 6.90833 8.73298 6.81994 8.67392C6.73154 8.61486 6.66265 8.53092 6.62197 8.4327C6.58129 8.33448 6.57064 8.22641 6.59138 8.12215C6.61212 8.01788 6.66331 7.92211 6.73849 7.84694C6.81366 7.77177 6.90943 7.72057 7.01369 7.69984C7.11796 7.6791 7.22603 7.68974 7.32425 7.73042C7.42246 7.7711 7.50641 7.84 7.56547 7.92839C7.62453 8.01678 7.65605 8.1207 7.65605 8.22701C7.65605 8.36956 7.59943 8.50628 7.49862 8.60708C7.39782 8.70788 7.26111 8.76451 7.11856 8.76451ZM3.35605 8.22701C3.35605 8.33331 3.38758 8.43724 3.44664 8.52563C3.5057 8.61402 3.58965 8.68291 3.68786 8.72359C3.78608 8.76428 3.89415 8.77492 3.99842 8.75418C4.10268 8.73344 4.19845 8.68225 4.27362 8.60708C4.3488 8.53191 4.39999 8.43613 4.42073 8.33187C4.44147 8.2276 4.43082 8.11953 4.39014 8.02132C4.34946 7.9231 4.28057 7.83915 4.19217 7.78009C4.10378 7.72103 3.99986 7.68951 3.89355 7.68951C3.751 7.68951 3.61429 7.74614 3.51348 7.84694C3.41268 7.94774 3.35605 8.08445 3.35605 8.22701ZM10.8811 8.22701C10.8811 8.1207 10.8495 8.01678 10.7905 7.92839C10.7314 7.84 10.6475 7.7711 10.5492 7.73042C10.451 7.68974 10.343 7.6791 10.2387 7.69984C10.1344 7.72057 10.0387 7.77177 9.96348 7.84694C9.88831 7.92211 9.83712 8.01788 9.81638 8.12215C9.79564 8.22641 9.80629 8.33448 9.84697 8.4327C9.88765 8.53092 9.95654 8.61486 10.0449 8.67392C10.1333 8.73298 10.2372 8.76451 10.3436 8.76451C10.4861 8.76451 10.6228 8.70788 10.7236 8.60708C10.8244 8.50628 10.8811 8.36956 10.8811 8.22701ZM11.4186 4.46451H9.26855C9.126 4.46451 8.98929 4.52114 8.88849 4.62194C8.78768 4.72274 8.73106 4.85945 8.73106 5.00201C8.73106 5.14456 8.78768 5.28128 8.88849 5.38208C8.98929 5.48288 9.126 5.53951 9.26855 5.53951H11.4186C11.5611 5.53951 11.6978 5.59614 11.7986 5.69694C11.8994 5.79774 11.9561 5.93445 11.9561 6.07701V10.377C11.9561 10.5196 11.8994 10.6563 11.7986 10.7571C11.6978 10.8579 11.5611 10.9145 11.4186 10.9145H2.81855C2.676 10.9145 2.53929 10.8579 2.43848 10.7571C2.33768 10.6563 2.28105 10.5196 2.28105 10.377V6.07701C2.28105 5.93445 2.33768 5.79774 2.43848 5.69694C2.53929 5.59614 2.676 5.53951 2.81855 5.53951H4.96855C5.11111 5.53951 5.24782 5.48288 5.34862 5.38208C5.44943 5.28128 5.50605 5.14456 5.50605 5.00201C5.50605 4.85945 5.44943 4.72274 5.34862 4.62194C5.24782 4.52114 5.11111 4.46451 4.96855 4.46451H2.81855C2.39089 4.46451 1.98075 4.6344 1.67835 4.9368C1.37594 5.2392 1.20605 5.64935 1.20605 6.07701V10.377C1.20605 10.8047 1.37594 11.2148 1.67835 11.5172C1.98075 11.8196 2.39089 11.9895 2.81855 11.9895H11.4186C11.8462 11.9895 12.2564 11.8196 12.5588 11.5172C12.8612 11.2148 13.0311 10.8047 13.0311 10.377V6.07701C13.0311 5.64935 12.8612 5.2392 12.5588 4.9368C12.2564 4.6344 11.8462 4.46451 11.4186 4.46451Z" fill="#FF8833"/>
</g>
<defs>
<clipPath id="clip0_2801_39874">
<rect width="12.9" height="12.9" fill="white" transform="translate(0.668945 0.164062)"/>
</clipPath>
</defs>
</svg>
