<svg width="13" height="13" viewBox="0 0 13 13" fill="none" xmlns="http://www.w3.org/2000/svg">
<path d="M7.88116 8.02915C7.54745 8.29821 7.1317 8.44494 6.70303 8.44494C6.27436 8.44494 5.85861 8.29821 5.5249 8.02915C5.42295 7.94442 5.29152 7.90365 5.15951 7.91582C5.02751 7.92799 4.90575 7.99211 4.82101 8.09405C4.73628 8.196 4.69551 8.32743 4.70768 8.45944C4.71985 8.59144 4.78396 8.7132 4.88591 8.79794C5.39577 9.22357 6.03886 9.45671 6.70303 9.45671C7.3672 9.45671 8.01029 9.22357 8.52015 8.79794C8.6221 8.7132 8.68621 8.59144 8.69838 8.45944C8.71055 8.32743 8.66978 8.196 8.58505 8.09405C8.54309 8.04357 8.4916 8.00185 8.43352 7.97127C8.37544 7.94069 8.31191 7.92185 8.24655 7.91582C8.11454 7.90365 7.98311 7.94442 7.88116 8.02915ZM5.2054 6.41671C5.30414 6.41671 5.40065 6.38743 5.48275 6.33258C5.56484 6.27772 5.62883 6.19976 5.66661 6.10854C5.7044 6.01732 5.71428 5.91695 5.69502 5.82011C5.67576 5.72327 5.62821 5.63432 5.5584 5.56451C5.48858 5.49469 5.39963 5.44715 5.30279 5.42788C5.20596 5.40862 5.10558 5.41851 5.01436 5.45629C4.92315 5.49408 4.84518 5.55806 4.79033 5.64015C4.73547 5.72225 4.70619 5.81877 4.70619 5.9175C4.70619 6.0499 4.75879 6.17688 4.85241 6.27049C4.94603 6.36411 5.073 6.41671 5.2054 6.41671ZM8.20066 5.41829C8.10192 5.41829 8.00541 5.44757 7.92331 5.50242C7.84122 5.55728 7.77723 5.63524 7.73945 5.72646C7.70166 5.81768 7.69178 5.91805 7.71104 6.01489C7.7303 6.11173 7.77785 6.20068 7.84766 6.27049C7.91748 6.34031 8.00643 6.38786 8.10327 6.40712C8.2001 6.42638 8.30048 6.41649 8.3917 6.37871C8.48292 6.34093 8.56088 6.27694 8.61574 6.19485C8.67059 6.11275 8.69987 6.01623 8.69987 5.9175C8.69987 5.7851 8.64727 5.65813 8.55365 5.56451C8.46003 5.47089 8.33306 5.41829 8.20066 5.41829ZM6.70303 1.92383C5.71569 1.92383 4.75052 2.21661 3.92957 2.76515C3.10863 3.31369 2.46878 4.09334 2.09094 5.00553C1.7131 5.91771 1.61424 6.92146 1.80686 7.88983C1.99948 8.8582 2.47493 9.7477 3.17309 10.4459C3.87125 11.144 4.76075 11.6195 5.72912 11.8121C6.69749 12.0047 7.70124 11.9058 8.61342 11.528C9.52561 11.1502 10.3053 10.5103 10.8538 9.68938C11.4023 8.86843 11.6951 7.90326 11.6951 6.91592C11.6951 6.26035 11.566 5.6112 11.3151 5.00553C11.0642 4.39986 10.6965 3.84954 10.233 3.38598C9.76941 2.92242 9.21909 2.5547 8.61342 2.30383C8.00775 2.05295 7.3586 1.92383 6.70303 1.92383ZM6.70303 10.9096C5.91316 10.9096 5.14102 10.6754 4.48426 10.2365C3.82751 9.79771 3.31563 9.17398 3.01336 8.44423C2.71109 7.71448 2.632 6.91149 2.7861 6.13679C2.94019 5.3621 3.32055 4.65049 3.87908 4.09197C4.4376 3.53344 5.14921 3.15308 5.9239 2.99898C6.6986 2.84489 7.50159 2.92397 8.23134 3.22625C8.96109 3.52852 9.58482 4.0404 10.0236 4.69715C10.4625 5.35391 10.6967 6.12605 10.6967 6.91592C10.6967 7.97511 10.2759 8.99091 9.52698 9.73987C8.77803 10.4888 7.76222 10.9096 6.70303 10.9096Z" fill="#00B1BB"/>
</svg>
