<svg width="22" height="21" viewBox="0 0 22 21" fill="none" xmlns="http://www.w3.org/2000/svg">
<path d="M15.7285 7.33296C15.9494 7.33203 16.161 7.24434 16.3179 7.0888L16.9157 6.49101C17.0038 6.41553 17.0754 6.32264 17.1259 6.21819C17.1765 6.11373 17.2049 5.99995 17.2093 5.884C17.2138 5.76805 17.1943 5.65242 17.1519 5.54438C17.1096 5.43633 17.0454 5.3382 16.9634 5.25615C16.8813 5.1741 16.7832 5.10989 16.6751 5.06756C16.5671 5.02523 16.4515 5.0057 16.3355 5.01017C16.2196 5.01465 16.1058 5.04305 16.0013 5.09359C15.8969 5.14413 15.804 5.21571 15.7285 5.30385L15.1728 5.90164C15.016 6.05939 14.928 6.27278 14.928 6.49522C14.928 6.71765 15.016 6.93105 15.1728 7.0888C15.3212 7.23644 15.5194 7.32349 15.7285 7.33296V7.33296ZM10.963 5.36278C11.1863 5.36278 11.4005 5.27408 11.5584 5.11618C11.7163 4.95828 11.805 4.74413 11.805 4.52083V3.67887C11.805 3.45557 11.7163 3.24142 11.5584 3.08352C11.4005 2.92562 11.1863 2.83691 10.963 2.83691C10.7397 2.83691 10.5256 2.92562 10.3677 3.08352C10.2098 3.24142 10.1211 3.45557 10.1211 3.67887V4.52083C10.1211 4.74413 10.2098 4.95828 10.3677 5.11618C10.5256 5.27408 10.7397 5.36278 10.963 5.36278ZM4.22737 10.4145H3.38541C3.16211 10.4145 2.94796 10.5032 2.79006 10.6611C2.63216 10.819 2.54346 11.0332 2.54346 11.2565C2.54346 11.4798 2.63216 11.6939 2.79006 11.8518C2.94796 12.0097 3.16211 12.0984 3.38541 12.0984H4.22737C4.45067 12.0984 4.66483 12.0097 4.82272 11.8518C4.98062 11.6939 5.06933 11.4798 5.06933 11.2565C5.06933 11.0332 4.98062 10.819 4.82272 10.6611C4.66483 10.5032 4.45067 10.4145 4.22737 10.4145ZM5.60818 7.0888C5.765 7.24434 5.97667 7.33203 6.19755 7.33296C6.30836 7.3336 6.4182 7.31237 6.52078 7.27047C6.62336 7.22857 6.71667 7.16683 6.79534 7.0888C6.95215 6.93105 7.04017 6.71765 7.04017 6.49522C7.04017 6.27278 6.95215 6.05939 6.79534 5.90164L6.19755 5.30385C6.03648 5.16591 5.8293 5.09384 5.6174 5.10202C5.4055 5.11021 5.20449 5.19805 5.05454 5.348C4.90459 5.49794 4.81675 5.69895 4.80856 5.91085C4.80038 6.12275 4.87246 6.32994 5.01039 6.49101L5.60818 7.0888ZM18.5406 10.4145H17.6987C17.4754 10.4145 17.2612 10.5032 17.1033 10.6611C16.9454 10.819 16.8567 11.0332 16.8567 11.2565C16.8567 11.4798 16.9454 11.6939 17.1033 11.8518C17.2612 12.0097 17.4754 12.0984 17.6987 12.0984H18.5406C18.7639 12.0984 18.9781 12.0097 19.136 11.8518C19.2939 11.6939 19.3826 11.4798 19.3826 11.2565C19.3826 11.0332 19.2939 10.819 19.136 10.6611C18.9781 10.5032 18.7639 10.4145 18.5406 10.4145ZM10.1211 16.3082H7.5952C7.3719 16.3082 7.15774 16.3969 6.99985 16.5548C6.84195 16.7127 6.75324 16.9269 6.75324 17.1502C6.75324 17.3735 6.84195 17.5876 6.99985 17.7455C7.15774 17.9034 7.3719 17.9921 7.5952 17.9921H10.1211C10.3444 17.9921 10.5585 17.9034 10.7164 17.7455C10.8743 17.5876 10.963 17.3735 10.963 17.1502C10.963 16.9269 10.8743 16.7127 10.7164 16.5548C10.5585 16.3969 10.3444 16.3082 10.1211 16.3082ZM16.0148 12.9404H15.2738C15.4865 12.4045 15.5951 11.833 15.5938 11.2565C15.5938 10.0283 15.1059 8.85048 14.2375 7.98204C13.369 7.1136 12.1912 6.62572 10.963 6.62572C9.73487 6.62572 8.55702 7.1136 7.68858 7.98204C6.82015 8.85048 6.33226 10.0283 6.33226 11.2565C6.33098 11.833 6.43956 12.4045 6.65221 12.9404H5.91128C5.68798 12.9404 5.47383 13.0291 5.31593 13.187C5.15803 13.3449 5.06933 13.5591 5.06933 13.7824C5.06933 14.0057 5.15803 14.2198 5.31593 14.3777C5.47383 14.5356 5.68798 14.6243 5.91128 14.6243H16.0148C16.2381 14.6243 16.4522 14.5356 16.6101 14.3777C16.768 14.2198 16.8567 14.0057 16.8567 13.7824C16.8567 13.5591 16.768 13.3449 16.6101 13.187C16.4522 13.0291 16.2381 12.9404 16.0148 12.9404ZM13.3626 12.9404H8.56345C8.20972 12.45 8.01835 11.8612 8.01618 11.2565C8.01618 10.4749 8.32665 9.72539 8.87929 9.17275C9.43193 8.6201 10.1815 8.30963 10.963 8.30963C11.7446 8.30963 12.4941 8.6201 13.0468 9.17275C13.5994 9.72539 13.9099 10.4749 13.9099 11.2565C13.9077 11.8612 13.7163 12.45 13.3626 12.9404ZM14.3309 16.3082H13.4889C13.2656 16.3082 13.0514 16.3969 12.8935 16.5548C12.7356 16.7127 12.6469 16.9269 12.6469 17.1502C12.6469 17.3735 12.7356 17.5876 12.8935 17.7455C13.0514 17.9034 13.2656 17.9921 13.4889 17.9921H14.3309C14.5542 17.9921 14.7683 17.9034 14.9262 17.7455C15.0841 17.5876 15.1728 17.3735 15.1728 17.1502C15.1728 16.9269 15.0841 16.7127 14.9262 16.5548C14.7683 16.3969 14.5542 16.3082 14.3309 16.3082Z" fill="#00B1BB"/>
</svg>
