<svg width="20" height="21" viewBox="0 0 20 21" fill="none" xmlns="http://www.w3.org/2000/svg">
<path d="M14.5588 7.76045C14.7751 7.75954 14.9823 7.67368 15.1358 7.52139L15.7211 6.93609C15.8074 6.86219 15.8775 6.77125 15.927 6.66898C15.9765 6.56671 16.0043 6.45531 16.0087 6.34178C16.0131 6.22825 15.9939 6.11504 15.9525 6.00925C15.911 5.90347 15.8482 5.80739 15.7678 5.72706C15.6875 5.64672 15.5914 5.58385 15.4856 5.54241C15.3799 5.50097 15.2666 5.48184 15.1531 5.48622C15.0396 5.49061 14.9282 5.51841 14.8259 5.56789C14.7236 5.61737 14.6327 5.68746 14.5588 5.77376L14.0147 6.35905C13.8612 6.5135 13.775 6.72243 13.775 6.94022C13.775 7.158 13.8612 7.36693 14.0147 7.52139C14.1601 7.66595 14.354 7.75118 14.5588 7.76045ZM9.89295 5.83146C10.1116 5.83146 10.3213 5.74461 10.4759 5.59001C10.6305 5.43542 10.7173 5.22574 10.7173 5.00711V4.18275C10.7173 3.96412 10.6305 3.75444 10.4759 3.59985C10.3213 3.44525 10.1116 3.3584 9.89295 3.3584C9.67432 3.3584 9.46464 3.44525 9.31005 3.59985C9.15545 3.75444 9.0686 3.96412 9.0686 4.18275V5.00711C9.0686 5.22574 9.15545 5.43542 9.31005 5.59001C9.46464 5.74461 9.67432 5.83146 9.89295 5.83146ZM3.29812 10.7776H2.47377C2.25514 10.7776 2.04546 10.8644 1.89086 11.019C1.73627 11.1736 1.64941 11.3833 1.64941 11.6019C1.64941 11.8206 1.73627 12.0302 1.89086 12.1848C2.04546 12.3394 2.25514 12.4263 2.47377 12.4263H3.29812C3.51675 12.4263 3.72643 12.3394 3.88103 12.1848C4.03562 12.0302 4.12248 11.8206 4.12248 11.6019C4.12248 11.3833 4.03562 11.1736 3.88103 11.019C3.72643 10.8644 3.51675 10.7776 3.29812 10.7776ZM4.65006 7.52139C4.80361 7.67368 5.01085 7.75954 5.22711 7.76045C5.3356 7.76108 5.44315 7.74028 5.54358 7.69926C5.64402 7.65823 5.73537 7.59779 5.8124 7.52139C5.96594 7.36693 6.05212 7.158 6.05212 6.94022C6.05212 6.72243 5.96594 6.5135 5.8124 6.35905L5.22711 5.77376C5.06941 5.6387 4.86656 5.56813 4.65909 5.57615C4.45162 5.58416 4.25481 5.67017 4.108 5.81698C3.96118 5.96379 3.87518 6.1606 3.86716 6.36807C3.85915 6.57554 3.92972 6.77839 4.06477 6.93609L4.65006 7.52139ZM17.3121 10.7776H16.4878C16.2692 10.7776 16.0595 10.8644 15.9049 11.019C15.7503 11.1736 15.6634 11.3833 15.6634 11.6019C15.6634 11.8206 15.7503 12.0302 15.9049 12.1848C16.0595 12.3394 16.2692 12.4263 16.4878 12.4263H17.3121C17.5308 12.4263 17.7404 12.3394 17.895 12.1848C18.0496 12.0302 18.1365 11.8206 18.1365 11.6019C18.1365 11.3833 18.0496 11.1736 17.895 11.019C17.7404 10.8644 17.5308 10.7776 17.3121 10.7776ZM9.0686 16.5481H6.59554C6.3769 16.5481 6.16723 16.6349 6.01263 16.7895C5.85804 16.9441 5.77118 17.1538 5.77118 17.3724C5.77118 17.591 5.85804 17.8007 6.01263 17.9553C6.16723 18.1099 6.3769 18.1968 6.59554 18.1968H9.0686C9.28723 18.1968 9.49691 18.1099 9.6515 17.9553C9.8061 17.8007 9.89295 17.591 9.89295 17.3724C9.89295 17.1538 9.8061 16.9441 9.6515 16.7895C9.49691 16.6349 9.28723 16.5481 9.0686 16.5481ZM14.8391 13.2506H14.1136C14.3218 12.726 14.4282 12.1664 14.4269 11.6019C14.4269 10.3995 13.9492 9.24623 13.0989 8.39595C12.2487 7.54567 11.0954 7.06799 9.89295 7.06799C8.69048 7.06799 7.53725 7.54567 6.68697 8.39595C5.83669 9.24623 5.35901 10.3995 5.35901 11.6019C5.35775 12.1664 5.46406 12.726 5.67226 13.2506H4.94683C4.7282 13.2506 4.51852 13.3375 4.36392 13.4921C4.20933 13.6467 4.12248 13.8564 4.12248 14.075C4.12248 14.2936 4.20933 14.5033 4.36392 14.6579C4.51852 14.8125 4.7282 14.8994 4.94683 14.8994H14.8391C15.0577 14.8994 15.2674 14.8125 15.422 14.6579C15.5766 14.5033 15.6634 14.2936 15.6634 14.075C15.6634 13.8564 15.5766 13.6467 15.422 13.4921C15.2674 13.3375 15.0577 13.2506 14.8391 13.2506ZM12.2424 13.2506H7.54354C7.19721 12.7705 7.00984 12.194 7.00771 11.6019C7.00771 10.8367 7.31169 10.1029 7.85278 9.56177C8.39387 9.02068 9.12774 8.7167 9.89295 8.7167C10.6582 8.7167 11.392 9.02068 11.9331 9.56177C12.4742 10.1029 12.7782 10.8367 12.7782 11.6019C12.7761 12.194 12.5887 12.7705 12.2424 13.2506ZM13.1904 16.5481H12.366C12.1474 16.5481 11.9377 16.6349 11.7831 16.7895C11.6285 16.9441 11.5417 17.1538 11.5417 17.3724C11.5417 17.591 11.6285 17.8007 11.7831 17.9553C11.9377 18.1099 12.1474 18.1968 12.366 18.1968H13.1904C13.409 18.1968 13.6187 18.1099 13.7733 17.9553C13.9279 17.8007 14.0147 17.591 14.0147 17.3724C14.0147 17.1538 13.9279 16.9441 13.7733 16.7895C13.6187 16.6349 13.409 16.5481 13.1904 16.5481Z" fill="white"/>
</svg>
