<svg width="23" height="19" viewBox="0 0 23 19" fill="none" xmlns="http://www.w3.org/2000/svg">
<path d="M4.14993 10.4444C4.14993 12.0013 4.84789 13.4114 5.9777 14.4357C6.08667 14.5344 6.14115 14.5838 6.17331 14.6313C6.204 14.6766 6.22186 14.7156 6.23556 14.7673C6.24993 14.8213 6.24993 14.8829 6.24993 15.0059V17.2444C6.24993 17.5089 6.24993 17.6411 6.30715 17.7422C6.35748 17.831 6.43779 17.9033 6.53658 17.9485C6.64888 18 6.7959 18 7.08993 18H9.08493C9.37896 18 9.526 18 9.63825 17.9485C9.73705 17.9033 9.81738 17.831 9.86767 17.7422C9.9249 17.6411 9.9249 17.5089 9.9249 17.2444V16.8667C9.9249 16.6022 9.9249 16.47 9.98212 16.3689C10.0325 16.2801 10.1128 16.2078 10.2115 16.1626C10.3239 16.1111 10.4709 16.1111 10.7649 16.1111H12.2349C12.529 16.1111 12.676 16.1111 12.7882 16.1626C12.8871 16.2078 12.9674 16.2801 13.0177 16.3689C13.0749 16.47 13.0749 16.6022 13.0749 16.8667V17.2444C13.0749 17.5089 13.0749 17.6411 13.1321 17.7422C13.1825 17.831 13.2628 17.9033 13.3615 17.9485C13.4739 18 13.6209 18 13.9149 18H15.91C16.204 18 16.351 18 16.4633 17.9485C16.5622 17.9033 16.6425 17.831 16.6928 17.7422C16.75 17.6411 16.75 17.5089 16.75 17.2444V16.323C16.75 16.1322 16.75 16.0367 16.7802 15.9601C16.8091 15.8867 16.8457 15.8353 16.9075 15.7807C16.972 15.7239 17.0813 15.6783 17.2999 15.5869C18.3312 15.1563 19.2112 14.482 19.8487 13.6463C19.9608 13.4993 20.0168 13.4259 20.0767 13.3824C20.1339 13.3409 20.1853 13.3166 20.2556 13.2976C20.3293 13.2778 20.4168 13.2778 20.5916 13.2778H21.16C21.454 13.2778 21.601 13.2778 21.7133 13.2263C21.8122 13.1811 21.8925 13.1088 21.9428 13.0199C22 12.9189 22 12.7867 22 12.5222V9.29761C22 9.04591 22 8.92002 21.948 8.82283C21.8964 8.7265 21.81 8.64877 21.7029 8.60231C21.5948 8.55556 21.4548 8.55556 21.175 8.55556C20.9724 8.55556 20.871 8.55556 20.7895 8.53081C20.7015 8.50418 20.6397 8.46867 20.5759 8.40803C20.5168 8.35174 20.4684 8.25768 20.3718 8.06964C20.0615 7.46587 19.6367 6.91956 19.1223 6.45326C19.0133 6.35448 18.9588 6.3051 18.9267 6.2576C18.8959 6.21228 18.878 6.17328 18.8644 6.12167C18.85 6.06758 18.85 6.00604 18.85 5.88295V4.83499C18.85 4.49494 18.85 4.32493 18.7712 4.21065C18.7023 4.11054 18.5942 4.03722 18.4683 4.00507C18.3245 3.96838 18.1427 4.01509 17.7792 4.10851L15.2881 4.74871C15.2457 4.75959 15.2246 4.76503 15.203 4.76884C15.1839 4.77224 15.1646 4.77467 15.1452 4.77613C15.1233 4.77778 15.1013 4.77778 15.0573 4.77778H14.607M4.14993 10.4444C4.14993 8.26835 5.51357 6.3788 7.51417 5.42935M4.14993 10.4444H3.1C1.9402 10.4444 1 9.59879 1 8.55556C1 7.85638 1.42231 7.24596 2.05 6.91936M14.65 4.30556C14.65 6.13117 13.0047 7.61111 10.975 7.61111C8.94535 7.61111 7.3 6.13117 7.3 4.30556C7.3 2.47994 8.94535 1 10.975 1C13.0047 1 14.65 2.47994 14.65 4.30556Z" stroke="white" stroke-width="2" stroke-linecap="round" stroke-linejoin="round"/>
</svg>
