<svg width="62" height="71" viewBox="0 0 62 71" fill="none" xmlns="http://www.w3.org/2000/svg">
<path d="M5.20312 63.2969L6.1248 63.6849L6.12837 63.6762L5.20312 63.2969ZM27.8438 8.07812L26.9246 7.68421L26.9215 7.69146L26.9185 7.69876L27.8438 8.07812ZM29.6719 5.6875L29.0371 4.91477L29.0302 4.92045L29.0234 4.92626L29.6719 5.6875ZM36.1875 5.6875L35.539 6.44874L35.5458 6.45455L35.5528 6.46023L36.1875 5.6875ZM38.0625 8.07812L38.9877 7.69876L38.9848 7.69146L38.9816 7.68421L38.0625 8.07812ZM60.7031 63.2969L59.7778 63.6763L59.7815 63.6849L60.7031 63.2969ZM59.4375 69.1562L60.1343 69.8735L60.1395 69.8685L60.1446 69.8634L59.4375 69.1562ZM52.4531 69.7656L51.8487 70.5623L51.8576 70.569L51.8666 70.5756L52.4531 69.7656ZM50.4375 67.1406L51.3622 66.7599L51.3592 66.7527L50.4375 67.1406ZM44.5781 53.2188L45.4998 52.8308L45.2422 52.2188H44.5781V53.2188ZM21.3281 53.2188V52.2188H20.664L20.4064 52.8308L21.3281 53.2188ZM15.4688 67.1406L14.547 66.7527L14.5441 66.7599L15.4688 67.1406ZM13.4531 69.7656L14.0396 70.5756L14.0486 70.569L14.0575 70.5623L13.4531 69.7656ZM6.46875 69.1562L5.76164 69.8634L5.76677 69.8685L5.77196 69.8735L6.46875 69.1562ZM25.0781 43.0469L24.1464 42.6837L23.6151 44.0469H25.0781V43.0469ZM40.8281 43.0469V44.0469H42.2912L41.7598 42.6837L40.8281 43.0469ZM32.9531 22.8438L33.8848 22.4806L32.9531 20.0903L32.0214 22.4806L32.9531 22.8438ZM5.82812 65.3125C5.82812 64.6742 5.93426 64.1374 6.12476 63.6849L4.28149 62.9088C3.97199 63.6439 3.82812 64.4508 3.82812 65.3125H5.82812ZM6.12837 63.6762L28.769 8.45749L26.9185 7.69876L4.27788 62.9175L6.12837 63.6762ZM28.7629 8.47204C29.068 7.76025 29.5747 7.08394 30.3203 6.44874L29.0234 4.92626C28.0816 5.72856 27.3695 6.646 26.9246 7.68421L28.7629 8.47204ZM30.3066 6.46023C30.9749 5.91126 31.8334 5.60938 32.9531 5.60938V3.60938C31.4478 3.60938 30.1188 4.02624 29.0371 4.91477L30.3066 6.46023ZM32.9531 5.60938C34.0739 5.60938 34.9083 5.91149 35.539 6.44874L36.836 4.92626C35.7792 4.02601 34.4573 3.60938 32.9531 3.60938V5.60938ZM35.5528 6.46023C36.3273 7.09648 36.8424 7.76972 37.1434 8.47204L38.9816 7.68421C38.5326 6.63653 37.7977 5.71602 36.8222 4.91477L35.5528 6.46023ZM37.1373 8.45749L59.7779 63.6762L61.6284 62.9175L38.9877 7.69876L37.1373 8.45749ZM59.7815 63.6849C59.972 64.1374 60.0781 64.6742 60.0781 65.3125H62.0781C62.0781 64.4508 61.9343 63.6439 61.6248 62.9088L59.7815 63.6849ZM60.0781 65.3125C60.0781 66.5008 59.6477 67.5318 58.7304 68.4491L60.1446 69.8634C61.4148 68.5932 62.0781 67.0617 62.0781 65.3125H60.0781ZM58.7407 68.439C57.8257 69.3279 56.7915 69.75 55.5938 69.75V71.75C57.3335 71.75 58.8618 71.1096 60.1343 69.8735L58.7407 68.439ZM55.5938 69.75C54.6032 69.75 53.7645 69.4806 53.0396 68.9557L51.8666 70.5756C52.9543 71.3632 54.2093 71.75 55.5938 71.75V69.75ZM53.0575 68.9689C52.2947 68.3902 51.7326 67.6594 51.3622 66.7599L49.5128 67.5214C50.0174 68.7468 50.7991 69.766 51.8487 70.5623L53.0575 68.9689ZM51.3592 66.7527L45.4998 52.8308L43.6564 53.6067L49.5158 67.5285L51.3592 66.7527ZM44.5781 52.2188H21.3281V54.2188H44.5781V52.2188ZM20.4064 52.8308L14.5471 66.7527L16.3904 67.5285L22.2498 53.6067L20.4064 52.8308ZM14.5441 66.7599C14.1737 67.6594 13.6116 68.3902 12.8487 68.9689L14.0575 70.5623C15.1072 69.766 15.8888 68.7468 16.3934 67.5214L14.5441 66.7599ZM12.8666 68.9557C12.1417 69.4806 11.3031 69.75 10.3125 69.75V71.75C11.6969 71.75 12.952 71.3632 14.0396 70.5756L12.8666 68.9557ZM10.3125 69.75C9.11479 69.75 8.08057 69.3279 7.16554 68.439L5.77196 69.8735C7.04443 71.1096 8.57271 71.75 10.3125 71.75V69.75ZM7.17586 68.4491C6.25856 67.5318 5.82812 66.5008 5.82812 65.3125H3.82812C3.82812 67.0617 4.49144 68.5932 5.76164 69.8634L7.17586 68.4491ZM25.0781 44.0469H40.8281V42.0469H25.0781V44.0469ZM41.7598 42.6837L33.8848 22.4806L32.0214 23.2069L39.8964 43.4101L41.7598 42.6837ZM32.0214 22.4806L24.1464 42.6837L26.0098 43.4101L33.8848 23.2069L32.0214 22.4806Z" fill="white"/>
<path d="M1.82812 61.3125C1.82812 60.5625 1.95312 59.8906 2.20312 59.2969L24.8438 4.07812C25.2188 3.20312 25.8281 2.40625 26.6719 1.6875C27.5469 0.96875 28.6406 0.609375 29.9531 0.609375C31.2656 0.609375 32.3438 0.96875 33.1875 1.6875C34.0625 2.40625 34.6875 3.20312 35.0625 4.07812L57.7031 59.2969C57.9531 59.8906 58.0781 60.5625 58.0781 61.3125C58.0781 62.7812 57.5312 64.0625 56.4375 65.1562C55.3438 66.2188 54.0625 66.75 52.5938 66.75C51.4062 66.75 50.3594 66.4219 49.4531 65.7656C48.5469 65.0781 47.875 64.2031 47.4375 63.1406L41.5781 49.2188H18.3281L12.4688 63.1406C12.0312 64.2031 11.3594 65.0781 10.4531 65.7656C9.54688 66.4219 8.5 66.75 7.3125 66.75C5.84375 66.75 4.5625 66.2188 3.46875 65.1562C2.375 64.0625 1.82812 62.7812 1.82812 61.3125ZM22.0781 39.0469H37.8281L29.9531 18.8438L22.0781 39.0469Z" fill="white"/>
</svg>
