<svg width="14" height="15" viewBox="0 0 14 15" fill="none" xmlns="http://www.w3.org/2000/svg">
<path d="M5.83356 10.9687L4.80106 12.0437C4.53032 12.3338 4.16312 12.4967 3.78023 12.4967C3.39734 12.4967 3.03014 12.3338 2.7594 12.0437C2.48866 11.7536 2.33655 11.3602 2.33655 10.9499C2.33655 10.5397 2.48866 10.1463 2.7594 9.85619L5.40773 7.01244C5.66767 6.73303 6.01791 6.57136 6.38599 6.56089C6.75407 6.55042 7.11182 6.69195 7.38523 6.95619L7.45523 7.01869C7.56585 7.13472 7.71496 7.19892 7.86975 7.19716C8.02455 7.1954 8.17235 7.12783 8.28065 7.00931C8.38894 6.89079 8.44886 6.73104 8.44722 6.56518C8.44558 6.39933 8.38251 6.24097 8.2719 6.12494C8.23897 6.07933 8.20393 6.03552 8.1669 5.99369C7.66894 5.52951 7.02492 5.28547 6.36531 5.311C5.7057 5.33653 5.0798 5.62972 4.6144 6.13119L1.93106 8.97494C1.4751 9.50668 1.22851 10.2066 1.24277 10.9285C1.25704 11.6505 1.53106 12.3386 2.00762 12.8492C2.48417 13.3598 3.12641 13.6534 3.80021 13.6686C4.47401 13.6839 5.12727 13.4197 5.62356 12.9312L6.63273 11.8749C6.73237 11.7585 6.78715 11.6059 6.78604 11.4479C6.78492 11.2899 6.728 11.1382 6.62673 11.0234C6.52546 10.9085 6.38734 10.8391 6.24019 10.8289C6.09303 10.8188 5.94774 10.8687 5.83356 10.9687ZM12.0694 2.06869C11.5787 1.54619 10.915 1.25293 10.2231 1.25293C9.53133 1.25293 8.86761 1.54619 8.3769 2.06869L7.36773 3.12494C7.26809 3.24141 7.21331 3.39399 7.21443 3.55198C7.21554 3.70997 7.27246 3.86165 7.37373 3.97649C7.47501 4.09133 7.61312 4.16082 7.76028 4.17097C7.90743 4.18112 8.05272 4.13117 8.1669 4.03119L9.17606 2.95619C9.44681 2.66611 9.81401 2.50314 10.1969 2.50314C10.5798 2.50314 10.947 2.66611 11.2177 2.95619C11.4885 3.24627 11.6406 3.6397 11.6406 4.04994C11.6406 4.46017 11.4885 4.85361 11.2177 5.14369L8.5694 7.98744C8.30946 8.26685 7.95922 8.42851 7.59114 8.43898C7.22306 8.44945 6.86531 8.30793 6.5919 8.04369L6.5219 7.98119C6.41128 7.86516 6.26217 7.80096 6.10738 7.80271C5.95258 7.80447 5.80478 7.87204 5.69648 7.99056C5.58818 8.10908 5.52826 8.26884 5.52991 8.43469C5.53155 8.60054 5.59461 8.7589 5.70523 8.87494C5.7476 8.92137 5.7924 8.96519 5.8394 9.00619C6.33796 9.46897 6.9817 9.71209 7.64091 9.68658C8.30012 9.66106 8.9258 9.3688 9.3919 8.86869L12.0461 6.02494C12.5368 5.50248 12.8148 4.79321 12.8191 4.05197C12.8235 3.31073 12.554 2.59774 12.0694 2.06869Z" fill="#00B1BB"/>
</svg>
