<svg width="54" height="54" viewBox="0 0 54 54" fill="none" xmlns="http://www.w3.org/2000/svg">
<rect width="54" height="54" rx="27" fill="#F3F3F3"/>
<path d="M36.22 27C36.7178 26.4524 36.9956 25.7401 37 25C37 24.2044 36.6839 23.4413 36.1213 22.8787C35.5587 22.3161 34.7956 22 34 22H28.82C28.9797 21.5482 29.0289 21.0647 28.9634 20.5899C28.8979 20.1152 28.7196 19.6631 28.4435 19.2714C28.1674 18.8797 27.8014 18.5599 27.3763 18.3387C26.9512 18.1175 26.4792 18.0013 26 18H20C19.2044 18 18.4413 18.3161 17.8787 18.8787C17.3161 19.4413 17 20.2044 17 21C17.0044 21.7401 17.2822 22.4524 17.78 23C17.288 23.55 17.0161 24.2621 17.0161 25C17.0161 25.7379 17.288 26.45 17.78 27C17.288 27.55 17.0161 28.2621 17.0161 29C17.0161 29.7379 17.288 30.45 17.78 31C17.2822 31.5476 17.0044 32.2599 17 33C17 33.7956 17.3161 34.5587 17.8787 35.1213C18.4413 35.6839 19.2044 36 20 36H34C34.5778 35.9969 35.1423 35.8271 35.6259 35.5108C36.1094 35.1946 36.4914 34.7455 36.7259 34.2174C36.9603 33.6894 37.0373 33.1049 36.9476 32.5341C36.8578 31.9633 36.6052 31.4306 36.22 31C36.712 30.45 36.9839 29.7379 36.9839 29C36.9839 28.2621 36.712 27.55 36.22 27ZM26 34H20C19.7348 34 19.4804 33.8946 19.2929 33.7071C19.1054 33.5196 19 33.2652 19 33C19 32.7348 19.1054 32.4804 19.2929 32.2929C19.4804 32.1054 19.7348 32 20 32H26C26.2652 32 26.5196 32.1054 26.7071 32.2929C26.8946 32.4804 27 32.7348 27 33C27 33.2652 26.8946 33.5196 26.7071 33.7071C26.5196 33.8946 26.2652 34 26 34ZM26 30H20C19.7348 30 19.4804 29.8946 19.2929 29.7071C19.1054 29.5196 19 29.2652 19 29C19 28.7348 19.1054 28.4804 19.2929 28.2929C19.4804 28.1054 19.7348 28 20 28H26C26.2652 28 26.5196 28.1054 26.7071 28.2929C26.8946 28.4804 27 28.7348 27 29C27 29.2652 26.8946 29.5196 26.7071 29.7071C26.5196 29.8946 26.2652 30 26 30ZM26 26H20C19.7348 26 19.4804 25.8946 19.2929 25.7071C19.1054 25.5196 19 25.2652 19 25C19 24.7348 19.1054 24.4804 19.2929 24.2929C19.4804 24.1054 19.7348 24 20 24H26C26.2652 24 26.5196 24.1054 26.7071 24.2929C26.8946 24.4804 27 24.7348 27 25C27 25.2652 26.8946 25.5196 26.7071 25.7071C26.5196 25.8946 26.2652 26 26 26ZM26 22H20C19.7348 22 19.4804 21.8946 19.2929 21.7071C19.1054 21.5196 19 21.2652 19 21C19 20.7348 19.1054 20.4804 19.2929 20.2929C19.4804 20.1054 19.7348 20 20 20H26C26.2652 20 26.5196 20.1054 26.7071 20.2929C26.8946 20.4804 27 20.7348 27 21C27 21.2652 26.8946 21.5196 26.7071 21.7071C26.5196 21.8946 26.2652 22 26 22ZM34.69 33.71C34.6014 33.8035 34.4942 33.8776 34.3755 33.9275C34.2567 33.9774 34.1288 34.0021 34 34H28.82C29.0598 33.3549 29.0598 32.6451 28.82 32H34C34.2652 32 34.5196 32.1054 34.7071 32.2929C34.8946 32.4804 35 32.7348 35 33C34.9982 33.133 34.9698 33.2643 34.9165 33.3862C34.8633 33.5082 34.7863 33.6182 34.69 33.71V33.71ZM34.69 29.71C34.6014 29.8035 34.4942 29.8776 34.3755 29.9275C34.2567 29.9774 34.1288 30.0021 34 30H28.82C29.0598 29.3549 29.0598 28.6451 28.82 28H34C34.2652 28 34.5196 28.1054 34.7071 28.2929C34.8946 28.4804 35 28.7348 35 29C34.9982 29.133 34.9698 29.2643 34.9165 29.3862C34.8633 29.5082 34.7863 29.6182 34.69 29.71V29.71ZM34.69 25.71C34.6014 25.8035 34.4942 25.8776 34.3755 25.9275C34.2567 25.9774 34.1288 26.0021 34 26H28.82C29.0598 25.3549 29.0598 24.6451 28.82 24H34C34.2652 24 34.5196 24.1054 34.7071 24.2929C34.8946 24.4804 35 24.7348 35 25C34.9982 25.133 34.9698 25.2643 34.9165 25.3862C34.8633 25.5082 34.7863 25.6182 34.69 25.71V25.71Z" fill="#FFA666"/>
</svg>
