<svg width="28" height="27" viewBox="0 0 28 27" fill="none" xmlns="http://www.w3.org/2000/svg">
<path d="M25.8593 13.6347H23.2198C21.762 13.6347 20.5803 14.8165 20.5803 16.2743V18.9138C20.5803 20.3716 21.762 21.5533 23.2198 21.5533C24.6776 21.5533 25.8593 20.3716 25.8593 18.9138V13.6347ZM25.8593 13.6347C25.8593 7.07476 20.5414 1.75684 13.9814 1.75684C7.42144 1.75684 2.10352 7.07476 2.10352 13.6347M2.10352 13.6347V18.9138C2.10352 20.3716 3.28528 21.5533 4.74305 21.5533C6.20083 21.5533 7.38259 20.3716 7.38259 18.9138V16.2743C7.38259 14.8165 6.20083 13.6347 4.74305 13.6347H2.10352Z" stroke="#FF8833" stroke-width="2.63953" stroke-linecap="round" stroke-linejoin="round"/>
<path d="M25.8595 16.2744V21.5535C25.8595 24.193 24.9796 25.5128 23.2199 25.5128C21.4602 25.5128 19.2606 25.5128 16.6211 25.5128" stroke="#FF8833" stroke-width="2.63953" stroke-linecap="round" stroke-linejoin="round"/>
</svg>
