<svg width="17" height="18" viewBox="0 0 17 18" fill="none" xmlns="http://www.w3.org/2000/svg">
<path d="M12.0613 2.71895C12.2783 2.84246 12.5351 2.87492 12.7757 2.80925C13.0164 2.74358 13.2214 2.58511 13.3461 2.36842C13.4492 2.18592 13.6098 2.0429 13.8027 1.96179C13.9956 1.88068 14.2099 1.86608 14.4119 1.92026C14.614 1.97445 14.7924 2.09436 14.9192 2.26119C15.046 2.42802 15.114 2.63234 15.1125 2.8421C15.1125 3.09336 15.013 3.33433 14.8359 3.512C14.6587 3.68966 14.4184 3.78947 14.1679 3.78947C13.9174 3.78947 13.6771 3.88929 13.4999 4.06695C13.3228 4.24462 13.2233 4.48558 13.2233 4.73684C13.2233 4.9881 13.3228 5.22907 13.4999 5.40673C13.6771 5.5844 13.9174 5.68421 14.1679 5.68421C14.6653 5.68389 15.1538 5.55229 15.5844 5.30264C16.015 5.05299 16.3725 4.69408 16.621 4.26197C16.8695 3.82987 17.0002 3.33978 17 2.84097C16.9998 2.34215 16.8687 1.85217 16.6199 1.42026C16.371 0.988356 16.0133 0.629733 15.5824 0.380428C15.1516 0.131124 14.663 -7.98576e-05 14.1656 3.64657e-08C13.6682 7.99305e-05 13.1796 0.131441 12.7489 0.380883C12.3182 0.630326 11.9605 0.989064 11.7118 1.42105C11.6494 1.52918 11.6089 1.64863 11.5926 1.77253C11.5764 1.89642 11.5848 2.02231 11.6173 2.14295C11.6497 2.26359 11.7057 2.37659 11.7819 2.47544C11.8581 2.5743 11.9531 2.65706 12.0613 2.71895ZM16.1233 9.47368C15.8753 9.44141 15.6247 9.50904 15.4264 9.66177C15.2281 9.81449 15.0982 10.0398 15.0653 10.2884C14.8671 11.8944 14.0902 13.3722 12.8809 14.4436C11.6717 15.515 10.1136 16.106 8.50005 16.1053H3.21951L3.83353 15.4895C4.00947 15.312 4.10822 15.0719 4.10822 14.8216C4.10822 14.5713 4.00947 14.3312 3.83353 14.1537C2.91246 13.2263 2.28563 12.0463 2.032 10.7624C1.77837 9.47839 1.90928 8.14786 2.40825 6.93836C2.90722 5.72887 3.75193 4.69451 4.83597 3.96558C5.92001 3.23665 7.1949 2.84574 8.50005 2.8421C8.75059 2.8421 8.99086 2.74229 9.16801 2.56463C9.34517 2.38696 9.44469 2.14599 9.44469 1.89474C9.44469 1.64348 9.34517 1.40251 9.16801 1.22485C8.99086 1.04718 8.75059 0.947368 8.50005 0.947368C6.90288 0.95405 5.33989 1.4118 3.99015 2.26818C2.6404 3.12456 1.55849 4.34494 0.868361 5.78948C0.178237 7.23403 -0.0921871 8.84433 0.0880707 10.4359C0.268329 12.0274 0.891977 13.5359 1.88757 14.7884L0.272233 16.38C0.141156 16.5132 0.0523638 16.6824 0.0170587 16.8662C-0.0182465 17.05 0.00151794 17.2401 0.073858 17.4126C0.144725 17.5856 0.26507 17.7337 0.419727 17.8383C0.574384 17.9428 0.756431 17.9991 0.942927 18H8.50005C10.5702 18.0003 12.5693 17.2431 14.1224 15.8704C15.6755 14.4977 16.6758 12.6039 16.9357 10.5442C16.953 10.4203 16.9456 10.2943 16.9141 10.1733C16.8825 10.0523 16.8274 9.93875 16.7519 9.83922C16.6763 9.7397 16.5819 9.65616 16.474 9.59342C16.3661 9.53068 16.2469 9.48999 16.1233 9.47368ZM14.5269 6.69789C14.3549 6.62159 14.1641 6.5985 13.979 6.63158L13.8089 6.68842L13.6389 6.77368L13.4972 6.89684C13.4122 6.98414 13.3449 7.08708 13.2988 7.2C13.243 7.31817 13.217 7.44832 13.2233 7.57895C13.2205 7.7053 13.243 7.83092 13.2894 7.94842C13.3382 8.06212 13.4088 8.16512 13.4972 8.25158C13.5855 8.33938 13.6901 8.40885 13.8052 8.45599C13.9203 8.50314 14.0436 8.52704 14.1679 8.52631C14.4184 8.52631 14.6587 8.4265 14.8359 8.24884C15.013 8.07117 15.1125 7.8302 15.1125 7.57895C15.1157 7.45467 15.0898 7.33138 15.037 7.21895C14.9355 6.9913 14.7538 6.80916 14.5269 6.70737V6.69789Z" fill="#676767"/>
</svg>
