<svg width="300" height="59" viewBox="0 0 300 59" fill="none" xmlns="http://www.w3.org/2000/svg">
<path d="M5.95404 0.121926H294.046C297.267 0.121926 299.878 2.73305 299.878 5.95404V53.046C299.878 56.267 297.267 58.8781 294.046 58.8781H5.95404C2.73305 58.8781 0.121926 56.2669 0.121926 53.046V5.95404C0.121926 2.73305 2.73305 0.121926 5.95404 0.121926Z" fill="white" stroke="#ACACAC" stroke-width="0.243852"/>
<path d="M32.3973 30.6339C32.5337 30.7218 32.5337 30.9211 32.3973 31.0091L17.9747 40.3079C17.8414 40.3938 17.6305 40.3015 17.6305 40.1066V40.0437V39.9813V39.9192V39.8576V39.7962V39.7353V39.6747V39.6145V39.5547V39.4952V39.4361V39.3774V39.319V39.261V39.2033V39.146V39.0891V39.0325V38.9762V38.9203V38.8647V38.8095V38.7547V38.7002V38.646V38.5921V38.5386V38.4855V38.4326V38.3801V38.328V38.2761V38.2246V38.1735V38.1226V38.0721V38.0219V37.972V37.9224V37.8732V37.8242V37.7756V37.7273V37.6793V37.6316V37.5842V37.5371V37.4903V37.4439V37.3977V37.3518V37.3063V37.261V37.216V37.1713V37.1269V37.0828V37.039V36.9954V36.9522V36.9092V36.8665V36.8241V36.782V36.7401V36.6986V36.6573V36.6162V36.5755V36.535V36.4947V36.4548V36.4151V36.3757V36.3365V36.2976V36.2589V36.2205V36.1824V36.1445V36.1068V36.0694V36.0323V35.9954V35.9587V35.9223V35.8861V35.8502V35.8145V35.779V35.7438V35.7088V35.6741V35.6395V35.6052V35.5711V35.5373V35.5037V35.4703V35.4371V35.4041V35.3714V35.3388V35.3065V35.2744V35.2425V35.2108V35.1793V35.148V35.117V35.0861V35.0554V35.025V34.9947V34.9646V34.9347V34.905V34.8755V34.8462V34.8171V34.7882V34.7594V34.7308V34.7025V34.6743V34.6462V34.6184V34.5907V34.5632V34.5359V34.5087V34.4817V34.4549V34.4282V34.4017V34.3754V34.3492V34.3232V34.2973V34.2716V34.2461V34.2207V34.1954V34.1703V34.1454V34.1206V34.0959V34.0714V34.047V34.0228V33.9987V33.9747V33.9509V33.9272V33.9036V33.8802V33.8569V33.8337V33.8106V33.7877V33.7649V33.7422V33.7196V33.6972V33.6748V33.6526V33.6305V33.6085V33.5866V33.5648V33.5431V33.5215V33.5001V33.4787V33.4574V33.4362V33.4151V33.3941V33.3732V33.3524V33.3317V33.3111V33.2905V33.2701V33.2497V33.2294V33.2092V33.189V33.169V33.149V33.1291V33.1092V33.0895V33.0698V33.0501V33.0306V33.011V32.9916V32.9722V32.9529V32.9336V32.9144V32.8952V32.8761V32.8571V32.8381V32.8191V32.8002V32.7813V32.7625V32.7437V32.7249V32.7062V32.6875V32.6689V32.6503V32.6317V32.6132V32.5946V32.5761V32.5577V32.5392V32.5208V32.5024V32.484V32.4656V32.4473V32.4289V32.4106V32.3923V32.374V32.3557V32.3374V32.3191V32.3008V32.2825V32.2642V32.2459V32.2276V32.2093V32.191V32.1726V32.1543V32.1359V32.1176V32.0992V32.0808V32.0624V32.044V32.0255V32.007V31.9885V31.97V31.9514V31.9328V31.9142V31.8955V31.8769V31.8581V31.8394V31.8205V31.8017V31.7828V31.7639V31.7449V31.7259V31.7068V31.6876V31.6685V31.6492V31.6299V31.6106V31.5912V31.5717V31.5522V31.5326V31.5129V31.4932V31.4734V31.4535V31.4335V31.4135V31.3934V31.3733V31.353V31.3327V31.3123V31.2918V31.2712V31.2505V31.2298V31.2089V31.188V31.1669V31.1458V31.1246V31.1033V31.0819V31.0603V31.0387V31.017V30.9952V30.9732V30.9512V30.929V30.9067V30.8843V30.8618V30.8392V30.8165V30.7936V30.7706V30.7475V30.7243V30.7009V30.6774V30.6538V30.6301V30.6062V30.5821V30.558V30.5337V30.5093V30.4847V30.46V30.4351V30.4101V30.3849V30.3596V30.3341V30.3085V30.2828V30.2568V30.2308V30.2045V30.1781V30.1515V30.1248V30.0979V30.0708V30.0436V30.0162V29.9886V29.9609V29.933V29.9049V29.8766V29.8481V29.8195V29.7906V29.7616V29.7324V29.703V29.6735V29.6437V29.6137V29.5836V29.5532V29.5226V29.4919V29.4609V29.4298V29.3984V29.3668V29.3351V29.3031V29.2709V29.2385V29.2058V29.173V29.1399V29.1067V29.0732V29.0395V29.0055V28.9713V28.9369V28.9023V28.8675V28.8324V28.797V28.7615V28.7257V28.6897V28.6534V28.6169V28.5801V28.5431V28.5058V28.4683V28.4306V28.3926V28.3543V28.3158V28.2771V28.238V28.1988V28.1592V28.1194V28.0793V28.039V27.9984V27.9575V27.9164V27.875V27.8333V27.7913V27.7491V27.7065V27.6637V27.6206V27.5773V27.5336V27.4897V27.4454V27.4009V27.3561V27.311V27.2656V27.2199V27.1739V27.1276V27.081V27.0341V26.9869V26.9394V26.8916V26.8434V26.795V26.7462V26.6972V26.6478V26.5981V26.548V26.4977V26.447V26.396V26.3447V26.2931V26.2411V26.1888V26.1362V26.0832V26.0299V25.9763V25.9223V25.868V25.8133V25.7583V25.7029V25.6472V25.5912V25.5348V25.478V25.4209V25.3635V25.3057V25.2475V25.189V25.1301V25.0708V25.0112V24.9512V24.8909V24.8301V24.769V24.7076V24.6457V24.5835V24.5209V24.4579V24.3946V24.3308V24.2667V24.2022V24.1373V24.072V24.0064V23.9403V23.8738V23.807V23.7397V23.6721V23.604V23.5356V23.4667V23.3975V23.3278V23.2577V23.1872V23.1163V23.045V22.9733V22.9012V22.8286V22.7556V22.6822V22.6084V22.5342V22.4595V22.3844V22.3089V22.2329V22.1565V22.0797V22.0024V21.9247V21.8466V21.768V21.689V21.6095V21.5296C17.6305 21.3436 17.8339 21.2443 17.9747 21.3351L32.3973 30.6339Z" fill="#00B1BB" stroke="#00B1BB" stroke-width="1.33919"/>
<path d="M142.651 29.2656H44.2974C43.624 29.2656 43.0781 29.8115 43.0781 30.4849C43.0781 31.1583 43.624 31.7041 44.2974 31.7041H142.651C143.324 31.7041 143.87 31.1583 143.87 30.4849C143.87 29.8115 143.324 29.2656 142.651 29.2656Z" fill="#ACACAC"/>
<path d="M288.5 29H142.5C141.672 29 141 29.6716 141 30.5C141 31.3284 141.672 32 142.5 32H288.5C289.328 32 290 31.3284 290 30.5C290 29.6716 289.328 29 288.5 29Z" fill="#F3F3F3"/>
<path d="M141.676 35.3266C140.753 35.3292 139.849 35.0575 139.081 34.5461C138.312 34.0346 137.712 33.3065 137.357 32.4538C137.003 31.6012 136.909 30.6625 137.089 29.7567C137.269 28.8509 137.713 28.0188 138.366 27.3659C139.019 26.7129 139.851 26.2685 140.757 26.089C141.663 25.9095 142.601 26.0029 143.454 26.3574C144.306 26.712 145.035 27.3117 145.546 28.0805C146.058 28.8494 146.329 29.7527 146.327 30.6761C146.323 31.9085 145.832 33.0894 144.961 33.9608C144.089 34.8322 142.908 35.3233 141.676 35.3266ZM141.676 28.3188C141.209 28.3163 140.752 28.4524 140.363 28.7099C139.974 28.9673 139.67 29.3346 139.489 29.7651C139.309 30.1956 139.26 30.67 139.35 31.1281C139.439 31.5862 139.663 32.0074 139.992 32.3384C140.321 32.6693 140.741 32.8952 141.199 32.9872C141.656 33.0792 142.131 33.0332 142.562 32.8552C142.994 32.6771 143.363 32.375 143.622 31.9871C143.882 31.5992 144.021 31.1429 144.021 30.6761C144.021 30.0532 143.774 29.4555 143.335 29.0138C142.895 28.5721 142.299 28.3222 141.676 28.3188Z" fill="#00B1BB"/>
<path d="M262.482 13.0386L261.287 12.6403L261.85 11.5147C261.907 11.3969 261.926 11.2643 261.904 11.1352C261.883 11.0061 261.822 10.8868 261.729 10.7939L260.383 9.44707C260.289 9.35355 260.169 9.29166 260.038 9.27011C259.908 9.24856 259.774 9.26843 259.655 9.32693L258.53 9.88969L258.132 8.69462C258.09 8.57005 258.01 8.4617 257.903 8.38463C257.797 8.30757 257.669 8.26563 257.537 8.26465H255.64C255.508 8.26431 255.378 8.30564 255.271 8.38279C255.163 8.45995 255.082 8.56903 255.04 8.69462L254.641 9.88969L253.516 9.32693C253.398 9.26989 253.265 9.25081 253.136 9.27233C253.007 9.29384 252.888 9.3549 252.795 9.44707L251.448 10.7939C251.355 10.8873 251.293 11.0077 251.271 11.1382C251.25 11.2686 251.269 11.4025 251.328 11.5211L251.891 12.6466L250.696 13.0449C250.571 13.087 250.463 13.1669 250.386 13.2734C250.309 13.3799 250.267 13.5078 250.266 13.6393V15.5362C250.265 15.6688 250.307 15.7981 250.384 15.9059C250.461 16.0137 250.57 16.0945 250.696 16.1369L251.891 16.5353L251.328 17.6608C251.271 17.7786 251.252 17.9112 251.273 18.0403C251.295 18.1695 251.356 18.2887 251.448 18.3816L252.795 19.7285C252.888 19.822 253.009 19.8839 253.139 19.9054C253.27 19.927 253.403 19.9071 253.522 19.8486L254.648 19.2859L255.046 20.4809C255.088 20.6065 255.169 20.7156 255.277 20.7927C255.385 20.8699 255.514 20.9112 255.647 20.9109H257.544C257.676 20.9112 257.805 20.8699 257.913 20.7927C258.021 20.7156 258.102 20.6065 258.144 20.4809L258.543 19.2859L259.668 19.8486C259.785 19.9042 259.916 19.9225 260.044 19.901C260.172 19.8795 260.29 19.8193 260.383 19.7285L261.729 18.3816C261.823 18.2882 261.885 18.1678 261.906 18.0374C261.928 17.9069 261.908 17.773 261.85 17.6545L261.287 16.529L262.482 16.1306C262.606 16.0885 262.715 16.0087 262.792 15.9022C262.869 15.7956 262.911 15.6677 262.912 15.5362V13.6393C262.912 13.5067 262.871 13.3774 262.794 13.2696C262.717 13.1618 262.607 13.081 262.482 13.0386ZM261.647 15.081L260.888 15.3339C260.714 15.3905 260.554 15.4844 260.419 15.609C260.285 15.7337 260.179 15.8861 260.109 16.0557C260.039 16.2254 260.007 16.4082 260.015 16.5914C260.023 16.7747 260.071 16.954 260.155 17.117L260.515 17.8379L259.82 18.5334L259.118 18.154C258.956 18.0732 258.778 18.0282 258.597 18.022C258.416 18.0159 258.236 18.0487 258.069 18.1182C257.901 18.1878 257.751 18.2924 257.628 18.4252C257.504 18.5579 257.411 18.7156 257.354 18.8875L257.101 19.6463H256.096L255.843 18.8875C255.786 18.713 255.692 18.5529 255.567 18.4184C255.443 18.2838 255.29 18.1779 255.121 18.1081C254.951 18.0384 254.768 18.0063 254.585 18.0142C254.402 18.0222 254.222 18.0699 254.059 18.154L253.339 18.5144L252.643 17.8189L253.023 17.117C253.107 16.954 253.154 16.7747 253.162 16.5914C253.17 16.4082 253.138 16.2254 253.068 16.0557C252.999 15.8861 252.893 15.7337 252.758 15.609C252.624 15.4844 252.464 15.3905 252.289 15.3339L251.53 15.081V14.0946L252.289 13.8416C252.464 13.785 252.624 13.6912 252.758 13.5665C252.893 13.4419 252.999 13.2894 253.068 13.1198C253.138 12.9502 253.17 12.7674 253.162 12.5841C253.154 12.4009 253.107 12.2215 253.023 12.0585L252.662 11.3567L253.358 10.6611L254.059 11.0215C254.222 11.1057 254.402 11.1534 254.585 11.1613C254.768 11.1692 254.951 11.1372 255.121 11.0674C255.29 10.9976 255.443 10.8918 255.567 10.7572C255.692 10.6226 255.786 10.4625 255.843 10.288L256.096 9.52927H257.082L257.335 10.288C257.391 10.4625 257.485 10.6226 257.61 10.7572C257.735 10.8918 257.887 10.9976 258.057 11.0674C258.226 11.1372 258.409 11.1692 258.592 11.1613C258.776 11.1534 258.955 11.1057 259.118 11.0215L259.839 10.6611L260.534 11.3567L260.155 12.0585C260.074 12.2207 260.029 12.3983 260.023 12.5794C260.017 12.7604 260.05 12.9407 260.119 13.108C260.189 13.2752 260.293 13.4256 260.426 13.5489C260.559 13.6722 260.717 13.7656 260.888 13.8227L261.647 14.0756V15.081ZM256.589 12.0585C256.089 12.0585 255.6 12.2069 255.184 12.4848C254.768 12.7627 254.443 13.1577 254.252 13.6199C254.061 14.082 254.011 14.5906 254.108 15.0812C254.206 15.5718 254.447 16.0225 254.8 16.3762C255.154 16.7299 255.605 16.9708 256.095 17.0684C256.586 17.166 257.094 17.1159 257.557 16.9245C258.019 16.7331 258.414 16.4089 258.692 15.9929C258.97 15.577 259.118 15.088 259.118 14.5878C259.118 13.917 258.852 13.2736 258.377 12.7993C257.903 12.325 257.26 12.0585 256.589 12.0585V12.0585ZM256.589 15.8524C256.339 15.8524 256.094 15.7782 255.886 15.6393C255.678 15.5003 255.516 15.3028 255.42 15.0717C255.325 14.8406 255.3 14.5864 255.348 14.3411C255.397 14.0957 255.518 13.8704 255.695 13.6935C255.871 13.5167 256.097 13.3962 256.342 13.3474C256.587 13.2987 256.842 13.3237 257.073 13.4194C257.304 13.5151 257.501 13.6772 257.64 13.8852C257.779 14.0931 257.853 14.3377 257.853 14.5878C257.853 14.9232 257.72 15.2448 257.483 15.482C257.246 15.7192 256.924 15.8524 256.589 15.8524Z" fill="#00B1BB"/>
<path d="M282.307 9.593C282.204 9.54857 282.091 9.53219 281.98 9.54552C281.869 9.55885 281.764 9.60142 281.674 9.66889L278.652 12.0593H276.343C276.176 12.0593 276.015 12.126 275.896 12.2446C275.778 12.3632 275.711 12.524 275.711 12.6917V16.4861C275.711 16.6538 275.778 16.8147 275.896 16.9333C276.015 17.0519 276.176 17.1185 276.343 17.1185H278.652L281.643 19.5089C281.754 19.5982 281.892 19.6472 282.035 19.6481C282.129 19.6496 282.223 19.6279 282.307 19.5848C282.414 19.5336 282.505 19.453 282.569 19.3523C282.633 19.2516 282.667 19.1349 282.667 19.0157V10.1622C282.667 10.043 282.633 9.92629 282.569 9.82559C282.505 9.72488 282.414 9.64426 282.307 9.593V9.593ZM281.402 17.7003L279.265 15.9928C279.154 15.9036 279.016 15.8545 278.873 15.8537H276.976V13.3241H278.873C279.016 13.3233 279.154 13.2743 279.265 13.185L281.402 11.4775V17.7003ZM284.021 9.58668C283.938 9.57505 283.853 9.5799 283.772 9.60094C283.691 9.62198 283.614 9.6588 283.547 9.7093C283.481 9.7598 283.424 9.823 283.382 9.89527C283.339 9.96755 283.311 10.0475 283.3 10.1305C283.288 10.2136 283.293 10.2981 283.314 10.3793C283.335 10.4605 283.372 10.5367 283.422 10.6036C283.524 10.7388 283.676 10.828 283.844 10.8515C284.739 10.9895 285.556 11.4435 286.146 12.1313C286.736 12.8191 287.06 13.6954 287.06 14.6016C287.06 15.5077 286.736 16.384 286.146 17.0718C285.556 17.7597 284.739 18.2136 283.844 18.3517C283.676 18.3634 283.52 18.4413 283.409 18.5682C283.299 18.6951 283.244 18.8606 283.255 19.0283C283.267 19.196 283.345 19.3522 283.472 19.4625C283.599 19.5728 283.764 19.6282 283.932 19.6165H284.021C285.218 19.4354 286.31 18.831 287.099 17.9132C287.889 16.9954 288.323 15.8249 288.323 14.6142C288.323 13.4036 287.889 12.2331 287.099 11.3152C286.31 10.3974 285.218 9.79306 284.021 9.61198V9.58668ZM283.73 15.7715C283.562 15.7983 283.412 15.8907 283.312 16.0283C283.213 16.1658 283.172 16.3374 283.198 16.5051C283.225 16.6728 283.318 16.823 283.455 16.9226C283.593 17.0222 283.764 17.0631 283.932 17.0363C284.001 17.0355 284.069 17.0249 284.134 17.0047C284.627 16.83 285.054 16.507 285.355 16.08C285.657 15.6531 285.819 15.1432 285.819 14.6205C285.819 14.0978 285.657 13.588 285.355 13.161C285.054 12.7341 284.627 12.4111 284.134 12.2364C283.975 12.1827 283.801 12.1946 283.65 12.2693C283.5 12.344 283.385 12.4755 283.331 12.6348C283.278 12.7942 283.289 12.9683 283.364 13.1189C283.439 13.2695 283.57 13.3843 283.73 13.438C283.97 13.529 284.176 13.6909 284.322 13.9021C284.468 14.1133 284.546 14.3639 284.546 14.6205C284.546 14.8772 284.468 15.1278 284.322 15.339C284.176 15.5502 283.97 15.7121 283.73 15.8031V15.7715Z" fill="#00B1BB"/>
<circle cx="141.729" cy="30.8204" r="2.45518" fill="#62DEE6"/>
<path d="M241.181 47.5139C242.491 47.5139 243.093 46.6263 243.093 44.4389C243.093 42.2516 242.491 41.3745 241.181 41.3745C239.87 41.3745 239.268 42.2516 239.268 44.4389C239.268 46.6263 239.87 47.5139 241.181 47.5139ZM241.181 40.7405C242.956 40.7405 243.791 41.9029 243.791 44.4389C243.791 46.975 242.956 48.1479 241.181 48.1479C239.405 48.1479 238.571 46.975 238.571 44.4389C238.571 41.9029 239.405 40.7405 241.181 40.7405ZM246.417 41.7761L245.287 42.5897C245.223 42.632 245.16 42.6531 245.086 42.6531C244.906 42.6531 244.748 42.4946 244.748 42.315C244.748 42.2093 244.8 42.0931 244.896 42.0297L246.555 40.8779C246.629 40.8251 246.692 40.8039 246.766 40.8039C246.956 40.8039 247.115 40.9624 247.115 41.1526V47.7358C247.115 47.926 246.956 48.0845 246.766 48.0845C246.576 48.0845 246.417 47.926 246.417 47.7358V41.7761ZM248.907 48.0845C248.6 48.0845 248.41 47.9366 248.41 47.5879C248.41 47.2392 248.6 47.0807 248.907 47.0807C249.213 47.0807 249.403 47.2392 249.403 47.5879C249.403 47.9366 249.213 48.0845 248.907 48.0845ZM248.907 44.1853C248.6 44.1853 248.41 44.0374 248.41 43.6887C248.41 43.34 248.6 43.1815 248.907 43.1815C249.213 43.1815 249.403 43.34 249.403 43.6887C249.403 44.0374 249.213 44.1853 248.907 44.1853ZM252.543 43.6887H252.649C254.371 43.6887 254.889 44.7877 254.889 45.9712C254.889 47.3554 254.054 48.1479 252.448 48.1479C251.318 48.1479 250.588 47.6407 250.176 46.9539C250.145 46.901 250.123 46.8482 250.123 46.7742C250.123 46.5946 250.261 46.4572 250.44 46.4572C250.536 46.4572 250.641 46.4889 250.726 46.6263C251.053 47.1652 251.592 47.5139 252.448 47.5139C253.621 47.5139 254.192 46.9539 254.192 45.9712C254.192 45.0096 253.801 44.3227 252.596 44.3227H251.856C251.677 44.3227 251.539 44.1853 251.539 44.0057C251.539 43.9106 251.571 43.8472 251.624 43.7838L253.568 41.5225H250.842C250.662 41.5225 250.525 41.3851 250.525 41.2055C250.525 41.0258 250.662 40.8885 250.842 40.8885H254.287C254.466 40.8885 254.604 41.0258 254.604 41.2055C254.604 41.2794 254.583 41.3534 254.519 41.4274L252.543 43.6887ZM258.355 43.2872C259.803 43.2872 260.807 44.0374 260.807 45.707C260.807 47.3977 259.803 48.1479 258.355 48.1479C257.193 48.1479 256.347 47.6196 255.914 46.7214C255.882 46.658 255.872 46.6052 255.872 46.5629C255.872 46.3833 256.02 46.2353 256.199 46.2353C256.294 46.2353 256.4 46.2565 256.495 46.415C256.95 47.1758 257.478 47.4928 258.355 47.4928C259.38 47.4928 260.109 46.975 260.109 45.707C260.109 44.4706 259.38 43.9317 258.355 43.9317C257.594 43.9317 257.14 44.1114 256.664 44.5763C256.601 44.6397 256.527 44.7137 256.379 44.7137C256.199 44.7137 256.051 44.5657 256.051 44.3861C256.051 44.3333 256.062 44.3016 256.073 44.2487L256.685 41.1421C256.707 41.0258 256.823 40.8885 257.002 40.8885H260.215C260.394 40.8885 260.542 41.0364 260.542 41.216C260.542 41.3957 260.394 41.5436 260.215 41.5436H257.235L256.812 43.7098C257.172 43.4562 257.658 43.2872 258.355 43.2872ZM264.293 48.5389L267.083 40.3073C267.136 40.1382 267.273 40.0642 267.411 40.0642C267.601 40.0642 267.749 40.2122 267.749 40.4024C267.749 40.4446 267.738 40.4975 267.717 40.5609L264.927 48.7925C264.874 48.9616 264.737 49.0356 264.6 49.0356C264.41 49.0356 264.262 48.8876 264.262 48.6974C264.262 48.6551 264.272 48.6023 264.293 48.5389ZM271.389 42.1142C271.674 41.2583 272.414 40.7405 273.502 40.7405C274.918 40.7405 275.764 41.5647 275.764 42.8011C275.764 45.3371 271.843 46.0768 271.843 47.3449H275.531C275.711 47.3449 275.859 47.4928 275.859 47.6724C275.859 47.8521 275.711 48 275.531 48H271.452C271.273 48 271.125 47.8521 271.125 47.6724C271.125 45.3477 275.056 45.0941 275.056 42.8011C275.056 41.9874 274.506 41.3745 273.502 41.3745C272.625 41.3745 272.245 41.8183 272.002 42.3467C271.939 42.4841 271.833 42.558 271.696 42.558C271.516 42.558 271.368 42.4101 271.368 42.2305C271.368 42.2199 271.368 42.1776 271.389 42.1142ZM277.15 48.0845C276.844 48.0845 276.654 47.9366 276.654 47.5879C276.654 47.2392 276.844 47.0807 277.15 47.0807C277.457 47.0807 277.647 47.2392 277.647 47.5879C277.647 47.9366 277.457 48.0845 277.15 48.0845ZM277.15 44.1853C276.844 44.1853 276.654 44.0374 276.654 43.6887C276.654 43.34 276.844 43.1815 277.15 43.1815C277.457 43.1815 277.647 43.34 277.647 43.6887C277.647 44.0374 277.457 44.1853 277.15 44.1853ZM281.178 47.5139C282.488 47.5139 283.091 46.6263 283.091 44.4389C283.091 42.2516 282.488 41.3745 281.178 41.3745C279.868 41.3745 279.265 42.2516 279.265 44.4389C279.265 46.6263 279.868 47.5139 281.178 47.5139ZM281.178 40.7405C282.953 40.7405 283.788 41.9029 283.788 44.4389C283.788 46.975 282.953 48.1479 281.178 48.1479C279.403 48.1479 278.568 46.975 278.568 44.4389C278.568 41.9029 279.403 40.7405 281.178 40.7405ZM288.739 45.707H289.342C289.532 45.707 289.68 45.8443 289.68 46.024C289.68 46.2142 289.532 46.3621 289.342 46.3621H288.739V47.7358C288.739 47.926 288.581 48.0845 288.391 48.0845C288.2 48.0845 288.042 47.926 288.042 47.7358V46.3621H284.956C284.777 46.3621 284.629 46.2142 284.629 46.0346C284.629 45.9606 284.65 45.8972 284.703 45.8232L288.105 40.9624C288.169 40.8779 288.253 40.8145 288.391 40.8145C288.581 40.8145 288.739 40.973 288.739 41.1632V45.707ZM285.569 45.707H288.042V42.1565L285.569 45.707Z" fill="#00B1BB"/>
</svg>
