<svg width="62" height="70" viewBox="0 0 62 70" fill="none" xmlns="http://www.w3.org/2000/svg">
<path d="M40.7344 6.76562L40.4045 7.70966L40.4113 7.71203L40.4181 7.71431L40.7344 6.76562ZM46.875 10.4688L46.1396 11.1465L46.1468 11.1541L46.875 10.4688ZM50.2031 15.7656L49.2655 16.1134L49.2674 16.1184L50.2031 15.7656ZM49.2656 30.2031L48.3981 29.7057L48.3959 29.7095L49.2656 30.2031ZM44.2031 35.1719L43.7669 34.2721L41.691 35.2786L43.8447 36.1054L44.2031 35.1719ZM51.7969 40.9844L50.9459 41.5097L50.9506 41.5172L51.7969 40.9844ZM10.3594 68.3594L9.6421 69.0562L9.64714 69.0614L9.65227 69.0665L10.3594 68.3594ZM19.875 60.0156H18.875V61.0156H19.875V60.0156ZM40.4062 43.7031L39.6857 44.3965L39.6923 44.4034L39.6991 44.4102L40.4062 43.7031ZM19.875 41.2188V40.2188H18.875V41.2188H19.875ZM19.875 31.7969H18.875V32.7969H19.875V31.7969ZM38.0625 29.5938L38.7848 30.2854L38.792 30.2777L38.0625 29.5938ZM19.875 15.3906V14.3906H18.875V15.3906H19.875ZM9.76562 64.4219V10.9375H7.76562V64.4219H9.76562ZM9.76562 10.9375C9.76562 9.66579 10.1955 8.62497 11.0665 7.75398L9.65227 6.33977C8.39826 7.59378 7.76562 9.14671 7.76562 10.9375H9.76562ZM11.0665 7.75398C11.9706 6.8499 13.0434 6.40625 14.3438 6.40625V4.40625C12.5191 4.40625 10.9357 5.05635 9.65227 6.33977L11.0665 7.75398ZM14.3438 6.40625H31.5938V4.40625H14.3438V6.40625ZM31.5938 6.40625C35.0107 6.40625 37.9413 6.84902 40.4045 7.70966L41.0642 5.82159C38.3399 4.86973 35.1768 4.40625 31.5938 4.40625V6.40625ZM40.4181 7.71431C42.9262 8.55031 44.8129 9.70676 46.1396 11.1464L47.6104 9.79107C45.9996 8.04324 43.7926 6.73094 41.0506 5.81694L40.4181 7.71431ZM46.1468 11.1541C47.5606 12.6563 48.596 14.3086 49.2656 16.1134L51.1407 15.4178C50.3727 13.3476 49.1894 11.4687 47.6032 9.78339L46.1468 11.1541ZM49.2674 16.1184C49.9383 17.8978 50.2812 19.8856 50.2812 22.0938H52.2812C52.2812 19.6769 51.9054 17.446 51.1388 15.4128L49.2674 16.1184ZM50.2812 22.0938C50.2812 25.0055 49.644 27.5327 48.3981 29.7057L50.1332 30.7005C51.5748 28.186 52.2812 25.307 52.2812 22.0938H50.2812ZM48.3959 29.7095C47.167 31.8749 45.6192 33.374 43.7669 34.2721L44.6394 36.0717C46.9121 34.9698 48.7393 33.1564 50.1353 30.6967L48.3959 29.7095ZM43.8447 36.1054C47.1942 37.3914 49.5255 39.2086 50.9459 41.5096L52.6478 40.4591C50.9432 37.6976 48.212 35.6398 44.5615 34.2383L43.8447 36.1054ZM50.9506 41.5172C52.4182 43.8481 53.1875 46.8525 53.1875 50.5938H55.1875C55.1875 46.585 54.363 43.1832 52.6431 40.4516L50.9506 41.5172ZM53.1875 50.5938C53.1875 56.3838 51.4763 60.8379 48.1461 64.0804L49.5414 65.5133C53.3362 61.8183 55.1875 56.8037 55.1875 50.5938H53.1875ZM48.1461 64.0804C44.8298 67.3095 39.9455 69 33.3281 69V71C40.2732 71 45.7327 69.2218 49.5414 65.5133L48.1461 64.0804ZM33.3281 69H14.3438V71H33.3281V69ZM14.3438 69C13.0434 69 11.9706 68.5564 11.0665 67.6523L9.65227 69.0665C10.9357 70.3499 12.5191 71 14.3438 71V69ZM11.0767 67.6626C10.1963 66.7563 9.76562 65.6941 9.76562 64.4219H7.76562C7.76562 66.2121 8.39744 67.7749 9.6421 69.0562L11.0767 67.6626ZM19.875 61.0156H33.3281V59.0156H19.875V61.0156ZM33.3281 61.0156C36.6517 61.0156 39.3285 60.1926 41.1684 58.3708C43.0102 56.5471 43.8438 53.891 43.8438 50.5938H41.8438C41.8438 53.5777 41.0914 55.6326 39.7612 56.9496C38.4293 58.2684 36.3483 59.0156 33.3281 59.0156V61.0156ZM43.8438 50.5938C43.8438 47.4406 42.9762 44.8589 41.1134 42.996L39.6991 44.4102C41.0863 45.7974 41.8438 47.8094 41.8438 50.5938H43.8438ZM41.1268 43.0097C39.2845 41.0952 36.6241 40.2188 33.3281 40.2188V42.2188C36.2821 42.2188 38.3405 42.9986 39.6857 44.3965L41.1268 43.0097ZM33.3281 40.2188H19.875V42.2188H33.3281V40.2188ZM18.875 41.2188V60.0156H20.875V41.2188H18.875ZM19.875 32.7969H31.5938V30.7969H19.875V32.7969ZM31.5938 32.7969C34.6541 32.7969 37.1211 32.0229 38.7848 30.2853L37.3402 28.9022C36.1914 30.1021 34.3459 30.7969 31.5938 30.7969V32.7969ZM38.792 30.2777C40.4101 28.5518 41.1719 26.2705 41.1719 23.5469H39.1719C39.1719 25.8858 38.5274 27.6357 37.333 28.9098L38.792 30.2777ZM41.1719 23.5469C41.1719 20.6608 40.4105 18.3158 38.7164 16.705C37.0317 15.1032 34.595 14.3906 31.5938 14.3906V16.3906C34.3112 16.3906 36.1636 17.0375 37.3383 18.1544C38.5035 19.2623 39.1719 20.9955 39.1719 23.5469H41.1719ZM31.5938 14.3906H19.875V16.3906H31.5938V14.3906ZM18.875 15.3906V31.7969H20.875V15.3906H18.875Z" fill="white"/>
<path d="M5.76562 60.4219V6.9375C5.76562 5.40625 6.29688 4.10938 7.35938 3.04688C8.45312 1.95313 9.78125 1.40625 11.3438 1.40625H28.5938C32.0938 1.40625 35.1406 1.85938 37.7344 2.76562C40.3594 3.64063 42.4062 4.875 43.875 6.46875C45.375 8.0625 46.4844 9.82813 47.2031 11.7656C47.9219 13.6719 48.2812 15.7813 48.2812 18.0938C48.2812 21.1562 47.6094 23.8594 46.2656 26.2031C44.9531 28.5156 43.2656 30.1719 41.2031 31.1719C44.7031 32.5156 47.2344 34.4531 48.7969 36.9844C50.3906 39.5156 51.1875 42.7188 51.1875 46.5938C51.1875 52.5938 49.4062 57.3281 45.8438 60.7969C42.2812 64.2656 37.1094 66 30.3281 66H11.3438C9.78125 66 8.45312 65.4531 7.35938 64.3594C6.29688 63.2656 5.76562 61.9531 5.76562 60.4219ZM16.875 56.0156H30.3281C36.6719 56.0156 39.8438 52.875 39.8438 46.5938C39.8438 43.625 39.0312 41.3281 37.4062 39.7031C35.8125 38.0469 33.4531 37.2188 30.3281 37.2188H16.875V56.0156ZM16.875 27.7969H28.5938C31.5 27.7969 33.6562 27.0625 35.0625 25.5938C36.4688 24.0938 37.1719 22.0781 37.1719 19.5469C37.1719 14.1094 34.3125 11.3906 28.5938 11.3906H16.875V27.7969Z" fill="white"/>
</svg>
