<svg width="15" height="15" viewBox="0 0 15 15" fill="none" xmlns="http://www.w3.org/2000/svg">
<g clip-path="url(#clip0_3255_47381)">
<path d="M3.75 8.125H1.25C1.08424 8.125 0.925268 8.19085 0.808058 8.30806C0.690848 8.42527 0.625 8.58424 0.625 8.75V13.75C0.625 13.9158 0.690848 14.0747 0.808058 14.1919C0.925268 14.3092 1.08424 14.375 1.25 14.375H3.75C3.91576 14.375 4.07473 14.3092 4.19194 14.1919C4.30915 14.0747 4.375 13.9158 4.375 13.75V8.75C4.375 8.58424 4.30915 8.42527 4.19194 8.30806C4.07473 8.19085 3.91576 8.125 3.75 8.125ZM3.125 13.125H1.875V9.375H3.125V13.125ZM13.75 5.625H11.25C11.0842 5.625 10.9253 5.69085 10.8081 5.80806C10.6908 5.92527 10.625 6.08424 10.625 6.25V13.75C10.625 13.9158 10.6908 14.0747 10.8081 14.1919C10.9253 14.3092 11.0842 14.375 11.25 14.375H13.75C13.9158 14.375 14.0747 14.3092 14.1919 14.1919C14.3092 14.0747 14.375 13.9158 14.375 13.75V6.25C14.375 6.08424 14.3092 5.92527 14.1919 5.80806C14.0747 5.69085 13.9158 5.625 13.75 5.625ZM13.125 13.125H11.875V6.875H13.125V13.125ZM8.75 0.625H6.25C6.08424 0.625 5.92527 0.690848 5.80806 0.808058C5.69085 0.925268 5.625 1.08424 5.625 1.25V13.75C5.625 13.9158 5.69085 14.0747 5.80806 14.1919C5.92527 14.3092 6.08424 14.375 6.25 14.375H8.75C8.91576 14.375 9.07473 14.3092 9.19194 14.1919C9.30915 14.0747 9.375 13.9158 9.375 13.75V1.25C9.375 1.08424 9.30915 0.925268 9.19194 0.808058C9.07473 0.690848 8.91576 0.625 8.75 0.625ZM8.125 13.125H6.875V1.875H8.125V13.125Z" fill="#00B1BB"/>
</g>
<defs>
<clipPath id="clip0_3255_47381">
<rect width="15" height="15" fill="white"/>
</clipPath>
</defs>
</svg>
