<svg width="27" height="27" viewBox="0 0 27 27" fill="none" xmlns="http://www.w3.org/2000/svg">
<path d="M19.125 12.375H18C17.7016 12.375 17.4155 12.4935 17.2045 12.7045C16.9935 12.9155 16.875 13.2016 16.875 13.5C16.875 13.7984 16.9935 14.0845 17.2045 14.2955C17.4155 14.5065 17.7016 14.625 18 14.625H19.125C19.4234 14.625 19.7095 14.5065 19.9205 14.2955C20.1315 14.0845 20.25 13.7984 20.25 13.5C20.25 13.2016 20.1315 12.9155 19.9205 12.7045C19.7095 12.4935 19.4234 12.375 19.125 12.375ZM19.125 16.875H18C17.7016 16.875 17.4155 16.9935 17.2045 17.2045C16.9935 17.4155 16.875 17.7016 16.875 18C16.875 18.2984 16.9935 18.5845 17.2045 18.7955C17.4155 19.0065 17.7016 19.125 18 19.125H19.125C19.4234 19.125 19.7095 19.0065 19.9205 18.7955C20.1315 18.5845 20.25 18.2984 20.25 18C20.25 17.7016 20.1315 17.4155 19.9205 17.2045C19.7095 16.9935 19.4234 16.875 19.125 16.875ZM12.375 10.125H19.125C19.4234 10.125 19.7095 10.0065 19.9205 9.7955C20.1315 9.58452 20.25 9.29837 20.25 9C20.25 8.70163 20.1315 8.41548 19.9205 8.2045C19.7095 7.99353 19.4234 7.875 19.125 7.875H12.375C12.0766 7.875 11.7905 7.99353 11.5795 8.2045C11.3685 8.41548 11.25 8.70163 11.25 9C11.25 9.29837 11.3685 9.58452 11.5795 9.7955C11.7905 10.0065 12.0766 10.125 12.375 10.125ZM23.625 3.375H7.875C7.57663 3.375 7.29048 3.49353 7.0795 3.7045C6.86853 3.91548 6.75 4.20163 6.75 4.5V7.875H3.375C3.07663 7.875 2.79048 7.99353 2.5795 8.2045C2.36853 8.41548 2.25 8.70163 2.25 9V20.25C2.25 21.1451 2.60558 22.0036 3.23851 22.6365C3.87145 23.2694 4.72989 23.625 5.625 23.625H20.25C21.4435 23.625 22.5881 23.1509 23.432 22.307C24.2759 21.4631 24.75 20.3185 24.75 19.125V4.5C24.75 4.20163 24.6315 3.91548 24.4205 3.7045C24.2095 3.49353 23.9234 3.375 23.625 3.375ZM6.75 20.25C6.75 20.5484 6.63147 20.8345 6.4205 21.0455C6.20952 21.2565 5.92337 21.375 5.625 21.375C5.32663 21.375 5.04048 21.2565 4.8295 21.0455C4.61853 20.8345 4.5 20.5484 4.5 20.25V10.125H6.75V20.25ZM22.5 19.125C22.5 19.7217 22.2629 20.294 21.841 20.716C21.419 21.1379 20.8467 21.375 20.25 21.375H8.7975C8.92848 21.0142 8.99696 20.6338 9 20.25V5.625H22.5V19.125ZM12.375 14.625H13.5C13.7984 14.625 14.0845 14.5065 14.2955 14.2955C14.5065 14.0845 14.625 13.7984 14.625 13.5C14.625 13.2016 14.5065 12.9155 14.2955 12.7045C14.0845 12.4935 13.7984 12.375 13.5 12.375H12.375C12.0766 12.375 11.7905 12.4935 11.5795 12.7045C11.3685 12.9155 11.25 13.2016 11.25 13.5C11.25 13.7984 11.3685 14.0845 11.5795 14.2955C11.7905 14.5065 12.0766 14.625 12.375 14.625ZM12.375 19.125H13.5C13.7984 19.125 14.0845 19.0065 14.2955 18.7955C14.5065 18.5845 14.625 18.2984 14.625 18C14.625 17.7016 14.5065 17.4155 14.2955 17.2045C14.0845 16.9935 13.7984 16.875 13.5 16.875H12.375C12.0766 16.875 11.7905 16.9935 11.5795 17.2045C11.3685 17.4155 11.25 17.7016 11.25 18C11.25 18.2984 11.3685 18.5845 11.5795 18.7955C11.7905 19.0065 12.0766 19.125 12.375 19.125Z" fill="#9F66DB"/>
</svg>
