<svg width="87" height="66" viewBox="0 0 87 66" fill="none" xmlns="http://www.w3.org/2000/svg">
<path d="M81.9898 19.9517L70.4486 29.9925L70.4009 31.0032C70.365 31.5731 70.1756 32.3806 69.8538 33.2244C69.6761 33.6641 69.4727 34.1039 69.2589 34.5436L56.1712 23.2669C55.66 22.8272 54.9813 22.6252 54.3156 22.7087C54.196 22.732 44.5952 23.9329 35.0293 27.9608C34.0766 28.3644 33.3633 28.4841 32.8869 28.4841C32.4954 28.4841 32.2687 28.4122 32.0898 28.3297C31.8284 28.1986 31.6495 28.0327 31.4716 27.6881C31.2928 27.355 31.1742 26.8676 31.1742 26.3443C31.1742 25.6087 31.4357 24.859 31.7331 24.4912C32.1027 24.0156 32.5547 23.3623 33.1727 22.5185C34.1012 21.271 35.3616 19.6546 36.8618 18.0743C38.3606 16.4938 40.0976 14.9737 41.9182 13.9039C44.3803 12.4546 46.4867 12.0983 48.4735 12.0854C49.6993 12.0854 50.8764 12.241 52.0313 12.407C53.1734 12.5729 54.2795 12.7876 55.481 12.7876C56.2432 12.7876 57.0518 12.7041 57.8965 12.3596H57.9081C59.2176 11.8014 60.5015 10.9809 61.7994 10.054C63.7271 8.65226 65.6302 7.00094 67.0813 5.68155C67.3672 5.43212 67.6286 5.18253 67.8668 4.95633L64.6194 1.49943C63.9048 2.1644 62.9764 2.99631 61.9772 3.84008C60.9547 4.71957 59.8474 5.61075 58.8004 6.34766C57.7536 7.0961 56.7543 7.69028 56.0759 7.96293C56.0398 7.98728 55.8504 8.03486 55.481 8.03486C54.9104 8.04656 53.9345 7.89212 52.7331 7.71334C51.5318 7.53585 50.0909 7.3327 48.4735 7.3327C47.0701 7.32117 45.5106 7.4998 43.8689 7.95123C42.2387 7.4998 40.6807 7.3327 39.2643 7.3327C37.6458 7.3327 36.2188 7.53568 35.0164 7.71334C33.815 7.89212 32.8391 8.04639 32.257 8.03486C31.9002 8.03486 31.7097 7.98728 31.6736 7.96293C30.9474 7.67745 29.8645 7.01263 28.7468 6.20492C27.0457 4.98068 25.2367 3.41186 23.8692 2.1644C23.4996 1.83135 23.1661 1.52281 22.8688 1.25L19.6097 4.7069C20.3114 5.36132 21.227 6.20492 22.2506 7.0961C23.3928 8.06961 24.6663 9.11522 25.9513 10.054C27.2478 10.9811 28.533 11.8016 29.8413 12.3596C30.6861 12.7041 31.5074 12.7876 32.2568 12.7876C33.4581 12.7876 34.5771 12.5858 35.7192 12.407C35.8018 12.3954 35.8736 12.3954 35.9447 12.3826C34.3621 13.7379 32.9818 15.2117 31.8163 16.5774C30.8289 17.7297 30.0073 18.8112 29.3416 19.7024C28.699 20.5819 28.1994 21.2944 27.9729 21.5799C26.89 22.9828 26.4264 24.67 26.4147 26.3443C26.4264 27.9132 26.8435 29.5528 27.9252 30.9315C28.4608 31.6091 29.1754 32.2146 30.0317 32.6187C30.8881 33.0224 31.8757 33.2372 32.8866 33.2372C34.16 33.2372 35.481 32.9274 36.8845 32.3334C41.287 30.4802 45.8323 29.2327 49.246 28.4716C50.9598 28.0921 52.3877 27.8299 53.3869 27.6639C53.5774 27.6279 53.7321 27.6048 53.8865 27.5804L68.8426 40.4491V40.462H68.8541C68.8541 40.5094 68.8298 40.6395 68.7229 40.8413C68.545 41.1744 68.1524 41.6141 67.6527 41.9228C67.153 42.2313 66.5698 42.4101 66.0225 42.4101C65.8204 42.4101 65.6298 42.4462 65.4393 42.4809C65.1058 42.4101 64.7607 42.315 64.4284 42.1722C63.3931 41.7685 62.4288 41.1268 61.7514 40.5685C61.4064 40.2947 61.1321 40.0453 60.9543 39.8676L60.7522 39.6773L60.7046 39.6299V39.6182C60.3467 39.2376 59.8599 39.0473 59.3836 39.0473C58.9549 39.0473 58.5272 39.2017 58.1822 39.5104C57.456 40.1765 57.4084 41.3054 58.0754 42.0297C58.1346 42.1018 59.0269 43.0751 60.5013 44.086C61.2277 44.5848 62.12 45.0955 63.132 45.4992C63.3574 45.5827 63.6071 45.6778 63.8569 45.7486C63.9291 45.9031 64.0115 46.0585 64.1183 46.2001H64.1066L64.1183 46.2127C64.1543 46.2836 64.2263 46.569 64.2136 46.9136C64.2264 47.5669 63.9882 48.4222 63.6431 48.8978C63.4757 49.1472 63.3097 49.2901 63.1434 49.3851C62.9645 49.4803 62.7984 49.5396 62.4766 49.5511H62.358C62.2989 49.5394 62.2267 49.5511 62.1675 49.5628C62.1558 49.5628 62.1558 49.5628 62.1558 49.5628C60.6093 49.5628 59.1698 48.8978 58.1102 48.1726C57.5746 47.8163 57.1469 47.4487 56.8611 47.1863C56.718 47.0564 56.6112 46.9495 56.552 46.8776L56.48 46.8068L56.4684 46.7941V46.7824C56.1232 46.3785 55.6237 46.1767 55.1241 46.1767C54.7081 46.1767 54.2909 46.3194 53.9576 46.6166C53.2082 47.2582 53.1257 48.3873 53.7799 49.1242C53.8391 49.2067 54.6722 50.1454 56.1001 51.1201C57.04 51.7617 58.2775 52.4267 59.7404 52.8073C59.717 52.8433 59.7043 52.8908 59.6926 52.9257C59.5022 53.3539 59.2407 53.7821 58.5028 54.2092C58.0149 54.4947 57.6583 54.6374 57.4084 54.721C57.1587 54.7918 57.0273 54.8034 56.8496 54.8034C56.6114 54.8034 56.2663 54.7558 55.6958 54.6374C55.5876 54.613 55.4808 54.613 55.374 54.6013C55.3379 54.5897 55.3031 54.5781 55.2553 54.5538C54.6721 54.2683 53.9459 53.7693 53.4103 53.3422C53.1488 53.1404 52.9235 52.9385 52.7677 52.8073L52.59 52.6415L52.5539 52.6054H52.5423C51.8289 51.9161 50.6985 51.9522 50.0198 52.653C49.3411 53.3656 49.3655 54.4945 50.079 55.1723C50.1149 55.2071 50.8643 55.9323 51.9228 56.6807C52.1017 56.8235 52.3155 56.9547 52.5178 57.0844C52.2331 57.5487 51.9228 57.8689 51.6255 58.0708C51.15 58.4038 50.639 58.5582 49.972 58.5582C49.3772 58.5582 48.6754 58.4155 47.9735 58.1185C47.7353 58.0233 47.5088 57.8806 47.2833 57.7622C47.4134 57.2517 47.4856 56.74 47.4856 56.2178C47.4856 55.1479 47.1997 54.0548 46.5932 53.0801C45.5695 51.4405 43.857 50.467 42.0593 50.3125C42.0593 50.2521 42.0722 50.1815 42.0722 50.1222C42.0722 48.9456 41.7502 47.7457 41.0963 46.6759C39.8705 44.7032 37.7406 43.5985 35.5761 43.5985H35.54C35.4447 43.5985 35.361 43.6102 35.2785 43.6102C35.1717 42.6829 34.8742 41.7687 34.3501 40.9366C33.3392 39.3085 31.7209 38.2874 29.972 37.9661C29.9593 36.8138 29.6387 35.6371 28.9961 34.5915C27.7587 32.6073 25.6173 31.5143 23.44 31.5143C22.2618 31.5143 21.0603 31.8345 19.9892 32.5006L17.7048 33.914C17.6456 33.7957 17.5747 33.6646 17.5271 33.5462C17.1216 32.5959 16.8718 31.6443 16.8486 31.0037L16.8008 29.993L5.2596 19.9521L2 23.4097L12.2212 32.3098C12.3989 33.3796 12.7324 34.4009 13.1253 35.3512C13.375 35.9697 13.6609 36.5522 13.9456 37.0988C13.3274 38.1199 12.9823 39.2965 12.9823 40.4732C12.9823 41.6498 13.303 42.8497 13.97 43.9185C14.9808 45.5349 16.5993 46.5573 18.3481 46.8776C18.3598 48.0299 18.6815 49.2065 19.324 50.252C20.5615 52.2363 22.7027 53.3422 24.8803 53.3422C24.9638 53.3422 25.0464 53.3295 25.13 53.3178C25.2485 54.2451 25.5459 55.1593 26.07 56.0031C27.3073 57.9886 29.4488 59.0816 31.6261 59.0816C31.8399 59.0816 32.0549 59.0573 32.2687 59.034C32.3757 59.8648 32.6498 60.6969 33.1134 61.4453C34.2439 63.252 36.1946 64.2616 38.17 64.2499C39.2412 64.2499 40.3358 63.9644 41.3106 63.3587L44.2851 61.5173C44.8685 61.8979 45.4749 62.2297 46.1303 62.4919C47.32 63.0025 48.6285 63.3111 49.9726 63.3111C51.4482 63.3227 53.0192 62.9188 54.3634 61.9685C55.2314 61.3628 55.9692 60.5308 56.5757 59.5444C56.671 59.5444 56.7546 59.5561 56.85 59.5561C57.4681 59.5561 58.1351 59.4738 58.8124 59.2591C59.4792 59.0573 60.1451 58.7486 60.8597 58.3447C62.5608 57.3816 63.5843 55.9682 64.084 54.7683C64.1908 54.4943 64.2746 54.2449 64.3455 54.007C64.7497 53.8771 65.1542 53.7215 65.5121 53.5082C66.8204 52.7597 67.6766 51.6074 68.2124 50.454C68.7363 49.2901 68.9733 48.0774 68.9733 46.9136C68.9733 46.7941 68.9618 46.6872 68.9501 46.5689C69.818 46.2243 70.5918 45.7254 71.2459 45.1545C71.9245 44.5603 72.495 43.871 72.9121 43.0878C73.328 42.315 73.6139 41.4123 73.6139 40.4376C73.6139 39.7959 73.4826 39.131 73.1979 38.5008C73.1144 38.299 72.983 38.1202 72.8529 37.9299C73.3641 37.0272 73.8753 36.0176 74.2924 34.9244C74.6132 34.0923 74.8745 33.2245 75.0303 32.3217L85.25 23.4097L81.9898 19.9517ZM20.573 41.9109L20.4661 41.9817C20.1687 42.1605 19.8469 42.244 19.5262 42.244C18.9313 42.244 18.3481 41.9585 18.0146 41.4119C17.8251 41.1148 17.7416 40.7934 17.7416 40.473C17.7531 39.8788 18.039 39.308 18.5861 38.9633L22.5006 36.5277C22.8096 36.3502 23.1187 36.2665 23.4406 36.2665C24.0471 36.2665 24.6188 36.5635 24.951 37.0986L26.9739 35.85L24.951 37.1103C25.1415 37.4073 25.2253 37.716 25.2253 38.0374C25.2136 38.4528 25.0708 38.8568 24.7967 39.1781L21.4294 41.2692C21.1202 41.4595 20.8472 41.673 20.573 41.9109ZM25.8201 48.3152C25.5225 48.5055 25.2007 48.589 24.8801 48.589C24.2851 48.589 23.7019 48.2918 23.3684 47.7454C23.179 47.4484 23.0954 47.1384 23.0954 46.8181C23.107 46.4027 23.2499 45.9977 23.524 45.6774L26.8901 43.5865C27.2004 43.3961 27.4735 43.1699 27.736 42.9447L27.8545 42.8728C28.1634 42.6824 28.4727 42.6001 28.7945 42.6001C29.401 42.6117 29.9726 42.8971 30.3048 43.4436C30.4954 43.7407 30.5791 44.0493 30.5791 44.3708C30.5674 44.9765 30.2817 45.5463 29.7344 45.8909L25.8201 48.3152ZM36.4805 51.6305L32.5544 54.0661C32.2568 54.2447 31.9466 54.3284 31.6259 54.3284C31.0195 54.3284 30.4478 54.0314 30.1156 53.4963C29.925 53.1876 29.8413 52.8779 29.8413 52.5577C29.8413 51.952 30.1388 51.3811 30.6861 51.048L34.6005 48.6123C34.8979 48.4347 35.2185 48.3512 35.5405 48.3512C36.1353 48.3512 36.7058 48.6367 37.051 49.1833C37.2299 49.4805 37.3136 49.8007 37.3136 50.1222C37.3136 50.7161 37.0278 51.2859 36.4805 51.6305ZM42.168 57.227L38.8009 59.3179C38.5986 59.4491 38.3965 59.4965 38.17 59.4965C37.7772 59.4965 37.3845 59.3064 37.1591 58.9384C37.0395 58.7365 36.9803 58.5345 36.9803 58.3083C36.9803 57.9046 37.1824 57.524 37.5391 57.3105V57.2988L40.9064 55.2066C41.1213 55.088 41.3236 55.0289 41.5372 55.0289C41.9415 55.0406 42.3226 55.2309 42.5481 55.5987C42.6793 55.8007 42.727 56.0026 42.727 56.2171C42.7268 56.6213 42.5362 57.0019 42.168 57.227Z" fill="white" stroke="#FF8833" stroke-width="1.67143"/>
</svg>
