<svg width="62" height="72" viewBox="0 0 62 72" fill="none" xmlns="http://www.w3.org/2000/svg">
<path d="M50.3906 6.90625L49.9492 7.80359L49.9579 7.80777L50.3906 6.90625ZM59.4375 14.4062L60.2802 13.8679L60.2725 13.8558L60.2644 13.8439L59.4375 14.4062ZM58.9688 21.1562L58.2726 20.4383L58.2671 20.4437L58.2616 20.4491L58.9688 21.1562ZM51.375 20.7344L50.6383 21.4106L50.6416 21.4141L51.375 20.7344ZM44.7656 15.6719L44.3333 16.5736L44.3381 16.5759L44.7656 15.6719ZM22.2656 19.9375L21.4732 19.3275L21.4725 19.3284L22.2656 19.9375ZM45 60.0156L45.3736 60.9433L45.3846 60.9387L45 60.0156ZM51.8438 55.0469L51.1366 54.3397L51.1273 54.3493L51.8438 55.0469ZM59.625 54.4375L58.9071 55.1336L58.9178 55.1447L58.9289 55.1554L59.625 54.4375ZM60.2344 60.9531L61.0344 61.5531L61.0379 61.5484L60.2344 60.9531ZM7.28125 37.75C7.28125 26.6658 9.83019 18.5302 14.7528 13.1601L13.2785 11.8087C7.88856 17.6886 5.28125 26.3967 5.28125 37.75H7.28125ZM14.7528 13.1601C19.6707 7.79508 26.808 5.04688 36.3281 5.04688V3.04688C26.4107 3.04688 18.673 5.92367 13.2785 11.8087L14.7528 13.1601ZM36.3281 5.04688C41.7157 5.04688 46.2439 5.98076 49.9492 7.80355L50.832 6.00895C46.7874 4.01924 41.9406 3.04688 36.3281 3.04688V5.04688ZM49.9579 7.80777C53.7288 9.61781 56.5985 12.0097 58.6106 14.9686L60.2644 13.8439C58.0265 10.5528 54.865 7.94469 50.8234 6.00473L49.9579 7.80777ZM58.5948 14.9446C59.2444 15.9614 59.5156 16.8385 59.5156 17.5938H61.5156C61.5156 16.349 61.0681 15.1011 60.2802 13.8679L58.5948 14.9446ZM59.5156 17.5938C59.5156 18.6849 59.1194 19.6173 58.2726 20.4383L59.6649 21.8742C60.8806 20.6952 61.5156 19.2526 61.5156 17.5938H59.5156ZM58.2616 20.4491C57.4526 21.2582 56.4897 21.6562 55.3125 21.6562V23.6562C57.0103 23.6562 58.4849 23.0543 59.6759 21.8634L58.2616 20.4491ZM55.3125 21.6562C54.2121 21.6562 53.1506 21.1791 52.1084 20.0546L50.6416 21.4141C51.9744 22.8521 53.5379 23.6562 55.3125 23.6562V21.6562ZM52.1117 20.0582C49.9485 17.7013 47.6443 15.9272 45.1932 14.7679L44.3381 16.5759C46.512 17.6041 48.614 19.205 50.6383 21.4106L52.1117 20.0582ZM45.198 14.7702C42.7456 13.5944 39.7755 13.0312 36.3281 13.0312V15.0312C39.5683 15.0312 42.2231 15.5619 44.3333 16.5736L45.198 14.7702ZM36.3281 13.0312C29.7681 13.0312 24.7446 15.0781 21.4732 19.3275L23.058 20.5475C25.8491 16.9219 30.2006 15.0312 36.3281 15.0312V13.0312ZM21.4725 19.3284C18.2779 23.4881 16.7656 29.6868 16.7656 37.75H18.7656C18.7656 29.8757 20.2534 24.1994 23.0587 20.5466L21.4725 19.3284ZM16.7656 37.75C16.7656 46.1371 18.2548 52.4344 21.4372 56.4208L23.0003 55.173C20.2452 51.7219 18.7656 45.9879 18.7656 37.75H16.7656ZM21.4372 56.4208C24.6572 60.4542 29.701 62.375 36.3281 62.375V60.375C30.0803 60.375 25.7178 58.577 23.0003 55.173L21.4372 56.4208ZM36.3281 62.375C39.934 62.375 42.9638 61.9138 45.3736 60.9432L44.6264 59.088C42.5362 59.9299 39.7847 60.375 36.3281 60.375V62.375ZM45.3846 60.9387C47.7956 59.9341 50.1854 58.1835 52.5602 55.7445L51.1273 54.3493C48.8771 56.6602 46.7044 58.2221 44.6154 59.0925L45.3846 60.9387ZM52.5509 55.754C53.9012 54.4036 55.0359 53.8906 55.9688 53.8906V51.8906C54.2766 51.8906 52.6613 52.8151 51.1366 54.3398L52.5509 55.754ZM55.9688 53.8906C57.1359 53.8906 58.0956 54.2968 58.9071 55.1336L60.3429 53.7414C59.1544 52.5157 57.6766 51.8906 55.9688 51.8906V53.8906ZM58.9289 55.1554C59.7657 55.9669 60.1719 56.9266 60.1719 58.0938H62.1719C62.1719 56.3859 61.5468 54.9081 60.3211 53.7196L58.9289 55.1554ZM60.1719 58.0938C60.1719 58.9447 59.9266 59.6886 59.4308 60.3579L61.0379 61.5484C61.7921 60.5302 62.1719 59.3678 62.1719 58.0938H60.1719ZM59.4344 60.3531C57.2115 63.317 54.0467 65.7357 49.8901 67.5865L50.7036 69.4135C55.1095 67.4518 58.5698 64.8392 61.0344 61.5531L59.4344 60.3531ZM49.8901 67.5865C45.7461 69.4316 41.2297 70.3594 36.3281 70.3594V72.3594C41.4891 72.3594 46.2851 71.3809 50.7036 69.4135L49.8901 67.5865ZM36.3281 70.3594C26.4974 70.3594 19.299 67.6155 14.5385 62.2905C9.75892 56.9443 7.28125 48.8249 7.28125 37.75H5.28125C5.28125 49.0814 7.81139 57.7666 13.0475 63.6235C18.3026 69.5017 26.1276 72.3594 36.3281 72.3594V70.3594Z" fill="white"/>
<path d="M3.28125 33.75C3.28125 22.5312 5.85938 14.1094 11.0156 8.48438C16.1719 2.85938 23.6094 0.046875 33.3281 0.046875C38.8281 0.046875 43.5156 1 47.3906 2.90625C51.2969 4.78125 54.3125 7.28125 56.4375 10.4062C57.1562 11.5312 57.5156 12.5938 57.5156 13.5938C57.5156 14.9687 57 16.1563 55.9688 17.1562C54.9688 18.1562 53.75 18.6562 52.3125 18.6562C50.875 18.6562 49.5625 18.0156 48.375 16.7344C46.2812 14.4531 44.0781 12.7656 41.7656 11.6719C39.4844 10.5781 36.6719 10.0312 33.3281 10.0312C26.9844 10.0312 22.2969 12 19.2656 15.9375C16.2656 19.8438 14.7656 25.7812 14.7656 33.75C14.7656 42.0625 16.25 48.0781 19.2188 51.7969C22.1875 55.5156 26.8906 57.375 33.3281 57.375C36.8594 57.375 39.75 56.9219 42 56.0156C44.25 55.0781 46.5312 53.4219 48.8438 51.0469C50.2812 49.6094 51.6562 48.8906 52.9688 48.8906C54.4062 48.8906 55.625 49.4062 56.625 50.4375C57.6562 51.4375 58.1719 52.6562 58.1719 54.0938C58.1719 55.1562 57.8594 56.1094 57.2344 56.9531C54.8906 60.0781 51.5781 62.5938 47.2969 64.5C43.0156 66.4062 38.3594 67.3594 33.3281 67.3594C13.2969 67.3594 3.28125 56.1562 3.28125 33.75Z" fill="white"/>
</svg>
