<svg width="25" height="25" viewBox="0 0 25 25" fill="none" xmlns="http://www.w3.org/2000/svg">
<path d="M13.2396 18.0107C13.1883 17.9636 13.1325 17.9217 13.0729 17.8857C13.0197 17.8445 12.9598 17.8128 12.8958 17.792C12.8338 17.7603 12.7669 17.7392 12.6979 17.7295C12.4984 17.6873 12.2906 17.7092 12.1042 17.792C11.9749 17.8388 11.8575 17.9134 11.7603 18.0106C11.6631 18.1078 11.5884 18.2252 11.5417 18.3545C11.4834 18.4781 11.4548 18.6137 11.4583 18.7503C11.4567 18.8858 11.4814 19.0202 11.5312 19.1462C11.5916 19.2706 11.6687 19.3863 11.7604 19.4899C11.8577 19.5865 11.9732 19.6628 12.1001 19.7147C12.227 19.7665 12.3629 19.7928 12.5 19.792C12.6366 19.7955 12.7722 19.767 12.8958 19.7087C13.0221 19.6559 13.1383 19.5819 13.2396 19.4899C13.3361 19.3926 13.4125 19.2771 13.4643 19.1502C13.5162 19.0233 13.5425 18.8874 13.5417 18.7503C13.54 18.6142 13.5117 18.4797 13.4583 18.3545C13.4088 18.2266 13.3344 18.1098 13.2396 18.0107V18.0107ZM8.90625 13.7191C8.85307 13.6778 8.79316 13.6461 8.72917 13.6253C8.6685 13.5863 8.60154 13.5581 8.53125 13.542C8.39762 13.5109 8.25863 13.5109 8.125 13.542L7.9375 13.6045L7.75 13.6982L7.59375 13.8232C7.39847 14.0281 7.29019 14.3007 7.29167 14.5837C7.29087 14.7208 7.31715 14.8566 7.36899 14.9836C7.42083 15.1105 7.49721 15.2259 7.59375 15.3232C7.695 15.4153 7.81127 15.4892 7.9375 15.542C8.09531 15.6068 8.26663 15.6319 8.4364 15.615C8.60617 15.5981 8.7692 15.5398 8.91116 15.4452C9.05311 15.3506 9.16965 15.2225 9.25053 15.0723C9.33141 14.9221 9.37415 14.7543 9.375 14.5837C9.37116 14.3079 9.26326 14.0437 9.07292 13.8441L8.90625 13.7191ZM9.07292 18.0107C8.97385 17.9159 8.85703 17.8416 8.72917 17.792C8.5406 17.7046 8.33019 17.6755 8.125 17.7087L7.9375 17.7712C7.87112 17.794 7.80807 17.8255 7.75 17.8649C7.69543 17.9034 7.64325 17.9451 7.59375 17.9899C7.49892 18.089 7.42458 18.2058 7.375 18.3337C7.31989 18.4583 7.29142 18.5932 7.29142 18.7295C7.29142 18.8658 7.31989 19.0006 7.375 19.1253C7.42775 19.2516 7.50174 19.3678 7.59375 19.4691C7.68935 19.5694 7.80401 19.6496 7.931 19.7051C8.05799 19.7605 8.19478 19.7901 8.33333 19.792C8.46998 19.7955 8.60554 19.767 8.72917 19.7087C8.8554 19.6559 8.97167 19.5819 9.07292 19.4899C9.16493 19.3887 9.23891 19.2724 9.29167 19.1462C9.34678 19.0215 9.37524 18.8867 9.37524 18.7503C9.37524 18.614 9.34678 18.4792 9.29167 18.3545C9.24209 18.2266 9.16775 18.1098 9.07292 18.0107V18.0107ZM12.1042 13.6253C11.9763 13.6749 11.8595 13.7492 11.7604 13.8441C11.5701 14.0437 11.4622 14.3079 11.4583 14.5837C11.4592 14.7543 11.5019 14.9221 11.5828 15.0723C11.6637 15.2225 11.7802 15.3506 11.9222 15.4452C12.0641 15.5398 12.2272 15.5981 12.3969 15.615C12.5667 15.6319 12.738 15.6068 12.8958 15.542C13.0221 15.4892 13.1383 15.4153 13.2396 15.3232C13.3361 15.2259 13.4125 15.1105 13.4643 14.9836C13.5162 14.8566 13.5425 14.7208 13.5417 14.5837C13.5378 14.3079 13.4299 14.0437 13.2396 13.8441C13.0931 13.6995 12.9071 13.6016 12.705 13.5627C12.5029 13.5238 12.2939 13.5456 12.1042 13.6253V13.6253ZM17.4062 18.0107C17.305 17.9187 17.1887 17.8447 17.0625 17.792C16.8728 17.7122 16.6637 17.6904 16.4617 17.7294C16.2596 17.7683 16.0736 17.8662 15.9271 18.0107C15.8322 18.1098 15.7579 18.2266 15.7083 18.3545C15.6532 18.4792 15.6248 18.614 15.6248 18.7503C15.6248 18.8867 15.6532 19.0215 15.7083 19.1462C15.7611 19.2724 15.8351 19.3887 15.9271 19.4899C16.0244 19.5865 16.1398 19.6628 16.2668 19.7147C16.3937 19.7665 16.5296 19.7928 16.6667 19.792C16.8033 19.7955 16.9389 19.767 17.0625 19.7087C17.1887 19.6559 17.305 19.5819 17.4062 19.4899C17.5508 19.3434 17.6487 19.1574 17.6876 18.9553C17.7266 18.7533 17.7048 18.5442 17.625 18.3545C17.5754 18.2266 17.5011 18.1098 17.4062 18.0107ZM16.6667 5.20866H8.33333C8.05707 5.20866 7.79211 5.31841 7.59676 5.51376C7.40141 5.70911 7.29167 5.97406 7.29167 6.25033V10.417C7.29167 10.6933 7.40141 10.9582 7.59676 11.1536C7.79211 11.3489 8.05707 11.4587 8.33333 11.4587H16.6667C16.9429 11.4587 17.2079 11.3489 17.4032 11.1536C17.5986 10.9582 17.7083 10.6933 17.7083 10.417V6.25033C17.7083 5.97406 17.5986 5.70911 17.4032 5.51376C17.2079 5.31841 16.9429 5.20866 16.6667 5.20866ZM15.625 9.37533H9.375V7.29199H15.625V9.37533ZM18.75 1.04199H6.25C5.4212 1.04199 4.62634 1.37123 4.04029 1.95728C3.45424 2.54333 3.125 3.33819 3.125 4.16699V20.8337C3.125 21.6625 3.45424 22.4573 4.04029 23.0434C4.62634 23.6294 5.4212 23.9587 6.25 23.9587H18.75C19.5788 23.9587 20.3737 23.6294 20.9597 23.0434C21.5458 22.4573 21.875 21.6625 21.875 20.8337V4.16699C21.875 3.33819 21.5458 2.54333 20.9597 1.95728C20.3737 1.37123 19.5788 1.04199 18.75 1.04199V1.04199ZM19.7917 20.8337C19.7917 21.1099 19.6819 21.3749 19.4866 21.5702C19.2912 21.7656 19.0263 21.8753 18.75 21.8753H6.25C5.97373 21.8753 5.70878 21.7656 5.51343 21.5702C5.31808 21.3749 5.20833 21.1099 5.20833 20.8337V4.16699C5.20833 3.89073 5.31808 3.62577 5.51343 3.43042C5.70878 3.23507 5.97373 3.12533 6.25 3.12533H18.75C19.0263 3.12533 19.2912 3.23507 19.4866 3.43042C19.6819 3.62577 19.7917 3.89073 19.7917 4.16699V20.8337ZM17.2396 13.7191C17.1864 13.6778 17.1265 13.6461 17.0625 13.6253C17.0005 13.5936 16.9336 13.5725 16.8646 13.5628C16.731 13.5317 16.592 13.5317 16.4583 13.5628L16.2708 13.6253L16.0833 13.7191L15.9271 13.8441C15.7367 14.0437 15.6288 14.3079 15.625 14.5837C15.6258 14.7543 15.6686 14.9221 15.7495 15.0723C15.8303 15.2225 15.9469 15.3506 16.0888 15.4452C16.2308 15.5398 16.3938 15.5981 16.5636 15.615C16.7334 15.6319 16.9047 15.6068 17.0625 15.542C17.1887 15.4892 17.305 15.4153 17.4062 15.3232C17.5028 15.2259 17.5792 15.1105 17.631 14.9836C17.6828 14.8566 17.7091 14.7208 17.7083 14.5837C17.7045 14.3079 17.5966 14.0437 17.4062 13.8441L17.2396 13.7191Z" fill="#9F66DB"/>
</svg>
