<svg width="48" height="48" viewBox="0 0 48 48" fill="none" xmlns="http://www.w3.org/2000/svg">
<path d="M7.55706 26.5947C7.76963 26.9348 8.06537 27.2151 8.41635 27.4092C8.76734 27.6032 9.162 27.7047 9.56307 27.7039C9.99959 27.7164 10.431 27.6075 10.8094 27.3894C11.1877 27.1713 11.4981 26.8525 11.706 26.4684C11.9139 26.0844 12.0112 25.6502 11.987 25.2142C11.9629 24.7781 11.8182 24.3573 11.5691 23.9987C8.48118 19.0943 6.4925 13.5791 5.73986 7.83265C5.68906 7.49199 5.71344 7.14434 5.81129 6.8141C5.90914 6.48387 6.07808 6.17905 6.30627 5.92105C6.52742 5.66932 6.79965 5.46756 7.10484 5.32921C7.41003 5.19085 7.74118 5.11908 8.07627 5.11865H15.1563C15.7084 5.10752 16.2469 5.29035 16.6781 5.63532C17.1093 5.9803 17.4059 6.46556 17.5163 7.00665C17.5163 7.54945 17.7051 8.04505 17.8231 8.58785V8.89465C18.0977 10.1331 18.4685 11.3483 18.9323 12.5291L15.6519 14.0867C15.3684 14.2184 15.114 14.4052 14.9033 14.6361C14.6926 14.8671 14.5299 15.1375 14.4247 15.4319C14.3046 15.7197 14.2427 16.0285 14.2427 16.3405C14.2427 16.6524 14.3046 16.9612 14.4247 17.2491C14.6607 17.7447 14.8967 18.2403 15.1799 18.7595C15.334 19.0299 15.5402 19.2671 15.7865 19.4575C16.0327 19.648 16.3142 19.7878 16.6147 19.8689C16.9153 19.9501 17.2289 19.971 17.5375 19.9305C17.8461 19.8899 18.1437 19.7887 18.4131 19.6327C18.7987 19.4116 19.1141 19.086 19.3228 18.6935C19.5316 18.3011 19.6253 17.8576 19.5931 17.4143L20.9383 16.9187C22.006 16.4268 22.8517 15.5543 23.31 14.4718C23.7683 13.3894 23.8062 12.1748 23.4163 11.0659C23.0352 10.067 22.7275 9.04157 22.4959 7.99785V7.76185C22.4959 7.28985 22.3071 6.81785 22.2363 6.39305C21.9769 4.72124 21.1274 3.19759 19.8416 2.09799C18.5559 0.998399 16.9189 0.395565 15.2271 0.398653H8.14706C7.13351 0.383905 6.1286 0.586972 5.20029 0.994123C4.27199 1.40127 3.44194 2.00301 2.76627 2.75865C2.09474 3.52173 1.5954 4.42046 1.30219 5.39374C1.00899 6.36702 0.928794 7.39202 1.06707 8.39905C1.88634 14.8629 4.10079 21.0714 7.55706 26.5947V26.5947ZM42.0367 26.0991L40.6207 25.8395H40.4319C39.3642 25.6111 38.315 25.3034 37.2931 24.9191C36.2012 24.5274 35.0034 24.5515 33.9282 24.9868C32.853 25.4221 31.9757 26.2381 31.4639 27.2791L30.9683 28.3647C29.3585 27.4335 27.8412 26.3508 26.4371 25.1315L47.2051 4.38705C47.4251 4.16701 47.5997 3.90578 47.7187 3.61828C47.8378 3.33078 47.8991 3.02264 47.8991 2.71145C47.8991 2.40027 47.8378 2.09212 47.7187 1.80462C47.5997 1.51712 47.4251 1.2559 47.2051 1.03585C46.985 0.81581 46.7238 0.641262 46.4363 0.522176C46.1488 0.40309 45.8407 0.341797 45.5295 0.341797C45.2183 0.341797 44.9101 0.40309 44.6226 0.522176C44.3351 0.641262 44.0739 0.81581 43.8539 1.03585L1.37387 43.5159C1.15267 43.7352 0.977096 43.9963 0.857282 44.2838C0.737467 44.5714 0.675781 44.8799 0.675781 45.1915C0.675781 45.503 0.737467 45.8115 0.857282 46.0991C0.977096 46.3866 1.15267 46.6477 1.37387 46.8671C1.59326 47.0883 1.85428 47.2638 2.14186 47.3836C2.42945 47.5034 2.73792 47.5651 3.04947 47.5651C3.36101 47.5651 3.66948 47.5034 3.95707 47.3836C4.24465 47.2638 4.50567 47.0883 4.72507 46.8671L15.5575 36.0111C22.3368 42.1027 30.8043 45.995 39.8419 47.1739C40.1561 47.1973 40.4716 47.1973 40.7859 47.1739C42.5231 47.1829 44.203 46.5529 45.5059 45.4039C46.2525 44.7361 46.8489 43.9175 47.2557 43.0021C47.6625 42.0868 47.8705 41.0955 47.8659 40.0939V33.0139C47.8533 31.3623 47.2637 29.7672 46.1992 28.5044C45.1347 27.2417 43.6623 26.3908 42.0367 26.0991V26.0991ZM43.1695 40.2591C43.169 40.5941 43.0973 40.9253 42.9589 41.2305C42.8206 41.5357 42.6188 41.8079 42.3671 42.0291C42.1091 42.2572 41.8042 42.4262 41.474 42.524C41.1438 42.6219 40.7961 42.6463 40.4555 42.5954C32.4383 41.5464 24.9223 38.1091 18.8851 32.7307L23.0623 28.5535C25.4684 30.6509 28.1527 32.406 31.0391 33.7691C31.3269 33.8891 31.6358 33.951 31.9477 33.951C32.2596 33.951 32.5684 33.8891 32.8563 33.7691C33.1506 33.6638 33.4211 33.5011 33.652 33.2904C33.8829 33.0797 34.0697 32.8253 34.2015 32.5419L35.6647 29.2143C36.8961 29.6711 38.1578 30.0417 39.4407 30.3235H39.7003L41.3287 30.6303C41.861 30.7501 42.3354 31.0508 42.671 31.4811C43.0067 31.9114 43.1828 32.4447 43.1695 32.9903V40.2591Z" fill="white"/>
</svg>
