<svg width="54" height="54" viewBox="0 0 54 54" fill="none" xmlns="http://www.w3.org/2000/svg">
<rect width="54" height="54" rx="27" fill="#F3F3F3"/>
<g clip-path="url(#clip0_1905_24456)">
<path d="M35.334 31.1673H18.6673C18.4463 31.1673 18.2343 31.2551 18.0781 31.4114C17.9218 31.5677 17.834 31.7796 17.834 32.0006C17.834 32.2217 17.9218 32.4336 18.0781 32.5899C18.2343 32.7462 18.4463 32.834 18.6673 32.834H35.334C35.555 32.834 35.767 32.7462 35.9232 32.5899C36.0795 32.4336 36.1673 32.2217 36.1673 32.0006C36.1673 31.7796 36.0795 31.5677 35.9232 31.4114C35.767 31.2551 35.555 31.1673 35.334 31.1673ZM35.334 34.5006H18.6673C18.4463 34.5006 18.2343 34.5884 18.0781 34.7447C17.9218 34.901 17.834 35.113 17.834 35.334C17.834 35.555 17.9218 35.767 18.0781 35.9232C18.2343 36.0795 18.4463 36.1673 18.6673 36.1673H35.334C35.555 36.1673 35.767 36.0795 35.9232 35.9232C36.0795 35.767 36.1673 35.555 36.1673 35.334C36.1673 35.113 36.0795 34.901 35.9232 34.7447C35.767 34.5884 35.555 34.5006 35.334 34.5006ZM22.0007 22.834C21.8358 22.834 21.6747 22.8829 21.5377 22.9744C21.4006 23.066 21.2938 23.1961 21.2308 23.3484C21.1677 23.5007 21.1512 23.6682 21.1833 23.8299C21.2155 23.9915 21.2949 24.14 21.4114 24.2566C21.5279 24.3731 21.6764 24.4525 21.8381 24.4846C21.9997 24.5168 22.1673 24.5003 22.3196 24.4372C22.4718 24.3741 22.602 24.2673 22.6935 24.1303C22.7851 23.9933 22.834 23.8321 22.834 23.6673C22.834 23.4463 22.7462 23.2343 22.5899 23.0781C22.4336 22.9218 22.2217 22.834 22.0007 22.834ZM33.6673 17.834H20.334C19.6709 17.834 19.0351 18.0974 18.5662 18.5662C18.0974 19.0351 17.834 19.6709 17.834 20.334V27.0007C17.834 27.6637 18.0974 28.2996 18.5662 28.7684C19.0351 29.2373 19.6709 29.5006 20.334 29.5006H33.6673C34.3304 29.5006 34.9662 29.2373 35.4351 28.7684C35.9039 28.2996 36.1673 27.6637 36.1673 27.0007V20.334C36.1673 19.6709 35.9039 19.0351 35.4351 18.5662C34.9662 18.0974 34.3304 17.834 33.6673 17.834V17.834ZM34.5006 27.0007C34.5006 27.2217 34.4129 27.4336 34.2566 27.5899C34.1003 27.7462 33.8883 27.834 33.6673 27.834H20.334C20.113 27.834 19.901 27.7462 19.7447 27.5899C19.5884 27.4336 19.5007 27.2217 19.5007 27.0007V20.334C19.5007 20.113 19.5884 19.901 19.7447 19.7447C19.901 19.5884 20.113 19.5007 20.334 19.5007H33.6673C33.8883 19.5007 34.1003 19.5884 34.2566 19.7447C34.4129 19.901 34.5006 20.113 34.5006 20.334V27.0007ZM27.0007 21.1673C26.5062 21.1673 26.0228 21.3139 25.6117 21.5886C25.2006 21.8633 24.8802 22.2538 24.691 22.7106C24.5017 23.1674 24.4522 23.6701 24.5487 24.155C24.6452 24.64 24.8833 25.0855 25.2329 25.4351C25.5825 25.7847 26.028 26.0228 26.5129 26.1193C26.9979 26.2157 27.5005 26.1662 27.9574 25.977C28.4142 25.7878 28.8046 25.4674 29.0793 25.0562C29.354 24.6451 29.5006 24.1618 29.5006 23.6673C29.5006 23.0043 29.2373 22.3684 28.7684 21.8996C28.2996 21.4307 27.6637 21.1673 27.0007 21.1673ZM27.0007 24.5007C26.8358 24.5007 26.6747 24.4518 26.5377 24.3602C26.4006 24.2686 26.2938 24.1385 26.2308 23.9862C26.1677 23.8339 26.1512 23.6664 26.1833 23.5047C26.2155 23.3431 26.2949 23.1946 26.4114 23.0781C26.5279 22.9615 26.6764 22.8822 26.8381 22.85C26.9997 22.8178 27.1673 22.8343 27.3196 22.8974C27.4718 22.9605 27.602 23.0673 27.6935 23.2043C27.7851 23.3414 27.834 23.5025 27.834 23.6673C27.834 23.8883 27.7462 24.1003 27.5899 24.2566C27.4336 24.4129 27.2217 24.5007 27.0007 24.5007ZM32.0006 22.834C31.8358 22.834 31.6747 22.8829 31.5377 22.9744C31.4006 23.066 31.2938 23.1961 31.2308 23.3484C31.1677 23.5007 31.1512 23.6682 31.1833 23.8299C31.2155 23.9915 31.2948 24.14 31.4114 24.2566C31.5279 24.3731 31.6764 24.4525 31.8381 24.4846C31.9997 24.5168 32.1673 24.5003 32.3196 24.4372C32.4718 24.3741 32.602 24.2673 32.6935 24.1303C32.7851 23.9933 32.834 23.8321 32.834 23.6673C32.834 23.4463 32.7462 23.2343 32.5899 23.0781C32.4336 22.9218 32.2217 22.834 32.0006 22.834Z" fill="#FFA666"/>
</g>
<defs>
<clipPath id="clip0_1905_24456">
<rect width="20" height="20" fill="white" transform="translate(17 17)"/>
</clipPath>
</defs>
</svg>
