<svg width="29" height="29" viewBox="0 0 29 29" fill="none" xmlns="http://www.w3.org/2000/svg">
<path d="M26.9527 24.6357C27.8487 23.4346 28.4636 22.0477 28.7519 20.5772C29.0403 19.1068 28.9948 17.5903 28.6188 16.1398C28.2428 14.6893 27.5459 13.3417 26.5795 12.1965C25.613 11.0513 24.4018 10.1378 23.0351 9.52327C22.7375 7.81057 22.0533 6.18826 21.0347 4.77961C20.016 3.37095 18.6897 2.213 17.1565 1.39376C15.6233 0.574517 13.9235 0.115527 12.1863 0.0516666C10.4491 -0.012194 8.7202 0.320755 7.13096 1.02522C5.54173 1.72968 4.13397 2.78711 3.01466 4.11718C1.89535 5.44724 1.09393 7.01494 0.671301 8.70115C0.248673 10.3874 0.215952 12.1477 0.575627 13.8485C0.935301 15.5492 1.67791 17.1456 2.74702 18.5164L0.759668 20.4894C0.56128 20.6905 0.426889 20.9458 0.373453 21.2232C0.320018 21.5005 0.349932 21.7875 0.459421 22.0479C0.566681 22.309 0.748828 22.5325 0.982907 22.6902C1.21699 22.848 1.49252 22.9329 1.77479 22.9343H9.91006C10.7202 24.6423 11.9975 26.0859 13.5942 27.098C15.1908 28.1101 17.0414 28.6494 18.9318 28.6533H27.5103C27.7925 28.6519 28.0681 28.567 28.3021 28.4092C28.5362 28.2515 28.7184 28.028 28.8256 27.7669C28.9351 27.5065 28.965 27.2195 28.9116 26.9422C28.8582 26.6648 28.7238 26.4095 28.5254 26.2084L26.9527 24.6357ZM8.92353 18.6451C8.92549 19.1238 8.96373 19.6018 9.03791 20.0748H5.22048L5.72089 19.5887C5.8549 19.4558 5.96127 19.2976 6.03385 19.1234C6.10644 18.9492 6.14381 18.7623 6.14381 18.5736C6.14381 18.3848 6.10644 18.198 6.03385 18.0237C5.96127 17.8495 5.8549 17.6914 5.72089 17.5585C4.9196 16.766 4.28435 15.8217 3.85229 14.7808C3.42022 13.7399 3.20002 12.6233 3.20454 11.4963C3.20454 9.22116 4.10834 7.03919 5.71712 5.43041C7.3259 3.82163 9.50787 2.91783 11.783 2.91783C13.5583 2.90716 15.2923 3.45311 16.7413 4.47892C18.1903 5.50473 19.2813 6.95884 19.8611 8.63682C19.5466 8.63682 19.2463 8.63682 18.9318 8.63682C16.2774 8.63682 13.7318 9.69126 11.8549 11.5682C9.97797 13.4451 8.92353 15.9907 8.92353 18.6451ZM23.9931 25.7938L24.0646 25.8653H18.9318C17.278 25.8623 15.6765 25.2861 14.3999 24.2348C13.1234 23.1835 12.2508 21.7221 11.9309 20.0996C11.6109 18.4771 11.8634 16.7939 12.6453 15.3366C13.4272 13.8794 14.6901 12.7384 16.2189 12.1078C17.7477 11.4773 19.4479 11.3963 21.0297 11.8787C22.6115 12.361 23.9772 13.3769 24.894 14.7532C25.8109 16.1295 26.2222 17.7811 26.0579 19.4267C25.8936 21.0723 25.1639 22.61 23.9931 23.7779C23.7237 24.0418 23.5695 24.4016 23.5641 24.7787C23.5649 24.9678 23.6033 25.155 23.6769 25.3292C23.7505 25.5035 23.858 25.6614 23.9931 25.7938V25.7938Z" fill="white"/>
</svg>
