<svg width="42" height="42" viewBox="0 0 42 42" fill="none" xmlns="http://www.w3.org/2000/svg">
<rect width="42" height="42" rx="21" fill="#F3F3F3"/>
<path d="M23 20H22V16H24C24.2652 16 24.5196 16.1054 24.7071 16.2929C24.8946 16.4804 25 16.7348 25 17C25 17.2652 25.1054 17.5196 25.2929 17.7071C25.4804 17.8946 25.7348 18 26 18C26.2652 18 26.5196 17.8946 26.7071 17.7071C26.8946 17.5196 27 17.2652 27 17C27 16.2044 26.6839 15.4413 26.1213 14.8787C25.5587 14.3161 24.7956 14 24 14H22V12C22 11.7348 21.8946 11.4804 21.7071 11.2929C21.5196 11.1054 21.2652 11 21 11C20.7348 11 20.4804 11.1054 20.2929 11.2929C20.1054 11.4804 20 11.7348 20 12V14H19C17.9391 14 16.9217 14.4214 16.1716 15.1716C15.4214 15.9217 15 16.9391 15 18C15 19.0609 15.4214 20.0783 16.1716 20.8284C16.9217 21.5786 17.9391 22 19 22H20V26H18C17.7348 26 17.4804 25.8946 17.2929 25.7071C17.1054 25.5196 17 25.2652 17 25C17 24.7348 16.8946 24.4804 16.7071 24.2929C16.5196 24.1054 16.2652 24 16 24C15.7348 24 15.4804 24.1054 15.2929 24.2929C15.1054 24.4804 15 24.7348 15 25C15 25.7956 15.3161 26.5587 15.8787 27.1213C16.4413 27.6839 17.2044 28 18 28H20V30C20 30.2652 20.1054 30.5196 20.2929 30.7071C20.4804 30.8946 20.7348 31 21 31C21.2652 31 21.5196 30.8946 21.7071 30.7071C21.8946 30.5196 22 30.2652 22 30V28H23C24.0609 28 25.0783 27.5786 25.8284 26.8284C26.5786 26.0783 27 25.0609 27 24C27 22.9391 26.5786 21.9217 25.8284 21.1716C25.0783 20.4214 24.0609 20 23 20V20ZM20 20H19C18.4696 20 17.9609 19.7893 17.5858 19.4142C17.2107 19.0391 17 18.5304 17 18C17 17.4696 17.2107 16.9609 17.5858 16.5858C17.9609 16.2107 18.4696 16 19 16H20V20ZM23 26H22V22H23C23.5304 22 24.0391 22.2107 24.4142 22.5858C24.7893 22.9609 25 23.4696 25 24C25 24.5304 24.7893 25.0391 24.4142 25.4142C24.0391 25.7893 23.5304 26 23 26Z" fill="#FFA666"/>
</svg>
