<svg width="71" height="33" viewBox="0 0 71 33" fill="none" xmlns="http://www.w3.org/2000/svg">
<path d="M18.9619 30.1732C19.3936 29.7478 19.9802 29.4404 20.5086 29.1132C21.5727 28.4444 22.6838 27.8537 23.8333 27.3456C25.07 26.7798 26.0537 25.7766 26.5951 24.5291C27.1366 23.2816 27.1976 21.8779 26.7663 20.5881L26.3279 19.2797C29.2868 18.4597 32.3443 18.0497 35.4147 18.0611C38.4849 18.095 41.536 18.5502 44.4825 19.4138L44.1997 20.7753C43.7494 22.0586 43.7896 23.463 44.3126 24.7184C44.8356 25.9737 45.8044 26.9913 47.0325 27.5754C48.1708 28.1074 49.2727 28.7142 50.3307 29.3919C50.8542 29.7269 51.3774 30.1009 51.881 30.4942C53.4813 31.6417 55.4386 32.18 57.4005 32.0124C59.3624 31.8447 61.2001 30.9821 62.5824 29.5798L68.4693 23.7792C69.3228 22.9539 69.9885 21.9543 70.421 20.8486C70.8535 19.7428 71.0426 18.5569 70.9756 17.3715C70.9086 16.1861 70.5869 15.029 70.0325 13.9791C69.4781 12.9292 68.704 12.0111 67.7629 11.2872C58.6172 4.09642 47.3365 0.157565 35.7027 0.0927987C24.0688 0.0280321 12.745 3.84105 3.51983 10.9295L2.77415 11.6643C1.32503 13.088 0.45103 14.9955 0.31903 17.0227C0.245332 18.1896 0.420092 19.3589 0.831762 20.4533C1.24343 21.5477 1.88264 22.5423 2.70716 23.3714L8.50774 29.2583C9.87483 30.5977 11.6644 31.421 13.571 31.5879C15.4775 31.7547 17.3829 31.2547 18.9619 30.1732V30.1732ZM6.37954 19.3661C6.10536 19.0872 5.89374 18.753 5.75874 18.3859C5.62373 18.0188 5.56846 17.6271 5.59658 17.237C5.62931 16.8316 5.74635 16.4376 5.9402 16.0801C6.13405 15.7226 6.40043 15.4095 6.72229 15.1609C14.9998 8.86197 25.1387 5.49793 35.5398 5.59945C45.941 5.70097 56.0123 9.26226 64.1653 15.7216C64.4797 15.9783 64.7389 16.296 64.9271 16.6557C65.1153 17.0153 65.2286 17.4094 65.2602 17.8141C65.2825 18.2046 65.2215 18.5954 65.0811 18.9604C64.9407 19.3255 64.7241 19.6565 64.4459 19.9314L58.559 25.732C58.1126 26.1917 57.52 26.4816 56.883 26.5515C56.2461 26.6215 55.6046 26.4672 55.0692 26.1153C54.4622 25.6562 53.842 25.2231 53.2087 24.8158C51.9627 24.0048 50.6594 23.2855 49.309 22.6637L50.7995 18.6813C50.9282 18.342 50.9886 17.9807 50.9773 17.6181C50.966 17.2555 50.8831 16.8986 50.7335 16.5681C50.5839 16.2376 50.3705 15.9398 50.1055 15.692C49.8405 15.4442 49.5292 15.2511 49.1894 15.124C40.4047 11.8574 30.7506 11.7861 21.9186 14.9225C21.2475 15.197 20.7116 15.725 20.4273 16.392C20.2688 16.7207 20.1772 17.0776 20.1578 17.4419C20.1384 17.8063 20.1915 18.1709 20.3142 18.5145L21.8045 22.4605C20.4326 23.0973 19.1002 23.816 17.8146 24.6128C17.1753 25.0107 16.5488 25.4346 15.9351 25.8846C15.3945 26.2286 14.7509 26.3734 14.115 26.2941C13.4792 26.2147 12.8909 25.9162 12.4514 25.4498L6.37954 19.3661Z" fill="white"/>
</svg>
