<svg width="62" height="70" viewBox="0 0 62 70" fill="none" xmlns="http://www.w3.org/2000/svg">
<path d="M40.2188 7.14062L39.9218 8.09553L39.9241 8.09623L40.2188 7.14062ZM50.0156 12.6719L49.3425 13.4115L49.3471 13.4156L50.0156 12.6719ZM56.3438 22.75L55.3972 23.0725L55.3979 23.0747L56.3438 22.75ZM56.3438 52.7969L57.2896 53.1216L57.2903 53.1194L56.3438 52.7969ZM50.0156 62.8281L50.6795 63.576L50.6841 63.5718L50.0156 62.8281ZM40.2188 68.2656L39.9241 67.31L39.9218 67.3107L40.2188 68.2656ZM10.3594 68.3594L9.6421 69.0562L9.64714 69.0614L9.65227 69.0665L10.3594 68.3594ZM19.875 60.0156H18.875V61.0156H19.875V60.0156ZM35.5781 58.8906L35.8829 59.8431L35.8944 59.8393L35.5781 58.8906ZM41.7188 55.1875L42.4129 55.9074L42.4195 55.9009L41.7188 55.1875ZM41.9531 20.5938L41.2299 21.2844L41.2363 21.291L41.9531 20.5938ZM19.875 15.3906V14.3906H18.875V15.3906H19.875ZM9.76562 64.4219V10.9375H7.76562V64.4219H9.76562ZM9.76562 10.9375C9.76562 9.66579 10.1955 8.62497 11.0665 7.75398L9.65227 6.33977C8.39826 7.59378 7.76562 9.14671 7.76562 10.9375H9.76562ZM11.0665 7.75398C11.9706 6.8499 13.0434 6.40625 14.3438 6.40625V4.40625C12.5191 4.40625 10.9357 5.05635 9.65227 6.33977L11.0665 7.75398ZM14.3438 6.40625H27.2812V4.40625H14.3438V6.40625ZM27.2812 6.40625C32.1117 6.40625 36.3204 6.97576 39.9218 8.09553L40.5157 6.18572C36.6796 4.99299 32.2633 4.40625 27.2812 4.40625V6.40625ZM39.9241 8.09623C43.5399 9.2111 46.6748 10.9835 49.3425 13.4114L50.6887 11.9323C47.794 9.29778 44.3976 7.38265 40.5134 6.18502L39.9241 8.09623ZM49.3471 13.4156C51.9788 15.7812 54.0043 18.9846 55.3972 23.0725L57.2903 22.4275C55.8082 18.0779 53.6149 14.5626 50.6841 11.9282L49.3471 13.4156ZM55.3979 23.0747C56.7903 27.1308 57.5 32.0154 57.5 37.75H59.5C59.5 31.8596 58.7722 26.7442 57.2896 22.4253L55.3979 23.0747ZM57.5 37.75C57.5 43.4843 56.7904 48.3856 55.3972 52.4743L57.2903 53.1194C58.7721 48.7707 59.5 43.6407 59.5 37.75H57.5ZM55.3979 52.4722C54.0055 56.5284 51.9803 59.7175 49.3471 62.0844L50.6841 63.5718C53.6134 60.9388 55.807 57.4404 57.2896 53.1216L55.3979 52.4722ZM49.3518 62.0803C46.6832 64.449 43.5453 66.1935 39.9241 67.31L40.5134 69.2212C44.3922 68.0253 47.7855 66.1448 50.6795 63.576L49.3518 62.0803ZM39.9218 67.3107C36.3204 68.4305 32.1117 69 27.2812 69V71C32.2633 71 36.6796 70.4133 40.5157 69.2205L39.9218 67.3107ZM27.2812 69H14.3438V71H27.2812V69ZM14.3438 69C13.0434 69 11.9706 68.5564 11.0665 67.6523L9.65227 69.0665C10.9357 70.3499 12.5191 71 14.3438 71V69ZM11.0767 67.6626C10.1963 66.7563 9.76562 65.6941 9.76562 64.4219H7.76562C7.76562 66.2121 8.39744 67.7749 9.6421 69.0562L11.0767 67.6626ZM19.875 61.0156H27.2812V59.0156H19.875V61.0156ZM27.2812 61.0156C30.5434 61.0156 33.4165 60.6323 35.8829 59.843L35.2733 57.9382C33.0523 58.6489 30.3941 59.0156 27.2812 59.0156V61.0156ZM35.8944 59.8393C38.3772 59.0117 40.5538 57.7001 42.4129 55.9073L41.0246 54.4677C39.3837 56.0499 37.4666 57.2071 35.2619 57.9419L35.8944 59.8393ZM42.4195 55.9009C44.3148 54.0395 45.7017 51.5679 46.6138 48.5383L44.6987 47.9617C43.8608 50.7446 42.6227 52.898 41.018 54.4741L42.4195 55.9009ZM46.6138 48.5383C47.5248 45.5124 47.9688 41.9097 47.9688 37.75H45.9688C45.9688 41.7778 45.5377 45.1751 44.6987 47.9617L46.6138 48.5383ZM47.9688 37.75C47.9688 29.6534 46.2841 23.612 42.6699 19.8965L41.2363 21.291C44.3096 24.4505 45.9688 29.8466 45.9688 37.75H47.9688ZM42.6763 19.9031C39.1164 16.1752 33.9245 14.3906 27.2812 14.3906V16.3906C33.5755 16.3906 38.1649 18.0748 41.2299 21.2844L42.6763 19.9031ZM27.2812 14.3906H19.875V16.3906H27.2812V14.3906ZM18.875 15.3906V60.0156H20.875V15.3906H18.875Z" fill="white"/>
<path d="M5.76562 60.4219V6.9375C5.76562 5.40625 6.29688 4.10938 7.35938 3.04688C8.45312 1.95313 9.78125 1.40625 11.3438 1.40625H24.2812C29.1875 1.40625 33.5 1.98437 37.2188 3.14062C40.9688 4.29688 44.2344 6.14062 47.0156 8.67188C49.7969 11.1719 51.9062 14.5312 53.3438 18.75C54.7812 22.9375 55.5 27.9375 55.5 33.75C55.5 39.5625 54.7812 44.5781 53.3438 48.7969C51.9062 52.9844 49.7969 56.3281 47.0156 58.8281C44.2344 61.2969 40.9688 63.1094 37.2188 64.2656C33.5 65.4219 29.1875 66 24.2812 66H11.3438C9.78125 66 8.45312 65.4531 7.35938 64.3594C6.29688 63.2656 5.76562 61.9531 5.76562 60.4219ZM16.875 56.0156H24.2812C27.4688 56.0156 30.2344 55.6406 32.5781 54.8906C34.9219 54.1094 36.9688 52.875 38.7188 51.1875C40.4688 49.4688 41.7812 47.1562 42.6562 44.25C43.5312 41.3438 43.9688 37.8438 43.9688 33.75C43.9688 25.75 42.2969 20.0312 38.9531 16.5938C35.6406 13.125 30.75 11.3906 24.2812 11.3906H16.875V56.0156Z" fill="white"/>
</svg>
