<svg width="57" height="57" viewBox="0 0 57 57" fill="none" xmlns="http://www.w3.org/2000/svg">
<path d="M30.8562 37.8387H16.7262C16.1016 37.8387 15.5026 38.0868 15.061 38.5285C14.6193 38.9701 14.3712 39.5692 14.3712 40.1937C14.3712 40.8183 14.6193 41.4173 15.061 41.859C15.5026 42.3006 16.1016 42.5487 16.7262 42.5487H30.8562C31.4808 42.5487 32.0798 42.3006 32.5214 41.859C32.9631 41.4173 33.2112 40.8183 33.2112 40.1937C33.2112 39.5692 32.9631 38.9701 32.5214 38.5285C32.0798 38.0868 31.4808 37.8387 30.8562 37.8387ZM21.4362 23.7087H26.1462C26.7708 23.7087 27.3698 23.4606 27.8114 23.019C28.2531 22.5773 28.5012 21.9783 28.5012 21.3537C28.5012 20.7291 28.2531 20.1301 27.8114 19.6885C27.3698 19.2469 26.7708 18.9987 26.1462 18.9987H21.4362C20.8116 18.9987 20.2126 19.2469 19.771 19.6885C19.3293 20.1301 19.0812 20.7291 19.0812 21.3537C19.0812 21.9783 19.3293 22.5773 19.771 23.019C20.2126 23.4606 20.8116 23.7087 21.4362 23.7087ZM49.6962 28.4187H42.6312V7.22374C42.6328 6.80876 42.5248 6.40072 42.318 6.04093C42.1112 5.68114 41.8131 5.38237 41.4537 5.17489C41.0957 4.96819 40.6896 4.85938 40.2762 4.85938C39.8628 4.85938 39.4567 4.96819 39.0987 5.17489L32.0337 9.22548L24.9687 5.17489C24.6107 4.96819 24.2046 4.85938 23.7912 4.85938C23.3778 4.85938 22.9717 4.96819 22.6137 5.17489L15.5487 9.22548L8.48369 5.17489C8.12569 4.96819 7.71958 4.85938 7.30619 4.85938C6.8928 4.85938 6.4867 4.96819 6.12869 5.17489C5.76931 5.38237 5.47113 5.68114 5.26435 6.04093C5.05758 6.40072 4.94954 6.80876 4.95119 7.22374V44.9037C4.95119 46.7775 5.69554 48.5745 7.02048 49.8994C8.34543 51.2244 10.1424 51.9687 12.0162 51.9687H44.9862C46.8599 51.9687 48.657 51.2244 49.9819 49.8994C51.3068 48.5745 52.0512 46.7775 52.0512 44.9037V30.7737C52.0512 30.1492 51.8031 29.5501 51.3614 29.1085C50.9198 28.6669 50.3208 28.4187 49.6962 28.4187ZM12.0162 47.2587C11.3916 47.2587 10.7926 47.0106 10.351 46.569C9.90931 46.1273 9.66119 45.5283 9.66119 44.9037V11.2979L14.3712 13.9826C14.7347 14.1724 15.1386 14.2716 15.5487 14.2716C15.9587 14.2716 16.3627 14.1724 16.7262 13.9826L23.7912 9.93198L30.8562 13.9826C31.2197 14.1724 31.6236 14.2716 32.0337 14.2716C32.4437 14.2716 32.8477 14.1724 33.2112 13.9826L37.9212 11.2979V44.9037C37.9276 45.7071 38.0709 46.5035 38.3451 47.2587H12.0162ZM47.3412 44.9037C47.3412 45.5283 47.0931 46.1273 46.6514 46.569C46.2098 47.0106 45.6108 47.2587 44.9862 47.2587C44.3616 47.2587 43.7626 47.0106 43.321 46.569C42.8793 46.1273 42.6312 45.5283 42.6312 44.9037V33.1287H47.3412V44.9037ZM30.8562 28.4187H16.7262C16.1016 28.4187 15.5026 28.6669 15.061 29.1085C14.6193 29.5501 14.3712 30.1492 14.3712 30.7737C14.3712 31.3983 14.6193 31.9973 15.061 32.439C15.5026 32.8806 16.1016 33.1287 16.7262 33.1287H30.8562C31.4808 33.1287 32.0798 32.8806 32.5214 32.439C32.9631 31.9973 33.2112 31.3983 33.2112 30.7737C33.2112 30.1492 32.9631 29.5501 32.5214 29.1085C32.0798 28.6669 31.4808 28.4187 30.8562 28.4187Z" fill="#9F66DB"/>
</svg>
