<svg width="100" height="129" viewBox="0 0 100 129" fill="none" xmlns="http://www.w3.org/2000/svg">
<g clip-path="url(#clip0_1945_28343)">
<g filter="url(#filter0_d_1945_28343)">
<path d="M61.7901 60.6826L44.1234 37.8927C43.7361 37.3889 43.2752 36.989 42.7675 36.7161C42.2597 36.4432 41.7151 36.3027 41.1651 36.3027C40.615 36.3027 40.0704 36.4432 39.5627 36.7161C39.0549 36.989 38.5941 37.3889 38.2068 37.8927C37.4307 38.8997 36.9951 40.262 36.9951 41.682C36.9951 43.102 37.4307 44.4643 38.2068 45.4714L52.9568 64.4989L38.2068 83.5264C37.4307 84.5335 36.9951 85.8958 36.9951 87.3158C36.9951 88.7358 37.4307 90.0981 38.2068 91.1052C38.5961 91.6033 39.0578 91.9974 39.5655 92.2649C40.0731 92.5324 40.6167 92.668 41.1651 92.6639C41.7134 92.668 42.257 92.5324 42.7647 92.2649C43.2724 91.9974 43.7341 91.6033 44.1234 91.1052L61.7901 68.3151C62.1806 67.8155 62.4906 67.221 62.7021 66.566C62.9137 65.911 63.0226 65.2085 63.0226 64.4989C63.0226 63.7893 62.9137 63.0868 62.7021 62.4318C62.4906 61.7768 62.1806 61.1823 61.7901 60.6826Z" fill="white"/>
</g>
</g>
<defs>
<filter id="filter0_d_1945_28343" x="-75.8799" y="-33.5723" width="327.027" height="357.361" filterUnits="userSpaceOnUse" color-interpolation-filters="sRGB">
<feFlood flood-opacity="0" result="BackgroundImageFix"/>
<feColorMatrix in="SourceAlpha" type="matrix" values="0 0 0 0 0 0 0 0 0 0 0 0 0 0 0 0 0 0 127 0" result="hardAlpha"/>
<feOffset dx="37.625" dy="80.625"/>
<feGaussianBlur stdDeviation="75.25"/>
<feComposite in2="hardAlpha" operator="out"/>
<feColorMatrix type="matrix" values="0 0 0 0 0.404167 0 0 0 0 0.404167 0 0 0 0 0.404167 0 0 0 0.2 0"/>
<feBlend mode="normal" in2="BackgroundImageFix" result="effect1_dropShadow_1945_28343"/>
<feBlend mode="normal" in="SourceGraphic" in2="effect1_dropShadow_1945_28343" result="shape"/>
</filter>
<clipPath id="clip0_1945_28343">
<rect width="100" height="129" fill="white"/>
</clipPath>
</defs>
</svg>
