<svg width="129" height="129" viewBox="0 0 129 129" fill="none" xmlns="http://www.w3.org/2000/svg">
<g clip-path="url(#clip0_1911_24116)">
<g filter="url(#filter0_d_1911_24116)">
<path d="M79.7082 60.6846L56.9182 37.8946C56.4185 37.3908 55.824 36.9909 55.169 36.7181C54.514 36.4452 53.8115 36.3047 53.1019 36.3047C52.3924 36.3047 51.6898 36.4452 51.0348 36.7181C50.3798 36.9909 49.7853 37.3908 49.2857 37.8946C48.2846 38.9017 47.7227 40.264 47.7227 41.684C47.7227 43.104 48.2846 44.4663 49.2857 45.4734L68.3132 64.5009L49.2857 83.5284C48.2846 84.5354 47.7227 85.8977 47.7227 87.3177C47.7227 88.7377 48.2846 90.1 49.2857 91.1071C49.7879 91.6053 50.3835 91.9994 51.0384 92.2669C51.6933 92.5344 52.3945 92.6699 53.1019 92.6659C53.8093 92.6699 54.5105 92.5344 55.1654 92.2669C55.8203 91.9994 56.4159 91.6053 56.9182 91.1071L79.7082 68.3171C80.212 67.8174 80.6118 67.2229 80.8847 66.568C81.1576 65.913 81.2981 65.2104 81.2981 64.5009C81.2981 63.7913 81.1576 63.0887 80.8847 62.4338C80.6118 61.7788 80.212 61.1843 79.7082 60.6846Z" fill="white"/>
</g>
</g>
<defs>
<filter id="filter0_d_1911_24116" x="-65.1523" y="-33.5703" width="334.574" height="357.361" filterUnits="userSpaceOnUse" color-interpolation-filters="sRGB">
<feFlood flood-opacity="0" result="BackgroundImageFix"/>
<feColorMatrix in="SourceAlpha" type="matrix" values="0 0 0 0 0 0 0 0 0 0 0 0 0 0 0 0 0 0 127 0" result="hardAlpha"/>
<feOffset dx="37.625" dy="80.625"/>
<feGaussianBlur stdDeviation="75.25"/>
<feComposite in2="hardAlpha" operator="out"/>
<feColorMatrix type="matrix" values="0 0 0 0 0.404167 0 0 0 0 0.404167 0 0 0 0 0.404167 0 0 0 0.2 0"/>
<feBlend mode="normal" in2="BackgroundImageFix" result="effect1_dropShadow_1911_24116"/>
<feBlend mode="normal" in="SourceGraphic" in2="effect1_dropShadow_1911_24116" result="shape"/>
</filter>
<clipPath id="clip0_1911_24116">
<rect width="129" height="129" fill="white"/>
</clipPath>
</defs>
</svg>
