<svg width="27" height="16" viewBox="0 0 27 16" fill="none" xmlns="http://www.w3.org/2000/svg">
<path d="M9 2H26C26.5523 2 27 2.44772 27 3V3C27 3.55228 26.5523 4 26 4H9V2Z" fill="#676767"/>
<path d="M18 14L1 14C0.447716 14 5.87107e-08 13.5523 1.31134e-07 13V13C2.03557e-07 12.4477 0.447715 12 1 12L18 12L18 14Z" fill="#676767"/>
<path d="M5 4L1 4C0.447715 4 4.18398e-08 3.55228 9.34519e-08 3V3C1.45064e-07 2.44772 0.447715 2 1 2L5 2L5 4Z" fill="#676767"/>
<path d="M22 12L26 12C26.5523 12 27 12.4477 27 13V13C27 13.5523 26.5523 14 26 14L22 14L22 12Z" fill="#676767"/>
<circle cx="7" cy="3" r="2" stroke="#676767" stroke-width="2"/>
<circle cx="20" cy="13" r="2" transform="rotate(-180 20 13)" stroke="#676767" stroke-width="2"/>
</svg>
