<svg width="30" height="15" viewBox="0 0 30 15" fill="none" xmlns="http://www.w3.org/2000/svg">
<path d="M9 2H28.5C29.3284 2 30 2.67157 30 3.5C30 4.32843 29.3284 5 28.5 5H9V2Z" fill="#676767"/>
<path d="M20 13L0.833334 13C0.373096 13 3.26171e-08 12.6269 7.28523e-08 12.1667C1.13088e-07 11.7064 0.373097 11.3333 0.833334 11.3333L20 11.3333L20 13Z" fill="#676767"/>
<path d="M24 11L28 11C28.5523 11 29 11.4477 29 12C29 12.5523 28.5523 13 28 13L24 13L24 11Z" fill="#676767"/>
<path d="M5 5L1.5 5C0.671573 5 4.18398e-08 4.32843 9.34519e-08 3.5C1.45064e-07 2.67157 0.671573 2 1.5 2L5 2L5 5Z" fill="#676767"/>
<circle cx="7" cy="3" r="2" stroke="#676767" stroke-width="2"/>
<circle cx="22" cy="12" r="2" transform="rotate(-180 22 12)" stroke="#676767" stroke-width="2"/>
</svg>
