<svg width="24" height="24" viewBox="0 0 24 24" fill="none" xmlns="http://www.w3.org/2000/svg">
<path d="M21.75 12.0002C21.7495 11.8155 21.6978 11.6346 21.6007 11.4775C21.5036 11.3205 21.365 11.1933 21.2 11.1102L15.08 8.05021V4.05022C15.08 3.23335 14.7555 2.44994 14.1779 1.87233C13.6003 1.29471 12.8169 0.970215 12 0.970215C11.1832 0.970215 10.3998 1.29471 9.82215 1.87233C9.24453 2.44994 8.92003 3.23335 8.92003 4.05022V8.05021L2.80003 11.1102C2.63512 11.1933 2.49644 11.3205 2.39936 11.4775C2.30228 11.6346 2.25059 11.8155 2.25003 12.0002V15.3302C2.24868 15.4931 2.28714 15.6539 2.36208 15.7986C2.43702 15.9432 2.54617 16.0674 2.68003 16.1602C2.81313 16.2514 2.96632 16.309 3.12653 16.3282C3.28673 16.3474 3.44919 16.3275 3.60003 16.2702L8.92003 14.2702V18.0002L7.10003 18.6002C6.90141 18.6673 6.7289 18.7951 6.60688 18.9656C6.48485 19.1361 6.41949 19.3406 6.42003 19.5502V22.0002C6.42058 22.1325 6.44738 22.2634 6.49888 22.3853C6.55038 22.5072 6.62555 22.6176 6.72003 22.7102C6.9063 22.895 7.15769 22.9991 7.42003 23.0002H16.59C16.8553 23.0002 17.1096 22.8949 17.2971 22.7073C17.4847 22.5198 17.59 22.2654 17.59 22.0002V19.5002C17.5906 19.2906 17.5252 19.0861 17.4032 18.9156C17.2812 18.7451 17.1087 18.6173 16.91 18.5502L15.08 18.0002V14.2802L20.4 16.2802C20.5509 16.3375 20.7133 16.3574 20.8735 16.3382C21.0337 16.319 21.1869 16.2614 21.32 16.1702C21.4539 16.0774 21.563 15.9532 21.638 15.8086C21.7129 15.6639 21.7514 15.5031 21.75 15.3402V12.0002ZM14.44 11.9002C14.2878 11.8412 14.1235 11.8204 13.9614 11.8396C13.7993 11.8588 13.6443 11.9174 13.51 12.0102C13.3776 12.1021 13.2693 12.2247 13.1944 12.3674C13.1195 12.5102 13.0803 12.669 13.08 12.8302V18.6702C13.0802 18.8811 13.147 19.0865 13.2709 19.2571C13.3949 19.4278 13.5695 19.5548 13.77 19.6202L15.58 20.2202V21.0002H8.41003V20.2202L10.22 19.6202C10.4205 19.5548 10.5952 19.4278 10.7191 19.2571C10.8431 19.0865 10.9099 18.8811 10.91 18.6702V12.8302C10.9098 12.669 10.8705 12.5102 10.7957 12.3674C10.7208 12.2247 10.6125 12.1021 10.48 12.0102C10.3458 11.9174 10.1908 11.8588 10.0287 11.8396C9.8666 11.8204 9.70226 11.8412 9.55003 11.9002L4.24003 13.9002V12.6202L10.35 9.56021C10.5168 9.4785 10.6575 9.35196 10.7565 9.19476C10.8554 9.03757 10.9085 8.85593 10.91 8.67021V4.08021C10.91 3.79378 11.0238 3.51908 11.2264 3.31654C11.4289 3.114 11.7036 3.00021 11.99 3.00021C12.2765 3.00021 12.5512 3.114 12.7537 3.31654C12.9562 3.51908 13.07 3.79378 13.07 4.08021V8.67021C13.0715 8.85593 13.1247 9.03757 13.2236 9.19476C13.3225 9.35196 13.4633 9.4785 13.63 9.56021L19.74 12.6202V13.8902L14.44 11.9002Z" fill="#9F66DB"/>
</svg>
