<svg width="20" height="20" viewBox="0 0 20 20" fill="none" xmlns="http://www.w3.org/2000/svg">
<path d="M9.9974 1.66699C7.86105 1.67309 5.80864 2.49942 4.26406 3.97533V2.50033C4.26406 2.27931 4.17627 2.06735 4.01998 1.91107C3.8637 1.75479 3.65174 1.66699 3.43073 1.66699C3.20972 1.66699 2.99775 1.75479 2.84147 1.91107C2.68519 2.06735 2.5974 2.27931 2.5974 2.50033V6.25033C2.5974 6.47134 2.68519 6.6833 2.84147 6.83958C2.99775 6.99586 3.20972 7.08366 3.43073 7.08366H7.18073C7.40174 7.08366 7.6137 6.99586 7.76998 6.83958C7.92627 6.6833 8.01406 6.47134 8.01406 6.25033C8.01406 6.02931 7.92627 5.81735 7.76998 5.66107C7.6137 5.50479 7.40174 5.41699 7.18073 5.41699H5.18073C6.25221 4.29729 7.68032 3.58587 9.21951 3.40505C10.7587 3.22423 12.3128 3.5853 13.6146 4.4262C14.9164 5.26709 15.8846 6.53525 16.3527 8.01265C16.8207 9.49005 16.7595 11.0844 16.1794 12.5215C15.5993 13.9586 14.5367 15.1487 13.1742 15.8872C11.8117 16.6258 10.2345 16.8665 8.71369 16.5681C7.19292 16.2697 5.82362 15.4508 4.84122 14.2522C3.85883 13.0535 3.32472 11.5501 3.33073 10.0003C3.33073 9.77931 3.24293 9.56735 3.08665 9.41107C2.93037 9.25479 2.71841 9.16699 2.4974 9.16699C2.27638 9.16699 2.06442 9.25479 1.90814 9.41107C1.75186 9.56735 1.66406 9.77931 1.66406 10.0003C1.66406 11.6485 2.1528 13.2597 3.06848 14.6301C3.98416 16.0005 5.28565 17.0686 6.80837 17.6993C8.33108 18.3301 10.0066 18.4951 11.6231 18.1735C13.2397 17.852 14.7245 17.0583 15.89 15.8929C17.0554 14.7274 17.8491 13.2426 18.1706 11.6261C18.4922 10.0096 18.3271 8.33401 17.6964 6.8113C17.0657 5.28858 15.9976 3.98709 14.6271 3.07141C13.2567 2.15573 11.6456 1.66699 9.9974 1.66699ZM9.9974 6.66699C9.77638 6.66699 9.56442 6.75479 9.40814 6.91107C9.25186 7.06735 9.16406 7.27931 9.16406 7.50033V10.0003C9.16406 10.2213 9.25186 10.4333 9.40814 10.5896C9.56442 10.7459 9.77638 10.8337 9.9974 10.8337H11.6641C11.8851 10.8337 12.097 10.7459 12.2533 10.5896C12.4096 10.4333 12.4974 10.2213 12.4974 10.0003C12.4974 9.77931 12.4096 9.56735 12.2533 9.41107C12.097 9.25479 11.8851 9.16699 11.6641 9.16699H10.8307V7.50033C10.8307 7.27931 10.7429 7.06735 10.5867 6.91107C10.4304 6.75479 10.2184 6.66699 9.9974 6.66699Z" fill="#676767"/>
</svg>
