<svg width="16" height="18" viewBox="0 0 16 18" fill="none" xmlns="http://www.w3.org/2000/svg">
<path d="M14.6667 5.66643L9.66675 1.28309C9.20839 0.873132 8.61502 0.646484 8.00008 0.646484C7.38513 0.646484 6.79176 0.873132 6.33341 1.28309L1.33341 5.66643C1.06872 5.90316 0.857496 6.19356 0.713806 6.5183C0.570115 6.84304 0.497256 7.19466 0.500079 7.54976V14.8331C0.500079 15.4961 0.763471 16.132 1.23231 16.6009C1.70115 17.0697 2.33704 17.3331 3.00008 17.3331H13.0001C13.6631 17.3331 14.299 17.0697 14.7678 16.6009C15.2367 16.132 15.5001 15.4961 15.5001 14.8331V7.54143C15.5017 7.18773 15.4283 6.83771 15.2846 6.5145C15.141 6.19128 14.9304 5.90222 14.6667 5.66643V5.66643ZM9.66675 15.6664H6.33341V11.4998C6.33341 11.2787 6.42121 11.0668 6.57749 10.9105C6.73377 10.7542 6.94573 10.6664 7.16675 10.6664H8.83341C9.05443 10.6664 9.26639 10.7542 9.42267 10.9105C9.57895 11.0668 9.66675 11.2787 9.66675 11.4998V15.6664ZM13.8334 14.8331C13.8334 15.0541 13.7456 15.2661 13.5893 15.4223C13.4331 15.5786 13.2211 15.6664 13.0001 15.6664H11.3334V11.4998C11.3334 10.8367 11.07 10.2008 10.6012 9.73199C10.1323 9.26315 9.49645 8.99976 8.83341 8.99976H7.16675C6.5037 8.99976 5.86782 9.26315 5.39898 9.73199C4.93014 10.2008 4.66675 10.8367 4.66675 11.4998V15.6664H3.00008C2.77907 15.6664 2.5671 15.5786 2.41082 15.4223C2.25454 15.2661 2.16675 15.0541 2.16675 14.8331V7.54143C2.1669 7.42311 2.19224 7.30617 2.24109 7.19841C2.28995 7.09065 2.36119 6.99452 2.45008 6.91643L7.45008 2.54143C7.60215 2.40783 7.79766 2.33415 8.00008 2.33415C8.2025 2.33415 8.398 2.40783 8.55008 2.54143L13.5501 6.91643C13.639 6.99452 13.7102 7.09065 13.7591 7.19841C13.8079 7.30617 13.8333 7.42311 13.8334 7.54143V14.8331Z" fill="white"/>
</svg>
