<svg width="30" height="28" viewBox="0 0 30 28" fill="none" xmlns="http://www.w3.org/2000/svg">
<path d="M12.5034 14.0359C12.5034 12.7461 13.623 11.7003 15.0045 11.7003C16.386 11.7003 17.5062 12.7461 17.5062 14.0359C17.5062 15.3256 16.386 16.3715 15.0045 16.3715C13.623 16.3715 12.5034 15.3256 12.5034 14.0359ZM11.151 14.0359C11.151 16.0228 12.8762 17.6335 15.0045 17.6335C17.1328 17.6335 18.858 16.0228 18.858 14.0359C18.858 12.0489 17.1328 10.4383 15.0045 10.4383C12.8762 10.4383 11.151 12.0489 11.151 14.0359ZM18.11 10.2956C18.1099 10.4619 18.1627 10.6245 18.2616 10.7628C18.3604 10.9011 18.501 11.0089 18.6656 11.0726C18.8301 11.1363 19.0112 11.153 19.1859 11.1206C19.3606 11.0882 19.5211 11.0082 19.647 10.8907C19.773 10.7732 19.8589 10.6234 19.8937 10.4603C19.9285 10.2972 19.9107 10.1282 19.8427 9.97452C19.7746 9.82087 19.6592 9.68952 19.5111 9.59708C19.3631 9.50464 19.189 9.45527 19.0109 9.4552H19.0105C18.7718 9.45531 18.5428 9.54387 18.374 9.70145C18.2051 9.85902 18.1102 10.0727 18.11 10.2956ZM11.9727 19.7388C11.241 19.7077 10.8433 19.5939 10.5791 19.4978C10.2287 19.3704 9.97871 19.2187 9.71587 18.9737C9.45303 18.7286 9.29033 18.4955 9.15453 18.1684C9.05151 17.9217 8.92964 17.5504 8.89638 16.8673C8.86 16.1288 8.85273 15.9069 8.85273 14.0359C8.85273 12.1649 8.8606 11.9437 8.89638 11.2046C8.9297 10.5215 9.05247 10.1508 9.15453 9.90349C9.29093 9.57638 9.45339 9.34299 9.71587 9.0976C9.97835 8.85222 10.2281 8.70032 10.5791 8.57354C10.8432 8.47736 11.241 8.36358 11.9727 8.33252C12.7637 8.29856 13.0013 8.29178 15.0045 8.29178C17.0077 8.29178 17.2455 8.29912 18.0372 8.33252C18.7689 8.36363 19.1659 8.47825 19.4308 8.57354C19.7812 8.70032 20.0312 8.85255 20.294 9.0976C20.5569 9.34265 20.719 9.57638 20.8554 9.90349C20.9584 10.1501 21.0803 10.5215 21.1135 11.2046C21.1499 11.9437 21.1572 12.1649 21.1572 14.0359C21.1572 15.9069 21.1499 16.1282 21.1135 16.8673C21.0802 17.5504 20.9577 17.9216 20.8554 18.1684C20.719 18.4955 20.5565 18.7289 20.294 18.9737C20.0316 19.2185 19.7812 19.3704 19.4308 19.4978C19.1667 19.5939 18.7689 19.7077 18.0372 19.7388C17.2462 19.7727 17.0086 19.7795 15.0045 19.7795C13.0004 19.7795 12.7635 19.7727 11.9727 19.7388ZM11.9105 7.07208C11.1116 7.10604 10.5657 7.22431 10.089 7.3975C9.59526 7.57636 9.17729 7.81631 8.75962 8.20563C8.34194 8.59495 8.08559 8.98579 7.89402 9.44674C7.70851 9.89211 7.58183 10.4015 7.54545 11.1473C7.50847 11.8944 7.5 12.1332 7.5 14.0359C7.5 15.9385 7.50847 16.1774 7.54545 16.9244C7.58183 17.6703 7.70851 18.1796 7.89402 18.625C8.08559 19.0857 8.342 19.477 8.75962 19.8661C9.17723 20.2553 9.59526 20.4949 10.089 20.6742C10.5666 20.8474 11.1116 20.9657 11.9105 20.9997C12.7111 21.0336 12.9665 21.0421 15.0045 21.0421C17.0425 21.0421 17.2983 21.0342 18.0985 20.9997C18.8974 20.9657 19.443 20.8474 19.92 20.6742C20.4134 20.4949 20.8317 20.2554 21.2494 19.8661C21.6671 19.4768 21.9229 19.0857 22.115 18.625C22.3005 18.1796 22.4278 17.6702 22.4636 16.9244C22.4999 16.1768 22.5084 15.9385 22.5084 14.0359C22.5084 12.1332 22.4999 11.8944 22.4636 11.1473C22.4272 10.4014 22.3005 9.89183 22.115 9.44674C21.9229 8.98607 21.6664 8.59557 21.2494 8.20563C20.8324 7.81569 20.4134 7.57636 19.9206 7.3975C19.443 7.22431 18.8974 7.10548 18.0991 7.07208C17.2989 7.03811 17.0431 7.02965 15.0051 7.02965C12.9671 7.02965 12.7111 7.03755 11.9105 7.07208Z" fill="#FFA666"/>
<path d="M12.5034 14.0359C12.5034 12.7461 13.623 11.7003 15.0045 11.7003C16.386 11.7003 17.5062 12.7461 17.5062 14.0359C17.5062 15.3256 16.386 16.3715 15.0045 16.3715C13.623 16.3715 12.5034 15.3256 12.5034 14.0359ZM11.151 14.0359C11.151 16.0228 12.8762 17.6335 15.0045 17.6335C17.1328 17.6335 18.858 16.0228 18.858 14.0359C18.858 12.0489 17.1328 10.4383 15.0045 10.4383C12.8762 10.4383 11.151 12.0489 11.151 14.0359ZM18.11 10.2956C18.1099 10.4619 18.1627 10.6245 18.2616 10.7628C18.3604 10.9011 18.501 11.0089 18.6656 11.0726C18.8301 11.1363 19.0112 11.153 19.1859 11.1206C19.3606 11.0882 19.5211 11.0082 19.647 10.8907C19.773 10.7732 19.8589 10.6234 19.8937 10.4603C19.9285 10.2972 19.9107 10.1282 19.8427 9.97452C19.7746 9.82087 19.6592 9.68952 19.5111 9.59708C19.3631 9.50464 19.189 9.45527 19.0109 9.4552H19.0105C18.7718 9.45531 18.5428 9.54387 18.374 9.70145C18.2051 9.85902 18.1102 10.0727 18.11 10.2956ZM11.9727 19.7388C11.241 19.7077 10.8433 19.5939 10.5791 19.4978C10.2287 19.3704 9.97871 19.2187 9.71587 18.9737C9.45303 18.7286 9.29033 18.4955 9.15453 18.1684C9.05151 17.9217 8.92964 17.5504 8.89638 16.8673C8.86 16.1288 8.85273 15.9069 8.85273 14.0359C8.85273 12.1649 8.8606 11.9437 8.89638 11.2046C8.9297 10.5215 9.05247 10.1508 9.15453 9.90349C9.29093 9.57638 9.45339 9.34299 9.71587 9.0976C9.97835 8.85222 10.2281 8.70032 10.5791 8.57354C10.8432 8.47736 11.241 8.36358 11.9727 8.33252C12.7637 8.29856 13.0013 8.29178 15.0045 8.29178C17.0077 8.29178 17.2455 8.29912 18.0372 8.33252C18.7689 8.36363 19.1659 8.47825 19.4308 8.57354C19.7812 8.70032 20.0312 8.85255 20.294 9.0976C20.5569 9.34265 20.719 9.57638 20.8554 9.90349C20.9584 10.1501 21.0803 10.5215 21.1135 11.2046C21.1499 11.9437 21.1572 12.1649 21.1572 14.0359C21.1572 15.9069 21.1499 16.1282 21.1135 16.8673C21.0802 17.5504 20.9577 17.9216 20.8554 18.1684C20.719 18.4955 20.5565 18.7289 20.294 18.9737C20.0316 19.2185 19.7812 19.3704 19.4308 19.4978C19.1667 19.5939 18.7689 19.7077 18.0372 19.7388C17.2462 19.7727 17.0086 19.7795 15.0045 19.7795C13.0004 19.7795 12.7635 19.7727 11.9727 19.7388ZM11.9105 7.07208C11.1116 7.10604 10.5657 7.22431 10.089 7.3975C9.59526 7.57636 9.17729 7.81631 8.75962 8.20563C8.34194 8.59495 8.08559 8.98579 7.89402 9.44674C7.70851 9.89211 7.58183 10.4015 7.54545 11.1473C7.50847 11.8944 7.5 12.1332 7.5 14.0359C7.5 15.9385 7.50847 16.1774 7.54545 16.9244C7.58183 17.6703 7.70851 18.1796 7.89402 18.625C8.08559 19.0857 8.342 19.477 8.75962 19.8661C9.17723 20.2553 9.59526 20.4949 10.089 20.6742C10.5666 20.8474 11.1116 20.9657 11.9105 20.9997C12.7111 21.0336 12.9665 21.0421 15.0045 21.0421C17.0425 21.0421 17.2983 21.0342 18.0985 20.9997C18.8974 20.9657 19.443 20.8474 19.92 20.6742C20.4134 20.4949 20.8317 20.2554 21.2494 19.8661C21.6671 19.4768 21.9229 19.0857 22.115 18.625C22.3005 18.1796 22.4278 17.6702 22.4636 16.9244C22.4999 16.1768 22.5084 15.9385 22.5084 14.0359C22.5084 12.1332 22.4999 11.8944 22.4636 11.1473C22.4272 10.4014 22.3005 9.89183 22.115 9.44674C21.9229 8.98607 21.6664 8.59557 21.2494 8.20563C20.8324 7.81569 20.4134 7.57636 19.9206 7.3975C19.443 7.22431 18.8974 7.10548 18.0991 7.07208C17.2989 7.03811 17.0431 7.02965 15.0051 7.02965C12.9671 7.02965 12.7111 7.03755 11.9105 7.07208Z" fill="#FFA666"/>
</svg>
