<svg width="24" height="24" viewBox="0 0 24 24" fill="none" xmlns="http://www.w3.org/2000/svg">
<path d="M21 18.0002H19V15.0002C19 14.735 18.8946 14.4806 18.7071 14.2931C18.5196 14.1056 18.2652 14.0002 18 14.0002H13V11.2902L14.13 11.8802C14.2948 11.9664 14.4804 12.005 14.6658 11.9915C14.8513 11.9781 15.0294 11.9131 15.18 11.8041C15.3307 11.695 15.4479 11.5461 15.5185 11.374C15.5892 11.202 15.6105 11.0137 15.58 10.8302L15.18 8.4602L16.9 6.7702C17.0303 6.64299 17.1233 6.48261 17.1692 6.30639C17.215 6.13016 17.2118 5.94476 17.16 5.7702C17.102 5.59248 16.9954 5.43456 16.8522 5.31436C16.7091 5.19417 16.5351 5.11651 16.35 5.0902L14 4.7202L12.9 2.5602C12.8181 2.39113 12.6903 2.24855 12.5311 2.14878C12.3719 2.04901 12.1879 1.99609 12 1.99609C11.8121 1.99609 11.6281 2.04901 11.4689 2.14878C11.3097 2.24855 11.1819 2.39113 11.1 2.5602L10 4.7202L7.61 5.0702C7.42492 5.09651 7.25092 5.17417 7.10775 5.29436C6.96458 5.41456 6.85796 5.57248 6.8 5.7502C6.74819 5.92476 6.74502 6.11016 6.79084 6.28639C6.83666 6.46261 6.92973 6.62299 7.06 6.7502L8.82 8.4602L8.42 10.8302C8.38952 11.0137 8.4108 11.202 8.48145 11.374C8.5521 11.5461 8.66933 11.695 8.81996 11.8041C8.9706 11.9131 9.14866 11.9781 9.33415 11.9915C9.51964 12.005 9.70521 11.9664 9.87 11.8802L11 11.2902V14.0002H6C5.73478 14.0002 5.48043 14.1056 5.29289 14.2931C5.10536 14.4806 5 14.735 5 15.0002V18.0002H3C2.73478 18.0002 2.48043 18.1056 2.29289 18.2931C2.10536 18.4806 2 18.735 2 19.0002V21.0002C2 21.2654 2.10536 21.5198 2.29289 21.7073C2.48043 21.8948 2.73478 22.0002 3 22.0002C3.26522 22.0002 3.51957 21.8948 3.70711 21.7073C3.89464 21.5198 4 21.2654 4 21.0002V20.0002H8V21.0002C8 21.2654 8.10536 21.5198 8.29289 21.7073C8.48043 21.8948 8.73478 22.0002 9 22.0002C9.26522 22.0002 9.51957 21.8948 9.70711 21.7073C9.89464 21.5198 10 21.2654 10 21.0002V19.0002C10 18.735 9.89464 18.4806 9.70711 18.2931C9.51957 18.1056 9.26522 18.0002 9 18.0002H7V16.0002H17V18.0002H15C14.7348 18.0002 14.4804 18.1056 14.2929 18.2931C14.1054 18.4806 14 18.735 14 19.0002V21.0002C14 21.2654 14.1054 21.5198 14.2929 21.7073C14.4804 21.8948 14.7348 22.0002 15 22.0002C15.2652 22.0002 15.5196 21.8948 15.7071 21.7073C15.8946 21.5198 16 21.2654 16 21.0002V20.0002H20V21.0002C20 21.2654 20.1054 21.5198 20.2929 21.7073C20.4804 21.8948 20.7348 22.0002 21 22.0002C21.2652 22.0002 21.5196 21.8948 21.7071 21.7073C21.8946 21.5198 22 21.2654 22 21.0002V19.0002C22 18.735 21.8946 18.4806 21.7071 18.2931C21.5196 18.1056 21.2652 18.0002 21 18.0002ZM12 8.6302C11.8359 8.63102 11.6744 8.67224 11.53 8.7502L10.73 9.1702L10.88 8.2702C10.9062 8.11101 10.8936 7.94783 10.8431 7.79459C10.7926 7.64135 10.7057 7.50261 10.59 7.3902L9.94 6.7502L10.84 6.6202C11.001 6.59869 11.1544 6.53828 11.2868 6.44419C11.4192 6.3501 11.5267 6.22517 11.6 6.0802L12 5.2602L12.4 6.0802C12.4733 6.22517 12.5808 6.3501 12.7132 6.44419C12.8456 6.53828 12.999 6.59869 13.16 6.6202L14.06 6.7502L13.41 7.3902C13.2943 7.50261 13.2074 7.64135 13.1569 7.79459C13.1064 7.94783 13.0938 8.11101 13.12 8.2702L13.27 9.1702L12.47 8.7502C12.3256 8.67224 12.1641 8.63102 12 8.6302Z" fill="#676767"/>
</svg>
