<svg width="17" height="17" viewBox="0 0 17 17" fill="none" xmlns="http://www.w3.org/2000/svg">
<path d="M5.41923 7.45177C5.28526 7.45177 5.1543 7.4915 5.04291 7.56593C4.93151 7.64036 4.84469 7.74615 4.79343 7.86992C4.74216 7.99369 4.72874 8.12989 4.75488 8.26128C4.78102 8.39268 4.84553 8.51338 4.94026 8.60811C5.03499 8.70284 5.15569 8.76735 5.28708 8.79349C5.41848 8.81962 5.55468 8.80621 5.67845 8.75494C5.80222 8.70367 5.90801 8.61685 5.98244 8.50546C6.05687 8.39407 6.0966 8.26311 6.0966 8.12914C6.0966 7.94949 6.02523 7.7772 5.8982 7.65017C5.77117 7.52313 5.59888 7.45177 5.41923 7.45177ZM8.1287 7.45177C7.99473 7.45177 7.86376 7.4915 7.75237 7.56593C7.64098 7.64036 7.55416 7.74615 7.50289 7.86992C7.45162 7.99369 7.43821 8.12989 7.46435 8.26128C7.49048 8.39268 7.555 8.51338 7.64973 8.60811C7.74446 8.70284 7.86515 8.76735 7.99655 8.79349C8.12795 8.81962 8.26414 8.80621 8.38791 8.75494C8.51169 8.70367 8.61748 8.61685 8.69191 8.50546C8.76634 8.39407 8.80606 8.26311 8.80606 8.12914C8.80606 7.94949 8.7347 7.7772 8.60767 7.65017C8.48064 7.52313 8.30835 7.45177 8.1287 7.45177ZM10.8382 7.45177C10.7042 7.45177 10.5732 7.4915 10.4618 7.56593C10.3504 7.64036 10.2636 7.74615 10.2124 7.86992C10.1611 7.99369 10.1477 8.12989 10.1738 8.26128C10.1999 8.39268 10.2645 8.51338 10.3592 8.60811C10.4539 8.70284 10.5746 8.76735 10.706 8.79349C10.8374 8.81962 10.9736 8.80621 11.0974 8.75494C11.2212 8.70367 11.3269 8.61685 11.4014 8.50546C11.4758 8.39407 11.5155 8.26311 11.5155 8.12914C11.5155 7.94949 11.4442 7.7772 11.3171 7.65017C11.1901 7.52313 11.0178 7.45177 10.8382 7.45177ZM8.1287 1.35547C7.23917 1.35547 6.35835 1.53067 5.53653 1.87108C4.71471 2.21149 3.96798 2.71044 3.33899 3.33943C2.06868 4.60974 1.35503 6.33265 1.35503 8.12914C1.34911 9.69327 1.89069 11.2102 2.88588 12.4169L1.53115 13.7716C1.43716 13.8669 1.37349 13.9878 1.34817 14.1192C1.32285 14.2506 1.33703 14.3866 1.3889 14.5099C1.44516 14.6318 1.53636 14.7342 1.65094 14.8042C1.76551 14.8741 1.89828 14.9085 2.0324 14.9028H8.1287C9.92519 14.9028 11.6481 14.1892 12.9184 12.9188C14.1887 11.6485 14.9024 9.92562 14.9024 8.12914C14.9024 6.33265 14.1887 4.60974 12.9184 3.33943C11.6481 2.06912 9.92519 1.35547 8.1287 1.35547ZM8.1287 13.5481H3.66485L4.2948 12.9181C4.3588 12.8554 4.40972 12.7806 4.4446 12.698C4.47949 12.6155 4.49764 12.5268 4.49801 12.4372C4.49547 12.2585 4.42243 12.0881 4.2948 11.963C3.40785 11.0771 2.85552 9.91098 2.73191 8.66344C2.6083 7.4159 2.92106 6.1641 3.61691 5.1213C4.31276 4.07851 5.34864 3.30924 6.54807 2.94455C7.7475 2.57987 9.03627 2.64233 10.1948 3.12131C11.3534 3.60028 12.31 4.46612 12.9017 5.57133C13.4935 6.67653 13.6837 7.95271 13.44 9.18245C13.1963 10.4122 12.5338 11.5194 11.5653 12.3154C10.5969 13.1115 9.38234 13.5471 8.1287 13.5481Z" fill="#ACACAC"/>
</svg>
