<svg width="55" height="56" viewBox="0 0 55 56" fill="none" xmlns="http://www.w3.org/2000/svg">
<rect y="0.5" width="55" height="55" rx="27.5" fill="#F3F3F3"/>
<path d="M29.5 27H28.5V23H30.5C30.7652 23 31.0196 23.1054 31.2071 23.2929C31.3946 23.4804 31.5 23.7348 31.5 24C31.5 24.2652 31.6054 24.5196 31.7929 24.7071C31.9804 24.8946 32.2348 25 32.5 25C32.7652 25 33.0196 24.8946 33.2071 24.7071C33.3946 24.5196 33.5 24.2652 33.5 24C33.5 23.2044 33.1839 22.4413 32.6213 21.8787C32.0587 21.3161 31.2956 21 30.5 21H28.5V19C28.5 18.7348 28.3946 18.4804 28.2071 18.2929C28.0196 18.1054 27.7652 18 27.5 18C27.2348 18 26.9804 18.1054 26.7929 18.2929C26.6054 18.4804 26.5 18.7348 26.5 19V21H25.5C24.4391 21 23.4217 21.4214 22.6716 22.1716C21.9214 22.9217 21.5 23.9391 21.5 25C21.5 26.0609 21.9214 27.0783 22.6716 27.8284C23.4217 28.5786 24.4391 29 25.5 29H26.5V33H24.5C24.2348 33 23.9804 32.8946 23.7929 32.7071C23.6054 32.5196 23.5 32.2652 23.5 32C23.5 31.7348 23.3946 31.4804 23.2071 31.2929C23.0196 31.1054 22.7652 31 22.5 31C22.2348 31 21.9804 31.1054 21.7929 31.2929C21.6054 31.4804 21.5 31.7348 21.5 32C21.5 32.7956 21.8161 33.5587 22.3787 34.1213C22.9413 34.6839 23.7044 35 24.5 35H26.5V37C26.5 37.2652 26.6054 37.5196 26.7929 37.7071C26.9804 37.8946 27.2348 38 27.5 38C27.7652 38 28.0196 37.8946 28.2071 37.7071C28.3946 37.5196 28.5 37.2652 28.5 37V35H29.5C30.5609 35 31.5783 34.5786 32.3284 33.8284C33.0786 33.0783 33.5 32.0609 33.5 31C33.5 29.9391 33.0786 28.9217 32.3284 28.1716C31.5783 27.4214 30.5609 27 29.5 27ZM26.5 27H25.5C24.9696 27 24.4609 26.7893 24.0858 26.4142C23.7107 26.0391 23.5 25.5304 23.5 25C23.5 24.4696 23.7107 23.9609 24.0858 23.5858C24.4609 23.2107 24.9696 23 25.5 23H26.5V27ZM29.5 33H28.5V29H29.5C30.0304 29 30.5391 29.2107 30.9142 29.5858C31.2893 29.9609 31.5 30.4696 31.5 31C31.5 31.5304 31.2893 32.0391 30.9142 32.4142C30.5391 32.7893 30.0304 33 29.5 33Z" fill="#FFA666"/>
</svg>
