<svg width="16" height="16" viewBox="0 0 16 16" fill="none" xmlns="http://www.w3.org/2000/svg">
<path d="M5.26279 7.23551C5.13267 7.23551 5.00547 7.27409 4.89728 7.34638C4.78909 7.41867 4.70477 7.52142 4.65497 7.64164C4.60518 7.76185 4.59215 7.89413 4.61753 8.02175C4.64292 8.14937 4.70558 8.26659 4.79759 8.3586C4.88959 8.45061 5.00682 8.51327 5.13444 8.53865C5.26206 8.56404 5.39434 8.55101 5.51455 8.50122C5.63477 8.45142 5.73752 8.3671 5.80981 8.25891C5.8821 8.15072 5.92068 8.02352 5.92068 7.8934C5.92068 7.71892 5.85137 7.55158 5.72799 7.4282C5.60461 7.30482 5.43727 7.23551 5.26279 7.23551V7.23551ZM7.89437 7.23551C7.76425 7.23551 7.63705 7.27409 7.52886 7.34638C7.42067 7.41867 7.33635 7.52142 7.28655 7.64164C7.23676 7.76185 7.22373 7.89413 7.24911 8.02175C7.2745 8.14937 7.33716 8.26659 7.42916 8.3586C7.52117 8.45061 7.6384 8.51327 7.76602 8.53865C7.89364 8.56404 8.02592 8.55101 8.14613 8.50122C8.26635 8.45142 8.3691 8.3671 8.44139 8.25891C8.51368 8.15072 8.55226 8.02352 8.55226 7.8934C8.55226 7.71892 8.48295 7.55158 8.35957 7.4282C8.23619 7.30482 8.06885 7.23551 7.89437 7.23551ZM10.5259 7.23551C10.3958 7.23551 10.2686 7.27409 10.1604 7.34638C10.0522 7.41867 9.96792 7.52142 9.91813 7.64164C9.86834 7.76185 9.85531 7.89413 9.88069 8.02175C9.90608 8.14937 9.96874 8.26659 10.0607 8.3586C10.1528 8.45061 10.27 8.51327 10.3976 8.53865C10.5252 8.56404 10.6575 8.55101 10.7777 8.50122C10.8979 8.45142 11.0007 8.3671 11.073 8.25891C11.1453 8.15072 11.1838 8.02352 11.1838 7.8934C11.1838 7.71892 11.1145 7.55158 10.9911 7.4282C10.8678 7.30482 10.7004 7.23551 10.5259 7.23551ZM7.89437 1.31445C7.03041 1.31445 6.17491 1.48462 5.37671 1.81525C4.57852 2.14587 3.85326 2.63047 3.24235 3.24138C2.00856 4.47517 1.31542 6.14856 1.31542 7.8934C1.30967 9.41257 1.83568 10.8859 2.80226 12.0579L1.48647 13.3737C1.39518 13.4662 1.33334 13.5837 1.30876 13.7113C1.28417 13.8389 1.29793 13.971 1.34831 14.0908C1.40296 14.2091 1.49154 14.3086 1.60282 14.3766C1.7141 14.4445 1.84305 14.4778 1.97331 14.4723H7.89437C9.63921 14.4723 11.3126 13.7792 12.5464 12.5454C13.7802 11.3116 14.4733 9.63825 14.4733 7.8934C14.4733 6.14856 13.7802 4.47517 12.5464 3.24138C11.3126 2.00759 9.63921 1.31445 7.89437 1.31445V1.31445ZM7.89437 13.1566H3.55884L4.17068 12.5447C4.23285 12.4838 4.2823 12.4111 4.31618 12.3309C4.35006 12.2508 4.36769 12.1647 4.36805 12.0776C4.36558 11.9041 4.29464 11.7386 4.17068 11.6171C3.30923 10.7566 2.77277 9.62402 2.65272 8.41234C2.53266 7.20067 2.83643 5.98485 3.51228 4.97203C4.18812 3.95922 5.19423 3.21206 6.35918 2.85786C7.52413 2.50366 8.77585 2.56432 9.90109 3.02953C11.0263 3.49473 11.9555 4.33569 12.5302 5.40912C13.1049 6.48255 13.2897 7.72205 13.053 8.91643C12.8163 10.1108 12.1729 11.1862 11.2322 11.9593C10.2916 12.7325 9.11197 13.1556 7.89437 13.1566V13.1566Z" fill="#00B1BB"/>
</svg>
