<svg width="17" height="17" viewBox="0 0 17 17" fill="none" xmlns="http://www.w3.org/2000/svg">
<path d="M5.87236 7.45177C5.73838 7.45177 5.60742 7.4915 5.49603 7.56593C5.38464 7.64036 5.29782 7.74615 5.24655 7.86992C5.19528 7.99369 5.18187 8.12989 5.208 8.26128C5.23414 8.39268 5.29865 8.51338 5.39338 8.60811C5.48812 8.70284 5.60881 8.76735 5.74021 8.79349C5.8716 8.81962 6.0078 8.80621 6.13157 8.75494C6.25535 8.70367 6.36114 8.61685 6.43556 8.50546C6.50999 8.39407 6.54972 8.26311 6.54972 8.12914C6.54972 7.94949 6.47836 7.7772 6.35133 7.65017C6.2243 7.52313 6.052 7.45177 5.87236 7.45177ZM8.58182 7.45177C8.44785 7.45177 8.31689 7.4915 8.2055 7.56593C8.09411 7.64036 8.00729 7.74615 7.95602 7.86992C7.90475 7.99369 7.89134 8.12989 7.91747 8.26128C7.94361 8.39268 8.00812 8.51338 8.10285 8.60811C8.19758 8.70284 8.31828 8.76735 8.44968 8.79349C8.58107 8.81962 8.71727 8.80621 8.84104 8.75494C8.96481 8.70367 9.0706 8.61685 9.14503 8.50546C9.21946 8.39407 9.25919 8.26311 9.25919 8.12914C9.25919 7.94949 9.18782 7.7772 9.06079 7.65017C8.93376 7.52313 8.76147 7.45177 8.58182 7.45177ZM11.2913 7.45177C11.1573 7.45177 11.0264 7.4915 10.915 7.56593C10.8036 7.64036 10.7168 7.74615 10.6655 7.86992C10.6142 7.99369 10.6008 8.12989 10.6269 8.26128C10.6531 8.39268 10.7176 8.51338 10.8123 8.60811C10.9071 8.70284 11.0277 8.76735 11.1591 8.79349C11.2905 8.81962 11.4267 8.80621 11.5505 8.75494C11.6743 8.70367 11.7801 8.61685 11.8545 8.50546C11.9289 8.39407 11.9687 8.26311 11.9687 8.12914C11.9687 7.94949 11.8973 7.7772 11.7703 7.65017C11.6432 7.52313 11.4709 7.45177 11.2913 7.45177ZM8.58182 1.35547C7.69229 1.35547 6.81147 1.53067 5.98965 1.87108C5.16783 2.21149 4.42111 2.71044 3.79212 3.33943C2.52181 4.60974 1.80816 6.33265 1.80816 8.12914C1.80223 9.69327 2.34381 11.2102 3.339 12.4169L1.98427 13.7716C1.89028 13.8669 1.82661 13.9878 1.80129 14.1192C1.77598 14.2506 1.79015 14.3866 1.84202 14.5099C1.89828 14.6318 1.98949 14.7342 2.10406 14.8042C2.21863 14.8741 2.3514 14.9085 2.48552 14.9028H8.58182C10.3783 14.9028 12.1012 14.1892 13.3715 12.9188C14.6418 11.6485 15.3555 9.92562 15.3555 8.12914C15.3555 6.33265 14.6418 4.60974 13.3715 3.33943C12.1012 2.06912 10.3783 1.35547 8.58182 1.35547ZM8.58182 13.5481H4.11798L4.74793 12.9181C4.81193 12.8554 4.86285 12.7806 4.89773 12.698C4.93261 12.6155 4.95076 12.5268 4.95114 12.4372C4.94859 12.2585 4.87555 12.0881 4.74793 11.963C3.86097 11.0771 3.30864 9.91098 3.18503 8.66344C3.06142 7.4159 3.37419 6.1641 4.07004 5.1213C4.76588 4.07851 5.80177 3.30924 7.0012 2.94455C8.20063 2.57987 9.4894 2.64233 10.6479 3.12131C11.8065 3.60028 12.7631 4.46612 13.3548 5.57133C13.9466 6.67653 14.1368 7.95271 13.8931 9.18245C13.6495 10.4122 12.9869 11.5194 12.0185 12.3154C11.05 13.1115 9.83547 13.5471 8.58182 13.5481Z" fill="#00B1BB"/>
</svg>
