<svg width="14" height="15" viewBox="0 0 14 15" fill="none" xmlns="http://www.w3.org/2000/svg">
<path d="M11.0807 2.5H2.91406C2.44993 2.5 2.00481 2.69754 1.67663 3.04917C1.34844 3.40081 1.16406 3.87772 1.16406 4.375V10.625C1.16406 11.1223 1.34844 11.5992 1.67663 11.9508C2.00481 12.3025 2.44993 12.5 2.91406 12.5H11.0807C11.5449 12.5 11.99 12.3025 12.3182 11.9508C12.6464 11.5992 12.8307 11.1223 12.8307 10.625V4.375C12.8307 3.87772 12.6464 3.40081 12.3182 3.04917C11.99 2.69754 11.5449 2.5 11.0807 2.5ZM2.91406 11.25C2.75935 11.25 2.61098 11.1842 2.50158 11.0669C2.39219 10.9497 2.33073 10.7908 2.33073 10.625V9.1125L4.25573 7.05625C4.36477 6.94173 4.51137 6.87759 4.66406 6.87759C4.81675 6.87759 4.96335 6.94173 5.0724 7.05625L8.98656 11.25H2.91406ZM11.6641 10.625C11.6641 10.7908 11.6026 10.9497 11.4932 11.0669C11.3838 11.1842 11.2354 11.25 11.0807 11.25H10.6316L8.40906 8.85625L8.9224 8.30625C9.03144 8.19173 9.17804 8.12759 9.33073 8.12759C9.48342 8.12759 9.63002 8.19173 9.73906 8.30625L11.6641 10.3625V10.625ZM11.6641 8.6L10.5674 7.43125C10.2349 7.08902 9.79177 6.89789 9.33073 6.89789C8.86969 6.89789 8.42653 7.08902 8.09406 7.43125L7.58073 7.98125L5.90073 6.18125C5.56826 5.83902 5.1251 5.64789 4.66406 5.64789C4.20302 5.64789 3.75986 5.83902 3.4274 6.18125L2.33073 7.35V4.375C2.33073 4.20924 2.39219 4.05027 2.50158 3.93306C2.61098 3.81585 2.75935 3.75 2.91406 3.75H11.0807C11.2354 3.75 11.3838 3.81585 11.4932 3.93306C11.6026 4.05027 11.6641 4.20924 11.6641 4.375V8.6Z" fill="#00B1BB"/>
</svg>
