<svg width="29" height="32" viewBox="0 0 29 32" fill="none" xmlns="http://www.w3.org/2000/svg">
<path d="M28.085 23.5801L24.3589 19.8539C24.2157 19.7096 24.0454 19.5951 23.8578 19.5169C23.6702 19.4387 23.4689 19.3985 23.2657 19.3985C23.0624 19.3985 22.8611 19.4387 22.6735 19.5169C22.4859 19.5951 22.3156 19.7096 22.1724 19.8539L16.6602 25.3662C16.5175 25.51 16.4046 25.6807 16.328 25.8683C16.2514 26.0558 16.2125 26.2567 16.2137 26.4594V30.1855C16.2137 30.5939 16.3759 30.9855 16.6647 31.2743C16.9534 31.563 17.3451 31.7252 17.7534 31.7252H21.4796C21.6822 31.7264 21.8831 31.6876 22.0707 31.6109C22.2583 31.5343 22.4289 31.4214 22.5728 31.2787L28.085 25.7665C28.2293 25.6233 28.3439 25.4531 28.422 25.2654C28.5002 25.0778 28.5405 24.8765 28.5405 24.6733C28.5405 24.47 28.5002 24.2688 28.422 24.0811C28.3439 23.8935 28.2293 23.7232 28.085 23.5801V23.5801ZM20.8329 28.6458H19.2932V27.1061L23.2657 23.1336L24.8054 24.6733L20.8329 28.6458ZM11.5945 28.6458H5.43559C5.02723 28.6458 4.6356 28.4836 4.34684 28.1948C4.05809 27.906 3.89586 27.5144 3.89586 27.1061V5.54985C3.89586 5.14149 4.05809 4.74985 4.34684 4.4611C4.6356 4.17234 5.02723 4.01012 5.43559 4.01012H13.1342V8.62931C13.1342 9.85439 13.6209 11.0293 14.4872 11.8956C15.3534 12.7618 16.5283 13.2485 17.7534 13.2485H22.3726V14.7882C22.3726 15.1966 22.5348 15.5882 22.8236 15.877C23.1123 16.1657 23.504 16.328 23.9123 16.328C24.3207 16.328 24.7123 16.1657 25.0011 15.877C25.2898 15.5882 25.4521 15.1966 25.4521 14.7882V11.7088C25.4521 11.7088 25.4521 11.7088 25.4521 11.6164C25.436 11.4749 25.4051 11.3356 25.3597 11.2007V11.0621C25.2857 10.9038 25.1869 10.7582 25.0671 10.631L15.8288 1.39258C15.7015 1.27282 15.556 1.17407 15.3976 1.10003C15.3517 1.09351 15.305 1.09351 15.2591 1.10003L14.7663 0.930664H5.43559C4.21051 0.930664 3.0356 1.41733 2.16933 2.28359C1.30307 3.14986 0.816406 4.32477 0.816406 5.54985V27.1061C0.816406 28.3311 1.30307 29.506 2.16933 30.3723C3.0356 31.2386 4.21051 31.7252 5.43559 31.7252H11.5945C12.0029 31.7252 12.3945 31.563 12.6833 31.2743C12.972 30.9855 13.1342 30.5939 13.1342 30.1855C13.1342 29.7771 12.972 29.3855 12.6833 29.0968C12.3945 28.808 12.0029 28.6458 11.5945 28.6458ZM16.2137 6.18114L20.2016 10.169H17.7534C17.3451 10.169 16.9534 10.0068 16.6647 9.71806C16.3759 9.4293 16.2137 9.03767 16.2137 8.62931V6.18114ZM8.51505 19.4074H17.7534C18.1618 19.4074 18.5534 19.2452 18.8422 18.9564C19.1309 18.6677 19.2932 18.276 19.2932 17.8677C19.2932 17.4593 19.1309 17.0677 18.8422 16.7789C18.5534 16.4902 18.1618 16.328 17.7534 16.328H8.51505C8.10669 16.328 7.71505 16.4902 7.4263 16.7789C7.13754 17.0677 6.97532 17.4593 6.97532 17.8677C6.97532 18.276 7.13754 18.6677 7.4263 18.9564C7.71505 19.2452 8.10669 19.4074 8.51505 19.4074ZM8.51505 13.2485H10.0548C10.4631 13.2485 10.8548 13.0863 11.1435 12.7975C11.4323 12.5088 11.5945 12.1171 11.5945 11.7088C11.5945 11.3004 11.4323 10.9088 11.1435 10.62C10.8548 10.3313 10.4631 10.169 10.0548 10.169H8.51505C8.10669 10.169 7.71505 10.3313 7.4263 10.62C7.13754 10.9088 6.97532 11.3004 6.97532 11.7088C6.97532 12.1171 7.13754 12.5088 7.4263 12.7975C7.71505 13.0863 8.10669 13.2485 8.51505 13.2485ZM11.5945 22.4869H8.51505C8.10669 22.4869 7.71505 22.6491 7.4263 22.9378C7.13754 23.2266 6.97532 23.6182 6.97532 24.0266C6.97532 24.435 7.13754 24.8266 7.4263 25.1153C7.71505 25.4041 8.10669 25.5663 8.51505 25.5663H11.5945C12.0029 25.5663 12.3945 25.4041 12.6833 25.1153C12.972 24.8266 13.1342 24.435 13.1342 24.0266C13.1342 23.6182 12.972 23.2266 12.6833 22.9378C12.3945 22.6491 12.0029 22.4869 11.5945 22.4869Z" fill="#FF8833"/>
</svg>
