<svg width="29" height="32" viewBox="0 0 29 32" fill="none" xmlns="http://www.w3.org/2000/svg">
<path d="M28.085 22.9277L24.3589 19.2016C24.2157 19.0573 24.0454 18.9427 23.8578 18.8646C23.6702 18.7864 23.4689 18.7461 23.2657 18.7461C23.0624 18.7461 22.8611 18.7864 22.6735 18.8646C22.4859 18.9427 22.3156 19.0573 22.1724 19.2016L16.6602 24.7138C16.5175 24.8577 16.4046 25.0283 16.328 25.2159C16.2514 25.4035 16.2125 25.6044 16.2137 25.807V29.5332C16.2137 29.9415 16.3759 30.3332 16.6647 30.6219C16.9534 30.9107 17.3451 31.0729 17.7534 31.0729H21.4796C21.6822 31.0741 21.8831 31.0352 22.0707 30.9586C22.2583 30.882 22.4289 30.7691 22.5728 30.6264L28.085 25.1141C28.2293 24.971 28.3439 24.8007 28.422 24.6131C28.5002 24.4254 28.5405 24.2242 28.5405 24.0209C28.5405 23.8177 28.5002 23.6164 28.422 23.4288C28.3439 23.2412 28.2293 23.0709 28.085 22.9277V22.9277ZM20.8329 27.9934H19.2932V26.4537L23.2657 22.4812L24.8054 24.0209L20.8329 27.9934ZM11.5945 27.9934H5.43559C5.02723 27.9934 4.6356 27.8312 4.34684 27.5425C4.05809 27.2537 3.89586 26.8621 3.89586 26.4537V4.89751C3.89586 4.48914 4.05809 4.09751 4.34684 3.80875C4.6356 3.52 5.02723 3.35778 5.43559 3.35778H13.1342V7.97696C13.1342 9.20205 13.6209 10.377 14.4872 11.2432C15.3534 12.1095 16.5283 12.5961 17.7534 12.5961H22.3726V14.1359C22.3726 14.5442 22.5348 14.9359 22.8236 15.2246C23.1123 15.5134 23.504 15.6756 23.9123 15.6756C24.3207 15.6756 24.7123 15.5134 25.0011 15.2246C25.2898 14.9359 25.4521 14.5442 25.4521 14.1359V11.0564C25.4521 11.0564 25.4521 11.0564 25.4521 10.964C25.436 10.8226 25.4051 10.6832 25.3597 10.5483V10.4097C25.2857 10.2514 25.1869 10.1059 25.0671 9.97861L15.8288 0.740239C15.7015 0.620473 15.556 0.521722 15.3976 0.44769C15.3517 0.441162 15.305 0.441162 15.2591 0.44769L14.7663 0.27832H5.43559C4.21051 0.27832 3.0356 0.764983 2.16933 1.63125C1.30307 2.49751 0.816406 3.67242 0.816406 4.89751V26.4537C0.816406 27.6788 1.30307 28.8537 2.16933 29.72C3.0356 30.5862 4.21051 31.0729 5.43559 31.0729H11.5945C12.0029 31.0729 12.3945 30.9107 12.6833 30.6219C12.972 30.3332 13.1342 29.9415 13.1342 29.5332C13.1342 29.1248 12.972 28.7332 12.6833 28.4444C12.3945 28.1557 12.0029 27.9934 11.5945 27.9934ZM16.2137 5.52879L20.2016 9.51669H17.7534C17.3451 9.51669 16.9534 9.35447 16.6647 9.06572C16.3759 8.77696 16.2137 8.38532 16.2137 7.97696V5.52879ZM8.51505 18.7551H17.7534C18.1618 18.7551 18.5534 18.5928 18.8422 18.3041C19.1309 18.0153 19.2932 17.6237 19.2932 17.2153C19.2932 16.807 19.1309 16.4153 18.8422 16.1266C18.5534 15.8378 18.1618 15.6756 17.7534 15.6756H8.51505C8.10669 15.6756 7.71505 15.8378 7.4263 16.1266C7.13754 16.4153 6.97532 16.807 6.97532 17.2153C6.97532 17.6237 7.13754 18.0153 7.4263 18.3041C7.71505 18.5928 8.10669 18.7551 8.51505 18.7551ZM8.51505 12.5961H10.0548C10.4631 12.5961 10.8548 12.4339 11.1435 12.1452C11.4323 11.8564 11.5945 11.4648 11.5945 11.0564C11.5945 10.6481 11.4323 10.2564 11.1435 9.96767C10.8548 9.67891 10.4631 9.51669 10.0548 9.51669H8.51505C8.10669 9.51669 7.71505 9.67891 7.4263 9.96767C7.13754 10.2564 6.97532 10.6481 6.97532 11.0564C6.97532 11.4648 7.13754 11.8564 7.4263 12.1452C7.71505 12.4339 8.10669 12.5961 8.51505 12.5961ZM11.5945 21.8345H8.51505C8.10669 21.8345 7.71505 21.9967 7.4263 22.2855C7.13754 22.5743 6.97532 22.9659 6.97532 23.3742C6.97532 23.7826 7.13754 24.1742 7.4263 24.463C7.71505 24.7518 8.10669 24.914 8.51505 24.914H11.5945C12.0029 24.914 12.3945 24.7518 12.6833 24.463C12.972 24.1742 13.1342 23.7826 13.1342 23.3742C13.1342 22.9659 12.972 22.5743 12.6833 22.2855C12.3945 21.9967 12.0029 21.8345 11.5945 21.8345Z" fill="#F3F3F3"/>
</svg>
