<svg width="56" height="56" viewBox="0 0 56 56" fill="none" xmlns="http://www.w3.org/2000/svg">
<path d="M51.2305 4.76953H5.10696C4.49532 4.76953 3.90874 5.0125 3.47625 5.445C3.04375 5.87749 2.80078 6.46407 2.80078 7.07571V25.5251C2.80078 26.1368 3.04375 26.7234 3.47625 27.1559C3.90874 27.5883 4.49532 27.8313 5.10696 27.8313H12.0255V48.5869C12.0255 49.1986 12.2685 49.7852 12.701 50.2176C13.1335 50.6501 13.72 50.8931 14.3317 50.8931H42.0058C42.6175 50.8931 43.204 50.6501 43.6365 50.2176C44.069 49.7852 44.312 49.1986 44.312 48.5869V27.8313H51.2305C51.8422 27.8313 52.4288 27.5883 52.8613 27.1559C53.2937 26.7234 53.5367 26.1368 53.5367 25.5251V7.07571C53.5367 6.46407 53.2937 5.87749 52.8613 5.445C52.4288 5.0125 51.8422 4.76953 51.2305 4.76953V4.76953ZM16.6379 46.2807V41.6684C17.8611 41.6684 19.0343 42.1543 19.8993 43.0193C20.7643 43.8843 21.2502 45.0575 21.2502 46.2807H16.6379ZM39.6996 46.2807H35.0873C35.0873 45.0575 35.5732 43.8843 36.4382 43.0193C37.3032 42.1543 38.4764 41.6684 39.6996 41.6684V46.2807ZM39.6996 37.056C37.2531 37.056 34.9068 38.0279 33.1768 39.7579C31.4468 41.4879 30.4749 43.8342 30.4749 46.2807H25.8626C25.8626 43.8342 24.8907 41.4879 23.1607 39.7579C21.4307 38.0279 19.0844 37.056 16.6379 37.056V18.6066H39.6996V37.056ZM48.9244 23.219H44.312V16.3004C44.312 15.6888 44.069 15.1022 43.6365 14.6697C43.204 14.2372 42.6175 13.9942 42.0058 13.9942H14.3317C13.72 13.9942 13.1335 14.2372 12.701 14.6697C12.2685 15.1022 12.0255 15.6888 12.0255 16.3004V23.219H7.41314V9.38189H48.9244V23.219ZM28.1687 34.7499C29.5371 34.7499 30.8747 34.3441 32.0125 33.5839C33.1502 32.8237 34.037 31.7431 34.5606 30.4789C35.0843 29.2147 35.2213 27.8236 34.9543 26.4816C34.6874 25.1395 34.0285 23.9067 33.0609 22.9392C32.0933 21.9716 30.8606 21.3127 29.5185 21.0457C28.1764 20.7788 26.7853 20.9158 25.5211 21.4394C24.2569 21.9631 23.1764 22.8498 22.4162 23.9876C21.656 25.1253 21.2502 26.463 21.2502 27.8313C21.2502 29.6662 21.9791 31.426 23.2766 32.7235C24.5741 34.0209 26.3338 34.7499 28.1687 34.7499ZM28.1687 25.5251C28.6249 25.5251 29.0707 25.6604 29.45 25.9138C29.8292 26.1672 30.1248 26.5274 30.2994 26.9488C30.4739 27.3702 30.5196 27.8339 30.4306 28.2812C30.3416 28.7286 30.122 29.1395 29.7995 29.462C29.4769 29.7846 29.066 30.0042 28.6187 30.0932C28.1713 30.1822 27.7076 30.1365 27.2862 29.962C26.8648 29.7874 26.5046 29.4918 26.2512 29.1126C25.9978 28.7333 25.8626 28.2874 25.8626 27.8313C25.8626 27.2197 26.1055 26.6331 26.538 26.2006C26.9705 25.7681 27.5571 25.5251 28.1687 25.5251V25.5251Z" fill="#9F66DB"/>
</svg>
