<svg width="24" height="24" viewBox="0 0 24 24" fill="none" xmlns="http://www.w3.org/2000/svg">
<path d="M14.8297 11.2897L10.5897 7.0497C10.4967 6.95598 10.3861 6.88158 10.2643 6.83081C10.1424 6.78004 10.0117 6.75391 9.8797 6.75391C9.74769 6.75391 9.61698 6.78004 9.49512 6.83081C9.37326 6.88158 9.26266 6.95598 9.1697 7.0497C8.98345 7.23707 8.87891 7.49052 8.87891 7.7547C8.87891 8.01889 8.98345 8.27234 9.1697 8.4597L12.7097 11.9997L9.1697 15.5397C8.98345 15.7271 8.87891 15.9805 8.87891 16.2447C8.87891 16.5089 8.98345 16.7623 9.1697 16.9497C9.26314 17.0424 9.37395 17.1157 9.49579 17.1655C9.61763 17.2152 9.74809 17.2405 9.8797 17.2397C10.0113 17.2405 10.1418 17.2152 10.2636 17.1655C10.3854 17.1157 10.4963 17.0424 10.5897 16.9497L14.8297 12.7097C14.9234 12.6167 14.9978 12.5061 15.0486 12.3843C15.0994 12.2624 15.1255 12.1317 15.1255 11.9997C15.1255 11.8677 15.0994 11.737 15.0486 11.6151C14.9978 11.4933 14.9234 11.3827 14.8297 11.2897Z" fill="white"/>
</svg>
