<svg width="10" height="10" viewBox="0 0 10 10" fill="none" xmlns="http://www.w3.org/2000/svg">
<path d="M7.99995 3.66401L2.49524 0.911654C2.27799 0.80353 2.03269 0.765037 1.79277 0.801423C1.55285 0.83781 1.32999 0.947305 1.15458 1.11498C0.979162 1.28266 0.859729 1.50035 0.812561 1.73839C0.765394 1.97642 0.792787 2.22321 0.891006 2.44511L1.83467 4.55656C1.85608 4.60761 1.86711 4.66241 1.86711 4.71777C1.86711 4.77313 1.85608 4.82793 1.83467 4.87898L0.891006 6.99043C0.81107 7.17 0.777277 7.36671 0.792699 7.56267C0.80812 7.75863 0.872267 7.94762 0.97931 8.11249C1.08635 8.27735 1.2329 8.41285 1.40563 8.50667C1.57836 8.60049 1.77179 8.64966 1.96836 8.6497C2.15246 8.64787 2.33383 8.60488 2.49917 8.52388L8.00388 5.77153C8.19914 5.6733 8.36326 5.52276 8.47795 5.33669C8.59263 5.15062 8.65336 4.93634 8.65336 4.71777C8.65336 4.4992 8.59263 4.28492 8.47795 4.09885C8.36326 3.91278 8.19914 3.76223 8.00388 3.66401H7.99995ZM7.65 5.06771L2.14529 7.82007C2.07301 7.85477 1.99184 7.86655 1.91268 7.85382C1.83351 7.84109 1.76012 7.80446 1.70237 7.74884C1.64461 7.69322 1.60523 7.62127 1.58953 7.54264C1.57382 7.46401 1.58253 7.38246 1.61448 7.30891L2.55422 5.19746C2.56638 5.16927 2.57688 5.14039 2.58567 5.11096H5.29477C5.39906 5.11096 5.49907 5.06954 5.5728 4.9958C5.64654 4.92206 5.68797 4.82205 5.68797 4.71777C5.68797 4.61349 5.64654 4.51348 5.5728 4.43974C5.49907 4.366 5.39906 4.32457 5.29477 4.32457H2.58567C2.57688 4.29515 2.56638 4.26627 2.55422 4.23807L1.61448 2.12662C1.58253 2.05308 1.57382 1.97153 1.58953 1.8929C1.60523 1.81427 1.64461 1.74232 1.70237 1.6867C1.76012 1.63108 1.83351 1.59445 1.91268 1.58172C1.99184 1.56899 2.07301 1.58076 2.14529 1.61547L7.65 4.36783C7.71441 4.40082 7.76846 4.45095 7.8062 4.5127C7.84395 4.57444 7.86392 4.6454 7.86392 4.71777C7.86392 4.79013 7.84395 4.8611 7.8062 4.92284C7.76846 4.98458 7.71441 5.03471 7.65 5.06771V5.06771Z" fill="#F3F3F3"/>
</svg>
