<svg width="74" height="13" viewBox="0 0 74 13" fill="none" xmlns="http://www.w3.org/2000/svg">
<path d="M6.05327 1.00879L7.61231 4.16724L11.0987 4.67683L8.57599 7.13397L9.17136 10.6052L6.05327 8.96547L2.93518 10.6052L3.53054 7.13397L1.00781 4.67683L4.49422 4.16724L6.05327 1.00879Z" stroke="#ACACAC" stroke-width="1.34545" stroke-linecap="round" stroke-linejoin="round"/>
<g clip-path="url(#clip0_3255_47586)">
<path d="M21.5298 1.00879L23.0889 4.16724L26.5753 4.67683L24.0526 7.13397L24.6479 10.6052L21.5298 8.96547L18.4117 10.6052L19.0071 7.13397L16.4844 4.67683L19.9708 4.16724L21.5298 1.00879Z" stroke="#ACACAC" stroke-width="1.34545" stroke-linecap="round" stroke-linejoin="round"/>
</g>
<path d="M36.9986 1.00879L38.5576 4.16724L42.044 4.67683L39.5213 7.13397L40.1167 10.6052L36.9986 8.96547L33.8805 10.6052L34.4759 7.13397L31.9531 4.67683L35.4395 4.16724L36.9986 1.00879Z" stroke="#ACACAC" stroke-width="1.34545" stroke-linecap="round" stroke-linejoin="round"/>
<g clip-path="url(#clip1_3255_47586)">
<path d="M52.4751 1.00879L54.0342 4.16724L57.5206 4.67683L54.9979 7.13397L55.5932 10.6052L52.4751 8.96547L49.3571 10.6052L49.9524 7.13397L47.4297 4.67683L50.9161 4.16724L52.4751 1.00879Z" stroke="#ACACAC" stroke-width="1.34545" stroke-linecap="round" stroke-linejoin="round"/>
</g>
<path d="M67.9439 1.00879L69.5029 4.16724L72.9893 4.67683L70.4666 7.13397L71.062 10.6052L67.9439 8.96547L64.8258 10.6052L65.4212 7.13397L62.8984 4.67683L66.3848 4.16724L67.9439 1.00879Z" stroke="#ACACAC" stroke-width="1.34545" stroke-linecap="round" stroke-linejoin="round"/>
<defs>
<clipPath id="clip0_3255_47586">
<rect width="12.1091" height="12.1091" fill="white" transform="translate(15.4766)"/>
</clipPath>
<clipPath id="clip1_3255_47586">
<rect width="12.1091" height="12.1091" fill="white" transform="translate(46.4219)"/>
</clipPath>
</defs>
</svg>
