<svg width="27" height="28" viewBox="0 0 27 28" fill="none" xmlns="http://www.w3.org/2000/svg">
<path d="M17.7363 9.97672C17.6467 9.92871 17.5595 9.87608 17.475 9.81903C17.2293 9.65059 17.004 9.45211 16.8041 9.22788C16.3037 8.63414 16.1168 8.0318 16.048 7.61008H16.0507C15.9932 7.26003 16.017 7.03354 16.0206 7.03354H13.7415V16.1727C13.7415 16.2954 13.7415 16.4167 13.7365 16.5365C13.7365 16.5514 13.7352 16.5652 13.7343 16.5812C13.7343 16.5878 13.7343 16.5947 13.7329 16.6016C13.7329 16.6033 13.7329 16.605 13.7329 16.6067C13.7089 16.9347 13.6076 17.2514 13.4378 17.5292C13.268 17.8069 13.035 18.0372 12.7593 18.1996C12.4719 18.3691 12.1469 18.4581 11.8163 18.4576C10.7544 18.4576 9.89385 17.5597 9.89385 16.4508C9.89385 15.3419 10.7544 14.4439 11.8163 14.4439C12.0173 14.4438 12.2171 14.4766 12.4082 14.5411L12.4109 12.1346C11.8308 12.0569 11.2414 12.1047 10.6799 12.2751C10.1184 12.4454 9.59712 12.7346 9.14881 13.1243C8.75599 13.4783 8.42574 13.9006 8.17293 14.3723C8.07673 14.5443 7.71374 15.2355 7.66979 16.3573C7.64214 16.9941 7.82654 17.6537 7.91445 17.9264V17.9321C7.96974 18.0927 8.18399 18.6405 8.53315 19.1024C8.8147 19.4729 9.14734 19.7983 9.52036 20.0683V20.0625L9.52589 20.0683C10.6292 20.8458 11.8525 20.7947 11.8525 20.7947C12.0643 20.7858 12.7737 20.7947 13.5792 20.3988C14.4727 19.9599 14.9814 19.3059 14.9814 19.3059C15.3064 18.9152 15.5648 18.4699 15.7455 17.9892C15.9518 17.427 16.0206 16.7527 16.0206 16.4832V11.6347C16.0482 11.6519 16.4165 11.9044 16.4165 11.9044C16.4165 11.9044 16.947 12.2571 17.7747 12.4867C18.3685 12.6501 19.1686 12.6845 19.1686 12.6845V10.3382C18.8882 10.3698 18.319 10.278 17.7363 9.97672Z" fill="#FFA666"/>
</svg>
