<svg width="54" height="54" viewBox="0 0 54 54" fill="none" xmlns="http://www.w3.org/2000/svg">
<path d="M23.4485 13.937L24.6354 12.6402V20.5307C24.6354 21.1136 24.867 21.6727 25.2792 22.0849C25.6914 22.4971 26.2504 22.7286 26.8333 22.7286C27.4163 22.7286 27.9753 22.4971 28.3875 22.0849C28.7997 21.6727 29.0313 21.1136 29.0313 20.5307V12.6402L30.2181 13.849C30.4176 14.0744 30.6613 14.2563 30.934 14.3836C31.2067 14.511 31.5027 14.5809 31.8035 14.5891C32.1044 14.5974 32.4037 14.5437 32.683 14.4316C32.9623 14.3194 33.2155 14.151 33.4271 13.937C33.6331 13.7326 33.7966 13.4895 33.9082 13.2217C34.0198 12.9539 34.0772 12.6666 34.0772 12.3764C34.0772 12.0863 34.0198 11.799 33.9082 11.5312C33.7966 11.2633 33.6331 11.0202 33.4271 10.8159L28.3939 5.78269C28.1848 5.58259 27.9383 5.42573 27.6685 5.32112C27.1334 5.10129 26.5332 5.10129 25.9981 5.32112C25.7283 5.42573 25.4818 5.58259 25.2728 5.78269L20.2396 10.728C19.814 11.1535 19.575 11.7307 19.575 12.3325C19.575 12.9343 19.814 13.5114 20.2396 13.937C20.6651 14.3625 21.2423 14.6016 21.8441 14.6016C22.4459 14.6016 23.023 14.3625 23.4485 13.937V13.937ZM26.8333 27.1245C25.5292 27.1245 24.2544 27.5112 23.17 28.2357C22.0857 28.9602 21.2406 29.99 20.7415 31.1949C20.2424 32.3997 20.1119 33.7255 20.3663 35.0046C20.6207 36.2836 21.2487 37.4585 22.1708 38.3807C23.093 39.3028 24.2679 39.9308 25.547 40.1853C26.826 40.4397 28.1518 40.3091 29.3567 39.81C30.5615 39.311 31.5913 38.4658 32.3158 37.3815C33.0404 36.2972 33.4271 35.0223 33.4271 33.7182C33.4271 31.9694 32.7324 30.2923 31.4958 29.0557C30.2593 27.8192 28.5821 27.1245 26.8333 27.1245ZM26.8333 35.9161C26.3986 35.9161 25.9737 35.7872 25.6122 35.5457C25.2508 35.3042 24.9691 34.9609 24.8027 34.5593C24.6364 34.1577 24.5928 33.7158 24.6776 33.2894C24.7625 32.8631 24.9718 32.4714 25.2792 32.164C25.5866 31.8567 25.9782 31.6473 26.4045 31.5625C26.8309 31.4777 27.2728 31.5212 27.6744 31.6876C28.0761 31.854 28.4193 32.1357 28.6608 32.4971C28.9023 32.8586 29.0313 33.2835 29.0313 33.7182C29.0313 34.3011 28.7997 34.8602 28.3875 35.2724C27.9753 35.6846 27.4163 35.9161 26.8333 35.9161ZM11.4479 33.7182C11.4479 34.1529 11.5768 34.5779 11.8183 34.9393C12.0598 35.3008 12.4031 35.5825 12.8047 35.7488C13.2063 35.9152 13.6483 35.9587 14.0746 35.8739C14.501 35.7891 14.8926 35.5798 15.2 35.2724C15.5074 34.965 15.7167 34.5734 15.8015 34.147C15.8863 33.7206 15.8428 33.2787 15.6764 32.8771C15.5101 32.4755 15.2284 32.1322 14.8669 31.8907C14.5055 31.6492 14.0805 31.5203 13.6458 31.5203C13.0629 31.5203 12.5039 31.7519 12.0917 32.164C11.6795 32.5762 11.4479 33.1353 11.4479 33.7182ZM42.2188 33.7182C42.2188 33.2835 42.0898 32.8586 41.8483 32.4971C41.6068 32.1357 41.2636 31.854 40.8619 31.6876C40.4603 31.5212 40.0184 31.4777 39.592 31.5625C39.1657 31.6473 38.7741 31.8567 38.4667 32.164C38.1593 32.4714 37.95 32.8631 37.8652 33.2894C37.7803 33.7158 37.8239 34.1577 37.9902 34.5593C38.1566 34.9609 38.4383 35.3042 38.7997 35.5457C39.1612 35.7872 39.5861 35.9161 40.0208 35.9161C40.6038 35.9161 41.1628 35.6846 41.575 35.2724C41.9872 34.8602 42.2188 34.3011 42.2188 33.7182ZM44.4167 18.3328H35.625C35.0421 18.3328 34.483 18.5644 34.0708 18.9765C33.6587 19.3887 33.4271 19.9478 33.4271 20.5307C33.4271 21.1136 33.6587 21.6727 34.0708 22.0849C34.483 22.4971 35.0421 22.7286 35.625 22.7286H44.4167C44.9996 22.7286 45.5586 22.9602 45.9708 23.3724C46.383 23.7846 46.6146 24.3436 46.6146 24.9265V42.5099C46.6146 43.0928 46.383 43.6519 45.9708 44.064C45.5586 44.4762 44.9996 44.7078 44.4167 44.7078H9.25C8.66708 44.7078 8.10803 44.4762 7.69584 44.064C7.28365 43.6519 7.05208 43.0928 7.05208 42.5099V24.9265C7.05208 24.3436 7.28365 23.7846 7.69584 23.3724C8.10803 22.9602 8.66708 22.7286 9.25 22.7286H18.0417C18.6246 22.7286 19.1836 22.4971 19.5958 22.0849C20.008 21.6727 20.2396 21.1136 20.2396 20.5307C20.2396 19.9478 20.008 19.3887 19.5958 18.9765C19.1836 18.5644 18.6246 18.3328 18.0417 18.3328H9.25C7.50123 18.3328 5.82408 19.0275 4.58751 20.2641C3.35095 21.5006 2.65625 23.1778 2.65625 24.9265V42.5099C2.65625 44.2586 3.35095 45.9358 4.58751 47.1724C5.82408 48.4089 7.50123 49.1036 9.25 49.1036H44.4167C46.1654 49.1036 47.8426 48.4089 49.0792 47.1724C50.3157 45.9358 51.0104 44.2586 51.0104 42.5099V24.9265C51.0104 23.1778 50.3157 21.5006 49.0792 20.2641C47.8426 19.0275 46.1654 18.3328 44.4167 18.3328Z" fill="#9F66DB"/>
</svg>
