<svg width="20" height="23" viewBox="0 0 20 23" fill="none" xmlns="http://www.w3.org/2000/svg">
<path d="M17.9086 7.99106L6.22209 1.28884C5.58972 0.923678 4.87196 0.732385 4.14173 0.734391C3.4115 0.736396 2.69481 0.931629 2.06445 1.30026C1.43409 1.66889 0.912523 2.19779 0.552721 2.83323C0.19292 3.46867 0.00770335 4.18801 0.0158848 4.9182V18.371C0.0158848 19.4684 0.451795 20.5207 1.22772 21.2967C2.00365 22.0726 3.05603 22.5085 4.15336 22.5085C4.87976 22.5073 5.59311 22.3154 6.22209 21.952L17.9086 15.2498C18.5366 14.8863 19.0579 14.3642 19.4204 13.7357C19.7828 13.1071 19.9736 12.3943 19.9736 11.6688C19.9736 10.9433 19.7828 10.2305 19.4204 9.60197C19.0579 8.97344 18.5366 8.45127 17.9086 8.08784V7.99106ZM16.6988 13.0601L5.0123 19.8591C4.75037 20.0075 4.45443 20.0855 4.15336 20.0855C3.85228 20.0855 3.55634 20.0075 3.29441 19.8591C3.03321 19.7083 2.81632 19.4914 2.66554 19.2301C2.51476 18.9689 2.43541 18.6726 2.43546 18.371V4.86981C2.43541 4.56821 2.51476 4.2719 2.66554 4.01069C2.81632 3.74948 3.03321 3.53257 3.29441 3.38177C3.55742 3.23558 3.85248 3.15662 4.15336 3.15191C4.45403 3.15808 4.74874 3.23695 5.0123 3.38177L16.6988 10.1324C16.9601 10.2831 17.1771 10.5 17.328 10.7612C17.4789 11.0224 17.5583 11.3188 17.5583 11.6204C17.5583 11.9221 17.4789 12.2184 17.328 12.4796C17.1771 12.7408 16.9601 12.9577 16.6988 13.1085V13.0601Z" fill="white"/>
</svg>
