<svg width="20" height="23" viewBox="0 0 20 23" fill="none" xmlns="http://www.w3.org/2000/svg">
<path d="M17.9086 7.99301L6.22209 1.29079C5.58972 0.925631 4.87196 0.734338 4.14173 0.736344C3.4115 0.738349 2.69481 0.933583 2.06445 1.30221C1.43409 1.67084 0.912523 2.19974 0.552721 2.83518C0.19292 3.47062 0.00770335 4.18997 0.0158848 4.92015V18.373C0.0158848 19.4703 0.451795 20.5227 1.22772 21.2986C2.00365 22.0745 3.05603 22.5105 4.15336 22.5105C4.87976 22.5092 5.59311 22.3173 6.22209 21.954L17.9086 15.2517C18.5366 14.8883 19.0579 14.3661 19.4204 13.7376C19.7828 13.1091 19.9736 12.3963 19.9736 11.6708C19.9736 10.9452 19.7828 10.2324 19.4204 9.60392C19.0579 8.9754 18.5366 8.45323 17.9086 8.0898V7.99301ZM16.6988 13.062L5.0123 19.861C4.75037 20.0095 4.45443 20.0875 4.15336 20.0875C3.85228 20.0875 3.55634 20.0095 3.29441 19.861C3.03321 19.7102 2.81632 19.4933 2.66554 19.2321C2.51476 18.9709 2.43541 18.6746 2.43546 18.373V4.87176C2.43541 4.57016 2.51476 4.27386 2.66554 4.01265C2.81632 3.75144 3.03321 3.53453 3.29441 3.38373C3.55742 3.23753 3.85248 3.15857 4.15336 3.15387C4.45403 3.16004 4.74874 3.2389 5.0123 3.38373L16.6988 10.1343C16.9601 10.2851 17.1771 10.502 17.328 10.7632C17.4789 11.0244 17.5583 11.3207 17.5583 11.6224C17.5583 11.924 17.4789 12.2204 17.328 12.4816C17.1771 12.7428 16.9601 12.9597 16.6988 13.1104V13.062Z" fill="#FF8833"/>
</svg>
