<svg width="28" height="28" viewBox="0 0 28 28" fill="none" xmlns="http://www.w3.org/2000/svg">
<path d="M20.9495 9.56709C20.4871 9.76623 20.0011 9.90491 19.5033 9.97968C19.7361 9.93975 20.0785 9.52051 20.2148 9.35081C20.4218 9.09485 20.5796 8.80264 20.6802 8.48903C20.6802 8.46574 20.7034 8.43247 20.6802 8.41583C20.6685 8.40943 20.6553 8.40607 20.6419 8.40607C20.6286 8.40607 20.6154 8.40943 20.6037 8.41583C20.0632 8.70878 19.488 8.93236 18.8917 9.0813C18.8709 9.08766 18.8488 9.08823 18.8277 9.08295C18.8066 9.07767 18.7873 9.06675 18.772 9.05135C18.7256 8.99603 18.6756 8.94379 18.6224 8.89497C18.3791 8.67685 18.1032 8.49832 17.8046 8.36592C17.4015 8.20041 16.9661 8.12873 16.5313 8.1563C16.1095 8.18297 15.6976 8.29623 15.3213 8.48903C14.9507 8.69231 14.6251 8.96846 14.3639 9.3009C14.0891 9.64307 13.8907 10.0402 13.7821 10.4655C13.6925 10.87 13.6823 11.2882 13.7522 11.6966C13.7522 11.7665 13.7522 11.7764 13.6923 11.7665C11.322 11.4171 9.37728 10.5753 7.78822 8.76853C7.71841 8.68867 7.68184 8.68867 7.62533 8.76853C6.93385 9.81997 7.26962 11.4836 8.13396 12.3055C8.25031 12.4153 8.36999 12.5218 8.49631 12.6216C8.10002 12.5934 7.7134 12.4859 7.35937 12.3055C7.29289 12.2622 7.25632 12.2855 7.25299 12.3654C7.24357 12.4761 7.24357 12.5874 7.25299 12.6981C7.32236 13.2287 7.53127 13.7313 7.85836 14.1546C8.18546 14.5778 8.619 14.9066 9.11465 15.1071C9.23548 15.1589 9.36138 15.1979 9.4903 15.2236C9.12343 15.2959 8.74716 15.3071 8.37664 15.2568C8.29685 15.2402 8.26693 15.2835 8.29685 15.36C8.78554 16.6909 9.84601 17.0969 10.6239 17.3231C10.7303 17.3398 10.8367 17.3398 10.9564 17.3664C10.9564 17.3664 10.9564 17.3664 10.9364 17.3863C10.707 17.8056 9.77953 18.0884 9.354 18.2348C8.57732 18.514 7.74923 18.6208 6.92721 18.5476C6.79755 18.5276 6.76763 18.5309 6.73439 18.5476C6.70115 18.5642 6.73439 18.6008 6.77096 18.6341C6.93718 18.7439 7.1034 18.8404 7.27627 18.9335C7.79089 19.2145 8.33496 19.4377 8.89856 19.599C11.8174 20.4042 15.1019 19.812 17.2926 17.6326C19.0147 15.9223 19.6197 13.5632 19.6197 11.2008C19.6197 11.111 19.7294 11.0577 19.7926 11.0112C20.2282 10.6714 20.6123 10.2702 20.9328 9.81997C20.9883 9.75286 21.0168 9.66742 21.0126 9.5804C21.0126 9.53049 21.0126 9.54047 20.9495 9.56709Z" fill="#FFA666"/>
</svg>
