<svg width="15" height="15" viewBox="0 0 15 15" fill="none" xmlns="http://www.w3.org/2000/svg">
<g clip-path="url(#clip0_3255_47379)">
<path d="M5 14.375H10" stroke="#00B1BB" stroke-width="1.32087" stroke-linecap="round" stroke-linejoin="round"/>
<path d="M7.5 11.875V14.375" stroke="#00B1BB" stroke-width="1.32087" stroke-linecap="round" stroke-linejoin="round"/>
<path d="M7.5 0.625C7.00272 0.625 6.52581 0.822544 6.17417 1.17417C5.82254 1.52581 5.625 2.00272 5.625 2.5V7.5C5.625 7.99728 5.82254 8.4742 6.17417 8.82583C6.52581 9.17746 7.00272 9.375 7.5 9.375C7.99728 9.375 8.4742 9.17746 8.82583 8.82583C9.17746 8.4742 9.375 7.99728 9.375 7.5V2.5C9.375 2.00272 9.17746 1.52581 8.82583 1.17417C8.4742 0.822544 7.99728 0.625 7.5 0.625V0.625Z" stroke="#00B1BB" stroke-width="1.32087" stroke-linecap="round" stroke-linejoin="round"/>
<path d="M11.875 6.25V7.5C11.875 8.66032 11.4141 9.77312 10.5936 10.5936C9.77312 11.4141 8.66032 11.875 7.5 11.875C6.33968 11.875 5.22688 11.4141 4.40641 10.5936C3.58594 9.77312 3.125 8.66032 3.125 7.5V6.25" stroke="#00B1BB" stroke-width="1.32087" stroke-linecap="round" stroke-linejoin="round"/>
</g>
<defs>
<clipPath id="clip0_3255_47379">
<rect width="15" height="15" fill="white"/>
</clipPath>
</defs>
</svg>
