<svg width="28" height="28" viewBox="0 0 28 28" fill="none" xmlns="http://www.w3.org/2000/svg">
<path d="M21.7876 10.1488C21.6047 9.46152 21.0639 8.91934 20.3759 8.73352C19.1318 8.40007 14.1402 8.40007 14.1402 8.40007C14.1402 8.40007 9.15107 8.40007 7.90443 8.73352C7.21891 8.9168 6.67811 9.45898 6.49276 10.1488C6.16016 11.3961 6.16016 14.0001 6.16016 14.0001C6.16016 14.0001 6.16016 16.6041 6.49276 17.8513C6.67557 18.5386 7.21637 19.0808 7.90443 19.2666C9.15107 19.6001 14.1402 19.6001 14.1402 19.6001C14.1402 19.6001 19.1318 19.6001 20.3759 19.2666C21.0614 19.0833 21.6022 18.5412 21.7876 17.8513C22.1202 16.6041 22.1202 14.0001 22.1202 14.0001C22.1202 14.0001 22.1202 11.3961 21.7876 10.1488Z" fill="#FFA666"/>
<path d="M12.5457 16.4004L16.6918 14.0001L12.5457 11.5997V16.4004Z" fill="#EFEFEF"/>
</svg>
