<svg width="56" height="56" viewBox="0 0 56 56" fill="none" xmlns="http://www.w3.org/2000/svg">
<path d="M27.9999 4.66675C23.4744 4.67535 19.049 5.99981 15.2628 8.4788C11.4766 10.9578 8.49304 14.4843 6.67548 18.6289C4.85792 22.7734 4.28483 27.3571 5.02601 31.8215C5.7672 36.286 7.79067 40.4385 10.85 43.7734V43.7734C13.0349 46.1419 15.6868 48.0321 18.6385 49.3249C21.5901 50.6177 24.7776 51.2852 27.9999 51.2852C31.2223 51.2852 34.4098 50.6177 37.3614 49.3249C40.3131 48.0321 42.965 46.1419 45.15 43.7734V43.7734C48.2092 40.4385 50.2327 36.286 50.9739 31.8215C51.7151 27.3571 51.142 22.7734 49.3244 18.6289C47.5069 14.4843 44.5233 10.9578 40.7371 8.4788C36.9509 5.99981 32.5255 4.67535 27.9999 4.66675V4.66675ZM27.9999 46.6667C23.1664 46.6594 18.5241 44.7774 15.05 41.4167C16.1047 38.849 17.899 36.6528 20.2049 35.1072C22.5107 33.5615 25.224 32.7363 27.9999 32.7363C30.7759 32.7363 33.4892 33.5615 35.795 35.1072C38.1009 36.6528 39.8952 38.849 40.9499 41.4167C37.4758 44.7774 32.8335 46.6594 27.9999 46.6667ZM23.3333 23.3334C23.3333 22.4104 23.607 21.5082 24.1198 20.7408C24.6325 19.9733 25.3614 19.3752 26.2141 19.022C27.0668 18.6688 28.0051 18.5764 28.9104 18.7564C29.8156 18.9365 30.6471 19.3809 31.2998 20.0336C31.9524 20.6862 32.3969 21.5177 32.5769 22.423C32.757 23.3282 32.6646 24.2665 32.3114 25.1193C31.9582 25.972 31.36 26.7008 30.5926 27.2136C29.8252 27.7264 28.9229 28.0001 27.9999 28.0001C26.7623 28.0001 25.5753 27.5084 24.7001 26.6332C23.8249 25.7581 23.3333 24.5711 23.3333 23.3334ZM44.1233 37.3334C42.0385 33.7675 38.8299 30.9938 34.9999 29.4467C36.188 28.0996 36.9621 26.4383 37.2294 24.6621C37.4966 22.8859 37.2457 21.0703 36.5067 19.4332C35.7677 17.7961 34.572 16.4071 33.0631 15.4327C31.5542 14.4583 29.7961 13.94 27.9999 13.94C26.2038 13.94 24.4457 14.4583 22.9368 15.4327C21.4279 16.4071 20.2322 17.7961 19.4932 19.4332C18.7542 21.0703 18.5033 22.8859 18.7705 24.6621C19.0378 26.4383 19.8119 28.0996 21 29.4467C17.17 30.9938 13.9614 33.7675 11.8766 37.3334C10.2152 34.5033 9.3373 31.2818 9.33328 28.0001C9.33328 23.0494 11.2999 18.3014 14.8006 14.8008C18.3013 11.3001 23.0492 9.33341 27.9999 9.33341C32.9507 9.33341 37.6986 11.3001 41.1993 14.8008C44.7 18.3014 46.6666 23.0494 46.6666 28.0001C46.6626 31.2818 45.7847 34.5033 44.1233 37.3334V37.3334Z" fill="white"/>
</svg>
