<svg width="17" height="713" viewBox="0 0 17 713" fill="none" xmlns="http://www.w3.org/2000/svg">
<rect x="7" y="236" width="1" height="160" rx="0.5" fill="#DFCCF3"/>
<rect x="7" y="409" width="1" height="287" rx="0.5" fill="#DFCCF3"/>
<rect x="7" y="126" width="1" height="95" rx="0.5" fill="#DFCCF3"/>
<rect x="8" y="17" width="1" height="93" rx="0.5" fill="#DFCCF3"/>
<path d="M16.4608 12.2304C16.4608 16.7759 12.7759 20.4608 8.23042 20.4608C3.68488 20.4608 0 16.7759 0 12.2304C0 7.68488 3.68488 4 8.23042 4C12.7759 4 16.4608 7.68488 16.4608 12.2304ZM4.44145 12.2304C4.44145 14.323 6.13783 16.0194 8.23042 16.0194C10.323 16.0194 12.0194 14.323 12.0194 12.2304C12.0194 10.1378 10.323 8.44145 8.23042 8.44145C6.13783 8.44145 4.44145 10.1378 4.44145 12.2304Z" fill="#9F66DB"/>
<path d="M16.4608 118.23C16.4608 122.776 12.7759 126.461 8.23042 126.461C3.68488 126.461 0 122.776 0 118.23C0 113.685 3.68488 110 8.23042 110C12.7759 110 16.4608 113.685 16.4608 118.23ZM4.44145 118.23C4.44145 120.323 6.13783 122.019 8.23042 122.019C10.323 122.019 12.0194 120.323 12.0194 118.23C12.0194 116.138 10.323 114.441 8.23042 114.441C6.13783 114.441 4.44145 116.138 4.44145 118.23Z" fill="#9F66DB"/>
<path d="M16.4608 228.23C16.4608 232.776 12.7759 236.461 8.23042 236.461C3.68488 236.461 0 232.776 0 228.23C0 223.685 3.68488 220 8.23042 220C12.7759 220 16.4608 223.685 16.4608 228.23ZM4.44145 228.23C4.44145 230.323 6.13783 232.019 8.23042 232.019C10.323 232.019 12.0194 230.323 12.0194 228.23C12.0194 226.138 10.323 224.441 8.23042 224.441C6.13783 224.441 4.44145 226.138 4.44145 228.23Z" fill="#9F66DB"/>
<path d="M16.4608 403.23C16.4608 407.776 12.7759 411.461 8.23042 411.461C3.68488 411.461 0 407.776 0 403.23C0 398.685 3.68488 395 8.23042 395C12.7759 395 16.4608 398.685 16.4608 403.23ZM4.44145 403.23C4.44145 405.323 6.13783 407.019 8.23042 407.019C10.323 407.019 12.0194 405.323 12.0194 403.23C12.0194 401.138 10.323 399.441 8.23042 399.441C6.13783 399.441 4.44145 401.138 4.44145 403.23Z" fill="#9F66DB"/>
<path d="M16.4608 704.23C16.4608 708.776 12.7759 712.461 8.23042 712.461C3.68488 712.461 0 708.776 0 704.23C0 699.685 3.68488 696 8.23042 696C12.7759 696 16.4608 699.685 16.4608 704.23ZM4.44145 704.23C4.44145 706.323 6.13783 708.019 8.23042 708.019C10.323 708.019 12.0194 706.323 12.0194 704.23C12.0194 702.138 10.323 700.441 8.23042 700.441C6.13783 700.441 4.44145 702.138 4.44145 704.23Z" fill="#9F66DB"/>
<rect x="7" y="236" width="1" height="160" rx="0.5" fill="#DFCCF3"/>
<rect x="7" y="409" width="1" height="287" rx="0.5" fill="#DFCCF3"/>
<rect x="7" y="126" width="1" height="95" rx="0.5" fill="#DFCCF3"/>
<rect x="8" y="17" width="1" height="93" rx="0.5" fill="#DFCCF3"/>
<path d="M16.4608 12.2304C16.4608 16.7759 12.7759 20.4608 8.23042 20.4608C3.68488 20.4608 0 16.7759 0 12.2304C0 7.68488 3.68488 4 8.23042 4C12.7759 4 16.4608 7.68488 16.4608 12.2304ZM4.44145 12.2304C4.44145 14.323 6.13783 16.0194 8.23042 16.0194C10.323 16.0194 12.0194 14.323 12.0194 12.2304C12.0194 10.1378 10.323 8.44145 8.23042 8.44145C6.13783 8.44145 4.44145 10.1378 4.44145 12.2304Z" fill="#9F66DB"/>
<path d="M16.4608 118.23C16.4608 122.776 12.7759 126.461 8.23042 126.461C3.68488 126.461 0 122.776 0 118.23C0 113.685 3.68488 110 8.23042 110C12.7759 110 16.4608 113.685 16.4608 118.23ZM4.44145 118.23C4.44145 120.323 6.13783 122.019 8.23042 122.019C10.323 122.019 12.0194 120.323 12.0194 118.23C12.0194 116.138 10.323 114.441 8.23042 114.441C6.13783 114.441 4.44145 116.138 4.44145 118.23Z" fill="#9F66DB"/>
<path d="M16.4608 228.23C16.4608 232.776 12.7759 236.461 8.23042 236.461C3.68488 236.461 0 232.776 0 228.23C0 223.685 3.68488 220 8.23042 220C12.7759 220 16.4608 223.685 16.4608 228.23ZM4.44145 228.23C4.44145 230.323 6.13783 232.019 8.23042 232.019C10.323 232.019 12.0194 230.323 12.0194 228.23C12.0194 226.138 10.323 224.441 8.23042 224.441C6.13783 224.441 4.44145 226.138 4.44145 228.23Z" fill="#9F66DB"/>
<path d="M16.4608 403.23C16.4608 407.776 12.7759 411.461 8.23042 411.461C3.68488 411.461 0 407.776 0 403.23C0 398.685 3.68488 395 8.23042 395C12.7759 395 16.4608 398.685 16.4608 403.23ZM4.44145 403.23C4.44145 405.323 6.13783 407.019 8.23042 407.019C10.323 407.019 12.0194 405.323 12.0194 403.23C12.0194 401.138 10.323 399.441 8.23042 399.441C6.13783 399.441 4.44145 401.138 4.44145 403.23Z" fill="#9F66DB"/>
<path d="M16.4608 704.23C16.4608 708.776 12.7759 712.461 8.23042 712.461C3.68488 712.461 0 708.776 0 704.23C0 699.685 3.68488 696 8.23042 696C12.7759 696 16.4608 699.685 16.4608 704.23ZM4.44145 704.23C4.44145 706.323 6.13783 708.019 8.23042 708.019C10.323 708.019 12.0194 706.323 12.0194 704.23C12.0194 702.138 10.323 700.441 8.23042 700.441C6.13783 700.441 4.44145 702.138 4.44145 704.23Z" fill="#9F66DB"/>
</svg>
