<svg width="15" height="309" viewBox="0 0 15 309" fill="none" xmlns="http://www.w3.org/2000/svg">
<rect x="7" y="17" width="1" height="55" rx="0.5" fill="#DFCCF3"/>
<rect x="7" width="1" height="7" rx="0.5" fill="white"/>
<rect x="7" y="80" width="1" height="42" rx="0.5" fill="#DFCCF3"/>
<rect width="1" height="54" rx="0.5" transform="matrix(-1 0 0 1 8 130)" fill="#DFCCF3"/>
<rect width="1" height="97" rx="0.5" transform="matrix(-1 0 0 1 8 197)" fill="#DFCCF3"/>
<path d="M15 11.5C15 15.6421 11.6421 19 7.5 19C3.35786 19 0 15.6421 0 11.5C0 7.35786 3.35786 4 7.5 4C11.6421 4 15 7.35786 15 11.5ZM4.04729 11.5C4.04729 13.4069 5.59312 14.9527 7.5 14.9527C9.40688 14.9527 10.9527 13.4069 10.9527 11.5C10.9527 9.59312 9.40688 8.04729 7.5 8.04729C5.59312 8.04729 4.04729 9.59312 4.04729 11.5Z" fill="#9F66DB"/>
<path d="M15 74.5C15 78.6421 11.6421 82 7.5 82C3.35786 82 0 78.6421 0 74.5C0 70.3579 3.35786 67 7.5 67C11.6421 67 15 70.3579 15 74.5ZM4.04729 74.5C4.04729 76.4069 5.59312 77.9527 7.5 77.9527C9.40688 77.9527 10.9527 76.4069 10.9527 74.5C10.9527 72.5931 9.40688 71.0473 7.5 71.0473C5.59312 71.0473 4.04729 72.5931 4.04729 74.5Z" fill="#9F66DB"/>
<path d="M15 125.5C15 129.642 11.6421 133 7.5 133C3.35786 133 0 129.642 0 125.5C0 121.358 3.35786 118 7.5 118C11.6421 118 15 121.358 15 125.5ZM4.04729 125.5C4.04729 127.407 5.59312 128.953 7.5 128.953C9.40688 128.953 10.9527 127.407 10.9527 125.5C10.9527 123.593 9.40688 122.047 7.5 122.047C5.59312 122.047 4.04729 123.593 4.04729 125.5Z" fill="#9F66DB"/>
<path d="M15 191.5C15 195.642 11.6421 199 7.5 199C3.35786 199 0 195.642 0 191.5C0 187.358 3.35786 184 7.5 184C11.6421 184 15 187.358 15 191.5ZM4.04729 191.5C4.04729 193.407 5.59312 194.953 7.5 194.953C9.40688 194.953 10.9527 193.407 10.9527 191.5C10.9527 189.593 9.40688 188.047 7.5 188.047C5.59312 188.047 4.04729 189.593 4.04729 191.5Z" fill="#9F66DB"/>
<path d="M15 301.5C15 305.642 11.6421 309 7.5 309C3.35786 309 0 305.642 0 301.5C0 297.358 3.35786 294 7.5 294C11.6421 294 15 297.358 15 301.5ZM4.04729 301.5C4.04729 303.407 5.59312 304.953 7.5 304.953C9.40688 304.953 10.9527 303.407 10.9527 301.5C10.9527 299.593 9.40688 298.047 7.5 298.047C5.59312 298.047 4.04729 299.593 4.04729 301.5Z" fill="#9F66DB"/>
</svg>
