<svg width="15" height="115" viewBox="0 0 15 115" fill="none" xmlns="http://www.w3.org/2000/svg">
<rect x="7" y="17" width="1" height="83" rx="0.5" fill="#DFCCF3"/>
<rect x="7" width="1" height="5" rx="0.5" fill="white"/>
<path d="M15 11.5C15 15.6421 11.6421 19 7.5 19C3.35786 19 0 15.6421 0 11.5C0 7.35786 3.35786 4 7.5 4C11.6421 4 15 7.35786 15 11.5ZM4.04729 11.5C4.04729 13.4069 5.59312 14.9527 7.5 14.9527C9.40688 14.9527 10.9527 13.4069 10.9527 11.5C10.9527 9.59312 9.40688 8.04729 7.5 8.04729C5.59312 8.04729 4.04729 9.59312 4.04729 11.5Z" fill="#9F66DB"/>
<path d="M15 107.5C15 111.642 11.6421 115 7.5 115C3.35786 115 0 111.642 0 107.5C0 103.358 3.35786 100 7.5 100C11.6421 100 15 103.358 15 107.5ZM4.04729 107.5C4.04729 109.407 5.59312 110.953 7.5 110.953C9.40688 110.953 10.9527 109.407 10.9527 107.5C10.9527 105.593 9.40688 104.047 7.5 104.047C5.59312 104.047 4.04729 105.593 4.04729 107.5Z" fill="#9F66DB"/>
</svg>
