<svg width="15" height="238" viewBox="0 0 15 238" fill="none" xmlns="http://www.w3.org/2000/svg">
<rect x="7" y="16" width="1" height="72" rx="0.5" fill="#DFCCF3"/>
<rect x="7" width="1" height="8" rx="0.5" fill="white"/>
<rect x="7" y="100" width="1" height="40" rx="0.5" fill="#DFCCF3"/>
<rect x="7" y="148" width="1" height="76" rx="0.5" fill="#DFCCF3"/>
<path d="M15 11.5C15 15.6421 11.6421 19 7.5 19C3.35786 19 0 15.6421 0 11.5C0 7.35786 3.35786 4 7.5 4C11.6421 4 15 7.35786 15 11.5ZM4.04729 11.5C4.04729 13.4069 5.59312 14.9527 7.5 14.9527C9.40688 14.9527 10.9527 13.4069 10.9527 11.5C10.9527 9.59312 9.40688 8.04729 7.5 8.04729C5.59312 8.04729 4.04729 9.59312 4.04729 11.5Z" fill="#9F66DB"/>
<path d="M15 95.5C15 99.6421 11.6421 103 7.5 103C3.35786 103 0 99.6421 0 95.5C0 91.3579 3.35786 88 7.5 88C11.6421 88 15 91.3579 15 95.5ZM4.04729 95.5C4.04729 97.4069 5.59312 98.9527 7.5 98.9527C9.40688 98.9527 10.9527 97.4069 10.9527 95.5C10.9527 93.5931 9.40688 92.0473 7.5 92.0473C5.59312 92.0473 4.04729 93.5931 4.04729 95.5Z" fill="#9F66DB"/>
<path d="M15 143.5C15 147.642 11.6421 151 7.5 151C3.35786 151 0 147.642 0 143.5C0 139.358 3.35786 136 7.5 136C11.6421 136 15 139.358 15 143.5ZM4.04729 143.5C4.04729 145.407 5.59312 146.953 7.5 146.953C9.40688 146.953 10.9527 145.407 10.9527 143.5C10.9527 141.593 9.40688 140.047 7.5 140.047C5.59312 140.047 4.04729 141.593 4.04729 143.5Z" fill="#9F66DB"/>
<path d="M15 230.5C15 234.642 11.6421 238 7.5 238C3.35786 238 0 234.642 0 230.5C0 226.358 3.35786 223 7.5 223C11.6421 223 15 226.358 15 230.5ZM4.04729 230.5C4.04729 232.407 5.59312 233.953 7.5 233.953C9.40688 233.953 10.9527 232.407 10.9527 230.5C10.9527 228.593 9.40688 227.047 7.5 227.047C5.59312 227.047 4.04729 228.593 4.04729 230.5Z" fill="#9F66DB"/>
</svg>
