<svg width="15" height="179" viewBox="0 0 15 179" fill="none" xmlns="http://www.w3.org/2000/svg">
<rect x="7" y="15" width="1" height="23" rx="0.5" fill="#DFCCF3"/>
<rect x="7" width="1" height="3" rx="0.5" fill="white"/>
<rect x="7" y="48" width="1" height="23" rx="0.5" fill="#DFCCF3"/>
<rect x="7" y="81" width="1" height="23" rx="0.5" fill="#DFCCF3"/>
<rect x="7" y="114" width="1" height="20" rx="0.5" fill="#DFCCF3"/>
<rect x="7" y="147" width="1" height="20" rx="0.5" fill="#DFCCF3"/>
<path d="M15 9.5C15 13.6421 11.6421 17 7.5 17C3.35786 17 0 13.6421 0 9.5C0 5.35786 3.35786 2 7.5 2C11.6421 2 15 5.35786 15 9.5ZM4.04729 9.5C4.04729 11.4069 5.59312 12.9527 7.5 12.9527C9.40688 12.9527 10.9527 11.4069 10.9527 9.5C10.9527 7.59312 9.40688 6.04729 7.5 6.04729C5.59312 6.04729 4.04729 7.59312 4.04729 9.5Z" fill="#9F66DB"/>
<path d="M15 43.5C15 47.6421 11.6421 51 7.5 51C3.35786 51 0 47.6421 0 43.5C0 39.3579 3.35786 36 7.5 36C11.6421 36 15 39.3579 15 43.5ZM4.04729 43.5C4.04729 45.4069 5.59312 46.9527 7.5 46.9527C9.40688 46.9527 10.9527 45.4069 10.9527 43.5C10.9527 41.5931 9.40688 40.0473 7.5 40.0473C5.59312 40.0473 4.04729 41.5931 4.04729 43.5Z" fill="#9F66DB"/>
<path d="M15 75.5C15 79.6421 11.6421 83 7.5 83C3.35786 83 0 79.6421 0 75.5C0 71.3579 3.35786 68 7.5 68C11.6421 68 15 71.3579 15 75.5ZM4.04729 75.5C4.04729 77.4069 5.59312 78.9527 7.5 78.9527C9.40688 78.9527 10.9527 77.4069 10.9527 75.5C10.9527 73.5931 9.40688 72.0473 7.5 72.0473C5.59312 72.0473 4.04729 73.5931 4.04729 75.5Z" fill="#9F66DB"/>
<path d="M15 107.5C15 111.642 11.6421 115 7.5 115C3.35786 115 0 111.642 0 107.5C0 103.358 3.35786 100 7.5 100C11.6421 100 15 103.358 15 107.5ZM4.04729 107.5C4.04729 109.407 5.59312 110.953 7.5 110.953C9.40688 110.953 10.9527 109.407 10.9527 107.5C10.9527 105.593 9.40688 104.047 7.5 104.047C5.59312 104.047 4.04729 105.593 4.04729 107.5Z" fill="#9F66DB"/>
<path d="M15 139.5C15 143.642 11.6421 147 7.5 147C3.35786 147 0 143.642 0 139.5C0 135.358 3.35786 132 7.5 132C11.6421 132 15 135.358 15 139.5ZM4.04729 139.5C4.04729 141.407 5.59312 142.953 7.5 142.953C9.40688 142.953 10.9527 141.407 10.9527 139.5C10.9527 137.593 9.40688 136.047 7.5 136.047C5.59312 136.047 4.04729 137.593 4.04729 139.5Z" fill="#9F66DB"/>
<path d="M15 171.5C15 175.642 11.6421 179 7.5 179C3.35786 179 0 175.642 0 171.5C0 167.358 3.35786 164 7.5 164C11.6421 164 15 167.358 15 171.5ZM4.04729 171.5C4.04729 173.407 5.59312 174.953 7.5 174.953C9.40688 174.953 10.9527 173.407 10.9527 171.5C10.9527 169.593 9.40688 168.047 7.5 168.047C5.59312 168.047 4.04729 169.593 4.04729 171.5Z" fill="#9F66DB"/>
</svg>
