<svg width="17" height="103" viewBox="0 0 17 103" fill="none" xmlns="http://www.w3.org/2000/svg">
<rect x="8" y="20" width="1" height="66" rx="0.5" fill="#DFCCF3"/>
<path d="M16.4608 94.2304C16.4608 98.7759 12.7759 102.461 8.23042 102.461C3.68488 102.461 0 98.7759 0 94.2304C0 89.6849 3.68488 86 8.23042 86C12.7759 86 16.4608 89.6849 16.4608 94.2304ZM4.44145 94.2304C4.44145 96.323 6.13783 98.0194 8.23042 98.0194C10.323 98.0194 12.0194 96.323 12.0194 94.2304C12.0194 92.1378 10.323 90.4415 8.23042 90.4415C6.13783 90.4415 4.44145 92.1378 4.44145 94.2304Z" fill="#9F66DB"/>
<path d="M16.4608 14.2304C16.4608 18.7759 12.7759 22.4608 8.23042 22.4608C3.68488 22.4608 0 18.7759 0 14.2304C0 9.68488 3.68488 6 8.23042 6C12.7759 6 16.4608 9.68488 16.4608 14.2304ZM4.44145 14.2304C4.44145 16.323 6.13783 18.0194 8.23042 18.0194C10.323 18.0194 12.0194 16.323 12.0194 14.2304C12.0194 12.1378 10.323 10.4415 8.23042 10.4415C6.13783 10.4415 4.44145 12.1378 4.44145 14.2304Z" fill="#9F66DB"/>
</svg>
