<svg width="17" height="171" viewBox="0 0 17 171" fill="none" xmlns="http://www.w3.org/2000/svg">
<rect x="7" y="14" width="1" height="142" rx="0.5" fill="#DFCCF3"/>
<path d="M16.4608 162.23C16.4608 166.776 12.7759 170.461 8.23042 170.461C3.68488 170.461 0 166.776 0 162.23C0 157.685 3.68488 154 8.23042 154C12.7759 154 16.4608 157.685 16.4608 162.23ZM4.44145 162.23C4.44145 164.323 6.13783 166.019 8.23042 166.019C10.323 166.019 12.0194 164.323 12.0194 162.23C12.0194 160.138 10.323 158.441 8.23042 158.441C6.13783 158.441 4.44145 160.138 4.44145 162.23Z" fill="#9F66DB"/>
<path d="M16.4608 10.2304C16.4608 14.7759 12.7759 18.4608 8.23042 18.4608C3.68488 18.4608 0 14.7759 0 10.2304C0 5.68488 3.68488 2 8.23042 2C12.7759 2 16.4608 5.68488 16.4608 10.2304ZM4.44145 10.2304C4.44145 12.323 6.13783 14.0194 8.23042 14.0194C10.323 14.0194 12.0194 12.323 12.0194 10.2304C12.0194 8.13783 10.323 6.44145 8.23042 6.44145C6.13783 6.44145 4.44145 8.13783 4.44145 10.2304Z" fill="#9F66DB"/>
</svg>
