<svg width="17" height="410" viewBox="0 0 17 410" fill="none" xmlns="http://www.w3.org/2000/svg">
<rect x="7" y="18" width="1" height="145" rx="0.5" fill="#DFCCF3"/>
<rect x="7" width="1" height="6" rx="0.5" fill="white"/>
<rect x="8" y="176" width="1" height="221" rx="0.5" fill="#DFCCF3"/>
<path d="M16.4608 12.2304C16.4608 16.7759 12.7759 20.4608 8.23042 20.4608C3.68488 20.4608 0 16.7759 0 12.2304C0 7.68488 3.68488 4 8.23042 4C12.7759 4 16.4608 7.68488 16.4608 12.2304ZM4.44145 12.2304C4.44145 14.323 6.13783 16.0194 8.23042 16.0194C10.323 16.0194 12.0194 14.323 12.0194 12.2304C12.0194 10.1378 10.323 8.44145 8.23042 8.44145C6.13783 8.44145 4.44145 10.1378 4.44145 12.2304Z" fill="#9F66DB"/>
<path d="M16.4608 169.23C16.4608 173.776 12.7759 177.461 8.23042 177.461C3.68488 177.461 0 173.776 0 169.23C0 164.685 3.68488 161 8.23042 161C12.7759 161 16.4608 164.685 16.4608 169.23ZM4.44145 169.23C4.44145 171.323 6.13783 173.019 8.23042 173.019C10.323 173.019 12.0194 171.323 12.0194 169.23C12.0194 167.138 10.323 165.441 8.23042 165.441C6.13783 165.441 4.44145 167.138 4.44145 169.23Z" fill="#9F66DB"/>
<path d="M16.4608 401.23C16.4608 405.776 12.7759 409.461 8.23042 409.461C3.68488 409.461 0 405.776 0 401.23C0 396.685 3.68488 393 8.23042 393C12.7759 393 16.4608 396.685 16.4608 401.23ZM4.44145 401.23C4.44145 403.323 6.13783 405.019 8.23042 405.019C10.323 405.019 12.0194 403.323 12.0194 401.23C12.0194 399.138 10.323 397.441 8.23042 397.441C6.13783 397.441 4.44145 399.138 4.44145 401.23Z" fill="#9F66DB"/>
</svg>
