<svg width="15" height="137" viewBox="0 0 15 137" fill="none" xmlns="http://www.w3.org/2000/svg">
<rect x="7" y="13" width="1" height="65" rx="0.5" fill="#BEFCFF"/>
<rect x="7" y="88" width="1" height="34" rx="0.5" fill="#BEFCFF"/>
<path d="M15 7.5C15 11.6421 11.6421 15 7.5 15C3.35786 15 0 11.6421 0 7.5C0 3.35786 3.35786 0 7.5 0C11.6421 0 15 3.35786 15 7.5ZM4.04729 7.5C4.04729 9.40688 5.59312 10.9527 7.5 10.9527C9.40688 10.9527 10.9527 9.40688 10.9527 7.5C10.9527 5.59312 9.40688 4.04729 7.5 4.04729C5.59312 4.04729 4.04729 5.59312 4.04729 7.5Z" fill="#00B1BB"/>
<path d="M15 83.5C15 87.6421 11.6421 91 7.5 91C3.35786 91 0 87.6421 0 83.5C0 79.3579 3.35786 76 7.5 76C11.6421 76 15 79.3579 15 83.5ZM4.04729 83.5C4.04729 85.4069 5.59312 86.9527 7.5 86.9527C9.40688 86.9527 10.9527 85.4069 10.9527 83.5C10.9527 81.5931 9.40688 80.0473 7.5 80.0473C5.59312 80.0473 4.04729 81.5931 4.04729 83.5Z" fill="#00B1BB"/>
<path d="M15 129.5C15 133.642 11.6421 137 7.5 137C3.35786 137 0 133.642 0 129.5C0 125.358 3.35786 122 7.5 122C11.6421 122 15 125.358 15 129.5ZM4.04729 129.5C4.04729 131.407 5.59312 132.953 7.5 132.953C9.40688 132.953 10.9527 131.407 10.9527 129.5C10.9527 127.593 9.40688 126.047 7.5 126.047C5.59312 126.047 4.04729 127.593 4.04729 129.5Z" fill="#00B1BB"/>
</svg>
