<svg width="17" height="714" viewBox="0 0 17 714" fill="none" xmlns="http://www.w3.org/2000/svg">
<rect x="7" y="15" width="1" height="96" rx="0.5" fill="#DFCCF3"/>
<rect x="7" y="126" width="1" height="95" rx="0.5" fill="#DFCCF3"/>
<rect x="8" y="236" width="1" height="160" rx="0.5" fill="#DFCCF3"/>
<rect x="8" y="410" width="1" height="287" rx="0.5" fill="#DFCCF3"/>
<rect x="7" y="15" width="1" height="96" rx="0.5" fill="#DFCCF3"/>
<rect x="7" y="126" width="1" height="95" rx="0.5" fill="#DFCCF3"/>
<rect x="8" y="236" width="1" height="160" rx="0.5" fill="#DFCCF3"/>
<rect x="8" y="410" width="1" height="287" rx="0.5" fill="#DFCCF3"/>
<path d="M16.4608 13.2304C16.4608 17.7759 12.7759 21.4608 8.23042 21.4608C3.68488 21.4608 0 17.7759 0 13.2304C0 8.68488 3.68488 5 8.23042 5C12.7759 5 16.4608 8.68488 16.4608 13.2304ZM4.44145 13.2304C4.44145 15.323 6.13783 17.0194 8.23042 17.0194C10.323 17.0194 12.0194 15.323 12.0194 13.2304C12.0194 11.1378 10.323 9.44145 8.23042 9.44145C6.13783 9.44145 4.44145 11.1378 4.44145 13.2304Z" fill="#9F66DB"/>
<path d="M16.4608 119.23C16.4608 123.776 12.7759 127.461 8.23042 127.461C3.68488 127.461 0 123.776 0 119.23C0 114.685 3.68488 111 8.23042 111C12.7759 111 16.4608 114.685 16.4608 119.23ZM4.44145 119.23C4.44145 121.323 6.13783 123.019 8.23042 123.019C10.323 123.019 12.0194 121.323 12.0194 119.23C12.0194 117.138 10.323 115.441 8.23042 115.441C6.13783 115.441 4.44145 117.138 4.44145 119.23Z" fill="#9F66DB"/>
<path d="M16.4608 229.23C16.4608 233.776 12.7759 237.461 8.23042 237.461C3.68488 237.461 0 233.776 0 229.23C0 224.685 3.68488 221 8.23042 221C12.7759 221 16.4608 224.685 16.4608 229.23ZM4.44145 229.23C4.44145 231.323 6.13783 233.019 8.23042 233.019C10.323 233.019 12.0194 231.323 12.0194 229.23C12.0194 227.138 10.323 225.441 8.23042 225.441C6.13783 225.441 4.44145 227.138 4.44145 229.23Z" fill="#9F66DB"/>
<path d="M16.4608 404.23C16.4608 408.776 12.7759 412.461 8.23042 412.461C3.68488 412.461 0 408.776 0 404.23C0 399.685 3.68488 396 8.23042 396C12.7759 396 16.4608 399.685 16.4608 404.23ZM4.44145 404.23C4.44145 406.323 6.13783 408.019 8.23042 408.019C10.323 408.019 12.0194 406.323 12.0194 404.23C12.0194 402.138 10.323 400.441 8.23042 400.441C6.13783 400.441 4.44145 402.138 4.44145 404.23Z" fill="#9F66DB"/>
<path d="M16.4608 705.23C16.4608 709.776 12.7759 713.461 8.23042 713.461C3.68488 713.461 0 709.776 0 705.23C0 700.685 3.68488 697 8.23042 697C12.7759 697 16.4608 700.685 16.4608 705.23ZM4.44145 705.23C4.44145 707.323 6.13783 709.019 8.23042 709.019C10.323 709.019 12.0194 707.323 12.0194 705.23C12.0194 703.138 10.323 701.441 8.23042 701.441C6.13783 701.441 4.44145 703.138 4.44145 705.23Z" fill="#9F66DB"/>
<path d="M16.4608 13.2304C16.4608 17.7759 12.7759 21.4608 8.23042 21.4608C3.68488 21.4608 0 17.7759 0 13.2304C0 8.68488 3.68488 5 8.23042 5C12.7759 5 16.4608 8.68488 16.4608 13.2304ZM4.44145 13.2304C4.44145 15.323 6.13783 17.0194 8.23042 17.0194C10.323 17.0194 12.0194 15.323 12.0194 13.2304C12.0194 11.1378 10.323 9.44145 8.23042 9.44145C6.13783 9.44145 4.44145 11.1378 4.44145 13.2304Z" fill="#9F66DB"/>
<path d="M16.4608 119.23C16.4608 123.776 12.7759 127.461 8.23042 127.461C3.68488 127.461 0 123.776 0 119.23C0 114.685 3.68488 111 8.23042 111C12.7759 111 16.4608 114.685 16.4608 119.23ZM4.44145 119.23C4.44145 121.323 6.13783 123.019 8.23042 123.019C10.323 123.019 12.0194 121.323 12.0194 119.23C12.0194 117.138 10.323 115.441 8.23042 115.441C6.13783 115.441 4.44145 117.138 4.44145 119.23Z" fill="#9F66DB"/>
<path d="M16.4608 229.23C16.4608 233.776 12.7759 237.461 8.23042 237.461C3.68488 237.461 0 233.776 0 229.23C0 224.685 3.68488 221 8.23042 221C12.7759 221 16.4608 224.685 16.4608 229.23ZM4.44145 229.23C4.44145 231.323 6.13783 233.019 8.23042 233.019C10.323 233.019 12.0194 231.323 12.0194 229.23C12.0194 227.138 10.323 225.441 8.23042 225.441C6.13783 225.441 4.44145 227.138 4.44145 229.23Z" fill="#9F66DB"/>
<path d="M16.4608 404.23C16.4608 408.776 12.7759 412.461 8.23042 412.461C3.68488 412.461 0 408.776 0 404.23C0 399.685 3.68488 396 8.23042 396C12.7759 396 16.4608 399.685 16.4608 404.23ZM4.44145 404.23C4.44145 406.323 6.13783 408.019 8.23042 408.019C10.323 408.019 12.0194 406.323 12.0194 404.23C12.0194 402.138 10.323 400.441 8.23042 400.441C6.13783 400.441 4.44145 402.138 4.44145 404.23Z" fill="#9F66DB"/>
<path d="M16.4608 705.23C16.4608 709.776 12.7759 713.461 8.23042 713.461C3.68488 713.461 0 709.776 0 705.23C0 700.685 3.68488 697 8.23042 697C12.7759 697 16.4608 700.685 16.4608 705.23ZM4.44145 705.23C4.44145 707.323 6.13783 709.019 8.23042 709.019C10.323 709.019 12.0194 707.323 12.0194 705.23C12.0194 703.138 10.323 701.441 8.23042 701.441C6.13783 701.441 4.44145 703.138 4.44145 705.23Z" fill="#9F66DB"/>
</svg>
