<svg width="15" height="127" viewBox="0 0 15 127" fill="none" xmlns="http://www.w3.org/2000/svg">
<rect x="7" y="13" width="1" height="44" rx="0.5" fill="#FFE1CC"/>
<rect x="7" y="68" width="1" height="44" rx="0.5" fill="#FFE1CC"/>
<path d="M15 7.5C15 11.6421 11.6421 15 7.5 15C3.35786 15 0 11.6421 0 7.5C0 3.35786 3.35786 0 7.5 0C11.6421 0 15 3.35786 15 7.5ZM4.04729 7.5C4.04729 9.40688 5.59312 10.9527 7.5 10.9527C9.40688 10.9527 10.9527 9.40688 10.9527 7.5C10.9527 5.59312 9.40688 4.04729 7.5 4.04729C5.59312 4.04729 4.04729 5.59312 4.04729 7.5Z" fill="#FFA666"/>
<path d="M15 63.5C15 67.6421 11.6421 71 7.5 71C3.35786 71 0 67.6421 0 63.5C0 59.3579 3.35786 56 7.5 56C11.6421 56 15 59.3579 15 63.5ZM4.04729 63.5C4.04729 65.4069 5.59312 66.9527 7.5 66.9527C9.40688 66.9527 10.9527 65.4069 10.9527 63.5C10.9527 61.5931 9.40688 60.0473 7.5 60.0473C5.59312 60.0473 4.04729 61.5931 4.04729 63.5Z" fill="#FFA666"/>
<path d="M15 119.5C15 123.642 11.6421 127 7.5 127C3.35786 127 0 123.642 0 119.5C0 115.358 3.35786 112 7.5 112C11.6421 112 15 115.358 15 119.5ZM4.04729 119.5C4.04729 121.407 5.59312 122.953 7.5 122.953C9.40688 122.953 10.9527 121.407 10.9527 119.5C10.9527 117.593 9.40688 116.047 7.5 116.047C5.59312 116.047 4.04729 117.593 4.04729 119.5Z" fill="#FFA666"/>
</svg>
