<svg width="15" height="187" viewBox="0 0 15 187" fill="none" xmlns="http://www.w3.org/2000/svg">
<rect x="7" y="20" width="1" height="20" rx="0.5" fill="#DFCCF3"/>
<rect x="7" width="1" height="9" rx="0.5" fill="white"/>
<rect x="7" y="104" width="1" height="20" rx="0.5" fill="#DFCCF3"/>
<rect x="7" y="135" width="1" height="38" rx="0.5" fill="#DFCCF3"/>
<rect x="7" y="50" width="1" height="40" rx="0.5" fill="#DFCCF3"/>
<path d="M15 12.5C15 16.6421 11.6421 20 7.5 20C3.35786 20 0 16.6421 0 12.5C0 8.35786 3.35786 5 7.5 5C11.6421 5 15 8.35786 15 12.5ZM4.04729 12.5C4.04729 14.4069 5.59312 15.9527 7.5 15.9527C9.40688 15.9527 10.9527 14.4069 10.9527 12.5C10.9527 10.5931 9.40688 9.04729 7.5 9.04729C5.59312 9.04729 4.04729 10.5931 4.04729 12.5Z" fill="#9F66DB"/>
<path d="M15 44.5C15 48.6421 11.6421 52 7.5 52C3.35786 52 0 48.6421 0 44.5C0 40.3579 3.35786 37 7.5 37C11.6421 37 15 40.3579 15 44.5ZM4.04729 44.5C4.04729 46.4069 5.59312 47.9527 7.5 47.9527C9.40688 47.9527 10.9527 46.4069 10.9527 44.5C10.9527 42.5931 9.40688 41.0473 7.5 41.0473C5.59312 41.0473 4.04729 42.5931 4.04729 44.5Z" fill="#9F66DB"/>
<path d="M15 96.5C15 100.642 11.6421 104 7.5 104C3.35786 104 0 100.642 0 96.5C0 92.3579 3.35786 89 7.5 89C11.6421 89 15 92.3579 15 96.5ZM4.04729 96.5C4.04729 98.4069 5.59312 99.9527 7.5 99.9527C9.40688 99.9527 10.9527 98.4069 10.9527 96.5C10.9527 94.5931 9.40688 93.0473 7.5 93.0473C5.59312 93.0473 4.04729 94.5931 4.04729 96.5Z" fill="#9F66DB"/>
<path d="M15 129.5C15 133.642 11.6421 137 7.5 137C3.35786 137 0 133.642 0 129.5C0 125.358 3.35786 122 7.5 122C11.6421 122 15 125.358 15 129.5ZM4.04729 129.5C4.04729 131.407 5.59312 132.953 7.5 132.953C9.40688 132.953 10.9527 131.407 10.9527 129.5C10.9527 127.593 9.40688 126.047 7.5 126.047C5.59312 126.047 4.04729 127.593 4.04729 129.5Z" fill="#9F66DB"/>
<path d="M15 179.5C15 183.642 11.6421 187 7.5 187C3.35786 187 0 183.642 0 179.5C0 175.358 3.35786 172 7.5 172C11.6421 172 15 175.358 15 179.5ZM4.04729 179.5C4.04729 181.407 5.59312 182.953 7.5 182.953C9.40688 182.953 10.9527 181.407 10.9527 179.5C10.9527 177.593 9.40688 176.047 7.5 176.047C5.59312 176.047 4.04729 177.593 4.04729 179.5Z" fill="#9F66DB"/>
</svg>
