<svg width="15" height="85" viewBox="0 0 15 85" fill="none" xmlns="http://www.w3.org/2000/svg">
<rect x="7" y="16" width="1" height="55" rx="0.5" fill="#DFCCF3"/>
<rect x="7" width="1" height="7" rx="0.5" fill="white"/>
<path d="M15 10.5C15 14.6421 11.6421 18 7.5 18C3.35786 18 0 14.6421 0 10.5C0 6.35786 3.35786 3 7.5 3C11.6421 3 15 6.35786 15 10.5ZM4.04729 10.5C4.04729 12.4069 5.59312 13.9527 7.5 13.9527C9.40688 13.9527 10.9527 12.4069 10.9527 10.5C10.9527 8.59312 9.40688 7.04729 7.5 7.04729C5.59312 7.04729 4.04729 8.59312 4.04729 10.5Z" fill="#9F66DB"/>
<path d="M15 77.5C15 81.6421 11.6421 85 7.5 85C3.35786 85 0 81.6421 0 77.5C0 73.3579 3.35786 70 7.5 70C11.6421 70 15 73.3579 15 77.5ZM4.04729 77.5C4.04729 79.4069 5.59312 80.9527 7.5 80.9527C9.40688 80.9527 10.9527 79.4069 10.9527 77.5C10.9527 75.5931 9.40688 74.0473 7.5 74.0473C5.59312 74.0473 4.04729 75.5931 4.04729 77.5Z" fill="#9F66DB"/>
</svg>
