<svg width="17" height="174" viewBox="0 0 17 174" fill="none" xmlns="http://www.w3.org/2000/svg">
<rect x="8" y="17" width="1" height="142" rx="0.5" fill="#DFCCF3"/>
<path d="M16.4608 12.2304C16.4608 16.7759 12.7759 20.4608 8.23042 20.4608C3.68488 20.4608 0 16.7759 0 12.2304C0 7.68488 3.68488 4 8.23042 4C12.7759 4 16.4608 7.68488 16.4608 12.2304ZM4.44145 12.2304C4.44145 14.323 6.13783 16.0194 8.23042 16.0194C10.323 16.0194 12.0194 14.323 12.0194 12.2304C12.0194 10.1378 10.323 8.44145 8.23042 8.44145C6.13783 8.44145 4.44145 10.1378 4.44145 12.2304Z" fill="#9F66DB"/>
<path d="M16.4608 165.23C16.4608 169.776 12.7759 173.461 8.23042 173.461C3.68488 173.461 0 169.776 0 165.23C0 160.685 3.68488 157 8.23042 157C12.7759 157 16.4608 160.685 16.4608 165.23ZM4.44145 165.23C4.44145 167.323 6.13783 169.019 8.23042 169.019C10.323 169.019 12.0194 167.323 12.0194 165.23C12.0194 163.138 10.323 161.441 8.23042 161.441C6.13783 161.441 4.44145 163.138 4.44145 165.23Z" fill="#9F66DB"/>
</svg>
