<svg width="15" height="378" viewBox="0 0 15 378" fill="none" xmlns="http://www.w3.org/2000/svg">
<rect x="7" width="1" height="4" rx="0.5" fill="white"/>
<rect x="7" y="64" width="1" height="39" rx="0.5" fill="#DFCCF3"/>
<rect x="7" y="14" width="1" height="39" rx="0.5" fill="#DFCCF3"/>
<rect x="7" y="113" width="1" height="111" rx="0.5" fill="#DFCCF3"/>
<rect x="7" y="236" width="1" height="56" rx="0.5" fill="#DFCCF3"/>
<rect x="7" y="304" width="1" height="61" rx="0.5" fill="#DFCCF3"/>
<path d="M15 9.5C15 13.6421 11.6421 17 7.5 17C3.35786 17 0 13.6421 0 9.5C0 5.35786 3.35786 2 7.5 2C11.6421 2 15 5.35786 15 9.5ZM4.04729 9.5C4.04729 11.4069 5.59312 12.9527 7.5 12.9527C9.40688 12.9527 10.9527 11.4069 10.9527 9.5C10.9527 7.59312 9.40688 6.04729 7.5 6.04729C5.59312 6.04729 4.04729 7.59312 4.04729 9.5Z" fill="#9F66DB"/>
<path d="M15 58C15 62.1421 11.6421 65.5 7.5 65.5C3.35786 65.5 0 62.1421 0 58C0 53.8579 3.35786 50.5 7.5 50.5C11.6421 50.5 15 53.8579 15 58ZM4.04729 58C4.04729 59.9069 5.59312 61.4527 7.5 61.4527C9.40688 61.4527 10.9527 59.9069 10.9527 58C10.9527 56.0931 9.40688 54.5473 7.5 54.5473C5.59312 54.5473 4.04729 56.0931 4.04729 58Z" fill="#9F66DB"/>
<path d="M15 107.5C15 111.642 11.6421 115 7.5 115C3.35786 115 0 111.642 0 107.5C0 103.358 3.35786 100 7.5 100C11.6421 100 15 103.358 15 107.5ZM4.04729 107.5C4.04729 109.407 5.59312 110.953 7.5 110.953C9.40688 110.953 10.9527 109.407 10.9527 107.5C10.9527 105.593 9.40688 104.047 7.5 104.047C5.59312 104.047 4.04729 105.593 4.04729 107.5Z" fill="#9F66DB"/>
<path d="M15 231.5C15 235.642 11.6421 239 7.5 239C3.35786 239 0 235.642 0 231.5C0 227.358 3.35786 224 7.5 224C11.6421 224 15 227.358 15 231.5ZM4.04729 231.5C4.04729 233.407 5.59312 234.953 7.5 234.953C9.40688 234.953 10.9527 233.407 10.9527 231.5C10.9527 229.593 9.40688 228.047 7.5 228.047C5.59312 228.047 4.04729 229.593 4.04729 231.5Z" fill="#9F66DB"/>
<path d="M15 299.5C15 303.642 11.6421 307 7.5 307C3.35786 307 0 303.642 0 299.5C0 295.358 3.35786 292 7.5 292C11.6421 292 15 295.358 15 299.5ZM4.04729 299.5C4.04729 301.407 5.59312 302.953 7.5 302.953C9.40688 302.953 10.9527 301.407 10.9527 299.5C10.9527 297.593 9.40688 296.047 7.5 296.047C5.59312 296.047 4.04729 297.593 4.04729 299.5Z" fill="#9F66DB"/>
<path d="M15 370.5C15 374.642 11.6421 378 7.5 378C3.35786 378 0 374.642 0 370.5C0 366.358 3.35786 363 7.5 363C11.6421 363 15 366.358 15 370.5ZM4.04729 370.5C4.04729 372.407 5.59312 373.953 7.5 373.953C9.40688 373.953 10.9527 372.407 10.9527 370.5C10.9527 368.593 9.40688 367.047 7.5 367.047C5.59312 367.047 4.04729 368.593 4.04729 370.5Z" fill="#9F66DB"/>
</svg>
