<svg width="17" height="317" viewBox="0 0 17 317" fill="none" xmlns="http://www.w3.org/2000/svg">
<rect x="8" y="17" width="1" height="84" rx="0.5" fill="#DFCCF3"/>
<rect x="8" width="1" height="7" rx="0.5" fill="#DFCCF3"/>
<rect x="8" y="112" width="1" height="191" rx="0.5" fill="#DFCCF3"/>
<path d="M16.4608 12.2304C16.4608 16.7759 12.7759 20.4608 8.23042 20.4608C3.68488 20.4608 0 16.7759 0 12.2304C0 7.68488 3.68488 4 8.23042 4C12.7759 4 16.4608 7.68488 16.4608 12.2304ZM4.44145 12.2304C4.44145 14.323 6.13783 16.0194 8.23042 16.0194C10.323 16.0194 12.0194 14.323 12.0194 12.2304C12.0194 10.1378 10.323 8.44145 8.23042 8.44145C6.13783 8.44145 4.44145 10.1378 4.44145 12.2304Z" fill="#9F66DB"/>
<path d="M16.4608 106.23C16.4608 110.776 12.7759 114.461 8.23042 114.461C3.68488 114.461 0 110.776 0 106.23C0 101.685 3.68488 98 8.23042 98C12.7759 98 16.4608 101.685 16.4608 106.23ZM4.44145 106.23C4.44145 108.323 6.13783 110.019 8.23042 110.019C10.323 110.019 12.0194 108.323 12.0194 106.23C12.0194 104.138 10.323 102.441 8.23042 102.441C6.13783 102.441 4.44145 104.138 4.44145 106.23Z" fill="#9F66DB"/>
<path d="M16.4608 308.23C16.4608 312.776 12.7759 316.461 8.23042 316.461C3.68488 316.461 0 312.776 0 308.23C0 303.685 3.68488 300 8.23042 300C12.7759 300 16.4608 303.685 16.4608 308.23ZM4.44145 308.23C4.44145 310.323 6.13783 312.019 8.23042 312.019C10.323 312.019 12.0194 310.323 12.0194 308.23C12.0194 306.138 10.323 304.441 8.23042 304.441C6.13783 304.441 4.44145 306.138 4.44145 308.23Z" fill="#9F66DB"/>
</svg>
