<svg width="17" height="319" viewBox="0 0 17 319" fill="none" xmlns="http://www.w3.org/2000/svg">
<rect x="7" y="17" width="1" height="84" rx="0.5" fill="#DFCCF3"/>
<rect x="7" y="112" width="1" height="191" rx="0.5" fill="#DFCCF3"/>
<path d="M16.4608 13.2304C16.4608 17.7759 12.7759 21.4608 8.23042 21.4608C3.68488 21.4608 0 17.7759 0 13.2304C0 8.68488 3.68488 5 8.23042 5C12.7759 5 16.4608 8.68488 16.4608 13.2304ZM4.44145 13.2304C4.44145 15.323 6.13783 17.0194 8.23042 17.0194C10.323 17.0194 12.0194 15.323 12.0194 13.2304C12.0194 11.1378 10.323 9.44145 8.23042 9.44145C6.13783 9.44145 4.44145 11.1378 4.44145 13.2304Z" fill="#9F66DB"/>
<path d="M16.4608 108.23C16.4608 112.776 12.7759 116.461 8.23042 116.461C3.68488 116.461 0 112.776 0 108.23C0 103.685 3.68488 100 8.23042 100C12.7759 100 16.4608 103.685 16.4608 108.23ZM4.44145 108.23C4.44145 110.323 6.13783 112.019 8.23042 112.019C10.323 112.019 12.0194 110.323 12.0194 108.23C12.0194 106.138 10.323 104.441 8.23042 104.441C6.13783 104.441 4.44145 106.138 4.44145 108.23Z" fill="#9F66DB"/>
<path d="M16.4608 310.23C16.4608 314.776 12.7759 318.461 8.23042 318.461C3.68488 318.461 0 314.776 0 310.23C0 305.685 3.68488 302 8.23042 302C12.7759 302 16.4608 305.685 16.4608 310.23ZM4.44145 310.23C4.44145 312.323 6.13783 314.019 8.23042 314.019C10.323 314.019 12.0194 312.323 12.0194 310.23C12.0194 308.138 10.323 306.441 8.23042 306.441C6.13783 306.441 4.44145 308.138 4.44145 310.23Z" fill="#9F66DB"/>
</svg>
