<svg width="17" height="314" viewBox="0 0 17 314" fill="none" xmlns="http://www.w3.org/2000/svg">
<rect x="7" y="14" width="1" height="84" rx="0.5" fill="#DFCCF3"/>
<rect x="7" y="109" width="1" height="191" rx="0.5" fill="#DFCCF3"/>
<path d="M16.4608 103.23C16.4608 107.776 12.7759 111.461 8.23042 111.461C3.68488 111.461 0 107.776 0 103.23C0 98.6849 3.68488 95 8.23042 95C12.7759 95 16.4608 98.6849 16.4608 103.23ZM4.44145 103.23C4.44145 105.323 6.13783 107.019 8.23042 107.019C10.323 107.019 12.0194 105.323 12.0194 103.23C12.0194 101.138 10.323 99.4415 8.23042 99.4415C6.13783 99.4415 4.44145 101.138 4.44145 103.23Z" fill="#9F66DB"/>
<path d="M16.4608 305.23C16.4608 309.776 12.7759 313.461 8.23042 313.461C3.68488 313.461 0 309.776 0 305.23C0 300.685 3.68488 297 8.23042 297C12.7759 297 16.4608 300.685 16.4608 305.23ZM4.44145 305.23C4.44145 307.323 6.13783 309.019 8.23042 309.019C10.323 309.019 12.0194 307.323 12.0194 305.23C12.0194 303.138 10.323 301.441 8.23042 301.441C6.13783 301.441 4.44145 303.138 4.44145 305.23Z" fill="#9F66DB"/>
<path d="M16.4608 10.2304C16.4608 14.7759 12.7759 18.4608 8.23042 18.4608C3.68488 18.4608 0 14.7759 0 10.2304C0 5.68488 3.68488 2 8.23042 2C12.7759 2 16.4608 5.68488 16.4608 10.2304ZM4.44145 10.2304C4.44145 12.323 6.13783 14.0194 8.23042 14.0194C10.323 14.0194 12.0194 12.323 12.0194 10.2304C12.0194 8.13783 10.323 6.44145 8.23042 6.44145C6.13783 6.44145 4.44145 8.13783 4.44145 10.2304Z" fill="#9F66DB"/>
</svg>
