<svg width="17" height="176" viewBox="0 0 17 176" fill="none" xmlns="http://www.w3.org/2000/svg">
<rect x="7" y="17" width="1" height="142" rx="0.5" fill="#DFCCF3"/>
<path d="M16.4608 13.2304C16.4608 17.7759 12.7759 21.4608 8.23042 21.4608C3.68488 21.4608 0 17.7759 0 13.2304C0 8.68488 3.68488 5 8.23042 5C12.7759 5 16.4608 8.68488 16.4608 13.2304ZM4.44145 13.2304C4.44145 15.323 6.13783 17.0194 8.23042 17.0194C10.323 17.0194 12.0194 15.323 12.0194 13.2304C12.0194 11.1378 10.323 9.44145 8.23042 9.44145C6.13783 9.44145 4.44145 11.1378 4.44145 13.2304Z" fill="#9F66DB"/>
<path d="M16.4608 167.23C16.4608 171.776 12.7759 175.461 8.23042 175.461C3.68488 175.461 0 171.776 0 167.23C0 162.685 3.68488 159 8.23042 159C12.7759 159 16.4608 162.685 16.4608 167.23ZM4.44145 167.23C4.44145 169.323 6.13783 171.019 8.23042 171.019C10.323 171.019 12.0194 169.323 12.0194 167.23C12.0194 165.138 10.323 163.441 8.23042 163.441C6.13783 163.441 4.44145 165.138 4.44145 167.23Z" fill="#9F66DB"/>
</svg>
