<svg width="15" height="157" viewBox="0 0 15 157" fill="none" xmlns="http://www.w3.org/2000/svg">
<rect x="7" y="14" width="1" height="13" rx="0.5" fill="#DFCCF3"/>
<rect x="7" y="14" width="1" height="13" rx="0.5" fill="#DFCCF3"/>
<rect x="7" width="1" height="5" rx="0.5" fill="#9F66DB"/>
<rect x="7" y="35" width="1" height="31" rx="0.5" fill="#DFCCF3"/>
<rect x="7" y="74" width="1" height="68" rx="0.5" fill="#DFCCF3"/>
<path d="M15 9.5C15 13.6421 11.6421 17 7.5 17C3.35786 17 0 13.6421 0 9.5C0 5.35786 3.35786 2 7.5 2C11.6421 2 15 5.35786 15 9.5ZM4.04729 9.5C4.04729 11.4069 5.59312 12.9527 7.5 12.9527C9.40688 12.9527 10.9527 11.4069 10.9527 9.5C10.9527 7.59312 9.40688 6.04729 7.5 6.04729C5.59312 6.04729 4.04729 7.59312 4.04729 9.5Z" fill="white"/>
<path d="M15 31.5C15 35.6421 11.6421 39 7.5 39C3.35786 39 0 35.6421 0 31.5C0 27.3579 3.35786 24 7.5 24C11.6421 24 15 27.3579 15 31.5ZM4.04729 31.5C4.04729 33.4069 5.59312 34.9527 7.5 34.9527C9.40688 34.9527 10.9527 33.4069 10.9527 31.5C10.9527 29.5931 9.40688 28.0473 7.5 28.0473C5.59312 28.0473 4.04729 29.5931 4.04729 31.5Z" fill="white"/>
<path d="M15 69.5C15 73.6421 11.6421 77 7.5 77C3.35786 77 0 73.6421 0 69.5C0 65.3579 3.35786 62 7.5 62C11.6421 62 15 65.3579 15 69.5ZM4.04729 69.5C4.04729 71.4069 5.59312 72.9527 7.5 72.9527C9.40688 72.9527 10.9527 71.4069 10.9527 69.5C10.9527 67.5931 9.40688 66.0473 7.5 66.0473C5.59312 66.0473 4.04729 67.5931 4.04729 69.5Z" fill="white"/>
<path d="M15 149.5C15 153.642 11.6421 157 7.5 157C3.35786 157 0 153.642 0 149.5C0 145.358 3.35786 142 7.5 142C11.6421 142 15 145.358 15 149.5ZM4.04729 149.5C4.04729 151.407 5.59312 152.953 7.5 152.953C9.40688 152.953 10.9527 151.407 10.9527 149.5C10.9527 147.593 9.40688 146.047 7.5 146.047C5.59312 146.047 4.04729 147.593 4.04729 149.5Z" fill="white"/>
</svg>
