<svg width="17" height="414" viewBox="0 0 17 414" fill="none" xmlns="http://www.w3.org/2000/svg">
<rect x="7" y="20" width="1" height="145" rx="0.5" fill="#DFCCF3"/>
<rect x="7" width="1" height="9" rx="0.5" fill="white"/>
<rect x="7" y="178" width="1" height="221" rx="0.5" fill="#DFCCF3"/>
<path d="M16.4608 14.2304C16.4608 18.7759 12.7759 22.4608 8.23042 22.4608C3.68488 22.4608 0 18.7759 0 14.2304C0 9.68488 3.68488 6 8.23042 6C12.7759 6 16.4608 9.68488 16.4608 14.2304ZM4.44145 14.2304C4.44145 16.323 6.13783 18.0194 8.23042 18.0194C10.323 18.0194 12.0194 16.323 12.0194 14.2304C12.0194 12.1378 10.323 10.4415 8.23042 10.4415C6.13783 10.4415 4.44145 12.1378 4.44145 14.2304Z" fill="#9F66DB"/>
<path d="M16.4608 171.23C16.4608 175.776 12.7759 179.461 8.23042 179.461C3.68488 179.461 0 175.776 0 171.23C0 166.685 3.68488 163 8.23042 163C12.7759 163 16.4608 166.685 16.4608 171.23ZM4.44145 171.23C4.44145 173.323 6.13783 175.019 8.23042 175.019C10.323 175.019 12.0194 173.323 12.0194 171.23C12.0194 169.138 10.323 167.441 8.23042 167.441C6.13783 167.441 4.44145 169.138 4.44145 171.23Z" fill="#9F66DB"/>
<path d="M16.4608 405.23C16.4608 409.776 12.7759 413.461 8.23042 413.461C3.68488 413.461 0 409.776 0 405.23C0 400.685 3.68488 397 8.23042 397C12.7759 397 16.4608 400.685 16.4608 405.23ZM4.44145 405.23C4.44145 407.323 6.13783 409.019 8.23042 409.019C10.323 409.019 12.0194 407.323 12.0194 405.23C12.0194 403.138 10.323 401.441 8.23042 401.441C6.13783 401.441 4.44145 403.138 4.44145 405.23Z" fill="#9F66DB"/>
</svg>
