<svg width="15" height="639" viewBox="0 0 15 639" fill="none" xmlns="http://www.w3.org/2000/svg">
<rect x="7" y="12" width="1" height="67" rx="0.5" fill="#DFCCF3"/>
<rect x="7" y="90" width="1" height="67" rx="0.5" fill="#DFCCF3"/>
<rect x="7" y="227" width="1" height="87" rx="0.5" fill="#DFCCF3"/>
<rect x="7" y="326" width="1" height="86" rx="0.5" fill="#DFCCF3"/>
<rect x="7" y="422" width="1" height="146" rx="0.5" fill="#DFCCF3"/>
<rect x="7" y="578" width="1" height="47" rx="0.5" fill="#DFCCF3"/>
<rect x="7" y="170" width="1" height="46" rx="0.5" fill="#DFCCF3"/>
<path d="M15 7.5C15 11.6421 11.6421 15 7.5 15C3.35786 15 0 11.6421 0 7.5C0 3.35786 3.35786 0 7.5 0C11.6421 0 15 3.35786 15 7.5ZM4.04729 7.5C4.04729 9.40688 5.59312 10.9527 7.5 10.9527C9.40688 10.9527 10.9527 9.40688 10.9527 7.5C10.9527 5.59312 9.40688 4.04729 7.5 4.04729C5.59312 4.04729 4.04729 5.59312 4.04729 7.5Z" fill="#9F66DB"/>
<path d="M15 85.5C15 89.6421 11.6421 93 7.5 93C3.35786 93 0 89.6421 0 85.5C0 81.3579 3.35786 78 7.5 78C11.6421 78 15 81.3579 15 85.5ZM4.04729 85.5C4.04729 87.4069 5.59312 88.9527 7.5 88.9527C9.40688 88.9527 10.9527 87.4069 10.9527 85.5C10.9527 83.5931 9.40688 82.0473 7.5 82.0473C5.59312 82.0473 4.04729 83.5931 4.04729 85.5Z" fill="#9F66DB"/>
<path d="M15 164.5C15 168.642 11.6421 172 7.5 172C3.35786 172 0 168.642 0 164.5C0 160.358 3.35786 157 7.5 157C11.6421 157 15 160.358 15 164.5ZM4.04729 164.5C4.04729 166.407 5.59312 167.953 7.5 167.953C9.40688 167.953 10.9527 166.407 10.9527 164.5C10.9527 162.593 9.40688 161.047 7.5 161.047C5.59312 161.047 4.04729 162.593 4.04729 164.5Z" fill="#9F66DB"/>
<path d="M15 220.5C15 224.642 11.6421 228 7.5 228C3.35786 228 0 224.642 0 220.5C0 216.358 3.35786 213 7.5 213C11.6421 213 15 216.358 15 220.5ZM4.04729 220.5C4.04729 222.407 5.59312 223.953 7.5 223.953C9.40688 223.953 10.9527 222.407 10.9527 220.5C10.9527 218.593 9.40688 217.047 7.5 217.047C5.59312 217.047 4.04729 218.593 4.04729 220.5Z" fill="#9F66DB"/>
<path d="M15 319.5C15 323.642 11.6421 327 7.5 327C3.35786 327 0 323.642 0 319.5C0 315.358 3.35786 312 7.5 312C11.6421 312 15 315.358 15 319.5ZM4.04729 319.5C4.04729 321.407 5.59312 322.953 7.5 322.953C9.40688 322.953 10.9527 321.407 10.9527 319.5C10.9527 317.593 9.40688 316.047 7.5 316.047C5.59312 316.047 4.04729 317.593 4.04729 319.5Z" fill="#9F66DB"/>
<path d="M15 416.5C15 420.642 11.6421 424 7.5 424C3.35786 424 0 420.642 0 416.5C0 412.358 3.35786 409 7.5 409C11.6421 409 15 412.358 15 416.5ZM4.04729 416.5C4.04729 418.407 5.59312 419.953 7.5 419.953C9.40688 419.953 10.9527 418.407 10.9527 416.5C10.9527 414.593 9.40688 413.047 7.5 413.047C5.59312 413.047 4.04729 414.593 4.04729 416.5Z" fill="#9F66DB"/>
<path d="M15 573.5C15 577.642 11.6421 581 7.5 581C3.35786 581 0 577.642 0 573.5C0 569.358 3.35786 566 7.5 566C11.6421 566 15 569.358 15 573.5ZM4.04729 573.5C4.04729 575.407 5.59312 576.953 7.5 576.953C9.40688 576.953 10.9527 575.407 10.9527 573.5C10.9527 571.593 9.40688 570.047 7.5 570.047C5.59312 570.047 4.04729 571.593 4.04729 573.5Z" fill="#9F66DB"/>
<path d="M15 631.5C15 635.642 11.6421 639 7.5 639C3.35786 639 0 635.642 0 631.5C0 627.358 3.35786 624 7.5 624C11.6421 624 15 627.358 15 631.5ZM4.04729 631.5C4.04729 633.407 5.59312 634.953 7.5 634.953C9.40688 634.953 10.9527 633.407 10.9527 631.5C10.9527 629.593 9.40688 628.047 7.5 628.047C5.59312 628.047 4.04729 629.593 4.04729 631.5Z" fill="#9F66DB"/>
</svg>
