<svg width="15" height="215" viewBox="0 0 15 215" fill="none" xmlns="http://www.w3.org/2000/svg">
<rect x="7" y="13" width="1" height="89" rx="0.5" fill="#DFCCF3"/>
<rect x="7" y="114" width="1" height="86" rx="0.5" fill="#DFCCF3"/>
<path d="M15 7.5C15 11.6421 11.6421 15 7.5 15C3.35786 15 0 11.6421 0 7.5C0 3.35786 3.35786 0 7.5 0C11.6421 0 15 3.35786 15 7.5ZM4.04729 7.5C4.04729 9.40688 5.59312 10.9527 7.5 10.9527C9.40688 10.9527 10.9527 9.40688 10.9527 7.5C10.9527 5.59312 9.40688 4.04729 7.5 4.04729C5.59312 4.04729 4.04729 5.59312 4.04729 7.5Z" fill="#9F66DB"/>
<path d="M15 108.5C15 112.642 11.6421 116 7.5 116C3.35786 116 0 112.642 0 108.5C0 104.358 3.35786 101 7.5 101C11.6421 101 15 104.358 15 108.5ZM4.04729 108.5C4.04729 110.407 5.59312 111.953 7.5 111.953C9.40688 111.953 10.9527 110.407 10.9527 108.5C10.9527 106.593 9.40688 105.047 7.5 105.047C5.59312 105.047 4.04729 106.593 4.04729 108.5Z" fill="#9F66DB"/>
<path d="M15 207.5C15 211.642 11.6421 215 7.5 215C3.35786 215 0 211.642 0 207.5C0 203.358 3.35786 200 7.5 200C11.6421 200 15 203.358 15 207.5ZM4.04729 207.5C4.04729 209.407 5.59312 210.953 7.5 210.953C9.40688 210.953 10.9527 209.407 10.9527 207.5C10.9527 205.593 9.40688 204.047 7.5 204.047C5.59312 204.047 4.04729 205.593 4.04729 207.5Z" fill="#9F66DB"/>
</svg>
