<svg width="15" height="524" viewBox="0 0 15 524" fill="none" xmlns="http://www.w3.org/2000/svg">
<rect x="7" y="16" width="1" height="35" rx="0.5" fill="#DFCCF3"/>
<rect x="7" width="1" height="7" rx="0.5" fill="white"/>
<rect x="7" y="63" width="1" height="36" rx="0.5" fill="#DFCCF3"/>
<rect x="7" y="111" width="1" height="36" rx="0.5" fill="#DFCCF3"/>
<rect x="7" y="158" width="1" height="36" rx="0.5" fill="#DFCCF3"/>
<rect x="7" y="208" width="1" height="52" rx="0.5" fill="#DFCCF3"/>
<rect x="7" y="271" width="1" height="77" rx="0.5" fill="#DFCCF3"/>
<rect x="7" y="362" width="1" height="81" rx="0.5" fill="#DFCCF3"/>
<rect x="7" y="452" width="1" height="59" rx="0.5" fill="#DFCCF3"/>
<path d="M15 11.5C15 15.6421 11.6421 19 7.5 19C3.35786 19 0 15.6421 0 11.5C0 7.35786 3.35786 4 7.5 4C11.6421 4 15 7.35786 15 11.5ZM4.04729 11.5C4.04729 13.4069 5.59312 14.9527 7.5 14.9527C9.40688 14.9527 10.9527 13.4069 10.9527 11.5C10.9527 9.59312 9.40688 8.04729 7.5 8.04729C5.59312 8.04729 4.04729 9.59312 4.04729 11.5Z" fill="#9F66DB"/>
<path d="M15 57.5C15 61.6421 11.6421 65 7.5 65C3.35786 65 0 61.6421 0 57.5C0 53.3579 3.35786 50 7.5 50C11.6421 50 15 53.3579 15 57.5ZM4.04729 57.5C4.04729 59.4069 5.59312 60.9527 7.5 60.9527C9.40688 60.9527 10.9527 59.4069 10.9527 57.5C10.9527 55.5931 9.40688 54.0473 7.5 54.0473C5.59312 54.0473 4.04729 55.5931 4.04729 57.5Z" fill="#9F66DB"/>
<path d="M15 105.5C15 109.642 11.6421 113 7.5 113C3.35786 113 0 109.642 0 105.5C0 101.358 3.35786 98 7.5 98C11.6421 98 15 101.358 15 105.5ZM4.04729 105.5C4.04729 107.407 5.59312 108.953 7.5 108.953C9.40688 108.953 10.9527 107.407 10.9527 105.5C10.9527 103.593 9.40688 102.047 7.5 102.047C5.59312 102.047 4.04729 103.593 4.04729 105.5Z" fill="#9F66DB"/>
<path d="M15 153.5C15 157.642 11.6421 161 7.5 161C3.35786 161 0 157.642 0 153.5C0 149.358 3.35786 146 7.5 146C11.6421 146 15 149.358 15 153.5ZM4.04729 153.5C4.04729 155.407 5.59312 156.953 7.5 156.953C9.40688 156.953 10.9527 155.407 10.9527 153.5C10.9527 151.593 9.40688 150.047 7.5 150.047C5.59312 150.047 4.04729 151.593 4.04729 153.5Z" fill="#9F66DB"/>
<path d="M15 201.5C15 205.642 11.6421 209 7.5 209C3.35786 209 0 205.642 0 201.5C0 197.358 3.35786 194 7.5 194C11.6421 194 15 197.358 15 201.5ZM4.04729 201.5C4.04729 203.407 5.59312 204.953 7.5 204.953C9.40688 204.953 10.9527 203.407 10.9527 201.5C10.9527 199.593 9.40688 198.047 7.5 198.047C5.59312 198.047 4.04729 199.593 4.04729 201.5Z" fill="#9F66DB"/>
<path d="M15 267.5C15 271.642 11.6421 275 7.5 275C3.35786 275 0 271.642 0 267.5C0 263.358 3.35786 260 7.5 260C11.6421 260 15 263.358 15 267.5ZM4.04729 267.5C4.04729 269.407 5.59312 270.953 7.5 270.953C9.40688 270.953 10.9527 269.407 10.9527 267.5C10.9527 265.593 9.40688 264.047 7.5 264.047C5.59312 264.047 4.04729 265.593 4.04729 267.5Z" fill="#9F66DB"/>
<path d="M15 355.5C15 359.642 11.6421 363 7.5 363C3.35786 363 0 359.642 0 355.5C0 351.358 3.35786 348 7.5 348C11.6421 348 15 351.358 15 355.5ZM4.04729 355.5C4.04729 357.407 5.59312 358.953 7.5 358.953C9.40688 358.953 10.9527 357.407 10.9527 355.5C10.9527 353.593 9.40688 352.047 7.5 352.047C5.59312 352.047 4.04729 353.593 4.04729 355.5Z" fill="#9F66DB"/>
<path d="M15 448.5C15 452.642 11.6421 456 7.5 456C3.35786 456 0 452.642 0 448.5C0 444.358 3.35786 441 7.5 441C11.6421 441 15 444.358 15 448.5ZM4.04729 448.5C4.04729 450.407 5.59312 451.953 7.5 451.953C9.40688 451.953 10.9527 450.407 10.9527 448.5C10.9527 446.593 9.40688 445.047 7.5 445.047C5.59312 445.047 4.04729 446.593 4.04729 448.5Z" fill="#9F66DB"/>
<path d="M15 516.5C15 520.642 11.6421 524 7.5 524C3.35786 524 0 520.642 0 516.5C0 512.358 3.35786 509 7.5 509C11.6421 509 15 512.358 15 516.5ZM4.04729 516.5C4.04729 518.407 5.59312 519.953 7.5 519.953C9.40688 519.953 10.9527 518.407 10.9527 516.5C10.9527 514.593 9.40688 513.047 7.5 513.047C5.59312 513.047 4.04729 514.593 4.04729 516.5Z" fill="#9F66DB"/>
</svg>
