<svg width="17" height="179" viewBox="0 0 17 179" fill="none" xmlns="http://www.w3.org/2000/svg">
<rect x="7" y="19" width="1" height="145" rx="0.5" fill="#DFCCF3"/>
<path d="M16.4608 13.2304C16.4608 17.7759 12.7759 21.4608 8.23042 21.4608C3.68488 21.4608 0 17.7759 0 13.2304C0 8.68488 3.68488 5 8.23042 5C12.7759 5 16.4608 8.68488 16.4608 13.2304ZM4.44145 13.2304C4.44145 15.323 6.13783 17.0194 8.23042 17.0194C10.323 17.0194 12.0194 15.323 12.0194 13.2304C12.0194 11.1378 10.323 9.44145 8.23042 9.44145C6.13783 9.44145 4.44145 11.1378 4.44145 13.2304Z" fill="#9F66DB"/>
<path d="M16.4608 170.23C16.4608 174.776 12.7759 178.461 8.23042 178.461C3.68488 178.461 0 174.776 0 170.23C0 165.685 3.68488 162 8.23042 162C12.7759 162 16.4608 165.685 16.4608 170.23ZM4.44145 170.23C4.44145 172.323 6.13783 174.019 8.23042 174.019C10.323 174.019 12.0194 172.323 12.0194 170.23C12.0194 168.138 10.323 166.441 8.23042 166.441C6.13783 166.441 4.44145 168.138 4.44145 170.23Z" fill="#9F66DB"/>
</svg>
