<svg width="17" height="222" viewBox="0 0 17 222" fill="none" xmlns="http://www.w3.org/2000/svg">
<rect x="8" y="19" width="1" height="38" rx="0.5" fill="#DFCCF3"/>
<rect x="8" y="68" width="1" height="38" rx="0.5" fill="#DFCCF3"/>
<rect x="8" y="118" width="1" height="38" rx="0.5" fill="#DFCCF3"/>
<rect x="8" y="168" width="1" height="38" rx="0.5" fill="#DFCCF3"/>
<path d="M16.4608 14.2304C16.4608 18.7759 12.7759 22.4608 8.23042 22.4608C3.68488 22.4608 0 18.7759 0 14.2304C0 9.68488 3.68488 6 8.23042 6C12.7759 6 16.4608 9.68488 16.4608 14.2304ZM4.44145 14.2304C4.44145 16.323 6.13783 18.0194 8.23042 18.0194C10.323 18.0194 12.0194 16.323 12.0194 14.2304C12.0194 12.1378 10.323 10.4415 8.23042 10.4415C6.13783 10.4415 4.44145 12.1378 4.44145 14.2304Z" fill="#9F66DB"/>
<path d="M16.4608 63.2304C16.4608 67.7759 12.7759 71.4608 8.23042 71.4608C3.68488 71.4608 0 67.7759 0 63.2304C0 58.6849 3.68488 55 8.23042 55C12.7759 55 16.4608 58.6849 16.4608 63.2304ZM4.44145 63.2304C4.44145 65.323 6.13783 67.0194 8.23042 67.0194C10.323 67.0194 12.0194 65.323 12.0194 63.2304C12.0194 61.1378 10.323 59.4415 8.23042 59.4415C6.13783 59.4415 4.44145 61.1378 4.44145 63.2304Z" fill="#9F66DB"/>
<path d="M16.4608 113.23C16.4608 117.776 12.7759 121.461 8.23042 121.461C3.68488 121.461 0 117.776 0 113.23C0 108.685 3.68488 105 8.23042 105C12.7759 105 16.4608 108.685 16.4608 113.23ZM4.44145 113.23C4.44145 115.323 6.13783 117.019 8.23042 117.019C10.323 117.019 12.0194 115.323 12.0194 113.23C12.0194 111.138 10.323 109.441 8.23042 109.441C6.13783 109.441 4.44145 111.138 4.44145 113.23Z" fill="#9F66DB"/>
<path d="M16.4608 163.23C16.4608 167.776 12.7759 171.461 8.23042 171.461C3.68488 171.461 0 167.776 0 163.23C0 158.685 3.68488 155 8.23042 155C12.7759 155 16.4608 158.685 16.4608 163.23ZM4.44145 163.23C4.44145 165.323 6.13783 167.019 8.23042 167.019C10.323 167.019 12.0194 165.323 12.0194 163.23C12.0194 161.138 10.323 159.441 8.23042 159.441C6.13783 159.441 4.44145 161.138 4.44145 163.23Z" fill="#9F66DB"/>
<path d="M16.4608 213.23C16.4608 217.776 12.7759 221.461 8.23042 221.461C3.68488 221.461 0 217.776 0 213.23C0 208.685 3.68488 205 8.23042 205C12.7759 205 16.4608 208.685 16.4608 213.23ZM4.44145 213.23C4.44145 215.323 6.13783 217.019 8.23042 217.019C10.323 217.019 12.0194 215.323 12.0194 213.23C12.0194 211.138 10.323 209.441 8.23042 209.441C6.13783 209.441 4.44145 211.138 4.44145 213.23Z" fill="#9F66DB"/>
</svg>
