<svg width="15" height="218" viewBox="0 0 15 218" fill="none" xmlns="http://www.w3.org/2000/svg">
<rect x="7" y="16" width="1" height="67" rx="0.5" fill="#DFCCF3"/>
<rect x="7" width="1" height="6" rx="0.5" fill="white"/>
<rect x="7" y="91" width="1" height="114" rx="0.5" fill="#DFCCF3"/>
<path d="M15 10.5C15 14.6421 11.6421 18 7.5 18C3.35786 18 0 14.6421 0 10.5C0 6.35786 3.35786 3 7.5 3C11.6421 3 15 6.35786 15 10.5ZM4.04729 10.5C4.04729 12.4069 5.59312 13.9527 7.5 13.9527C9.40688 13.9527 10.9527 12.4069 10.9527 10.5C10.9527 8.59312 9.40688 7.04729 7.5 7.04729C5.59312 7.04729 4.04729 8.59312 4.04729 10.5Z" fill="#9F66DB"/>
<path d="M15 87.5C15 91.6421 11.6421 95 7.5 95C3.35786 95 0 91.6421 0 87.5C0 83.3579 3.35786 80 7.5 80C11.6421 80 15 83.3579 15 87.5ZM4.04729 87.5C4.04729 89.4069 5.59312 90.9527 7.5 90.9527C9.40688 90.9527 10.9527 89.4069 10.9527 87.5C10.9527 85.5931 9.40688 84.0473 7.5 84.0473C5.59312 84.0473 4.04729 85.5931 4.04729 87.5Z" fill="#9F66DB"/>
<path d="M15 210.5C15 214.642 11.6421 218 7.5 218C3.35786 218 0 214.642 0 210.5C0 206.358 3.35786 203 7.5 203C11.6421 203 15 206.358 15 210.5ZM4.04729 210.5C4.04729 212.407 5.59312 213.953 7.5 213.953C9.40688 213.953 10.9527 212.407 10.9527 210.5C10.9527 208.593 9.40688 207.047 7.5 207.047C5.59312 207.047 4.04729 208.593 4.04729 210.5Z" fill="#9F66DB"/>
</svg>
