<svg width="15" height="437" viewBox="0 0 15 437" fill="none" xmlns="http://www.w3.org/2000/svg">
<rect x="7" y="17" width="1" height="71" rx="0.5" fill="#DFCCF3"/>
<rect x="7" width="1" height="6" rx="0.5" fill="white"/>
<rect x="7" y="306" width="1" height="116" rx="0.5" fill="#DFCCF3"/>
<rect x="7" y="102" width="1" height="76" rx="0.5" fill="#DFCCF3"/>
<rect x="7" y="190" width="1" height="58" rx="0.5" fill="#DFCCF3"/>
<rect x="7" y="258" width="1" height="38" rx="0.5" fill="#DFCCF3"/>
<path d="M15 11.5C15 15.6421 11.6421 19 7.5 19C3.35786 19 0 15.6421 0 11.5C0 7.35786 3.35786 4 7.5 4C11.6421 4 15 7.35786 15 11.5ZM4.04729 11.5C4.04729 13.4069 5.59312 14.9527 7.5 14.9527C9.40688 14.9527 10.9527 13.4069 10.9527 11.5C10.9527 9.59312 9.40688 8.04729 7.5 8.04729C5.59312 8.04729 4.04729 9.59312 4.04729 11.5Z" fill="#9F66DB"/>
<path d="M15 95.5C15 99.6421 11.6421 103 7.5 103C3.35786 103 0 99.6421 0 95.5C0 91.3579 3.35786 88 7.5 88C11.6421 88 15 91.3579 15 95.5ZM4.04729 95.5C4.04729 97.4069 5.59312 98.9527 7.5 98.9527C9.40688 98.9527 10.9527 97.4069 10.9527 95.5C10.9527 93.5931 9.40688 92.0473 7.5 92.0473C5.59312 92.0473 4.04729 93.5931 4.04729 95.5Z" fill="#9F66DB"/>
<path d="M15 185.5C15 189.642 11.6421 193 7.5 193C3.35786 193 0 189.642 0 185.5C0 181.358 3.35786 178 7.5 178C11.6421 178 15 181.358 15 185.5ZM4.04729 185.5C4.04729 187.407 5.59312 188.953 7.5 188.953C9.40688 188.953 10.9527 187.407 10.9527 185.5C10.9527 183.593 9.40688 182.047 7.5 182.047C5.59312 182.047 4.04729 183.593 4.04729 185.5Z" fill="#9F66DB"/>
<path d="M15 253.5C15 257.642 11.6421 261 7.5 261C3.35786 261 0 257.642 0 253.5C0 249.358 3.35786 246 7.5 246C11.6421 246 15 249.358 15 253.5ZM4.04729 253.5C4.04729 255.407 5.59312 256.953 7.5 256.953C9.40688 256.953 10.9527 255.407 10.9527 253.5C10.9527 251.593 9.40688 250.047 7.5 250.047C5.59312 250.047 4.04729 251.593 4.04729 253.5Z" fill="#9F66DB"/>
<path d="M15 301.5C15 305.642 11.6421 309 7.5 309C3.35786 309 0 305.642 0 301.5C0 297.358 3.35786 294 7.5 294C11.6421 294 15 297.358 15 301.5ZM4.04729 301.5C4.04729 303.407 5.59312 304.953 7.5 304.953C9.40688 304.953 10.9527 303.407 10.9527 301.5C10.9527 299.593 9.40688 298.047 7.5 298.047C5.59312 298.047 4.04729 299.593 4.04729 301.5Z" fill="#9F66DB"/>
<path d="M15 429.5C15 433.642 11.6421 437 7.5 437C3.35786 437 0 433.642 0 429.5C0 425.358 3.35786 422 7.5 422C11.6421 422 15 425.358 15 429.5ZM4.04729 429.5C4.04729 431.407 5.59312 432.953 7.5 432.953C9.40688 432.953 10.9527 431.407 10.9527 429.5C10.9527 427.593 9.40688 426.047 7.5 426.047C5.59312 426.047 4.04729 427.593 4.04729 429.5Z" fill="#9F66DB"/>
</svg>
