<svg width="15" height="279" viewBox="0 0 15 279" fill="none" xmlns="http://www.w3.org/2000/svg">
<rect x="7" y="17" width="1" height="55" rx="0.5" fill="#DFCCF3"/>
<rect x="7" y="85" width="1" height="94" rx="0.5" fill="#DFCCF3"/>
<rect x="7" y="191" width="1" height="75" rx="0.5" fill="#DFCCF3"/>
<path d="M15 11.5C15 15.6421 11.6421 19 7.5 19C3.35786 19 0 15.6421 0 11.5C0 7.35786 3.35786 4 7.5 4C11.6421 4 15 7.35786 15 11.5ZM4.04729 11.5C4.04729 13.4069 5.59312 14.9527 7.5 14.9527C9.40688 14.9527 10.9527 13.4069 10.9527 11.5C10.9527 9.59312 9.40688 8.04729 7.5 8.04729C5.59312 8.04729 4.04729 9.59312 4.04729 11.5Z" fill="#9F66DB"/>
<path d="M15 77.5C15 81.6421 11.6421 85 7.5 85C3.35786 85 0 81.6421 0 77.5C0 73.3579 3.35786 70 7.5 70C11.6421 70 15 73.3579 15 77.5ZM4.04729 77.5C4.04729 79.4069 5.59312 80.9527 7.5 80.9527C9.40688 80.9527 10.9527 79.4069 10.9527 77.5C10.9527 75.5931 9.40688 74.0473 7.5 74.0473C5.59312 74.0473 4.04729 75.5931 4.04729 77.5Z" fill="#9F66DB"/>
<path d="M15 186.5C15 190.642 11.6421 194 7.5 194C3.35786 194 0 190.642 0 186.5C0 182.358 3.35786 179 7.5 179C11.6421 179 15 182.358 15 186.5ZM4.04729 186.5C4.04729 188.407 5.59312 189.953 7.5 189.953C9.40688 189.953 10.9527 188.407 10.9527 186.5C10.9527 184.593 9.40688 183.047 7.5 183.047C5.59312 183.047 4.04729 184.593 4.04729 186.5Z" fill="#9F66DB"/>
<path d="M15 271.5C15 275.642 11.6421 279 7.5 279C3.35786 279 0 275.642 0 271.5C0 267.358 3.35786 264 7.5 264C11.6421 264 15 267.358 15 271.5ZM4.04729 271.5C4.04729 273.407 5.59312 274.953 7.5 274.953C9.40688 274.953 10.9527 273.407 10.9527 271.5C10.9527 269.593 9.40688 268.047 7.5 268.047C5.59312 268.047 4.04729 269.593 4.04729 271.5Z" fill="#9F66DB"/>
</svg>
