<svg width="15" height="198" viewBox="0 0 15 198" fill="none" xmlns="http://www.w3.org/2000/svg">
<rect x="7" y="18" width="1" height="22" rx="0.5" fill="#DFCCF3"/>
<rect x="7" width="1" height="7" rx="0.5" fill="white"/>
<rect x="7" y="49" width="1" height="23" rx="0.5" fill="#DFCCF3"/>
<rect x="7" y="81" width="1" height="21" rx="0.5" fill="#DFCCF3"/>
<rect x="7" y="112" width="1" height="24" rx="0.5" fill="#DFCCF3"/>
<rect x="7" y="145" width="1" height="42" rx="0.5" fill="#DFCCF3"/>
<path d="M15 12.5C15 16.6421 11.6421 20 7.5 20C3.35786 20 0 16.6421 0 12.5C0 8.35786 3.35786 5 7.5 5C11.6421 5 15 8.35786 15 12.5ZM4.04729 12.5C4.04729 14.4069 5.59312 15.9527 7.5 15.9527C9.40688 15.9527 10.9527 14.4069 10.9527 12.5C10.9527 10.5931 9.40688 9.04729 7.5 9.04729C5.59312 9.04729 4.04729 10.5931 4.04729 12.5Z" fill="#9F66DB"/>
<path d="M15 43.5C15 47.6421 11.6421 51 7.5 51C3.35786 51 0 47.6421 0 43.5C0 39.3579 3.35786 36 7.5 36C11.6421 36 15 39.3579 15 43.5ZM4.04729 43.5C4.04729 45.4069 5.59312 46.9527 7.5 46.9527C9.40688 46.9527 10.9527 45.4069 10.9527 43.5C10.9527 41.5931 9.40688 40.0473 7.5 40.0473C5.59312 40.0473 4.04729 41.5931 4.04729 43.5Z" fill="#9F66DB"/>
<path d="M15 75.5C15 79.6421 11.6421 83 7.5 83C3.35786 83 0 79.6421 0 75.5C0 71.3579 3.35786 68 7.5 68C11.6421 68 15 71.3579 15 75.5ZM4.04729 75.5C4.04729 77.4069 5.59312 78.9527 7.5 78.9527C9.40688 78.9527 10.9527 77.4069 10.9527 75.5C10.9527 73.5931 9.40688 72.0473 7.5 72.0473C5.59312 72.0473 4.04729 73.5931 4.04729 75.5Z" fill="#9F66DB"/>
<path d="M15 106.5C15 110.642 11.6421 114 7.5 114C3.35786 114 0 110.642 0 106.5C0 102.358 3.35786 99 7.5 99C11.6421 99 15 102.358 15 106.5ZM4.04729 106.5C4.04729 108.407 5.59312 109.953 7.5 109.953C9.40688 109.953 10.9527 108.407 10.9527 106.5C10.9527 104.593 9.40688 103.047 7.5 103.047C5.59312 103.047 4.04729 104.593 4.04729 106.5Z" fill="#9F66DB"/>
<path d="M15 139.5C15 143.642 11.6421 147 7.5 147C3.35786 147 0 143.642 0 139.5C0 135.358 3.35786 132 7.5 132C11.6421 132 15 135.358 15 139.5ZM4.04729 139.5C4.04729 141.407 5.59312 142.953 7.5 142.953C9.40688 142.953 10.9527 141.407 10.9527 139.5C10.9527 137.593 9.40688 136.047 7.5 136.047C5.59312 136.047 4.04729 137.593 4.04729 139.5Z" fill="#9F66DB"/>
<path d="M15 190.5C15 194.642 11.6421 198 7.5 198C3.35786 198 0 194.642 0 190.5C0 186.358 3.35786 183 7.5 183C11.6421 183 15 186.358 15 190.5ZM4.04729 190.5C4.04729 192.407 5.59312 193.953 7.5 193.953C9.40688 193.953 10.9527 192.407 10.9527 190.5C10.9527 188.593 9.40688 187.047 7.5 187.047C5.59312 187.047 4.04729 188.593 4.04729 190.5Z" fill="#9F66DB"/>
</svg>
