<svg width="15" height="131" viewBox="0 0 15 131" fill="none" xmlns="http://www.w3.org/2000/svg">
<rect x="7" y="17" width="1" height="55" rx="0.5" fill="#DFCCF3"/>
<rect x="7" width="1" height="7" rx="0.5" fill="white"/>
<rect x="7" y="82" width="1" height="36" rx="0.5" fill="#DFCCF3"/>
<path d="M15 11.5C15 15.6421 11.6421 19 7.5 19C3.35786 19 0 15.6421 0 11.5C0 7.35786 3.35786 4 7.5 4C11.6421 4 15 7.35786 15 11.5ZM4.04729 11.5C4.04729 13.4069 5.59312 14.9527 7.5 14.9527C9.40688 14.9527 10.9527 13.4069 10.9527 11.5C10.9527 9.59312 9.40688 8.04729 7.5 8.04729C5.59312 8.04729 4.04729 9.59312 4.04729 11.5Z" fill="#9F66DB"/>
<path d="M15 77.5C15 81.6421 11.6421 85 7.5 85C3.35786 85 0 81.6421 0 77.5C0 73.3579 3.35786 70 7.5 70C11.6421 70 15 73.3579 15 77.5ZM4.04729 77.5C4.04729 79.4069 5.59312 80.9527 7.5 80.9527C9.40688 80.9527 10.9527 79.4069 10.9527 77.5C10.9527 75.5931 9.40688 74.0473 7.5 74.0473C5.59312 74.0473 4.04729 75.5931 4.04729 77.5Z" fill="#9F66DB"/>
<path d="M15 123.5C15 127.642 11.6421 131 7.5 131C3.35786 131 0 127.642 0 123.5C0 119.358 3.35786 116 7.5 116C11.6421 116 15 119.358 15 123.5ZM4.04729 123.5C4.04729 125.407 5.59312 126.953 7.5 126.953C9.40688 126.953 10.9527 125.407 10.9527 123.5C10.9527 121.593 9.40688 120.047 7.5 120.047C5.59312 120.047 4.04729 121.593 4.04729 123.5Z" fill="#9F66DB"/>
</svg>
