<svg width="17" height="710" viewBox="0 0 17 710" fill="none" xmlns="http://www.w3.org/2000/svg">
<rect x="9" y="406" width="1" height="287" rx="0.5" fill="#DFCCF3"/>
<rect x="9" y="233" width="1" height="160" rx="0.5" fill="#DFCCF3"/>
<rect x="8" y="123" width="1" height="95" rx="0.5" fill="#DFCCF3"/>
<rect x="7" y="14" width="1" height="93" rx="0.5" fill="#DFCCF3"/>
<path d="M16.4608 115.23C16.4608 119.776 12.7759 123.461 8.23042 123.461C3.68488 123.461 0 119.776 0 115.23C0 110.685 3.68488 107 8.23042 107C12.7759 107 16.4608 110.685 16.4608 115.23ZM4.44145 115.23C4.44145 117.323 6.13783 119.019 8.23042 119.019C10.323 119.019 12.0194 117.323 12.0194 115.23C12.0194 113.138 10.323 111.441 8.23042 111.441C6.13783 111.441 4.44145 113.138 4.44145 115.23Z" fill="#9F66DB"/>
<path d="M16.4608 225.23C16.4608 229.776 12.7759 233.461 8.23042 233.461C3.68488 233.461 0 229.776 0 225.23C0 220.685 3.68488 217 8.23042 217C12.7759 217 16.4608 220.685 16.4608 225.23ZM4.44145 225.23C4.44145 227.323 6.13783 229.019 8.23042 229.019C10.323 229.019 12.0194 227.323 12.0194 225.23C12.0194 223.138 10.323 221.441 8.23042 221.441C6.13783 221.441 4.44145 223.138 4.44145 225.23Z" fill="#9F66DB"/>
<path d="M16.4608 400.23C16.4608 404.776 12.7759 408.461 8.23042 408.461C3.68488 408.461 0 404.776 0 400.23C0 395.685 3.68488 392 8.23042 392C12.7759 392 16.4608 395.685 16.4608 400.23ZM4.44145 400.23C4.44145 402.323 6.13783 404.019 8.23042 404.019C10.323 404.019 12.0194 402.323 12.0194 400.23C12.0194 398.138 10.323 396.441 8.23042 396.441C6.13783 396.441 4.44145 398.138 4.44145 400.23Z" fill="#9F66DB"/>
<path d="M16.4608 701.23C16.4608 705.776 12.7759 709.461 8.23042 709.461C3.68488 709.461 0 705.776 0 701.23C0 696.685 3.68488 693 8.23042 693C12.7759 693 16.4608 696.685 16.4608 701.23ZM4.44145 701.23C4.44145 703.323 6.13783 705.019 8.23042 705.019C10.323 705.019 12.0194 703.323 12.0194 701.23C12.0194 699.138 10.323 697.441 8.23042 697.441C6.13783 697.441 4.44145 699.138 4.44145 701.23Z" fill="#9F66DB"/>
<path d="M16.4608 10.2304C16.4608 14.7759 12.7759 18.4608 8.23042 18.4608C3.68488 18.4608 0 14.7759 0 10.2304C0 5.68488 3.68488 2 8.23042 2C12.7759 2 16.4608 5.68488 16.4608 10.2304ZM4.44145 10.2304C4.44145 12.323 6.13783 14.0194 8.23042 14.0194C10.323 14.0194 12.0194 12.323 12.0194 10.2304C12.0194 8.13783 10.323 6.44145 8.23042 6.44145C6.13783 6.44145 4.44145 8.13783 4.44145 10.2304Z" fill="#9F66DB"/>
<rect x="9" y="406" width="1" height="287" rx="0.5" fill="#DFCCF3"/>
<rect x="9" y="233" width="1" height="160" rx="0.5" fill="#DFCCF3"/>
<rect x="8" y="123" width="1" height="95" rx="0.5" fill="#DFCCF3"/>
<rect x="7" y="14" width="1" height="93" rx="0.5" fill="#DFCCF3"/>
<path d="M16.4608 115.23C16.4608 119.776 12.7759 123.461 8.23042 123.461C3.68488 123.461 0 119.776 0 115.23C0 110.685 3.68488 107 8.23042 107C12.7759 107 16.4608 110.685 16.4608 115.23ZM4.44145 115.23C4.44145 117.323 6.13783 119.019 8.23042 119.019C10.323 119.019 12.0194 117.323 12.0194 115.23C12.0194 113.138 10.323 111.441 8.23042 111.441C6.13783 111.441 4.44145 113.138 4.44145 115.23Z" fill="#9F66DB"/>
<path d="M16.4608 225.23C16.4608 229.776 12.7759 233.461 8.23042 233.461C3.68488 233.461 0 229.776 0 225.23C0 220.685 3.68488 217 8.23042 217C12.7759 217 16.4608 220.685 16.4608 225.23ZM4.44145 225.23C4.44145 227.323 6.13783 229.019 8.23042 229.019C10.323 229.019 12.0194 227.323 12.0194 225.23C12.0194 223.138 10.323 221.441 8.23042 221.441C6.13783 221.441 4.44145 223.138 4.44145 225.23Z" fill="#9F66DB"/>
<path d="M16.4608 400.23C16.4608 404.776 12.7759 408.461 8.23042 408.461C3.68488 408.461 0 404.776 0 400.23C0 395.685 3.68488 392 8.23042 392C12.7759 392 16.4608 395.685 16.4608 400.23ZM4.44145 400.23C4.44145 402.323 6.13783 404.019 8.23042 404.019C10.323 404.019 12.0194 402.323 12.0194 400.23C12.0194 398.138 10.323 396.441 8.23042 396.441C6.13783 396.441 4.44145 398.138 4.44145 400.23Z" fill="#9F66DB"/>
<path d="M16.4608 701.23C16.4608 705.776 12.7759 709.461 8.23042 709.461C3.68488 709.461 0 705.776 0 701.23C0 696.685 3.68488 693 8.23042 693C12.7759 693 16.4608 696.685 16.4608 701.23ZM4.44145 701.23C4.44145 703.323 6.13783 705.019 8.23042 705.019C10.323 705.019 12.0194 703.323 12.0194 701.23C12.0194 699.138 10.323 697.441 8.23042 697.441C6.13783 697.441 4.44145 699.138 4.44145 701.23Z" fill="#9F66DB"/>
<path d="M16.4608 10.2304C16.4608 14.7759 12.7759 18.4608 8.23042 18.4608C3.68488 18.4608 0 14.7759 0 10.2304C0 5.68488 3.68488 2 8.23042 2C12.7759 2 16.4608 5.68488 16.4608 10.2304ZM4.44145 10.2304C4.44145 12.323 6.13783 14.0194 8.23042 14.0194C10.323 14.0194 12.0194 12.323 12.0194 10.2304C12.0194 8.13783 10.323 6.44145 8.23042 6.44145C6.13783 6.44145 4.44145 8.13783 4.44145 10.2304Z" fill="#9F66DB"/>
</svg>
