<svg width="17" height="266" viewBox="0 0 17 266" fill="none" xmlns="http://www.w3.org/2000/svg">
<rect x="8" y="13" width="1" height="38" rx="0.5" fill="#DFCCF3"/>
<rect x="8" y="62" width="1" height="38" rx="0.5" fill="#DFCCF3"/>
<rect x="8" y="112" width="1" height="38" rx="0.5" fill="#DFCCF3"/>
<rect x="8" y="162" width="1" height="38" rx="0.5" fill="#DFCCF3"/>
<rect x="8" y="212" width="1" height="38" rx="0.5" fill="#DFCCF3"/>
<path d="M16.4608 8.23042C16.4608 12.7759 12.7759 16.4608 8.23042 16.4608C3.68488 16.4608 0 12.7759 0 8.23042C0 3.68488 3.68488 0 8.23042 0C12.7759 0 16.4608 3.68488 16.4608 8.23042ZM4.44145 8.23042C4.44145 10.323 6.13783 12.0194 8.23042 12.0194C10.323 12.0194 12.0194 10.323 12.0194 8.23042C12.0194 6.13783 10.323 4.44145 8.23042 4.44145C6.13783 4.44145 4.44145 6.13783 4.44145 8.23042Z" fill="#9F66DB"/>
<path d="M16.4608 57.2304C16.4608 61.7759 12.7759 65.4608 8.23042 65.4608C3.68488 65.4608 0 61.7759 0 57.2304C0 52.6849 3.68488 49 8.23042 49C12.7759 49 16.4608 52.6849 16.4608 57.2304ZM4.44145 57.2304C4.44145 59.323 6.13783 61.0194 8.23042 61.0194C10.323 61.0194 12.0194 59.323 12.0194 57.2304C12.0194 55.1378 10.323 53.4415 8.23042 53.4415C6.13783 53.4415 4.44145 55.1378 4.44145 57.2304Z" fill="#9F66DB"/>
<path d="M16.4608 107.23C16.4608 111.776 12.7759 115.461 8.23042 115.461C3.68488 115.461 0 111.776 0 107.23C0 102.685 3.68488 99 8.23042 99C12.7759 99 16.4608 102.685 16.4608 107.23ZM4.44145 107.23C4.44145 109.323 6.13783 111.019 8.23042 111.019C10.323 111.019 12.0194 109.323 12.0194 107.23C12.0194 105.138 10.323 103.441 8.23042 103.441C6.13783 103.441 4.44145 105.138 4.44145 107.23Z" fill="#9F66DB"/>
<path d="M16.4608 157.23C16.4608 161.776 12.7759 165.461 8.23042 165.461C3.68488 165.461 0 161.776 0 157.23C0 152.685 3.68488 149 8.23042 149C12.7759 149 16.4608 152.685 16.4608 157.23ZM4.44145 157.23C4.44145 159.323 6.13783 161.019 8.23042 161.019C10.323 161.019 12.0194 159.323 12.0194 157.23C12.0194 155.138 10.323 153.441 8.23042 153.441C6.13783 153.441 4.44145 155.138 4.44145 157.23Z" fill="#9F66DB"/>
<path d="M16.4608 207.23C16.4608 211.776 12.7759 215.461 8.23042 215.461C3.68488 215.461 0 211.776 0 207.23C0 202.685 3.68488 199 8.23042 199C12.7759 199 16.4608 202.685 16.4608 207.23ZM4.44145 207.23C4.44145 209.323 6.13783 211.019 8.23042 211.019C10.323 211.019 12.0194 209.323 12.0194 207.23C12.0194 205.138 10.323 203.441 8.23042 203.441C6.13783 203.441 4.44145 205.138 4.44145 207.23Z" fill="#9F66DB"/>
<path d="M16.4608 257.23C16.4608 261.776 12.7759 265.461 8.23042 265.461C3.68488 265.461 0 261.776 0 257.23C0 252.685 3.68488 249 8.23042 249C12.7759 249 16.4608 252.685 16.4608 257.23ZM4.44145 257.23C4.44145 259.323 6.13783 261.019 8.23042 261.019C10.323 261.019 12.0194 259.323 12.0194 257.23C12.0194 255.138 10.323 253.441 8.23042 253.441C6.13783 253.441 4.44145 255.138 4.44145 257.23Z" fill="#9F66DB"/>
</svg>
