<svg width="15" height="89" viewBox="0 0 15 89" fill="none" xmlns="http://www.w3.org/2000/svg">
<rect x="7" y="17" width="1" height="57" rx="0.5" fill="#DFCCF3"/>
<rect x="7" width="1" height="8" rx="0.5" fill="white"/>
<path d="M15 11.5C15 15.6421 11.6421 19 7.5 19C3.35786 19 0 15.6421 0 11.5C0 7.35786 3.35786 4 7.5 4C11.6421 4 15 7.35786 15 11.5ZM4.04729 11.5C4.04729 13.4069 5.59312 14.9527 7.5 14.9527C9.40688 14.9527 10.9527 13.4069 10.9527 11.5C10.9527 9.59312 9.40688 8.04729 7.5 8.04729C5.59312 8.04729 4.04729 9.59312 4.04729 11.5Z" fill="#9F66DB"/>
<path d="M15 81.5C15 85.6421 11.6421 89 7.5 89C3.35786 89 0 85.6421 0 81.5C0 77.3579 3.35786 74 7.5 74C11.6421 74 15 77.3579 15 81.5ZM4.04729 81.5C4.04729 83.4069 5.59312 84.9527 7.5 84.9527C9.40688 84.9527 10.9527 83.4069 10.9527 81.5C10.9527 79.5931 9.40688 78.0473 7.5 78.0473C5.59312 78.0473 4.04729 79.5931 4.04729 81.5Z" fill="#9F66DB"/>
</svg>
