<svg width="23" height="23" viewBox="0 0 23 23" fill="none" xmlns="http://www.w3.org/2000/svg">
<path d="M12.1805 14.2116L16.2439 10.1483C16.3337 10.0592 16.405 9.95322 16.4536 9.83643C16.5023 9.71965 16.5273 9.59439 16.5273 9.46788C16.5273 9.34137 16.5023 9.21611 16.4536 9.09933C16.405 8.98255 16.3337 8.87655 16.2439 8.78747C16.0643 8.60897 15.8214 8.50879 15.5682 8.50879C15.3151 8.50879 15.0722 8.60897 14.8926 8.78747L11.5001 12.18L8.10762 8.78746C7.92807 8.60897 7.68517 8.50879 7.432 8.50879C7.17882 8.50879 6.93593 8.60897 6.75637 8.78746C6.66755 8.87701 6.59728 8.98321 6.54959 9.09997C6.5019 9.21673 6.47773 9.34176 6.47846 9.46788C6.47773 9.594 6.5019 9.71903 6.54959 9.83579C6.59728 9.95255 6.66755 10.0588 6.75637 10.1483L10.8197 14.2116C10.9088 14.3015 11.0148 14.3727 11.1316 14.4214C11.2483 14.4701 11.3736 14.4951 11.5001 14.4951C11.6266 14.4951 11.7519 14.4701 11.8687 14.4214C11.9855 14.3727 12.0914 14.3015 12.1805 14.2116Z" fill="#00B1BB"/>
</svg>
