<svg width="139" height="139" viewBox="0 0 139 139" fill="none" xmlns="http://www.w3.org/2000/svg">
<g filter="url(#filter0_d_1935_32731)">
<g filter="url(#filter1_d_1935_32731)">
<circle cx="62.9816" cy="60.6349" r="30.3546" fill="#FF8833"/>
</g>
</g>
<path d="M74.8593 60.6347H72.2198C70.762 60.6347 69.5803 61.8165 69.5803 63.2743V65.9138C69.5803 67.3716 70.762 68.5533 72.2198 68.5533C73.6776 68.5533 74.8593 67.3716 74.8593 65.9138V60.6347ZM74.8593 60.6347C74.8593 54.0748 69.5414 48.7568 62.9814 48.7568C56.4214 48.7568 51.1035 54.0748 51.1035 60.6347M51.1035 60.6347V65.9138C51.1035 67.3716 52.2853 68.5533 53.7431 68.5533C55.2008 68.5533 56.3826 67.3716 56.3826 65.9138V63.2743C56.3826 61.8165 55.2008 60.6347 53.7431 60.6347H51.1035Z" stroke="white" stroke-width="2.63953" stroke-linecap="round" stroke-linejoin="round"/>
<path d="M74.8595 63.2744V68.5535C74.8595 71.193 73.9796 72.5128 72.2199 72.5128C70.4602 72.5128 68.2606 72.5128 65.6211 72.5128" stroke="white" stroke-width="2.63953" stroke-linecap="round" stroke-linejoin="round"/>
<defs>
<filter id="filter0_d_1935_32731" x="0.255302" y="0.498354" width="138.401" height="138.401" filterUnits="userSpaceOnUse" color-interpolation-filters="sRGB">
<feFlood flood-opacity="0" result="BackgroundImageFix"/>
<feColorMatrix in="SourceAlpha" type="matrix" values="0 0 0 0 0 0 0 0 0 0 0 0 0 0 0 0 0 0 127 0" result="hardAlpha"/>
<feOffset dx="6.47433" dy="9.06406"/>
<feGaussianBlur stdDeviation="19.423"/>
<feComposite in2="hardAlpha" operator="out"/>
<feColorMatrix type="matrix" values="0 0 0 0 1 0 0 0 0 0.411765 0 0 0 0 0 0 0 0 0.15 0"/>
<feBlend mode="normal" in2="BackgroundImageFix" result="effect1_dropShadow_1935_32731"/>
<feBlend mode="normal" in="SourceGraphic" in2="effect1_dropShadow_1935_32731" result="shape"/>
</filter>
<filter id="filter1_d_1935_32731" x="0.255302" y="0.498354" width="138.401" height="138.401" filterUnits="userSpaceOnUse" color-interpolation-filters="sRGB">
<feFlood flood-opacity="0" result="BackgroundImageFix"/>
<feColorMatrix in="SourceAlpha" type="matrix" values="0 0 0 0 0 0 0 0 0 0 0 0 0 0 0 0 0 0 127 0" result="hardAlpha"/>
<feOffset dx="6.47433" dy="9.06406"/>
<feGaussianBlur stdDeviation="19.423"/>
<feComposite in2="hardAlpha" operator="out"/>
<feColorMatrix type="matrix" values="0 0 0 0 1 0 0 0 0 0.411765 0 0 0 0 0 0 0 0 0.15 0"/>
<feBlend mode="normal" in2="BackgroundImageFix" result="effect1_dropShadow_1935_32731"/>
<feBlend mode="normal" in="SourceGraphic" in2="effect1_dropShadow_1935_32731" result="shape"/>
</filter>
</defs>
</svg>
