<svg width="139" height="139" viewBox="0 0 139 139" fill="none" xmlns="http://www.w3.org/2000/svg">
<g filter="url(#filter0_d_1935_33066)">
<g filter="url(#filter1_d_1935_33066)">
<circle cx="62.9816" cy="60.6359" r="30.3546" fill="white"/>
</g>
</g>
<path d="M74.8593 60.6357H72.2198C70.762 60.6357 69.5803 61.8175 69.5803 63.2753V65.9148C69.5803 67.3726 70.762 68.5543 72.2198 68.5543C73.6776 68.5543 74.8593 67.3726 74.8593 65.9148V60.6357ZM74.8593 60.6357C74.8593 54.0757 69.5414 48.7578 62.9814 48.7578C56.4214 48.7578 51.1035 54.0757 51.1035 60.6357M51.1035 60.6357V65.9148C51.1035 67.3726 52.2853 68.5543 53.7431 68.5543C55.2008 68.5543 56.3826 67.3726 56.3826 65.9148V63.2753C56.3826 61.8175 55.2008 60.6357 53.7431 60.6357H51.1035Z" stroke="#FF8833" stroke-width="2.63953" stroke-linecap="round" stroke-linejoin="round"/>
<path d="M74.8595 63.2754V68.5545C74.8595 71.194 73.9796 72.5138 72.2199 72.5138C70.4602 72.5138 68.2606 72.5138 65.6211 72.5138" stroke="#FF8833" stroke-width="2.63953" stroke-linecap="round" stroke-linejoin="round"/>
<defs>
<filter id="filter0_d_1935_33066" x="0.255302" y="0.499331" width="138.401" height="138.401" filterUnits="userSpaceOnUse" color-interpolation-filters="sRGB">
<feFlood flood-opacity="0" result="BackgroundImageFix"/>
<feColorMatrix in="SourceAlpha" type="matrix" values="0 0 0 0 0 0 0 0 0 0 0 0 0 0 0 0 0 0 127 0" result="hardAlpha"/>
<feOffset dx="6.47433" dy="9.06406"/>
<feGaussianBlur stdDeviation="19.423"/>
<feComposite in2="hardAlpha" operator="out"/>
<feColorMatrix type="matrix" values="0 0 0 0 1 0 0 0 0 0.411765 0 0 0 0 0 0 0 0 0.15 0"/>
<feBlend mode="normal" in2="BackgroundImageFix" result="effect1_dropShadow_1935_33066"/>
<feBlend mode="normal" in="SourceGraphic" in2="effect1_dropShadow_1935_33066" result="shape"/>
</filter>
<filter id="filter1_d_1935_33066" x="0.255302" y="0.499331" width="138.401" height="138.401" filterUnits="userSpaceOnUse" color-interpolation-filters="sRGB">
<feFlood flood-opacity="0" result="BackgroundImageFix"/>
<feColorMatrix in="SourceAlpha" type="matrix" values="0 0 0 0 0 0 0 0 0 0 0 0 0 0 0 0 0 0 127 0" result="hardAlpha"/>
<feOffset dx="6.47433" dy="9.06406"/>
<feGaussianBlur stdDeviation="19.423"/>
<feComposite in2="hardAlpha" operator="out"/>
<feColorMatrix type="matrix" values="0 0 0 0 1 0 0 0 0 0.411765 0 0 0 0 0 0 0 0 0.15 0"/>
<feBlend mode="normal" in2="BackgroundImageFix" result="effect1_dropShadow_1935_33066"/>
<feBlend mode="normal" in="SourceGraphic" in2="effect1_dropShadow_1935_33066" result="shape"/>
</filter>
</defs>
</svg>
