<svg width="452" height="290" viewBox="0 0 452 290" fill="none" xmlns="http://www.w3.org/2000/svg">
<g filter="url(#filter0_d_2005_29133)">
<rect x="101" y="93" width="210" height="48" rx="24" fill="#FF8833"/>
</g>
<path d="M124.201 121.004V109.539C124.201 109.214 124.312 108.94 124.533 108.719C124.761 108.491 125.038 108.377 125.363 108.377C125.682 108.377 125.952 108.491 126.174 108.719C126.402 108.94 126.516 109.214 126.516 109.539V114.061H132.238V109.539C132.238 109.214 132.352 108.94 132.58 108.719C132.808 108.491 133.081 108.377 133.4 108.377C133.719 108.377 133.993 108.491 134.221 108.719C134.449 108.94 134.562 109.214 134.562 109.539V121.004C134.562 121.323 134.449 121.596 134.221 121.824C133.999 122.046 133.726 122.156 133.4 122.156C133.075 122.156 132.798 122.046 132.57 121.824C132.349 121.596 132.238 121.323 132.238 121.004V116.18H126.516V121.004C126.516 121.329 126.405 121.603 126.184 121.824C125.962 122.046 125.689 122.156 125.363 122.156C125.038 122.156 124.761 122.046 124.533 121.824C124.312 121.596 124.201 121.323 124.201 121.004ZM136.291 119.236C136.291 118.351 136.6 117.661 137.219 117.166C137.844 116.671 138.615 116.424 139.533 116.424H142.15V116.062C142.15 115.607 141.991 115.242 141.672 114.969C141.353 114.695 140.907 114.559 140.334 114.559C139.943 114.559 139.592 114.627 139.279 114.764C138.967 114.9 138.651 115.086 138.332 115.32C138.143 115.451 137.945 115.516 137.736 115.516C137.476 115.516 137.251 115.424 137.062 115.242C136.88 115.06 136.789 114.839 136.789 114.578C136.789 114.337 136.877 114.119 137.053 113.924C137.827 113.071 138.921 112.645 140.334 112.645C141.577 112.645 142.548 112.938 143.244 113.523C143.941 114.109 144.289 114.93 144.289 115.984V121.102C144.289 121.388 144.185 121.635 143.977 121.844C143.768 122.052 143.521 122.156 143.234 122.156C142.948 122.156 142.697 122.052 142.482 121.844C142.274 121.635 142.17 121.388 142.17 121.102C141.688 121.876 140.816 122.264 139.553 122.264C138.576 122.264 137.788 121.984 137.189 121.424C136.59 120.864 136.291 120.135 136.291 119.236ZM138.449 119.236C138.449 119.627 138.586 119.93 138.859 120.145C139.139 120.353 139.556 120.457 140.109 120.457C140.669 120.457 141.148 120.294 141.545 119.969C141.949 119.637 142.15 119.201 142.15 118.66V118.104H139.816C139.38 118.104 139.042 118.201 138.801 118.396C138.566 118.592 138.449 118.872 138.449 119.236ZM146.184 118.26V108.836C146.184 108.536 146.288 108.283 146.496 108.074C146.711 107.866 146.968 107.762 147.268 107.762C147.567 107.762 147.821 107.866 148.029 108.074C148.244 108.283 148.352 108.536 148.352 108.836V113.436C148.566 113.221 148.872 113.035 149.27 112.879C149.673 112.723 150.1 112.645 150.549 112.645C151.838 112.645 152.837 113.048 153.547 113.855C154.257 114.663 154.611 115.864 154.611 117.459C154.611 119.061 154.24 120.262 153.498 121.062C152.756 121.863 151.698 122.264 150.324 122.264C149.074 122.264 148.072 121.919 147.316 121.229C146.561 120.538 146.184 119.549 146.184 118.26ZM148.352 118.26C148.352 118.937 148.531 119.467 148.889 119.852C149.253 120.229 149.732 120.418 150.324 120.418C151.021 120.418 151.551 120.171 151.916 119.676C152.281 119.174 152.463 118.436 152.463 117.459C152.463 116.476 152.277 115.734 151.906 115.232C151.542 114.731 151.014 114.48 150.324 114.48C150.103 114.48 149.882 114.516 149.66 114.588C149.445 114.653 149.26 114.738 149.104 114.842C148.954 114.939 148.82 115.04 148.703 115.145C148.586 115.242 148.498 115.327 148.439 115.398L148.352 115.496V118.26ZM156.115 119.598V108.836C156.115 108.536 156.219 108.283 156.428 108.074C156.636 107.866 156.89 107.762 157.189 107.762C157.489 107.762 157.743 107.866 157.951 108.074C158.166 108.283 158.273 108.536 158.273 108.836V119.803C158.273 119.913 158.316 120.001 158.4 120.066C158.485 120.132 158.57 120.164 158.654 120.164C158.934 120.164 159.169 120.262 159.357 120.457C159.553 120.646 159.65 120.88 159.65 121.16C159.65 121.44 159.553 121.678 159.357 121.873C159.169 122.062 158.934 122.156 158.654 122.156C157.86 122.156 157.238 121.938 156.789 121.502C156.34 121.059 156.115 120.424 156.115 119.598ZM160.412 119.236C160.412 118.351 160.721 117.661 161.34 117.166C161.965 116.671 162.736 116.424 163.654 116.424H166.271V116.062C166.271 115.607 166.112 115.242 165.793 114.969C165.474 114.695 165.028 114.559 164.455 114.559C164.064 114.559 163.713 114.627 163.4 114.764C163.088 114.9 162.772 115.086 162.453 115.32C162.264 115.451 162.066 115.516 161.857 115.516C161.597 115.516 161.372 115.424 161.184 115.242C161.001 115.06 160.91 114.839 160.91 114.578C160.91 114.337 160.998 114.119 161.174 113.924C161.949 113.071 163.042 112.645 164.455 112.645C165.699 112.645 166.669 112.938 167.365 113.523C168.062 114.109 168.41 114.93 168.41 115.984V121.102C168.41 121.388 168.306 121.635 168.098 121.844C167.889 122.052 167.642 122.156 167.355 122.156C167.069 122.156 166.818 122.052 166.604 121.844C166.395 121.635 166.291 121.388 166.291 121.102C165.809 121.876 164.937 122.264 163.674 122.264C162.697 122.264 161.91 121.984 161.311 121.424C160.712 120.864 160.412 120.135 160.412 119.236ZM162.57 119.236C162.57 119.627 162.707 119.93 162.98 120.145C163.26 120.353 163.677 120.457 164.23 120.457C164.79 120.457 165.269 120.294 165.666 119.969C166.07 119.637 166.271 119.201 166.271 118.66V118.104H163.938C163.501 118.104 163.163 118.201 162.922 118.396C162.688 118.592 162.57 118.872 162.57 119.236ZM175.529 121.053C174.774 120.245 174.396 119.041 174.396 117.439C174.396 115.838 174.771 114.64 175.52 113.846C176.275 113.045 177.349 112.645 178.742 112.645C179.302 112.645 179.826 112.732 180.314 112.908C180.803 113.084 181.167 113.266 181.408 113.455C181.649 113.637 181.848 113.826 182.004 114.021C182.147 114.23 182.219 114.435 182.219 114.637C182.219 114.904 182.124 115.132 181.936 115.32C181.753 115.509 181.529 115.604 181.262 115.604C180.975 115.604 180.728 115.49 180.52 115.262C180.038 114.741 179.445 114.48 178.742 114.48C178.046 114.48 177.512 114.738 177.141 115.252C176.77 115.766 176.584 116.495 176.584 117.439C176.584 118.403 176.77 119.142 177.141 119.656C177.512 120.164 178.046 120.418 178.742 120.418C179.022 120.418 179.299 120.369 179.572 120.271C179.852 120.174 180.057 120.083 180.188 119.998C180.324 119.907 180.503 119.78 180.725 119.617C180.913 119.487 181.112 119.422 181.32 119.422C181.587 119.422 181.812 119.516 181.994 119.705C182.183 119.887 182.277 120.112 182.277 120.379C182.277 120.665 182.163 120.913 181.936 121.121C181.623 121.408 181.193 121.671 180.646 121.912C180.1 122.146 179.465 122.264 178.742 122.264C177.355 122.264 176.285 121.86 175.529 121.053ZM183.42 117.459C183.42 115.857 183.804 114.656 184.572 113.855C185.34 113.048 186.418 112.645 187.805 112.645C189.191 112.645 190.266 113.048 191.027 113.855C191.796 114.656 192.18 115.857 192.18 117.459C192.18 119.054 191.796 120.255 191.027 121.062C190.259 121.863 189.185 122.264 187.805 122.264C186.424 122.264 185.347 121.863 184.572 121.062C183.804 120.255 183.42 119.054 183.42 117.459ZM185.607 117.459C185.607 118.436 185.793 119.174 186.164 119.676C186.535 120.171 187.082 120.418 187.805 120.418C188.527 120.418 189.074 120.171 189.445 119.676C189.816 119.174 190.002 118.436 190.002 117.459C190.002 115.473 189.27 114.48 187.805 114.48C186.34 114.48 185.607 115.473 185.607 117.459ZM193.762 121.121V113.836C193.762 113.536 193.866 113.283 194.074 113.074C194.289 112.866 194.546 112.762 194.846 112.762C195.145 112.762 195.399 112.866 195.607 113.074C195.822 113.283 195.93 113.536 195.93 113.836C196.151 113.504 196.477 113.224 196.906 112.996C197.342 112.762 197.87 112.645 198.488 112.645C200.728 112.645 201.848 113.803 201.848 116.121V121.121C201.848 121.414 201.74 121.661 201.525 121.863C201.317 122.059 201.063 122.156 200.764 122.156C200.445 122.156 200.184 122.059 199.982 121.863C199.787 121.668 199.689 121.421 199.689 121.121V116.521C199.689 115.239 199.1 114.598 197.922 114.598C196.594 114.598 195.93 115.285 195.93 116.658V121.121C195.93 121.421 195.826 121.668 195.617 121.863C195.409 122.059 195.152 122.156 194.846 122.156C194.54 122.156 194.283 122.059 194.074 121.863C193.866 121.668 193.762 121.421 193.762 121.121ZM208.156 118.504V113.836C208.156 113.536 208.26 113.283 208.469 113.074C208.684 112.866 208.941 112.762 209.24 112.762C209.54 112.762 209.794 112.866 210.002 113.074C210.21 113.283 210.314 113.536 210.314 113.836V118.504C210.314 119.044 210.445 119.48 210.705 119.812C210.972 120.138 211.444 120.301 212.121 120.301C213.306 120.301 213.898 119.702 213.898 118.504V113.836C213.898 113.536 214.003 113.283 214.211 113.074C214.426 112.866 214.683 112.762 214.982 112.762C215.282 112.762 215.536 112.866 215.744 113.074C215.952 113.283 216.057 113.536 216.057 113.836V118.504C216.057 119.038 215.998 119.513 215.881 119.93C215.77 120.346 215.575 120.74 215.295 121.111C215.021 121.476 214.615 121.759 214.074 121.961C213.54 122.163 212.889 122.264 212.121 122.264C211.496 122.264 210.946 122.195 210.471 122.059C210.002 121.922 209.621 121.74 209.328 121.512C209.042 121.284 208.807 121.004 208.625 120.672C208.449 120.34 208.326 120.001 208.254 119.656C208.189 119.311 208.156 118.927 208.156 118.504ZM217.961 121.121V113.836C217.961 113.536 218.065 113.283 218.273 113.074C218.488 112.866 218.745 112.762 219.045 112.762C219.344 112.762 219.598 112.866 219.807 113.074C220.021 113.283 220.129 113.536 220.129 113.836C220.35 113.504 220.676 113.224 221.105 112.996C221.542 112.762 222.069 112.645 222.688 112.645C224.927 112.645 226.047 113.803 226.047 116.121V121.121C226.047 121.414 225.939 121.661 225.725 121.863C225.516 122.059 225.262 122.156 224.963 122.156C224.644 122.156 224.383 122.059 224.182 121.863C223.986 121.668 223.889 121.421 223.889 121.121V116.521C223.889 115.239 223.299 114.598 222.121 114.598C220.793 114.598 220.129 115.285 220.129 116.658V121.121C220.129 121.421 220.025 121.668 219.816 121.863C219.608 122.059 219.351 122.156 219.045 122.156C218.739 122.156 218.482 122.059 218.273 121.863C218.065 121.668 217.961 121.421 217.961 121.121ZM231.994 119.236C231.994 118.351 232.303 117.661 232.922 117.166C233.547 116.671 234.318 116.424 235.236 116.424H237.854V116.062C237.854 115.607 237.694 115.242 237.375 114.969C237.056 114.695 236.61 114.559 236.037 114.559C235.646 114.559 235.295 114.627 234.982 114.764C234.67 114.9 234.354 115.086 234.035 115.32C233.846 115.451 233.648 115.516 233.439 115.516C233.179 115.516 232.954 115.424 232.766 115.242C232.583 115.06 232.492 114.839 232.492 114.578C232.492 114.337 232.58 114.119 232.756 113.924C233.531 113.071 234.624 112.645 236.037 112.645C237.281 112.645 238.251 112.938 238.947 113.523C239.644 114.109 239.992 114.93 239.992 115.984V121.102C239.992 121.388 239.888 121.635 239.68 121.844C239.471 122.052 239.224 122.156 238.938 122.156C238.651 122.156 238.4 122.052 238.186 121.844C237.977 121.635 237.873 121.388 237.873 121.102C237.391 121.876 236.519 122.264 235.256 122.264C234.279 122.264 233.492 121.984 232.893 121.424C232.294 120.864 231.994 120.135 231.994 119.236ZM234.152 119.236C234.152 119.627 234.289 119.93 234.562 120.145C234.842 120.353 235.259 120.457 235.812 120.457C236.372 120.457 236.851 120.294 237.248 119.969C237.652 119.637 237.854 119.201 237.854 118.66V118.104H235.52C235.083 118.104 234.745 118.201 234.504 118.396C234.27 118.592 234.152 118.872 234.152 119.236ZM241.408 120.203C241.408 119.943 241.503 119.718 241.691 119.529C241.887 119.334 242.115 119.236 242.375 119.236C242.577 119.236 242.782 119.318 242.99 119.48C243.661 120.027 244.393 120.301 245.188 120.301C246.177 120.301 246.672 120.034 246.672 119.5C246.672 119.311 246.6 119.145 246.457 119.002C246.32 118.852 246.135 118.735 245.9 118.65C245.673 118.559 245.412 118.465 245.119 118.367C244.826 118.263 244.527 118.169 244.221 118.084C243.915 117.993 243.615 117.869 243.322 117.713C243.029 117.55 242.766 117.371 242.531 117.176C242.303 116.98 242.118 116.723 241.975 116.404C241.838 116.085 241.77 115.724 241.77 115.32C241.77 114.461 242.082 113.8 242.707 113.338C243.339 112.876 244.139 112.645 245.109 112.645C245.799 112.645 246.441 112.762 247.033 112.996C247.626 113.23 248.065 113.527 248.352 113.885C248.482 114.061 248.547 114.259 248.547 114.48C248.547 114.741 248.452 114.965 248.264 115.154C248.075 115.343 247.85 115.438 247.59 115.438C247.395 115.438 247.167 115.346 246.906 115.164C246.32 114.734 245.721 114.52 245.109 114.52C244.732 114.52 244.439 114.585 244.23 114.715C244.029 114.845 243.928 115.034 243.928 115.281C243.928 115.477 244.019 115.649 244.201 115.799C244.383 115.949 244.618 116.076 244.904 116.18C245.191 116.277 245.51 116.378 245.861 116.482C246.213 116.58 246.564 116.704 246.916 116.854C247.268 117.003 247.587 117.179 247.873 117.381C248.16 117.583 248.394 117.856 248.576 118.201C248.758 118.54 248.85 118.934 248.85 119.383C248.85 120.294 248.508 120.997 247.824 121.492C247.141 121.98 246.262 122.225 245.188 122.225C244.4 122.225 243.687 122.081 243.049 121.795C242.411 121.502 241.945 121.176 241.652 120.818C241.49 120.617 241.408 120.411 241.408 120.203ZM249.982 117.42C249.982 115.896 250.36 114.721 251.115 113.895C251.877 113.061 252.941 112.645 254.309 112.645C254.953 112.645 255.523 112.742 256.018 112.938C256.512 113.126 256.9 113.361 257.18 113.641C257.46 113.921 257.688 114.249 257.863 114.627C258.039 115.005 258.156 115.353 258.215 115.672C258.273 115.991 258.303 116.307 258.303 116.619C258.303 116.821 258.299 116.977 258.293 117.088C258.286 117.192 258.26 117.329 258.215 117.498C258.176 117.667 258.117 117.798 258.039 117.889C257.961 117.973 257.84 118.051 257.678 118.123C257.515 118.188 257.316 118.221 257.082 118.221H252.15C252.15 118.911 252.365 119.435 252.795 119.793C253.225 120.145 253.788 120.32 254.484 120.32C255.188 120.32 255.848 120.112 256.467 119.695C256.701 119.552 256.916 119.48 257.111 119.48C257.372 119.48 257.593 119.572 257.775 119.754C257.958 119.936 258.049 120.158 258.049 120.418C258.049 120.711 257.935 120.958 257.707 121.16C257.551 121.31 257.355 121.456 257.121 121.6C256.893 121.743 256.535 121.889 256.047 122.039C255.559 122.189 255.038 122.264 254.484 122.264C253.052 122.264 251.942 121.863 251.154 121.062C250.373 120.262 249.982 119.048 249.982 117.42ZM252.209 116.424H256.164C256.164 115.883 256.005 115.424 255.686 115.047C255.373 114.669 254.914 114.48 254.309 114.48C253.71 114.48 253.221 114.65 252.844 114.988C252.466 115.32 252.255 115.799 252.209 116.424ZM259.318 120.203C259.318 119.943 259.413 119.718 259.602 119.529C259.797 119.334 260.025 119.236 260.285 119.236C260.487 119.236 260.692 119.318 260.9 119.48C261.571 120.027 262.303 120.301 263.098 120.301C264.087 120.301 264.582 120.034 264.582 119.5C264.582 119.311 264.51 119.145 264.367 119.002C264.23 118.852 264.045 118.735 263.811 118.65C263.583 118.559 263.322 118.465 263.029 118.367C262.736 118.263 262.437 118.169 262.131 118.084C261.825 117.993 261.525 117.869 261.232 117.713C260.939 117.55 260.676 117.371 260.441 117.176C260.214 116.98 260.028 116.723 259.885 116.404C259.748 116.085 259.68 115.724 259.68 115.32C259.68 114.461 259.992 113.8 260.617 113.338C261.249 112.876 262.049 112.645 263.02 112.645C263.71 112.645 264.351 112.762 264.943 112.996C265.536 113.23 265.975 113.527 266.262 113.885C266.392 114.061 266.457 114.259 266.457 114.48C266.457 114.741 266.363 114.965 266.174 115.154C265.985 115.343 265.76 115.438 265.5 115.438C265.305 115.438 265.077 115.346 264.816 115.164C264.23 114.734 263.632 114.52 263.02 114.52C262.642 114.52 262.349 114.585 262.141 114.715C261.939 114.845 261.838 115.034 261.838 115.281C261.838 115.477 261.929 115.649 262.111 115.799C262.294 115.949 262.528 116.076 262.814 116.18C263.101 116.277 263.42 116.378 263.771 116.482C264.123 116.58 264.475 116.704 264.826 116.854C265.178 117.003 265.497 117.179 265.783 117.381C266.07 117.583 266.304 117.856 266.486 118.201C266.669 118.54 266.76 118.934 266.76 119.383C266.76 120.294 266.418 120.997 265.734 121.492C265.051 121.98 264.172 122.225 263.098 122.225C262.31 122.225 261.597 122.081 260.959 121.795C260.321 121.502 259.855 121.176 259.562 120.818C259.4 120.617 259.318 120.411 259.318 120.203ZM267.873 117.459C267.873 115.857 268.257 114.656 269.025 113.855C269.794 113.048 270.871 112.645 272.258 112.645C273.645 112.645 274.719 113.048 275.48 113.855C276.249 114.656 276.633 115.857 276.633 117.459C276.633 119.054 276.249 120.255 275.48 121.062C274.712 121.863 273.638 122.264 272.258 122.264C270.878 122.264 269.8 121.863 269.025 121.062C268.257 120.255 267.873 119.054 267.873 117.459ZM270.061 117.459C270.061 118.436 270.246 119.174 270.617 119.676C270.988 120.171 271.535 120.418 272.258 120.418C272.98 120.418 273.527 120.171 273.898 119.676C274.27 119.174 274.455 118.436 274.455 117.459C274.455 115.473 273.723 114.48 272.258 114.48C270.793 114.48 270.061 115.473 270.061 117.459ZM278.215 121.082V113.836C278.215 113.536 278.319 113.283 278.527 113.074C278.742 112.866 278.999 112.762 279.299 112.762C279.598 112.762 279.852 112.866 280.061 113.074C280.275 113.283 280.383 113.536 280.383 113.836V113.943C280.572 113.559 280.871 113.25 281.281 113.016C281.691 112.781 282.111 112.664 282.541 112.664C282.821 112.664 283.059 112.765 283.254 112.967C283.456 113.162 283.557 113.4 283.557 113.68C283.557 113.96 283.456 114.201 283.254 114.402C283.059 114.598 282.821 114.695 282.541 114.695C281.864 114.695 281.333 114.897 280.949 115.301C280.572 115.704 280.383 116.245 280.383 116.922V121.082C280.383 121.382 280.275 121.635 280.061 121.844C279.852 122.052 279.598 122.156 279.299 122.156C278.999 122.156 278.742 122.052 278.527 121.844C278.319 121.635 278.215 121.382 278.215 121.082Z" fill="white"/>
<defs>
<filter id="filter0_d_2005_29133" x="0.834837" y="0.848049" width="450.396" height="288.396" filterUnits="userSpaceOnUse" color-interpolation-filters="sRGB">
<feFlood flood-opacity="0" result="BackgroundImageFix"/>
<feColorMatrix in="SourceAlpha" type="matrix" values="0 0 0 0 0 0 0 0 0 0 0 0 0 0 0 0 0 0 127 0" result="hardAlpha"/>
<feOffset dx="20.033" dy="28.0462"/>
<feGaussianBlur stdDeviation="60.0991"/>
<feComposite in2="hardAlpha" operator="out"/>
<feColorMatrix type="matrix" values="0 0 0 0 1 0 0 0 0 0.411765 0 0 0 0 0 0 0 0 0.15 0"/>
<feBlend mode="normal" in2="BackgroundImageFix" result="effect1_dropShadow_2005_29133"/>
<feBlend mode="normal" in="SourceGraphic" in2="effect1_dropShadow_2005_29133" result="shape"/>
</filter>
</defs>
</svg>
