<svg width="177" height="177" viewBox="0 0 177 177" fill="none" xmlns="http://www.w3.org/2000/svg">
<g filter="url(#filter0_d_1891_24164)">
<circle cx="83.5" cy="81.5" r="58.5" fill="#FF8833"/>
</g>
<path d="M122.99 70.9517L111.449 80.9925L111.401 82.0032C111.365 82.5731 111.176 83.3806 110.854 84.2244C110.676 84.6641 110.473 85.1039 110.259 85.5436L97.1712 74.2669C96.66 73.8272 95.9813 73.6252 95.3156 73.7087C95.196 73.732 85.5952 74.9329 76.0293 78.9608C75.0766 79.3644 74.3633 79.4841 73.8869 79.4841C73.4954 79.4841 73.2687 79.4122 73.0898 79.3297C72.8284 79.1986 72.6495 79.0327 72.4716 78.6881C72.2928 78.355 72.1742 77.8676 72.1742 77.3443C72.1742 76.6087 72.4357 75.859 72.7331 75.4912C73.1027 75.0156 73.5547 74.3623 74.1727 73.5185C75.1012 72.271 76.3616 70.6546 77.8618 69.0743C79.3606 67.4938 81.0976 65.9737 82.9182 64.9039C85.3803 63.4546 87.4867 63.0983 89.4735 63.0854C90.6993 63.0854 91.8764 63.241 93.0313 63.407C94.1734 63.5729 95.2795 63.7876 96.481 63.7876C97.2432 63.7876 98.0518 63.7041 98.8965 63.3596H98.9081C100.218 62.8014 101.501 61.9809 102.799 61.054C104.727 59.6523 106.63 58.0009 108.081 56.6815C108.367 56.4321 108.629 56.1825 108.867 55.9563L105.619 52.4994C104.905 53.1644 103.976 53.9963 102.977 54.8401C101.955 55.7196 100.847 56.6107 99.8004 57.3477C98.7536 58.0961 97.7543 58.6903 97.0759 58.9629C97.0398 58.9873 96.8504 59.0349 96.481 59.0349C95.9104 59.0466 94.9345 58.8921 93.7331 58.7133C92.5318 58.5358 91.0909 58.3327 89.4735 58.3327C88.0701 58.3212 86.5106 58.4998 84.8689 58.9512C83.2387 58.4998 81.6807 58.3327 80.2643 58.3327C78.6458 58.3327 77.2188 58.5357 76.0164 58.7133C74.815 58.8921 73.8391 59.0464 73.257 59.0349C72.9002 59.0349 72.7097 58.9873 72.6736 58.9629C71.9474 58.6774 70.8645 58.0126 69.7468 57.2049C68.0457 55.9807 66.2367 54.4119 64.8692 53.1644C64.4996 52.8313 64.1661 52.5228 63.8688 52.25L60.6097 55.7069C61.3114 56.3613 62.227 57.2049 63.2506 58.0961C64.3928 59.0696 65.6663 60.1152 66.9513 61.054C68.2478 61.9811 69.533 62.8016 70.8413 63.3596C71.6861 63.7041 72.5074 63.7876 73.2568 63.7876C74.4581 63.7876 75.5771 63.5858 76.7192 63.407C76.8018 63.3954 76.8736 63.3954 76.9447 63.3826C75.3621 64.7379 73.9818 66.2117 72.8163 67.5774C71.8289 68.7297 71.0073 69.8112 70.3416 70.7024C69.699 71.5819 69.1994 72.2944 68.9729 72.5799C67.89 73.9828 67.4264 75.67 67.4147 77.3443C67.4264 78.9132 67.8435 80.5528 68.9252 81.9315C69.4608 82.6091 70.1754 83.2146 71.0317 83.6187C71.8881 84.0224 72.8757 84.2372 73.8866 84.2372C75.16 84.2372 76.481 83.9274 77.8845 83.3334C82.287 81.4802 86.8323 80.2327 90.246 79.4716C91.9598 79.0921 93.3877 78.8299 94.3869 78.6639C94.5774 78.6279 94.7321 78.6048 94.8865 78.5804L109.843 91.4491V91.462H109.854C109.854 91.5094 109.83 91.6395 109.723 91.8413C109.545 92.1744 109.152 92.6141 108.653 92.9228C108.153 93.2313 107.57 93.4101 107.022 93.4101C106.82 93.4101 106.63 93.4462 106.439 93.4809C106.106 93.4101 105.761 93.315 105.428 93.1722C104.393 92.7685 103.429 92.1268 102.751 91.5685C102.406 91.2947 102.132 91.0453 101.954 90.8676L101.752 90.6773L101.705 90.6299V90.6182C101.347 90.2376 100.86 90.0473 100.384 90.0473C99.9549 90.0473 99.5272 90.2017 99.1822 90.5104C98.456 91.1765 98.4084 92.3054 99.0754 93.0297C99.1346 93.1018 100.027 94.0751 101.501 95.086C102.228 95.5848 103.12 96.0955 104.132 96.4992C104.357 96.5827 104.607 96.6778 104.857 96.7486C104.929 96.9031 105.011 97.0585 105.118 97.2001H105.107L105.118 97.2127C105.154 97.2836 105.226 97.569 105.214 97.9136C105.226 98.5669 104.988 99.4222 104.643 99.8978C104.476 100.147 104.31 100.29 104.143 100.385C103.965 100.48 103.798 100.54 103.477 100.551H103.358C103.299 100.539 103.227 100.551 103.167 100.563C103.156 100.563 103.156 100.563 103.156 100.563C101.609 100.563 100.17 99.8978 99.1102 99.1726C98.5746 98.8163 98.1469 98.4487 97.8611 98.1863C97.718 98.0564 97.6112 97.9495 97.552 97.8776L97.48 97.8068L97.4684 97.7941V97.7824C97.1232 97.3785 96.6237 97.1767 96.1241 97.1767C95.7081 97.1767 95.2909 97.3194 94.9576 97.6166C94.2082 98.2582 94.1257 99.3873 94.7799 100.124C94.8391 100.207 95.6722 101.145 97.1001 102.12C98.04 102.762 99.2775 103.427 100.74 103.807C100.717 103.843 100.704 103.891 100.693 103.926C100.502 104.354 100.241 104.782 99.5028 105.209C99.0149 105.495 98.6583 105.637 98.4084 105.721C98.1587 105.792 98.0273 105.803 97.8496 105.803C97.6114 105.803 97.2663 105.756 96.6958 105.637C96.5876 105.613 96.4808 105.613 96.374 105.601C96.3379 105.59 96.3031 105.578 96.2553 105.554C95.6721 105.268 94.9459 104.769 94.4103 104.342C94.1488 104.14 93.9235 103.939 93.7677 103.807L93.59 103.641L93.5539 103.605H93.5423C92.8289 102.916 91.6985 102.952 91.0198 103.653C90.3411 104.366 90.3655 105.494 91.079 106.172C91.1149 106.207 91.8643 106.932 92.9228 107.681C93.1017 107.823 93.3155 107.955 93.5178 108.084C93.2331 108.549 92.9228 108.869 92.6255 109.071C92.15 109.404 91.639 109.558 90.972 109.558C90.3772 109.558 89.6754 109.416 88.9735 109.118C88.7353 109.023 88.5088 108.881 88.2833 108.762C88.4134 108.252 88.4856 107.74 88.4856 107.218C88.4856 106.148 88.1997 105.055 87.5932 104.08C86.5695 102.44 84.857 101.467 83.0593 101.313C83.0593 101.252 83.0722 101.181 83.0722 101.122C83.0722 99.9456 82.7502 98.7457 82.0963 97.6759C80.8705 95.7032 78.7406 94.5985 76.5761 94.5985H76.54C76.4447 94.5985 76.361 94.6102 76.2785 94.6102C76.1717 93.6829 75.8742 92.7687 75.3501 91.9366C74.3392 90.3085 72.7209 89.2874 70.972 88.9661C70.9593 87.8138 70.6387 86.6371 69.9961 85.5915C68.7587 83.6073 66.6173 82.5143 64.44 82.5143C63.2618 82.5143 62.0603 82.8345 60.9892 83.5006L58.7048 84.914C58.6456 84.7957 58.5747 84.6646 58.5271 84.5462C58.1216 83.5959 57.8718 82.6443 57.8486 82.0037L57.8008 80.993L46.2596 70.9521L43 74.4097L53.2212 83.3098C53.3989 84.3796 53.7324 85.4009 54.1253 86.3512C54.375 86.9697 54.6609 87.5522 54.9456 88.0988C54.3274 89.1199 53.9823 90.2965 53.9823 91.4732C53.9823 92.6498 54.303 93.8497 54.97 94.9185C55.9808 96.5349 57.5993 97.5573 59.3481 97.8776C59.3598 99.0299 59.6815 100.207 60.324 101.252C61.5615 103.236 63.7027 104.342 65.8803 104.342C65.9638 104.342 66.0464 104.33 66.13 104.318C66.2485 105.245 66.5459 106.159 67.07 107.003C68.3073 108.989 70.4488 110.082 72.6261 110.082C72.8399 110.082 73.0549 110.057 73.2687 110.034C73.3757 110.865 73.6498 111.697 74.1134 112.445C75.2439 114.252 77.1946 115.262 79.17 115.25C80.2412 115.25 81.3358 114.964 82.3106 114.359L85.2851 112.517C85.8685 112.898 86.4749 113.23 87.1303 113.492C88.32 114.002 89.6285 114.311 90.9726 114.311C92.4482 114.323 94.0192 113.919 95.3634 112.969C96.2314 112.363 96.9692 111.531 97.5757 110.544C97.671 110.544 97.7546 110.556 97.85 110.556C98.4681 110.556 99.1351 110.474 99.8124 110.259C100.479 110.057 101.145 109.749 101.86 109.345C103.561 108.382 104.584 106.968 105.084 105.768C105.191 105.494 105.275 105.245 105.345 105.007C105.75 104.877 106.154 104.722 106.512 104.508C107.82 103.76 108.677 102.607 109.212 101.454C109.736 100.29 109.973 99.0774 109.973 97.9136C109.973 97.7941 109.962 97.6872 109.95 97.5689C110.818 97.2243 111.592 96.7254 112.246 96.1545C112.924 95.5603 113.495 94.871 113.912 94.0878C114.328 93.315 114.614 92.4123 114.614 91.4376C114.614 90.7959 114.483 90.131 114.198 89.5008C114.114 89.299 113.983 89.1202 113.853 88.9299C114.364 88.0272 114.875 87.0176 115.292 85.9244C115.613 85.0923 115.874 84.2245 116.03 83.3217L126.25 74.4097L122.99 70.9517ZM61.573 92.9109L61.4661 92.9817C61.1687 93.1605 60.8469 93.244 60.5262 93.244C59.9313 93.244 59.3481 92.9585 59.0146 92.4119C58.8251 92.1148 58.7416 91.7934 58.7416 91.473C58.7531 90.8788 59.039 90.308 59.5861 89.9633L63.5006 87.5277C63.8096 87.3502 64.1187 87.2665 64.4406 87.2665C65.0471 87.2665 65.6188 87.5635 65.951 88.0986L67.9739 86.85L65.951 88.1103C66.1415 88.4073 66.2253 88.716 66.2253 89.0374C66.2136 89.4528 66.0708 89.8568 65.7967 90.1781L62.4294 92.2692C62.1202 92.4595 61.8472 92.673 61.573 92.9109ZM66.8201 99.3152C66.5225 99.5055 66.2007 99.589 65.8801 99.589C65.2851 99.589 64.7019 99.2918 64.3684 98.7454C64.179 98.4484 64.0954 98.1384 64.0954 97.8181C64.107 97.4027 64.2499 96.9977 64.524 96.6774L67.8901 94.5865C68.2004 94.3961 68.4735 94.1699 68.736 93.9447L68.8545 93.8728C69.1634 93.6824 69.4727 93.6001 69.7945 93.6001C70.401 93.6117 70.9726 93.8971 71.3048 94.4436C71.4954 94.7407 71.5791 95.0493 71.5791 95.3708C71.5674 95.9765 71.2817 96.5463 70.7344 96.8909L66.8201 99.3152ZM77.4805 102.63L73.5544 105.066C73.2568 105.245 72.9466 105.328 72.6259 105.328C72.0195 105.328 71.4478 105.031 71.1156 104.496C70.925 104.188 70.8413 103.878 70.8413 103.558C70.8413 102.952 71.1388 102.381 71.6861 102.048L75.6005 99.6123C75.8979 99.4347 76.2185 99.3512 76.5405 99.3512C77.1353 99.3512 77.7058 99.6367 78.051 100.183C78.2299 100.48 78.3136 100.801 78.3136 101.122C78.3136 101.716 78.0278 102.286 77.4805 102.63ZM83.168 108.227L79.8009 110.318C79.5986 110.449 79.3965 110.497 79.17 110.497C78.7772 110.497 78.3845 110.306 78.1591 109.938C78.0395 109.737 77.9803 109.535 77.9803 109.308C77.9803 108.905 78.1824 108.524 78.5391 108.31V108.299L81.9064 106.207C82.1213 106.088 82.3236 106.029 82.5372 106.029C82.9415 106.041 83.3226 106.231 83.5481 106.599C83.6793 106.801 83.727 107.003 83.727 107.217C83.7268 107.621 83.5362 108.002 83.168 108.227Z" fill="white" stroke="#FF8833" stroke-width="1.67143"/>
<defs>
<filter id="filter0_d_1891_24164" x="0" y="0" width="177" height="177" filterUnits="userSpaceOnUse" color-interpolation-filters="sRGB">
<feFlood flood-opacity="0" result="BackgroundImageFix"/>
<feColorMatrix in="SourceAlpha" type="matrix" values="0 0 0 0 0 0 0 0 0 0 0 0 0 0 0 0 0 0 127 0" result="hardAlpha"/>
<feOffset dx="5" dy="7"/>
<feGaussianBlur stdDeviation="15"/>
<feComposite in2="hardAlpha" operator="out"/>
<feColorMatrix type="matrix" values="0 0 0 0 1 0 0 0 0 0.411765 0 0 0 0 0 0 0 0 0.15 0"/>
<feBlend mode="normal" in2="BackgroundImageFix" result="effect1_dropShadow_1891_24164"/>
<feBlend mode="normal" in="SourceGraphic" in2="effect1_dropShadow_1891_24164" result="shape"/>
</filter>
</defs>
</svg>
