<svg width="437" height="290" viewBox="0 0 437 290" fill="none" xmlns="http://www.w3.org/2000/svg">
<g filter="url(#filter0_d_2005_29129)">
<rect x="101" y="93" width="210" height="48" rx="24" fill="#FF8833"/>
</g>
<path d="M129.201 121.838V110.695C129.201 110.376 129.312 110.106 129.533 109.885C129.761 109.657 130.038 109.543 130.363 109.543H133.957C134.686 109.543 135.321 109.637 135.861 109.826C136.408 110.008 136.835 110.266 137.141 110.598C137.453 110.93 137.684 111.298 137.834 111.701C137.984 112.098 138.059 112.538 138.059 113.02C138.059 113.658 137.919 114.221 137.639 114.709C137.365 115.191 137.014 115.536 136.584 115.744C137.313 116.024 137.84 116.428 138.166 116.955C138.498 117.482 138.664 118.15 138.664 118.957C138.664 120.207 138.293 121.193 137.551 121.916C136.809 122.639 135.731 123 134.318 123H130.363C130.038 123 129.761 122.886 129.533 122.658C129.312 122.43 129.201 122.157 129.201 121.838ZM131.516 120.92H134.318C135.64 120.92 136.301 120.266 136.301 118.957C136.301 118.339 136.132 117.86 135.793 117.521C135.461 117.176 134.969 117.004 134.318 117.004H131.516V120.92ZM131.516 115.041H133.957C134.562 115.041 135.012 114.888 135.305 114.582C135.598 114.27 135.744 113.85 135.744 113.322C135.744 112.189 135.148 111.623 133.957 111.623H131.516V115.041ZM139.943 118.459C139.943 116.857 140.327 115.656 141.096 114.855C141.864 114.048 142.941 113.645 144.328 113.645C145.715 113.645 146.789 114.048 147.551 114.855C148.319 115.656 148.703 116.857 148.703 118.459C148.703 120.054 148.319 121.255 147.551 122.062C146.783 122.863 145.708 123.264 144.328 123.264C142.948 123.264 141.87 122.863 141.096 122.062C140.327 121.255 139.943 120.054 139.943 118.459ZM142.131 118.459C142.131 119.436 142.316 120.174 142.688 120.676C143.059 121.171 143.605 121.418 144.328 121.418C145.051 121.418 145.598 121.171 145.969 120.676C146.34 120.174 146.525 119.436 146.525 118.459C146.525 116.473 145.793 115.48 144.328 115.48C142.863 115.48 142.131 116.473 142.131 118.459ZM149.895 115.461C149.719 115.279 149.631 115.064 149.631 114.816C149.631 114.569 149.719 114.357 149.895 114.182C150.07 114.006 150.282 113.918 150.529 113.918H150.988V112.238C150.988 111.952 151.092 111.704 151.301 111.496C151.516 111.288 151.766 111.184 152.053 111.184C152.339 111.184 152.587 111.288 152.795 111.496C153.003 111.704 153.107 111.952 153.107 112.238V113.918H154.006C154.253 113.918 154.465 114.006 154.641 114.182C154.816 114.357 154.904 114.569 154.904 114.816C154.904 115.064 154.816 115.279 154.641 115.461C154.465 115.637 154.253 115.725 154.006 115.725H153.107V120.559C153.107 120.773 153.186 120.949 153.342 121.086C153.498 121.216 153.674 121.281 153.869 121.281C154.13 121.281 154.351 121.372 154.533 121.555C154.715 121.737 154.807 121.958 154.807 122.219C154.807 122.479 154.715 122.701 154.533 122.883C154.351 123.065 154.13 123.156 153.869 123.156C152.99 123.156 152.29 122.906 151.77 122.404C151.249 121.896 150.988 121.242 150.988 120.441V115.725H150.529C150.282 115.725 150.07 115.637 149.895 115.461ZM155.979 118.459C155.979 116.857 156.363 115.656 157.131 114.855C157.899 114.048 158.977 113.645 160.363 113.645C161.75 113.645 162.824 114.048 163.586 114.855C164.354 115.656 164.738 116.857 164.738 118.459C164.738 120.054 164.354 121.255 163.586 122.062C162.818 122.863 161.743 123.264 160.363 123.264C158.983 123.264 157.906 122.863 157.131 122.062C156.363 121.255 155.979 120.054 155.979 118.459ZM158.166 118.459C158.166 119.436 158.352 120.174 158.723 120.676C159.094 121.171 159.641 121.418 160.363 121.418C161.086 121.418 161.633 121.171 162.004 120.676C162.375 120.174 162.561 119.436 162.561 118.459C162.561 116.473 161.828 115.48 160.363 115.48C158.898 115.48 158.166 116.473 158.166 118.459ZM159.406 112.717C159.25 112.567 159.162 112.411 159.143 112.248C159.13 112.079 159.182 111.936 159.299 111.818L160.998 109.66C161.141 109.478 161.327 109.393 161.555 109.406C161.783 109.413 161.997 109.517 162.199 109.719C162.414 109.921 162.525 110.135 162.531 110.363C162.538 110.591 162.456 110.777 162.287 110.92L160.324 112.717C160.012 112.997 159.706 112.997 159.406 112.717ZM166.32 122.121V114.836C166.32 114.536 166.424 114.283 166.633 114.074C166.848 113.866 167.105 113.762 167.404 113.762C167.704 113.762 167.958 113.866 168.166 114.074C168.381 114.283 168.488 114.536 168.488 114.836C168.71 114.504 169.035 114.224 169.465 113.996C169.901 113.762 170.428 113.645 171.047 113.645C173.286 113.645 174.406 114.803 174.406 117.121V122.121C174.406 122.414 174.299 122.661 174.084 122.863C173.876 123.059 173.622 123.156 173.322 123.156C173.003 123.156 172.743 123.059 172.541 122.863C172.346 122.668 172.248 122.421 172.248 122.121V117.521C172.248 116.239 171.659 115.598 170.48 115.598C169.152 115.598 168.488 116.285 168.488 117.658V122.121C168.488 122.421 168.384 122.668 168.176 122.863C167.967 123.059 167.71 123.156 167.404 123.156C167.098 123.156 166.841 123.059 166.633 122.863C166.424 122.668 166.32 122.421 166.32 122.121ZM180.393 118.459C180.393 116.864 180.747 115.663 181.457 114.855C182.167 114.048 183.166 113.645 184.455 113.645C184.904 113.645 185.327 113.723 185.725 113.879C186.128 114.035 186.438 114.221 186.652 114.436V109.836C186.652 109.536 186.757 109.283 186.965 109.074C187.18 108.866 187.437 108.762 187.736 108.762C188.036 108.762 188.29 108.866 188.498 109.074C188.713 109.283 188.82 109.536 188.82 109.836V119.26C188.82 120.549 188.443 121.538 187.688 122.229C186.932 122.919 185.93 123.264 184.68 123.264C183.306 123.264 182.248 122.863 181.506 122.062C180.764 121.262 180.393 120.061 180.393 118.459ZM182.541 118.459C182.541 119.436 182.723 120.174 183.088 120.676C183.452 121.171 183.983 121.418 184.68 121.418C185.272 121.418 185.747 121.229 186.105 120.852C186.47 120.467 186.652 119.937 186.652 119.26V116.496C186.633 116.47 186.604 116.434 186.564 116.389C186.525 116.343 186.438 116.262 186.301 116.145C186.171 116.027 186.034 115.923 185.891 115.832C185.747 115.741 185.565 115.66 185.344 115.588C185.122 115.516 184.901 115.48 184.68 115.48C183.99 115.48 183.459 115.731 183.088 116.232C182.723 116.734 182.541 117.476 182.541 118.459ZM190.314 118.42C190.314 116.896 190.692 115.721 191.447 114.895C192.209 114.061 193.273 113.645 194.641 113.645C195.285 113.645 195.855 113.742 196.35 113.938C196.844 114.126 197.232 114.361 197.512 114.641C197.792 114.921 198.02 115.249 198.195 115.627C198.371 116.005 198.488 116.353 198.547 116.672C198.605 116.991 198.635 117.307 198.635 117.619C198.635 117.821 198.632 117.977 198.625 118.088C198.618 118.192 198.592 118.329 198.547 118.498C198.508 118.667 198.449 118.798 198.371 118.889C198.293 118.973 198.173 119.051 198.01 119.123C197.847 119.188 197.648 119.221 197.414 119.221H192.482C192.482 119.911 192.697 120.435 193.127 120.793C193.557 121.145 194.12 121.32 194.816 121.32C195.52 121.32 196.18 121.112 196.799 120.695C197.033 120.552 197.248 120.48 197.443 120.48C197.704 120.48 197.925 120.572 198.107 120.754C198.29 120.936 198.381 121.158 198.381 121.418C198.381 121.711 198.267 121.958 198.039 122.16C197.883 122.31 197.688 122.456 197.453 122.6C197.225 122.743 196.867 122.889 196.379 123.039C195.891 123.189 195.37 123.264 194.816 123.264C193.384 123.264 192.274 122.863 191.486 122.062C190.705 121.262 190.314 120.048 190.314 118.42ZM192.541 117.424H196.496C196.496 116.883 196.337 116.424 196.018 116.047C195.705 115.669 195.246 115.48 194.641 115.48C194.042 115.48 193.553 115.65 193.176 115.988C192.798 116.32 192.587 116.799 192.541 117.424ZM204.182 120.236C204.182 119.351 204.491 118.661 205.109 118.166C205.734 117.671 206.506 117.424 207.424 117.424H210.041V117.062C210.041 116.607 209.882 116.242 209.562 115.969C209.243 115.695 208.798 115.559 208.225 115.559C207.834 115.559 207.482 115.627 207.17 115.764C206.857 115.9 206.542 116.086 206.223 116.32C206.034 116.451 205.835 116.516 205.627 116.516C205.367 116.516 205.142 116.424 204.953 116.242C204.771 116.06 204.68 115.839 204.68 115.578C204.68 115.337 204.768 115.119 204.943 114.924C205.718 114.071 206.812 113.645 208.225 113.645C209.468 113.645 210.438 113.938 211.135 114.523C211.831 115.109 212.18 115.93 212.18 116.984V122.102C212.18 122.388 212.076 122.635 211.867 122.844C211.659 123.052 211.411 123.156 211.125 123.156C210.839 123.156 210.588 123.052 210.373 122.844C210.165 122.635 210.061 122.388 210.061 122.102C209.579 122.876 208.706 123.264 207.443 123.264C206.467 123.264 205.679 122.984 205.08 122.424C204.481 121.864 204.182 121.135 204.182 120.236ZM206.34 120.236C206.34 120.627 206.477 120.93 206.75 121.145C207.03 121.353 207.447 121.457 208 121.457C208.56 121.457 209.038 121.294 209.436 120.969C209.839 120.637 210.041 120.201 210.041 119.66V119.104H207.707C207.271 119.104 206.932 119.201 206.691 119.396C206.457 119.592 206.34 119.872 206.34 120.236ZM213.195 126.73C213 126.542 212.902 126.304 212.902 126.018C212.902 125.731 213 125.493 213.195 125.305C213.397 125.116 213.645 125.021 213.938 125.021C214.53 125.021 215.008 124.807 215.373 124.377C215.738 123.954 216.105 123.28 216.477 122.355L213.4 115.256C213.348 115.126 213.322 114.986 213.322 114.836C213.322 114.536 213.426 114.283 213.635 114.074C213.843 113.866 214.097 113.762 214.396 113.762C214.663 113.762 214.882 113.833 215.051 113.977C215.22 114.113 215.337 114.266 215.402 114.436L217.6 120.002L219.797 114.436C219.862 114.266 219.979 114.113 220.148 113.977C220.318 113.833 220.536 113.762 220.803 113.762C221.102 113.762 221.356 113.866 221.564 114.074C221.773 114.283 221.877 114.536 221.877 114.836C221.877 114.986 221.851 115.126 221.799 115.256L218.078 123.664C217.076 125.904 215.695 127.023 213.938 127.023C213.645 127.023 213.397 126.926 213.195 126.73ZM223.02 119.504V114.836C223.02 114.536 223.124 114.283 223.332 114.074C223.547 113.866 223.804 113.762 224.104 113.762C224.403 113.762 224.657 113.866 224.865 114.074C225.074 114.283 225.178 114.536 225.178 114.836V119.504C225.178 120.044 225.308 120.48 225.568 120.812C225.835 121.138 226.307 121.301 226.984 121.301C228.169 121.301 228.762 120.702 228.762 119.504V114.836C228.762 114.536 228.866 114.283 229.074 114.074C229.289 113.866 229.546 113.762 229.846 113.762C230.145 113.762 230.399 113.866 230.607 114.074C230.816 114.283 230.92 114.536 230.92 114.836V119.504C230.92 120.038 230.861 120.513 230.744 120.93C230.633 121.346 230.438 121.74 230.158 122.111C229.885 122.476 229.478 122.759 228.938 122.961C228.404 123.163 227.753 123.264 226.984 123.264C226.359 123.264 225.809 123.195 225.334 123.059C224.865 122.922 224.484 122.74 224.191 122.512C223.905 122.284 223.671 122.004 223.488 121.672C223.312 121.34 223.189 121.001 223.117 120.656C223.052 120.311 223.02 119.927 223.02 119.504ZM232.404 118.459C232.404 116.864 232.759 115.663 233.469 114.855C234.178 114.048 235.178 113.645 236.467 113.645C236.916 113.645 237.339 113.723 237.736 113.879C238.14 114.035 238.449 114.221 238.664 114.436V109.836C238.664 109.536 238.768 109.283 238.977 109.074C239.191 108.866 239.449 108.762 239.748 108.762C240.048 108.762 240.301 108.866 240.51 109.074C240.725 109.283 240.832 109.536 240.832 109.836V119.26C240.832 120.549 240.454 121.538 239.699 122.229C238.944 122.919 237.941 123.264 236.691 123.264C235.318 123.264 234.26 122.863 233.518 122.062C232.775 121.262 232.404 120.061 232.404 118.459ZM234.553 118.459C234.553 119.436 234.735 120.174 235.1 120.676C235.464 121.171 235.995 121.418 236.691 121.418C237.284 121.418 237.759 121.229 238.117 120.852C238.482 120.467 238.664 119.937 238.664 119.26V116.496C238.645 116.47 238.615 116.434 238.576 116.389C238.537 116.343 238.449 116.262 238.312 116.145C238.182 116.027 238.046 115.923 237.902 115.832C237.759 115.741 237.577 115.66 237.355 115.588C237.134 115.516 236.913 115.48 236.691 115.48C236.001 115.48 235.471 115.731 235.1 116.232C234.735 116.734 234.553 117.476 234.553 118.459ZM242.268 120.236C242.268 119.351 242.577 118.661 243.195 118.166C243.82 117.671 244.592 117.424 245.51 117.424H248.127V117.062C248.127 116.607 247.967 116.242 247.648 115.969C247.329 115.695 246.883 115.559 246.311 115.559C245.92 115.559 245.568 115.627 245.256 115.764C244.943 115.9 244.628 116.086 244.309 116.32C244.12 116.451 243.921 116.516 243.713 116.516C243.452 116.516 243.228 116.424 243.039 116.242C242.857 116.06 242.766 115.839 242.766 115.578C242.766 115.337 242.854 115.119 243.029 114.924C243.804 114.071 244.898 113.645 246.311 113.645C247.554 113.645 248.524 113.938 249.221 114.523C249.917 115.109 250.266 115.93 250.266 116.984V122.102C250.266 122.388 250.161 122.635 249.953 122.844C249.745 123.052 249.497 123.156 249.211 123.156C248.924 123.156 248.674 123.052 248.459 122.844C248.251 122.635 248.146 122.388 248.146 122.102C247.665 122.876 246.792 123.264 245.529 123.264C244.553 123.264 243.765 122.984 243.166 122.424C242.567 121.864 242.268 121.135 242.268 120.236ZM244.426 120.236C244.426 120.627 244.562 120.93 244.836 121.145C245.116 121.353 245.533 121.457 246.086 121.457C246.646 121.457 247.124 121.294 247.521 120.969C247.925 120.637 248.127 120.201 248.127 119.66V119.104H245.793C245.357 119.104 245.018 119.201 244.777 119.396C244.543 119.592 244.426 119.872 244.426 120.236Z" fill="white"/>
<defs>
<filter id="filter0_d_2005_29129" x="0.834837" y="0.848049" width="450.396" height="288.396" filterUnits="userSpaceOnUse" color-interpolation-filters="sRGB">
<feFlood flood-opacity="0" result="BackgroundImageFix"/>
<feColorMatrix in="SourceAlpha" type="matrix" values="0 0 0 0 0 0 0 0 0 0 0 0 0 0 0 0 0 0 127 0" result="hardAlpha"/>
<feOffset dx="20.033" dy="28.0462"/>
<feGaussianBlur stdDeviation="60.0991"/>
<feComposite in2="hardAlpha" operator="out"/>
<feColorMatrix type="matrix" values="0 0 0 0 1 0 0 0 0 0.411765 0 0 0 0 0 0 0 0 0.15 0"/>
<feBlend mode="normal" in2="BackgroundImageFix" result="effect1_dropShadow_2005_29129"/>
<feBlend mode="normal" in="SourceGraphic" in2="effect1_dropShadow_2005_29129" result="shape"/>
</filter>
</defs>
</svg>
