<svg width="128" height="139" viewBox="0 0 128 139" fill="none" xmlns="http://www.w3.org/2000/svg">
<g filter="url(#filter0_d_1935_31554)">
<circle cx="63.6457" cy="60.3546" r="30.3546" fill="#FF8833"/>
</g>
<path d="M75.9527 70.6357C76.8487 69.4346 77.4636 68.0477 77.7519 66.5772C78.0403 65.1068 77.9948 63.5903 77.6188 62.1398C77.2428 60.6893 76.5459 59.3417 75.5795 58.1965C74.613 57.0513 73.4018 56.1378 72.0351 55.5233C71.7375 53.8106 71.0533 52.1883 70.0347 50.7796C69.016 49.3709 67.6897 48.213 66.1565 47.3938C64.6233 46.5745 62.9235 46.1155 61.1863 46.0517C59.4491 45.9878 57.7202 46.3208 56.131 47.0252C54.5417 47.7297 53.134 48.7871 52.0147 50.1172C50.8953 51.4472 50.0939 53.0149 49.6713 54.7012C49.2487 56.3874 49.216 58.1477 49.5756 59.8485C49.9353 61.5492 50.6779 63.1456 51.747 64.5164L49.7597 66.4894C49.5613 66.6905 49.4269 66.9458 49.3735 67.2232C49.32 67.5005 49.3499 67.7875 49.4594 68.0479C49.5667 68.309 49.7488 68.5325 49.9829 68.6902C50.217 68.848 50.4925 68.9329 50.7748 68.9343H58.9101C59.7202 70.6423 60.9975 72.0859 62.5942 73.098C64.1908 74.1101 66.0414 74.6494 67.9318 74.6533H76.5103C76.7925 74.6519 77.0681 74.567 77.3021 74.4092C77.5362 74.2515 77.7184 74.028 77.8256 73.7669C77.9351 73.5065 77.965 73.2195 77.9116 72.9422C77.8582 72.6648 77.7238 72.4095 77.5254 72.2084L75.9527 70.6357ZM57.9235 64.6451C57.9255 65.1238 57.9637 65.6018 58.0379 66.0748H54.2205L54.7209 65.5887C54.8549 65.4558 54.9613 65.2976 55.0339 65.1234C55.1064 64.9492 55.1438 64.7623 55.1438 64.5736C55.1438 64.3848 55.1064 64.198 55.0339 64.0237C54.9613 63.8495 54.8549 63.6914 54.7209 63.5585C53.9196 62.766 53.2844 61.8217 52.8523 60.7808C52.4202 59.7399 52.2 58.6233 52.2045 57.4963C52.2045 55.2212 53.1083 53.0392 54.7171 51.4304C56.3259 49.8216 58.5079 48.9178 60.783 48.9178C62.5583 48.9072 64.2923 49.4531 65.7413 50.4789C67.1903 51.5047 68.2813 52.9588 68.8611 54.6368C68.5466 54.6368 68.2463 54.6368 67.9318 54.6368C65.2774 54.6368 62.7318 55.6913 60.8549 57.5682C58.978 59.4451 57.9235 61.9907 57.9235 64.6451ZM72.9931 71.7938L73.0646 71.8653H67.9318C66.278 71.8623 64.6765 71.2861 63.3999 70.2348C62.1234 69.1835 61.2508 67.7221 60.9309 66.0996C60.6109 64.4771 60.8634 62.7939 61.6453 61.3366C62.4272 59.8794 63.6901 58.7384 65.2189 58.1078C66.7477 57.4773 68.4479 57.3963 70.0297 57.8787C71.6115 58.361 72.9772 59.3769 73.894 60.7532C74.8109 62.1295 75.2222 63.7811 75.0579 65.4267C74.8936 67.0723 74.1639 68.61 72.9931 69.7779C72.7237 70.0418 72.5695 70.4016 72.5641 70.7787C72.5649 70.9678 72.6033 71.155 72.6769 71.3292C72.7505 71.5035 72.858 71.6614 72.9931 71.7938Z" fill="white"/>
<defs>
<filter id="filter0_d_1935_31554" x="0.919364" y="0.218081" width="138.401" height="138.401" filterUnits="userSpaceOnUse" color-interpolation-filters="sRGB">
<feFlood flood-opacity="0" result="BackgroundImageFix"/>
<feColorMatrix in="SourceAlpha" type="matrix" values="0 0 0 0 0 0 0 0 0 0 0 0 0 0 0 0 0 0 127 0" result="hardAlpha"/>
<feOffset dx="6.47433" dy="9.06406"/>
<feGaussianBlur stdDeviation="19.423"/>
<feComposite in2="hardAlpha" operator="out"/>
<feColorMatrix type="matrix" values="0 0 0 0 1 0 0 0 0 0.411765 0 0 0 0 0 0 0 0 0.15 0"/>
<feBlend mode="normal" in2="BackgroundImageFix" result="effect1_dropShadow_1935_31554"/>
<feBlend mode="normal" in="SourceGraphic" in2="effect1_dropShadow_1935_31554" result="shape"/>
</filter>
</defs>
</svg>
