<svg width="128" height="139" viewBox="0 0 128 139" fill="none" xmlns="http://www.w3.org/2000/svg">
<g filter="url(#filter0_d_1935_33060)">
<circle cx="63.6457" cy="60.3546" r="30.3546" fill="white"/>
</g>
<path d="M75.9527 70.6367C76.8487 69.4356 77.4636 68.0487 77.7519 66.5782C78.0403 65.1078 77.9948 63.5913 77.6188 62.1408C77.2428 60.6903 76.5459 59.3427 75.5795 58.1975C74.613 57.0523 73.4018 56.1388 72.0351 55.5242C71.7375 53.8115 71.0533 52.1892 70.0347 50.7806C69.016 49.3719 67.6897 48.214 66.1565 47.3947C64.6233 46.5755 62.9235 46.1165 61.1863 46.0526C59.4491 45.9888 57.7202 46.3217 56.131 47.0262C54.5417 47.7307 53.134 48.7881 52.0147 50.1182C50.8953 51.4482 50.0939 53.0159 49.6713 54.7021C49.2487 56.3883 49.216 58.1487 49.5756 59.8495C49.9353 61.5502 50.6779 63.1466 51.747 64.5174L49.7597 66.4904C49.5613 66.6915 49.4269 66.9468 49.3735 67.2241C49.32 67.5015 49.3499 67.7885 49.4594 68.0488C49.5667 68.3099 49.7488 68.5334 49.9829 68.6912C50.217 68.8489 50.4925 68.9339 50.7748 68.9353H58.9101C59.7202 70.6433 60.9975 72.0869 62.5942 73.099C64.1908 74.1111 66.0414 74.6503 67.9318 74.6543H76.5103C76.7925 74.6529 77.0681 74.5679 77.3021 74.4102C77.5362 74.2524 77.7184 74.0289 77.8256 73.7678C77.9351 73.5075 77.965 73.2205 77.9116 72.9431C77.8582 72.6658 77.7238 72.4105 77.5254 72.2094L75.9527 70.6367ZM57.9235 64.646C57.9255 65.1248 57.9637 65.6028 58.0379 66.0758H54.2205L54.7209 65.5897C54.8549 65.4568 54.9613 65.2986 55.0339 65.1244C55.1064 64.9502 55.1438 64.7633 55.1438 64.5745C55.1438 64.3858 55.1064 64.1989 55.0339 64.0247C54.9613 63.8505 54.8549 63.6923 54.7209 63.5594C53.9196 62.7669 53.2844 61.8226 52.8523 60.7817C52.4202 59.7409 52.2 58.6243 52.2045 57.4973C52.2045 55.2221 53.1083 53.0402 54.7171 51.4314C56.3259 49.8226 58.5079 48.9188 60.783 48.9188C62.5583 48.9081 64.2923 49.4541 65.7413 50.4799C67.1903 51.5057 68.2813 52.9598 68.8611 54.6378C68.5466 54.6378 68.2463 54.6378 67.9318 54.6378C65.2774 54.6378 62.7318 55.6922 60.8549 57.5691C58.978 59.4461 57.9235 61.9917 57.9235 64.646ZM72.9931 71.7948L73.0646 71.8663H67.9318C66.278 71.8633 64.6765 71.2871 63.3999 70.2358C62.1234 69.1845 61.2508 67.7231 60.9309 66.1006C60.6109 64.4781 60.8634 62.7949 61.6453 61.3376C62.4272 59.8804 63.6901 58.7393 65.2189 58.1088C66.7477 57.4783 68.4479 57.3973 70.0297 57.8797C71.6115 58.362 72.9772 59.3779 73.894 60.7542C74.8109 62.1305 75.2222 63.7821 75.0579 65.4277C74.8936 67.0732 74.1639 68.6109 72.9931 69.7788C72.7237 70.0428 72.5695 70.4025 72.5641 70.7797C72.5649 70.9688 72.6033 71.156 72.6769 71.3302C72.7505 71.5045 72.858 71.6624 72.9931 71.7948Z" fill="#FF8833"/>
<defs>
<filter id="filter0_d_1935_33060" x="0.919364" y="0.218081" width="138.401" height="138.401" filterUnits="userSpaceOnUse" color-interpolation-filters="sRGB">
<feFlood flood-opacity="0" result="BackgroundImageFix"/>
<feColorMatrix in="SourceAlpha" type="matrix" values="0 0 0 0 0 0 0 0 0 0 0 0 0 0 0 0 0 0 127 0" result="hardAlpha"/>
<feOffset dx="6.47433" dy="9.06406"/>
<feGaussianBlur stdDeviation="19.423"/>
<feComposite in2="hardAlpha" operator="out"/>
<feColorMatrix type="matrix" values="0 0 0 0 1 0 0 0 0 0.411765 0 0 0 0 0 0 0 0 0.15 0"/>
<feBlend mode="normal" in2="BackgroundImageFix" result="effect1_dropShadow_1935_33060"/>
<feBlend mode="normal" in="SourceGraphic" in2="effect1_dropShadow_1935_33060" result="shape"/>
</filter>
</defs>
</svg>
