<svg width="350" height="179" viewBox="0 0 350 179" fill="none" xmlns="http://www.w3.org/2000/svg">
<rect width="350" height="179" rx="5.46875" fill="#FFA666"/>
<mask id="mask0_691_6747" style="mask-type:alpha" maskUnits="userSpaceOnUse" x="0" y="0" width="350" height="179">
<rect width="350" height="179" rx="5.46875" fill="#FFA666"/>
</mask>
<g mask="url(#mask0_691_6747)">
<path d="M7.97963 72.833C11.7335 72.4706 15.5105 73.2295 18.8331 75.0138C22.1556 76.798 24.8745 79.5274 26.6458 82.8569C28.4171 86.1863 29.1614 89.9663 28.7845 93.7187C28.4075 97.4712 26.9263 101.028 24.5282 103.938C22.13 106.849 18.9226 108.983 15.3116 110.071C11.7005 111.158 7.84801 111.151 4.24121 110.049C0.634414 108.947 -2.56468 106.801 -4.95152 103.881C-7.33836 100.961 -8.80574 97.399 -9.16811 93.6451L0.252674 92.7357C0.43518 94.6263 1.17422 96.4203 2.37634 97.8909C3.57846 99.3615 5.18966 100.443 7.00621 100.998C8.82275 101.552 10.763 101.556 12.5817 101.008C14.4004 100.46 16.0158 99.3857 17.2236 97.9197C18.4314 96.4538 19.1774 94.6627 19.3673 92.7728C19.5571 90.8829 19.1823 88.9791 18.2902 87.3023C17.398 85.6254 16.0287 84.2507 14.3553 83.3521C12.6819 82.4535 10.7797 82.0713 8.88904 82.2538L7.97963 72.833Z" fill="#7EF9FF"/>
<path d="M40.8724 43.7677C37.3511 42.4176 34.3091 40.0536 32.1312 36.9747C29.9534 33.8958 28.7374 30.2402 28.6371 26.4702C28.5369 22.7002 29.5568 18.9851 31.5679 15.7948C33.579 12.6045 36.491 10.0821 39.9357 8.54679C43.3803 7.01144 47.2029 6.53203 50.92 7.16917C54.6371 7.80631 58.0818 9.53141 60.8185 12.1263C63.5552 14.7212 65.461 18.0693 66.2948 21.7473C67.1286 25.4253 66.8531 29.2679 65.503 32.7893L56.6657 29.4011C57.3456 27.6276 57.4844 25.6923 57.0644 23.8399C56.6445 21.9875 55.6847 20.3012 54.3063 18.9943C52.928 17.6874 51.1931 16.8186 49.321 16.4977C47.4489 16.1768 45.5237 16.4183 43.7888 17.1915C42.0539 17.9648 40.5873 19.2352 39.5744 20.842C38.5616 22.4487 38.0479 24.3198 38.0984 26.2186C38.1489 28.1173 38.7613 29.9584 39.8582 31.5091C40.955 33.0598 42.4871 34.2504 44.2606 34.9303L40.8724 43.7677Z" fill="#FFA666"/>
<path d="M23.699 9.82774C43.5317 17.0267 53.7734 38.9403 46.5744 58.773C39.3754 78.6058 17.4619 88.8475 -2.37089 81.6485C-22.2036 74.4495 -32.4453 52.5359 -25.2463 32.7032C-18.0473 12.8704 3.86624 2.62875 23.699 9.82774ZM5.98183 58.6373C13.1059 61.2232 20.9773 57.5443 23.5632 50.4203C26.1492 43.2963 22.4703 35.4248 15.3463 32.8389C8.22224 30.253 0.350771 33.9319 -2.23515 41.0559C-4.82106 48.1799 -1.1422 56.0514 5.98183 58.6373Z" fill="#BF99E7"/>
<path d="M361.668 2.78233C381.5 9.98133 391.742 31.8949 384.543 51.7276C377.344 71.5604 355.431 81.802 335.598 74.6031C315.765 67.4041 305.523 45.4905 312.722 25.6578C319.921 5.82501 341.835 -4.41666 361.668 2.78233ZM343.951 51.5919C351.075 54.1778 358.946 50.4989 361.532 43.3749C364.118 36.2509 360.439 28.3794 353.315 25.7935C346.191 23.2076 338.32 26.8864 335.734 34.0105C333.148 41.1345 336.827 49.006 343.951 51.5919Z" fill="#DFCCF3"/>
<path d="M20.6763 8.93571C26.7081 10.5738 32.2458 13.6667 36.8038 17.9434C41.3619 22.22 44.801 27.5497 46.8197 33.465L23.6513 41.3713C22.9262 39.2465 21.6909 37.3321 20.0536 35.7959C18.4163 34.2597 16.4271 33.1487 14.2605 32.5603L20.6763 8.93571Z" fill="#DFCCF3"/>
<path d="M243.933 -47.4155C249.963 -53.5034 257.773 -57.5158 266.234 -58.8724C274.695 -60.2291 283.368 -58.8598 291 -54.9625C298.631 -51.0651 304.825 -44.8417 308.687 -37.1921C312.548 -29.5425 313.877 -20.863 312.48 -12.4085C311.084 -3.95407 307.035 3.8372 300.919 9.83883C294.802 15.8405 286.936 19.7414 278.457 20.9777C269.977 22.2141 261.325 20.7216 253.749 16.7162C246.174 12.7109 240.069 6.4001 236.317 -1.30364L245.215 -5.63778C248.048 0.178201 252.657 4.94255 258.376 7.96643C264.095 10.9903 270.627 12.117 277.029 11.1837C283.43 10.2503 289.369 7.30525 293.987 2.77429C298.604 -1.75667 301.661 -7.63874 302.715 -14.0215C303.769 -20.4042 302.766 -26.9568 299.851 -32.732C296.936 -38.5071 292.26 -43.2055 286.498 -46.1478C280.737 -49.0901 274.189 -50.1239 267.801 -49.0997C261.414 -48.0754 255.517 -45.0463 250.965 -40.4501L243.933 -47.4155Z" fill="#7EF9FF"/>
<path d="M323.528 72.7898C352.702 65.8887 381.947 83.9449 388.848 113.119C395.75 142.294 377.693 171.539 348.519 178.44C319.344 185.341 290.099 167.285 283.198 138.11C276.297 108.936 294.354 79.6908 323.528 72.7898ZM341.487 148.71C354.242 145.693 362.136 132.907 359.119 120.152C356.102 107.396 343.316 99.5021 330.56 102.519C317.805 105.537 309.911 118.323 312.928 131.078C315.945 143.833 328.731 151.727 341.487 148.71Z" fill="#9F66DB"/>
</g>
</svg>
