<svg width="74" height="74" viewBox="0 0 74 74" fill="none" xmlns="http://www.w3.org/2000/svg">
<path d="M36.9998 36.9999C36.0109 36.9999 35.0442 37.2932 34.222 37.8426C33.3997 38.392 32.7589 39.1729 32.3804 40.0865C32.002 41.0001 31.903 42.0055 32.0959 42.9754C32.2888 43.9453 32.765 44.8362 33.4643 45.5355C34.1636 46.2347 35.0545 46.7109 36.0244 46.9038C36.9943 47.0968 37.9996 46.9978 38.9133 46.6193C39.8269 46.2409 40.6078 45.6 41.1572 44.7778C41.7066 43.9555 41.9998 42.9888 41.9998 41.9999C41.9998 40.6738 41.4731 39.4021 40.5354 38.4644C39.5977 37.5267 38.3259 36.9999 36.9998 36.9999ZM36.9998 43.6666C36.6702 43.6666 36.348 43.5688 36.0739 43.3857C35.7998 43.2026 35.5862 42.9423 35.46 42.6377C35.3339 42.3332 35.3009 41.9981 35.3652 41.6748C35.4295 41.3515 35.5882 41.0545 35.8213 40.8214C36.0544 40.5883 36.3514 40.4296 36.6747 40.3653C36.998 40.301 37.3331 40.334 37.6376 40.4601C37.9422 40.5863 38.2025 40.7999 38.3856 41.074C38.5688 41.3481 38.6665 41.6703 38.6665 41.9999C38.6665 42.4419 38.4909 42.8659 38.1783 43.1784C37.8658 43.491 37.4419 43.6666 36.9998 43.6666ZM35.8165 33.1833C35.975 33.335 36.1619 33.4539 36.3665 33.5333C36.566 33.6214 36.7817 33.667 36.9998 33.667C37.218 33.667 37.4337 33.6214 37.6332 33.5333C37.8378 33.4539 38.0247 33.335 38.1832 33.1833L41.9998 29.4333C42.3225 29.1106 42.5038 28.6729 42.5038 28.2166C42.5038 27.7602 42.3225 27.3226 41.9998 26.9999C41.6772 26.6772 41.2395 26.496 40.7832 26.496C40.3268 26.496 39.8892 26.6772 39.5665 26.9999L38.6665 27.9833V21.9999C38.6665 21.5579 38.4909 21.134 38.1783 20.8214C37.8658 20.5088 37.4419 20.3333 36.9998 20.3333C36.5578 20.3333 36.1339 20.5088 35.8213 20.8214C35.5088 21.134 35.3332 21.5579 35.3332 21.9999V27.9833L34.4332 26.9999C34.1105 26.6772 33.6728 26.496 33.2165 26.496C32.7602 26.496 32.3225 26.6772 31.9998 26.9999C31.6772 27.3226 31.4959 27.7602 31.4959 28.2166C31.4959 28.6729 31.6772 29.1106 31.9998 29.4333L35.8165 33.1833ZM48.6665 41.9999C48.6665 41.6703 48.5688 41.3481 48.3856 41.074C48.2025 40.7999 47.9422 40.5863 47.6376 40.4601C47.3331 40.334 46.998 40.301 46.6747 40.3653C46.3514 40.4296 46.0544 40.5883 45.8213 40.8214C45.5882 41.0545 45.4295 41.3515 45.3652 41.6748C45.3009 41.9981 45.3339 42.3332 45.46 42.6377C45.5862 42.9423 45.7998 43.2026 46.0739 43.3857C46.348 43.5688 46.6702 43.6666 46.9998 43.6666C47.4419 43.6666 47.8658 43.491 48.1783 43.1784C48.4909 42.8659 48.6665 42.4419 48.6665 41.9999ZM50.3332 30.3333H45.3332C44.8911 30.3333 44.4672 30.5088 44.1547 30.8214C43.8421 31.134 43.6665 31.5579 43.6665 31.9999C43.6665 32.4419 43.8421 32.8659 44.1547 33.1784C44.4672 33.491 44.8911 33.6666 45.3332 33.6666H50.3332C50.7752 33.6666 51.1991 33.8422 51.5117 34.1547C51.8242 34.4673 51.9998 34.8912 51.9998 35.3333V48.6666C51.9998 49.1086 51.8242 49.5325 51.5117 49.8451C51.1991 50.1577 50.7752 50.3333 50.3332 50.3333H23.6665C23.2245 50.3333 22.8006 50.1577 22.488 49.8451C22.1754 49.5325 21.9998 49.1086 21.9998 48.6666V35.3333C21.9998 34.8912 22.1754 34.4673 22.488 34.1547C22.8006 33.8422 23.2245 33.6666 23.6665 33.6666H28.6665C29.1085 33.6666 29.5325 33.491 29.845 33.1784C30.1576 32.8659 30.3332 32.4419 30.3332 31.9999C30.3332 31.5579 30.1576 31.134 29.845 30.8214C29.5325 30.5088 29.1085 30.3333 28.6665 30.3333H23.6665C22.3404 30.3333 21.0687 30.86 20.131 31.7977C19.1933 32.7354 18.6665 34.0072 18.6665 35.3333V48.6666C18.6665 49.9927 19.1933 51.2644 20.131 52.2021C21.0687 53.1398 22.3404 53.6666 23.6665 53.6666H50.3332C51.6592 53.6666 52.931 53.1398 53.8687 52.2021C54.8064 51.2644 55.3332 49.9927 55.3332 48.6666V35.3333C55.3332 34.0072 54.8064 32.7354 53.8687 31.7977C52.931 30.86 51.6592 30.3333 50.3332 30.3333ZM25.3332 41.9999C25.3332 42.3296 25.4309 42.6518 25.6141 42.9259C25.7972 43.2 26.0575 43.4136 26.362 43.5397C26.6666 43.6659 27.0017 43.6989 27.325 43.6346C27.6483 43.5703 27.9453 43.4115 28.1783 43.1784C28.4114 42.9453 28.5702 42.6484 28.6345 42.3251C28.6988 42.0018 28.6658 41.6667 28.5396 41.3621C28.4135 41.0576 28.1999 40.7973 27.9258 40.6141C27.6517 40.431 27.3295 40.3333 26.9998 40.3333C26.5578 40.3333 26.1339 40.5088 25.8213 40.8214C25.5088 41.134 25.3332 41.5579 25.3332 41.9999Z" fill="#EFEFEF"/>
<circle cx="37" cy="37" r="36" stroke="#EFEFEF" stroke-width="2"/>
</svg>
