<svg width="17" height="17" viewBox="0 0 17 17" fill="none" xmlns="http://www.w3.org/2000/svg">
<path d="M5.42003 7.45297C5.28604 7.45297 5.15505 7.4927 5.04364 7.56715C4.93222 7.64159 4.84538 7.7474 4.79411 7.8712C4.74283 7.995 4.72941 8.13122 4.75555 8.26264C4.78169 8.39406 4.84622 8.51478 4.94097 8.60953C5.03572 8.70428 5.15644 8.76881 5.28786 8.79495C5.41928 8.82109 5.55551 8.80768 5.6793 8.7564C5.8031 8.70512 5.90891 8.61828 5.98335 8.50687C6.0578 8.39545 6.09753 8.26447 6.09753 8.13047C6.09753 7.95078 6.02615 7.77846 5.8991 7.6514C5.77204 7.52435 5.59972 7.45297 5.42003 7.45297V7.45297ZM8.13003 7.45297C7.99604 7.45297 7.86505 7.4927 7.75364 7.56715C7.64222 7.64159 7.55538 7.7474 7.50411 7.8712C7.45283 7.995 7.43941 8.13122 7.46555 8.26264C7.49169 8.39406 7.55622 8.51478 7.65097 8.60953C7.74572 8.70428 7.86644 8.76881 7.99786 8.79495C8.12928 8.82109 8.26551 8.80768 8.3893 8.7564C8.5131 8.70512 8.61891 8.61828 8.69335 8.50687C8.7678 8.39545 8.80753 8.26447 8.80753 8.13047C8.80753 7.95078 8.73615 7.77846 8.6091 7.6514C8.48204 7.52435 8.30972 7.45297 8.13003 7.45297ZM10.84 7.45297C10.706 7.45297 10.575 7.4927 10.4636 7.56715C10.3522 7.64159 10.2654 7.7474 10.2141 7.8712C10.1628 7.995 10.1494 8.13122 10.1756 8.26264C10.2017 8.39406 10.2662 8.51478 10.361 8.60953C10.4557 8.70428 10.5764 8.76881 10.7079 8.79495C10.8393 8.82109 10.9755 8.80768 11.0993 8.7564C11.2231 8.70512 11.3289 8.61828 11.4034 8.50687C11.4778 8.39545 11.5175 8.26447 11.5175 8.13047C11.5175 7.95078 11.4462 7.77846 11.3191 7.6514C11.192 7.52435 11.0197 7.45297 10.84 7.45297ZM8.13003 1.35547C7.24033 1.35547 6.35933 1.53071 5.53735 1.87118C4.71537 2.21166 3.9685 2.7107 3.33939 3.33982C2.06883 4.61038 1.35503 6.33363 1.35503 8.13047C1.34911 9.69491 1.8908 11.2121 2.88618 12.419L1.53118 13.774C1.43718 13.8693 1.37349 13.9903 1.34817 14.1217C1.32285 14.2532 1.33703 14.3891 1.38891 14.5125C1.44518 14.6344 1.5364 14.7369 1.651 14.8068C1.76559 14.8768 1.89839 14.9111 2.03253 14.9055H8.13003C9.92688 14.9055 11.6501 14.1917 12.9207 12.9211C14.1912 11.6506 14.905 9.92731 14.905 8.13047C14.905 6.33363 14.1912 4.61038 12.9207 3.33982C11.6501 2.06926 9.92688 1.35547 8.13003 1.35547V1.35547ZM8.13003 13.5505H3.66531L4.29538 12.9204C4.3594 12.8576 4.41033 12.7828 4.44522 12.7003C4.48011 12.6177 4.49826 12.529 4.49863 12.4394C4.49609 12.2607 4.42303 12.0902 4.29538 11.9651C3.40826 11.079 2.85581 9.91266 2.73218 8.66488C2.60855 7.41709 2.92137 6.16505 3.61736 5.12205C4.31335 4.07904 5.34943 3.30962 6.5491 2.94487C7.74876 2.58011 9.03779 2.64259 10.1966 3.12165C11.3553 3.60072 12.3121 4.46674 12.904 5.57216C13.4959 6.67758 13.6861 7.95401 13.4424 9.18399C13.1987 10.414 12.536 11.5214 11.5674 12.3176C10.5987 13.1138 9.38393 13.5495 8.13003 13.5505V13.5505Z" fill="#ACACAC"/>
</svg>
