<svg width="34" height="34" viewBox="0 0 34 34" fill="none" xmlns="http://www.w3.org/2000/svg">
<path d="M29.2059 27.6407H6.15171V26.9084L12.9323 20.1278L18.0856 25.2811C18.3397 25.5337 18.6834 25.6754 19.0417 25.6754C19.4 25.6754 19.7437 25.5337 19.9978 25.2811L30.1687 15.1101C30.2958 14.9841 30.3967 14.8341 30.4656 14.6688C30.5344 14.5036 30.5698 14.3263 30.5698 14.1473C30.5698 13.9683 30.5344 13.791 30.4656 13.6258C30.3967 13.4605 30.2958 13.3105 30.1687 13.1844C29.9146 12.9319 29.5709 12.7901 29.2126 12.7901C28.8544 12.7901 28.5107 12.9319 28.2566 13.1844L19.0349 22.4061L13.8952 17.2528C13.6411 17.0002 13.2974 16.8585 12.9391 16.8585C12.5809 16.8585 12.2371 17.0002 11.9831 17.2528L6.15171 23.0706V16.0594L12.9323 9.27879L16.7295 13.0759C16.9836 13.3285 17.3273 13.4703 17.6856 13.4703C18.0438 13.4703 18.3875 13.3285 18.6416 13.0759L25.1375 6.5801L28.1074 9.55002C28.3628 9.80358 28.7084 9.94532 29.0683 9.94405C29.4281 9.94278 29.7728 9.7986 30.0263 9.54324C30.2799 9.28787 30.4216 8.94224 30.4203 8.58237C30.4191 8.22251 30.2749 7.87788 30.0195 7.62432L26.0732 3.70511C25.8191 3.45253 25.4754 3.31076 25.1171 3.31076C24.7589 3.31076 24.4152 3.45253 24.1611 3.70511L17.6517 10.2145L13.8681 6.41737C13.614 6.16479 13.2703 6.02301 12.912 6.02301C12.5537 6.02301 12.21 6.16479 11.9559 6.41737L6.15171 12.2216V4.5866C6.15171 4.22693 6.00883 3.88199 5.75451 3.62767C5.50018 3.37335 5.15525 3.23047 4.79558 3.23047C4.43591 3.23047 4.09098 3.37335 3.83665 3.62767C3.58233 3.88199 3.43945 4.22693 3.43945 4.5866V28.9969C3.43945 29.3565 3.58233 29.7015 3.83665 29.9558C4.09098 30.2101 4.43591 30.353 4.79558 30.353H29.2059C29.5655 30.353 29.9105 30.2101 30.1648 29.9558C30.4191 29.7015 30.562 29.3565 30.562 28.9969C30.562 28.6372 30.4191 28.2923 30.1648 28.0379C29.9105 27.7836 29.5655 27.6407 29.2059 27.6407Z" fill="#9F66DB"/>
</svg>
