<svg width="25" height="25" viewBox="0 0 25 25" fill="none" xmlns="http://www.w3.org/2000/svg">
<path d="M7.29167 16.6667C7.70607 16.6667 8.1035 16.5021 8.39652 16.2091C8.68955 15.916 8.85417 15.5186 8.85417 15.1042C8.85925 15.0522 8.85925 14.9999 8.85417 14.948L11.7604 12.0417H12H12.2396L13.9167 13.7188C13.9167 13.7188 13.9167 13.7709 13.9167 13.8021C13.9167 14.2165 14.0813 14.614 14.3743 14.907C14.6673 15.2 15.0648 15.3646 15.4792 15.3646C15.8936 15.3646 16.291 15.2 16.584 14.907C16.877 14.614 17.0417 14.2165 17.0417 13.8021V13.7188L20.8333 9.89587C21.1424 9.89587 21.4445 9.80423 21.7014 9.63255C21.9584 9.46086 22.1586 9.21683 22.2769 8.93132C22.3952 8.64581 22.4261 8.33164 22.3658 8.02855C22.3055 7.72545 22.1567 7.44704 21.9382 7.22852C21.7197 7.01 21.4413 6.86119 21.1382 6.8009C20.8351 6.74061 20.5209 6.77155 20.2354 6.88981C19.9499 7.00807 19.7059 7.20834 19.5342 7.4653C19.3625 7.72225 19.2708 8.02434 19.2708 8.33337C19.2657 8.38533 19.2657 8.43766 19.2708 8.48962L15.5104 12.25H15.3438L13.5417 10.4167C13.5417 10.0023 13.377 9.60488 13.084 9.31185C12.791 9.01883 12.3936 8.85421 11.9792 8.85421C11.5648 8.85421 11.1673 9.01883 10.8743 9.31185C10.5813 9.60488 10.4167 10.0023 10.4167 10.4167L7.29167 13.5417C6.87727 13.5417 6.47984 13.7063 6.18681 13.9994C5.89379 14.2924 5.72917 14.6898 5.72917 15.1042C5.72917 15.5186 5.89379 15.916 6.18681 16.2091C6.47984 16.5021 6.87727 16.6667 7.29167 16.6667ZM21.3542 20.8334H3.64583V3.12504C3.64583 2.84877 3.53609 2.58382 3.34074 2.38847C3.14539 2.19312 2.88043 2.08337 2.60417 2.08337C2.3279 2.08337 2.06295 2.19312 1.8676 2.38847C1.67225 2.58382 1.5625 2.84877 1.5625 3.12504V21.875C1.5625 22.1513 1.67225 22.4163 1.8676 22.6116C2.06295 22.807 2.3279 22.9167 2.60417 22.9167H21.3542C21.6304 22.9167 21.8954 22.807 22.0907 22.6116C22.2861 22.4163 22.3958 22.1513 22.3958 21.875C22.3958 21.5988 22.2861 21.3338 22.0907 21.1385C21.8954 20.9431 21.6304 20.8334 21.3542 20.8334Z" fill="#9F66DB"/>
</svg>
