<svg width="366" height="185" viewBox="0 0 366 185" fill="none" xmlns="http://www.w3.org/2000/svg">
<path d="M0 7C0 3.13401 3.13401 0 7 0H359C362.866 0 366 3.13401 366 7V185H0V7Z" fill="#FFA666"/>
<mask id="mask0_655_6799" style="mask-type:alpha" maskUnits="userSpaceOnUse" x="0" y="0" width="366" height="185">
<path d="M0 185L-7.78063e-06 7.00002C-7.94961e-06 3.13403 3.134 1.51218e-05 6.99999 1.49528e-05L359 -4.33599e-07C362.866 -6.02587e-07 366 3.13401 366 7L366 185L0 185Z" fill="#9F66DB"/>
</mask>
<g mask="url(#mask0_655_6799)">
<path d="M-2.6798 -60.9998C63.7712 -60.9998 117.64 -7.13061 117.64 59.3204C117.64 125.771 63.7712 179.641 -2.67979 179.641C-69.1308 179.641 -123 125.771 -123 59.3204C-123 -7.1306 -69.1308 -60.9998 -2.6798 -60.9998ZM-2.6798 102.54C21.1898 102.54 40.5399 83.19 40.5399 59.3204C40.5399 35.4509 21.1898 16.1008 -2.6798 16.1008C-26.5494 16.1008 -45.8995 35.4509 -45.8995 59.3204C-45.8995 83.19 -26.5494 102.54 -2.6798 102.54Z" fill="#FFC499"/>
<path d="M-12.6572 -60.5854C6.9602 -62.2178 26.6784 -59.012 44.7683 -51.2492C62.8582 -43.4863 78.7671 -31.4036 91.0999 -16.0607L31.0064 32.2431C26.5764 26.7318 20.8618 22.3917 14.3638 19.6032C7.86583 16.8148 0.782938 15.6633 -6.26372 16.2496L-12.6572 -60.5854Z" fill="#FFE1CC"/>
<path d="M-40.6592 164.057C-39.8006 157.123 -36.9052 150.6 -32.3392 145.312C-27.7731 140.024 -21.7415 136.208 -15.007 134.348C-8.27256 132.488 -1.13773 132.667 5.49523 134.862C12.1282 137.056 17.9613 141.169 22.2571 146.679C26.5528 152.189 29.1182 158.849 29.6288 165.817C30.1393 172.785 28.5722 179.748 25.1256 185.825C21.6789 191.902 16.5075 196.821 10.2654 199.959C4.02319 203.098 -3.00939 204.314 -9.94308 203.456L-7.78831 186.055C-4.29619 186.487 -0.754274 185.874 2.38956 184.294C5.53339 182.713 8.13793 180.236 9.87382 177.175C11.6097 174.114 12.399 170.608 12.1418 167.098C11.8847 163.589 10.5926 160.234 8.42912 157.459C6.2656 154.684 3.32776 152.613 -0.0128914 151.508C-3.35354 150.402 -6.94696 150.312 -10.3387 151.249C-13.7305 152.186 -16.7683 154.108 -19.068 156.771C-21.3676 159.434 -22.8259 162.72 -23.2583 166.212L-40.6592 164.057Z" fill="#BF99E7"/>
<path d="M-35.296 149.264C-32.1626 144.401 -27.8828 140.382 -22.8328 137.561C-17.7828 134.739 -12.117 133.201 -6.33337 133.081C-0.549713 132.961 5.17486 134.263 10.3374 136.874C15.4999 139.484 19.9424 143.322 23.2745 148.051L8.94154 158.151C7.26334 155.769 5.02591 153.836 2.42583 152.521C-0.174243 151.207 -3.05739 150.551 -5.9703 150.611C-8.8832 150.671 -11.7367 151.446 -14.2801 152.867C-16.8235 154.288 -18.979 156.312 -20.5572 158.761L-35.296 149.264Z" fill="#DFCCF3"/>
<path d="M370.309 157.038C362.026 157.953 353.666 156.211 346.439 152.062C339.211 147.914 333.49 141.574 330.103 133.96C326.716 126.345 325.838 117.851 327.596 109.705C329.355 101.559 333.658 94.1836 339.885 88.6446C346.111 83.1057 353.938 79.6904 362.233 78.8927C370.529 78.0949 378.863 79.956 386.031 84.2069C393.199 88.4578 398.829 94.8782 402.108 102.54C405.386 110.201 406.143 118.707 404.269 126.827L394.89 124.663C396.305 118.532 395.733 112.111 393.258 106.327C390.783 100.543 386.532 95.6955 381.121 92.4863C375.709 89.277 369.417 87.872 363.155 88.4742C356.892 89.0765 350.983 91.6548 346.283 95.8365C341.582 100.018 338.333 105.586 337.005 111.736C335.678 117.886 336.341 124.299 338.898 130.047C341.455 135.796 345.774 140.582 351.23 143.714C356.687 146.846 362.998 148.161 369.252 147.47L370.309 157.038Z" fill="#FF8833"/>
<path d="M364.426 78.7436C374.252 78.3512 383.867 81.6582 391.372 88.0111C398.878 94.3641 403.728 103.301 404.964 113.056L395.414 114.266C394.481 106.901 390.82 100.154 385.153 95.3582C379.487 90.5621 372.228 88.0655 364.81 88.3616L364.426 78.7436Z" fill="#7EF9FF"/>
<path d="M397.091 103.969C347.966 112.845 300.947 80.2163 292.071 31.0911C283.196 -18.0341 315.824 -65.0532 364.949 -73.929C414.075 -82.8048 461.094 -50.1762 469.969 -1.05096C478.845 48.0742 446.217 95.0933 397.091 103.969ZM373.994 -23.8691C352.516 -19.9885 338.251 0.568546 342.131 22.0464C346.012 43.5243 366.569 57.7898 388.047 53.9092C409.525 50.0287 423.79 29.4716 419.91 7.9937C416.029 -13.4842 395.472 -27.7497 373.994 -23.8691Z" fill="#7EF9FF"/>
<path d="M290.708 18.7327C291.226 31.3497 294.383 43.7179 299.974 55.0403C305.565 66.3628 313.466 76.3881 323.168 84.4702C332.87 92.5523 344.159 98.5118 356.305 101.965C368.451 105.417 381.186 106.287 393.689 104.517L386.559 54.1488C381.093 54.9226 375.525 54.5424 370.215 53.0329C364.904 51.5233 359.969 48.9177 355.727 45.3842C351.485 41.8506 348.031 37.4675 345.586 32.5172C343.142 27.567 341.762 22.1595 341.535 16.6433L290.708 18.7327Z" fill="#BEFCFF"/>
</g>
<path fill-rule="evenodd" clip-rule="evenodd" d="M207.824 75.6172C207.91 75.8749 207.969 76.1411 208 76.4113V76.5877V105.999C208 108.339 207.07 110.583 205.416 112.238C203.761 113.893 201.517 114.822 199.177 114.822H169.766C167.426 114.822 165.181 113.893 163.527 112.238C161.872 110.583 160.942 108.339 160.942 105.999V64.8233C160.942 62.4832 161.872 60.239 163.527 58.5843C165.181 56.9296 167.426 56 169.766 56H187.559C187.901 56.0422 188.231 56.1522 188.53 56.3235C188.618 56.3111 188.707 56.3111 188.795 56.3235C189.097 56.4649 189.375 56.6536 189.618 56.8823L207.265 74.529C207.494 74.7721 207.682 75.0501 207.824 75.3525V75.6172ZM197.971 73.6466L190.353 66.0292V70.7055C190.353 71.4856 190.663 72.2336 191.215 72.7852C191.766 73.3368 192.515 73.6466 193.295 73.6466H197.971ZM201.256 108.078C201.808 107.527 202.118 106.779 202.118 105.999V79.5289H193.295C190.954 79.5289 188.71 78.5993 187.056 76.9446C185.401 75.2899 184.471 73.0456 184.471 70.7055V61.8822H169.766C168.986 61.8822 168.238 62.1921 167.686 62.7436C167.134 63.2952 166.825 64.0433 166.825 64.8233V105.999C166.825 106.779 167.134 107.527 167.686 108.078C168.238 108.63 168.986 108.94 169.766 108.94H199.177C199.957 108.94 200.705 108.63 201.256 108.078Z" fill="white"/>
<rect x="158" y="85.4106" width="29.4111" height="17.6466" rx="2.94111" fill="white"/>
<path d="M164.668 96.502V90.8477C164.668 90.6882 164.723 90.5531 164.834 90.4424C164.948 90.3285 165.086 90.2715 165.249 90.2715H167.158C167.777 90.2715 168.281 90.4456 168.672 90.7939C169.062 91.1423 169.258 91.6517 169.258 92.3223C169.258 92.9896 169.062 93.499 168.672 93.8506C168.285 94.2021 167.78 94.3779 167.158 94.3779H165.825V96.502C165.825 96.6647 165.77 96.8014 165.659 96.9121C165.549 97.0228 165.412 97.0781 165.249 97.0781C165.086 97.0781 164.948 97.0228 164.834 96.9121C164.723 96.7982 164.668 96.6615 164.668 96.502ZM165.825 93.3379H167.065C167.378 93.3379 167.62 93.25 167.793 93.0742C167.969 92.8952 168.057 92.6445 168.057 92.3223C168.057 91.9967 167.969 91.7477 167.793 91.5752C167.617 91.3994 167.375 91.3115 167.065 91.3115H165.825V93.3379ZM170.186 96.4189V90.8477C170.186 90.6882 170.241 90.5531 170.352 90.4424C170.465 90.3285 170.604 90.2715 170.767 90.2715H172.114C172.625 90.2715 173.075 90.3317 173.462 90.4521C173.853 90.5726 174.193 90.7646 174.482 91.0283C174.772 91.2887 174.992 91.6387 175.142 92.0781C175.291 92.5143 175.366 93.0352 175.366 93.6406C175.366 94.2461 175.291 94.7686 175.142 95.208C174.992 95.6442 174.772 95.9925 174.482 96.2529C174.193 96.5101 173.853 96.6989 173.462 96.8193C173.075 96.9398 172.625 97 172.114 97H170.767C170.604 97 170.465 96.943 170.352 96.8291C170.241 96.7152 170.186 96.5785 170.186 96.4189ZM171.343 95.96H172.114C172.446 95.96 172.734 95.9209 172.979 95.8428C173.223 95.7614 173.436 95.6328 173.618 95.457C173.8 95.278 173.937 95.0371 174.028 94.7344C174.119 94.4316 174.165 94.0671 174.165 93.6406C174.165 92.8073 173.991 92.2116 173.643 91.8535C173.298 91.4922 172.788 91.3115 172.114 91.3115H171.343V95.96ZM176.299 96.502V90.8477C176.299 90.6882 176.354 90.5531 176.465 90.4424C176.579 90.3285 176.717 90.2715 176.88 90.2715H180C180.143 90.2715 180.265 90.3219 180.366 90.4229C180.467 90.5238 180.518 90.6458 180.518 90.7891C180.518 90.9323 180.467 91.056 180.366 91.1602C180.265 91.2611 180.143 91.3115 180 91.3115H177.456V93.1621H179.351C179.491 93.1621 179.609 93.2126 179.707 93.3135C179.808 93.4111 179.858 93.5299 179.858 93.6699C179.858 93.8099 179.808 93.9303 179.707 94.0312C179.609 94.1289 179.491 94.1777 179.351 94.1777H177.456V96.502C177.456 96.6647 177.401 96.8014 177.29 96.9121C177.179 97.0228 177.043 97.0781 176.88 97.0781C176.717 97.0781 176.579 97.0228 176.465 96.9121C176.354 96.7982 176.299 96.6615 176.299 96.502Z" fill="#FFA666"/>
</svg>
