<svg width="1440" height="279" viewBox="0 0 1440 279" fill="none" xmlns="http://www.w3.org/2000/svg">
<rect width="1440" height="279" rx="5.46875" fill="#FFA666"/>
<mask id="mask0_1918_23990" style="mask-type:alpha" maskUnits="userSpaceOnUse" x="0" y="0" width="1440" height="279">
<rect width="1440" height="279" fill="#9F66DB"/>
</mask>
<g mask="url(#mask0_1918_23990)">
<path d="M251.12 124.38C237.379 147.918 207.158 155.861 183.62 142.12C160.082 128.379 152.139 98.1584 165.88 74.62C179.621 51.0816 209.841 43.1391 233.38 56.8799C256.918 70.6207 264.861 100.841 251.12 124.38ZM192.407 90.1056C187.219 98.9934 190.218 110.404 199.106 115.593C207.993 120.781 219.404 117.782 224.593 108.894C229.781 100.006 226.782 88.5955 217.894 83.4072C209.006 78.2188 197.595 81.2178 192.407 90.1056Z" fill="#FFA666"/>
<path d="M251.12 124.38C237.379 147.918 207.158 155.861 183.62 142.12C160.082 128.379 152.139 98.1584 165.88 74.62C179.621 51.0816 209.841 43.1391 233.38 56.8799C256.918 70.6207 264.861 100.841 251.12 124.38ZM173.678 79.1725C162.452 98.4039 168.941 123.095 188.173 134.321C207.404 145.548 232.095 139.059 243.321 119.827C254.548 100.596 248.059 75.905 228.827 64.6785C209.596 53.4519 184.905 59.9412 173.678 79.1725Z" fill="#FFC499"/>
<path d="M280.56 445.966C209.615 567.497 53.5821 608.505 -67.949 537.56C-189.48 466.615 -230.488 310.583 -159.543 189.051C-88.5982 67.5204 67.4345 26.5123 188.966 97.4573C310.497 168.402 351.505 324.435 280.56 445.966ZM-22.5803 269.005C-49.3682 314.894 -33.8841 373.809 12.0045 400.597C57.893 427.385 116.809 411.901 143.597 366.013C170.385 320.124 154.901 261.208 109.012 234.42C63.1235 207.632 4.20761 223.116 -22.5803 269.005Z" fill="#BF99E7"/>
<path d="M1508.65 159.35C1468.14 228.744 1379.05 252.16 1309.65 211.65C1240.26 171.14 1216.84 82.0451 1257.35 12.6503C1297.86 -56.7444 1386.95 -80.1602 1456.35 -39.6504C1525.74 0.859539 1549.16 89.9549 1508.65 159.35ZM1335.56 58.3041C1320.26 84.5067 1329.1 118.148 1355.3 133.444C1381.51 148.74 1415.15 139.898 1430.44 113.696C1445.74 87.4933 1436.9 53.8521 1410.7 38.5561C1384.49 23.26 1350.85 32.1016 1335.56 58.3041Z" fill="#BF99E7"/>
<path d="M280.56 445.966C209.615 567.497 53.5821 608.505 -67.949 537.56C-189.48 466.615 -230.488 310.583 -159.543 189.051C-88.5982 67.5204 67.4345 26.5123 188.966 97.4573C310.497 168.402 351.505 324.435 280.56 445.966ZM-119.278 212.556C-177.242 311.85 -143.737 439.332 -44.444 497.295C54.8494 555.259 182.331 521.754 240.295 422.461C298.259 323.168 264.754 195.686 165.461 137.722C66.1671 79.7585 -61.3149 113.263 -119.278 212.556Z" fill="#DFCCF3"/>
<path d="M1508.65 159.35C1468.14 228.744 1379.05 252.16 1309.65 211.65C1240.26 171.14 1216.84 82.0451 1257.35 12.6503C1297.86 -56.7444 1386.95 -80.1602 1456.35 -39.6504C1525.74 0.859539 1549.16 89.9549 1508.65 159.35ZM1280.34 26.0718C1247.24 82.7687 1266.37 155.562 1323.07 188.659C1379.77 221.756 1452.56 202.625 1485.66 145.928C1518.76 89.2312 1499.63 16.4385 1442.93 -16.659C1386.23 -49.7564 1313.44 -30.6252 1280.34 26.0718Z" fill="#DFCCF3"/>
<path d="M1191.45 260.16C1221.89 327.626 1191.88 407 1124.41 437.446C1056.95 467.893 977.574 437.882 947.128 370.415C916.681 302.948 946.692 223.574 1014.16 193.128C1081.63 162.682 1161 192.693 1191.45 260.16ZM968.632 360.71C993.719 416.3 1059.12 441.028 1114.71 415.942C1170.3 390.855 1195.03 325.454 1169.94 269.864C1144.85 214.275 1079.45 189.547 1023.86 214.633C968.274 239.72 943.546 305.12 968.632 360.71Z" fill="#62DEE5"/>
<path d="M589.446 -100.84C619.892 -33.3736 589.881 46.0003 522.414 76.4464C454.948 106.893 375.574 76.8815 345.128 9.41493C314.681 -58.0517 344.692 -137.426 412.159 -167.872C479.626 -198.318 559 -168.307 589.446 -100.84ZM366.632 -0.289701C391.719 55.3001 457.12 80.028 512.71 54.9416C568.299 29.8552 593.027 -35.5458 567.941 -91.1356C542.854 -146.725 477.454 -171.453 421.864 -146.367C366.274 -121.28 341.546 -55.8795 366.632 -0.289701Z" fill="#62DEE5"/>
<path d="M1424 -18C1424 69.261 1353.26 140 1266 140C1178.74 140 1108 69.261 1108 -18C1108 -105.261 1178.74 -176 1266 -176C1353.26 -176 1424 -105.261 1424 -18ZM1146.63 -18C1146.63 47.9272 1200.07 101.372 1266 101.372C1331.93 101.372 1385.37 47.9272 1385.37 -18C1385.37 -83.9272 1331.93 -137.372 1266 -137.372C1200.07 -137.372 1146.63 -83.9272 1146.63 -18Z" fill="#FFC499"/>
</g>
<path d="M718.5 95.5C717.387 95.5 716.3 95.8299 715.375 96.448C714.45 97.0661 713.729 97.9446 713.303 98.9724C712.877 100 712.766 101.131 712.983 102.222C713.2 103.314 713.736 104.316 714.523 105.102C715.309 105.889 716.311 106.425 717.403 106.642C718.494 106.859 719.625 106.748 720.653 106.322C721.68 105.896 722.559 105.175 723.177 104.25C723.795 103.325 724.125 102.238 724.125 101.125C724.125 99.6332 723.532 98.2024 722.477 97.1475C721.423 96.0926 719.992 95.5 718.5 95.5ZM718.5 103C718.129 103 717.767 102.89 717.458 102.684C717.15 102.478 716.91 102.185 716.768 101.843C716.626 101.5 716.589 101.123 716.661 100.759C716.733 100.395 716.912 100.061 717.174 99.7992C717.436 99.537 717.77 99.3584 718.134 99.286C718.498 99.2137 718.875 99.2508 719.218 99.3927C719.56 99.5346 719.853 99.775 720.059 100.083C720.265 100.392 720.375 100.754 720.375 101.125C720.375 101.622 720.177 102.099 719.826 102.451C719.474 102.802 718.997 103 718.5 103ZM717.169 91.2063C717.347 91.377 717.557 91.5108 717.787 91.6C718.012 91.6992 718.255 91.7504 718.5 91.7504C718.745 91.7504 718.988 91.6992 719.213 91.6C719.443 91.5108 719.653 91.377 719.831 91.2063L724.125 86.9875C724.488 86.6245 724.692 86.1321 724.692 85.6188C724.692 85.1054 724.488 84.613 724.125 84.25C723.762 83.887 723.27 83.683 722.756 83.683C722.243 83.683 721.751 83.887 721.387 84.25L720.375 85.3563V78.625C720.375 78.1277 720.177 77.6508 719.826 77.2992C719.474 76.9475 718.997 76.75 718.5 76.75C718.003 76.75 717.526 76.9475 717.174 77.2992C716.823 77.6508 716.625 78.1277 716.625 78.625V85.3563L715.613 84.25C715.249 83.887 714.757 83.683 714.244 83.683C713.73 83.683 713.238 83.887 712.875 84.25C712.512 84.613 712.308 85.1054 712.308 85.6188C712.308 86.1321 712.512 86.6245 712.875 86.9875L717.169 91.2063ZM731.625 101.125C731.625 100.754 731.515 100.392 731.309 100.083C731.103 99.775 730.81 99.5346 730.468 99.3927C730.125 99.2508 729.748 99.2137 729.384 99.286C729.02 99.3584 728.686 99.537 728.424 99.7992C728.162 100.061 727.983 100.395 727.911 100.759C727.839 101.123 727.876 101.5 728.018 101.843C728.16 102.185 728.4 102.478 728.708 102.684C729.017 102.89 729.379 103 729.75 103C730.247 103 730.724 102.802 731.076 102.451C731.427 102.099 731.625 101.622 731.625 101.125ZM733.5 88H727.875C727.378 88 726.901 88.1975 726.549 88.5492C726.198 88.9008 726 89.3777 726 89.875C726 90.3723 726.198 90.8492 726.549 91.2008C726.901 91.5525 727.378 91.75 727.875 91.75H733.5C733.997 91.75 734.474 91.9475 734.826 92.2992C735.177 92.6508 735.375 93.1277 735.375 93.625V108.625C735.375 109.122 735.177 109.599 734.826 109.951C734.474 110.302 733.997 110.5 733.5 110.5H703.5C703.003 110.5 702.526 110.302 702.174 109.951C701.823 109.599 701.625 109.122 701.625 108.625V93.625C701.625 93.1277 701.823 92.6508 702.174 92.2992C702.526 91.9475 703.003 91.75 703.5 91.75H709.125C709.622 91.75 710.099 91.5525 710.451 91.2008C710.802 90.8492 711 90.3723 711 89.875C711 89.3777 710.802 88.9008 710.451 88.5492C710.099 88.1975 709.622 88 709.125 88H703.5C702.008 88 700.577 88.5926 699.523 89.6475C698.468 90.7024 697.875 92.1332 697.875 93.625V108.625C697.875 110.117 698.468 111.548 699.523 112.602C700.577 113.657 702.008 114.25 703.5 114.25H733.5C734.992 114.25 736.423 113.657 737.477 112.602C738.532 111.548 739.125 110.117 739.125 108.625V93.625C739.125 92.1332 738.532 90.7024 737.477 89.6475C736.423 88.5926 734.992 88 733.5 88ZM705.375 101.125C705.375 101.496 705.485 101.858 705.691 102.167C705.897 102.475 706.19 102.715 706.532 102.857C706.875 102.999 707.252 103.036 707.616 102.964C707.98 102.892 708.314 102.713 708.576 102.451C708.838 102.189 709.017 101.855 709.089 101.491C709.161 101.127 709.124 100.75 708.982 100.407C708.84 100.065 708.6 99.772 708.292 99.566C707.983 99.36 707.621 99.25 707.25 99.25C706.753 99.25 706.276 99.4475 705.924 99.7992C705.573 100.151 705.375 100.628 705.375 101.125Z" fill="#EFEFEF"/>
<circle cx="718.5" cy="95.5" r="46.5" stroke="#EFEFEF" stroke-width="2"/>
<path d="M431.971 181.628C433.525 181.628 434.919 181.877 436.151 182.376C437.412 182.875 438.409 183.535 439.143 184.356C439.905 185.177 440.492 185.94 440.903 186.644C441.343 187.319 441.68 188.023 441.915 188.756L435.667 191.616C435.403 191.029 435.139 190.56 434.875 190.208C434.64 189.827 434.244 189.46 433.687 189.108C433.159 188.756 432.528 188.58 431.795 188.58C431.061 188.58 430.475 188.785 430.035 189.196C429.595 189.577 429.375 190.061 429.375 190.648C429.375 191.411 429.815 192.1 430.695 192.716C431.575 193.303 432.645 193.875 433.907 194.432C435.168 194.96 436.429 195.576 437.691 196.28C438.952 196.984 440.023 197.981 440.903 199.272C441.783 200.563 442.223 202.073 442.223 203.804C442.223 206.708 441.255 209.069 439.319 210.888C437.383 212.677 434.757 213.572 431.443 213.572C429.829 213.572 428.363 213.308 427.043 212.78C425.723 212.252 424.667 211.577 423.875 210.756C423.083 209.905 422.452 209.113 421.983 208.38C421.543 207.647 421.205 206.928 420.971 206.224L427.263 203.1C427.703 204.068 428.333 204.889 429.155 205.564C429.976 206.209 430.885 206.532 431.883 206.532C433.701 206.532 434.611 205.813 434.611 204.376C434.611 203.76 434.288 203.188 433.643 202.66C433.027 202.103 432.249 201.633 431.311 201.252C430.372 200.841 429.345 200.343 428.231 199.756C427.116 199.14 426.089 198.48 425.151 197.776C424.212 197.072 423.42 196.119 422.775 194.916C422.159 193.713 421.851 192.335 421.851 190.78C421.851 188.023 422.775 185.808 424.623 184.136C426.471 182.464 428.92 181.628 431.971 181.628ZM447.956 210.184C445.609 207.896 444.436 205.007 444.436 201.516C444.436 198.025 445.624 195.121 448 192.804C450.405 190.487 453.397 189.328 456.976 189.328C460.672 189.328 463.708 190.472 466.084 192.76C468.46 195.019 469.648 197.908 469.648 201.428C469.648 204.919 468.445 207.823 466.04 210.14C463.634 212.428 460.613 213.572 456.976 213.572C453.309 213.572 450.302 212.443 447.956 210.184ZM451.784 201.516C451.784 203.188 452.268 204.537 453.236 205.564C454.233 206.591 455.48 207.104 456.976 207.104C458.501 207.104 459.762 206.576 460.76 205.52C461.786 204.435 462.3 203.071 462.3 201.428C462.3 199.756 461.786 198.407 460.76 197.38C459.762 196.324 458.501 195.796 456.976 195.796C455.45 195.796 454.204 196.324 453.236 197.38C452.268 198.436 451.784 199.815 451.784 201.516ZM472.694 213V181.188H480.042V213H472.694ZM491.601 189.9V213H484.253V189.9H491.601ZM490.809 187.392C490.017 188.125 489.034 188.492 487.861 188.492C486.687 188.492 485.705 188.125 484.913 187.392C484.15 186.629 483.769 185.676 483.769 184.532C483.769 183.359 484.15 182.405 484.913 181.672C485.705 180.909 486.687 180.528 487.861 180.528C489.034 180.528 490.017 180.909 490.809 181.672C491.601 182.435 491.997 183.388 491.997 184.532C491.997 185.676 491.601 186.629 490.809 187.392ZM507.647 207.104C509.231 207.104 510.683 206.561 512.003 205.476L513.939 211.504C511.915 212.883 509.657 213.572 507.163 213.572C503.497 213.572 500.49 212.443 498.143 210.184C495.797 207.925 494.623 205.021 494.623 201.472C494.623 197.952 495.811 195.048 498.187 192.76C500.563 190.472 503.541 189.328 507.119 189.328C509.701 189.328 511.989 190.032 513.983 191.44L512.003 197.644C510.625 196.5 509.085 195.928 507.383 195.928C505.711 195.928 504.391 196.456 503.423 197.512C502.455 198.539 501.971 199.844 501.971 201.428C501.971 203.129 502.485 204.508 503.511 205.564C504.567 206.591 505.946 207.104 507.647 207.104ZM524.214 189.9V213H516.866V189.9H524.214ZM523.422 187.392C522.63 188.125 521.647 188.492 520.474 188.492C519.301 188.492 518.318 188.125 517.526 187.392C516.763 186.629 516.382 185.676 516.382 184.532C516.382 183.359 516.763 182.405 517.526 181.672C518.318 180.909 519.301 180.528 520.474 180.528C521.647 180.528 522.63 180.909 523.422 181.672C524.214 182.435 524.61 183.388 524.61 184.532C524.61 185.676 524.214 186.629 523.422 187.392ZM536.389 185.016V189.9H540.305V195.84H536.389V204.332C536.389 206.004 537.342 206.84 539.248 206.84C539.747 206.84 540.158 206.825 540.481 206.796V213.088C539.835 213.264 538.897 213.352 537.665 213.352C534.819 213.352 532.663 212.619 531.197 211.152C529.759 209.685 529.041 207.295 529.041 203.98V195.84H526.797V189.9H529.041V185.016H536.389ZM551.065 189.9V203.672C551.065 204.728 551.344 205.549 551.901 206.136C552.459 206.693 553.192 206.972 554.101 206.972C555.099 206.972 555.876 206.664 556.433 206.048C556.991 205.432 557.269 204.64 557.269 203.672V189.9H564.617V213H557.445V210.624C556.947 211.416 556.184 212.105 555.157 212.692C554.131 213.279 552.957 213.572 551.637 213.572C550.259 213.572 549.056 213.337 548.029 212.868C547.032 212.399 546.255 211.827 545.697 211.152C545.169 210.448 544.744 209.583 544.421 208.556C544.128 207.5 543.937 206.547 543.849 205.696C543.761 204.816 543.717 203.819 543.717 202.704V189.9H551.065ZM584.834 201.516C584.834 199.727 584.38 198.333 583.47 197.336C582.561 196.309 581.358 195.796 579.862 195.796C578.366 195.796 577.164 196.324 576.254 197.38C575.345 198.436 574.89 199.815 574.89 201.516C574.89 203.217 575.345 204.581 576.254 205.608C577.164 206.635 578.366 207.148 579.862 207.148C581.388 207.148 582.59 206.62 583.47 205.564C584.38 204.479 584.834 203.129 584.834 201.516ZM585.098 213V211.196C584.629 211.724 583.837 212.252 582.722 212.78C581.637 213.308 580.346 213.572 578.85 213.572C575.536 213.572 572.822 212.443 570.71 210.184C568.598 207.925 567.542 205.021 567.542 201.472C567.542 197.864 568.525 194.945 570.49 192.716C572.485 190.457 575.14 189.328 578.454 189.328C579.98 189.328 581.285 189.592 582.37 190.12C583.456 190.648 584.204 191.161 584.614 191.66V181.188H591.962V213H585.098ZM620.971 201.516C620.971 199.727 620.516 198.333 619.607 197.336C618.698 196.309 617.495 195.796 615.999 195.796C614.503 195.796 613.3 196.324 612.391 197.38C611.482 198.436 611.027 199.815 611.027 201.516C611.027 203.217 611.482 204.581 612.391 205.608C613.3 206.635 614.503 207.148 615.999 207.148C617.524 207.148 618.727 206.62 619.607 205.564C620.516 204.479 620.971 203.129 620.971 201.516ZM621.235 213V211.196C620.766 211.724 619.974 212.252 618.859 212.78C617.774 213.308 616.483 213.572 614.987 213.572C611.672 213.572 608.959 212.443 606.847 210.184C604.735 207.925 603.679 205.021 603.679 201.472C603.679 197.864 604.662 194.945 606.627 192.716C608.622 190.457 611.276 189.328 614.591 189.328C616.116 189.328 617.422 189.592 618.507 190.12C619.592 190.648 620.34 191.161 620.751 191.66V181.188H628.099V213H621.235ZM653.839 203.364H638.703C638.791 204.42 639.29 205.329 640.199 206.092C641.138 206.825 642.267 207.192 643.587 207.192C644.79 207.192 645.802 206.928 646.623 206.4C647.474 205.843 648.075 205.285 648.427 204.728L653.267 208.468C652.739 209.553 651.624 210.683 649.923 211.856C648.222 213 646.066 213.572 643.455 213.572C639.73 213.572 636.752 212.443 634.523 210.184C632.294 207.896 631.179 205.007 631.179 201.516C631.179 198.055 632.235 195.165 634.347 192.848C636.459 190.501 639.187 189.328 642.531 189.328C646.168 189.328 648.97 190.443 650.935 192.672C652.9 194.872 653.883 197.952 653.883 201.912C653.883 202.528 653.868 203.012 653.839 203.364ZM645.303 196.28C644.658 195.605 643.778 195.268 642.663 195.268C641.548 195.268 640.668 195.62 640.023 196.324C639.378 196.999 639.011 197.791 638.923 198.7H646.403C646.344 197.732 645.978 196.925 645.303 196.28ZM677.288 207.104C678.872 207.104 680.324 206.561 681.644 205.476L683.58 211.504C681.556 212.883 679.297 213.572 676.804 213.572C673.137 213.572 670.131 212.443 667.784 210.184C665.437 207.925 664.264 205.021 664.264 201.472C664.264 197.952 665.452 195.048 667.828 192.76C670.204 190.472 673.181 189.328 676.76 189.328C679.341 189.328 681.629 190.032 683.624 191.44L681.644 197.644C680.265 196.5 678.725 195.928 677.024 195.928C675.352 195.928 674.032 196.456 673.064 197.512C672.096 198.539 671.612 199.844 671.612 201.428C671.612 203.129 672.125 204.508 673.152 205.564C674.208 206.591 675.587 207.104 677.288 207.104ZM699.795 189.328V196.808C699.384 196.749 698.988 196.72 698.607 196.72C695.439 196.72 693.855 198.744 693.855 202.792V213H686.507V189.9H693.679V192.98C694.881 190.545 696.92 189.328 699.795 189.328ZM724.265 203.364H709.129C709.217 204.42 709.715 205.329 710.625 206.092C711.563 206.825 712.693 207.192 714.013 207.192C715.215 207.192 716.227 206.928 717.049 206.4C717.899 205.843 718.501 205.285 718.853 204.728L723.693 208.468C723.165 209.553 722.05 210.683 720.349 211.856C718.647 213 716.491 213.572 713.881 213.572C710.155 213.572 707.178 212.443 704.949 210.184C702.719 207.896 701.605 205.007 701.605 201.516C701.605 198.055 702.661 195.165 704.773 192.848C706.885 190.501 709.613 189.328 712.957 189.328C716.594 189.328 719.395 190.443 721.361 192.672C723.326 194.872 724.309 197.952 724.309 201.912C724.309 202.528 724.294 203.012 724.265 203.364ZM715.729 196.28C715.083 195.605 714.203 195.268 713.089 195.268C711.974 195.268 711.094 195.62 710.449 196.324C709.803 196.999 709.437 197.791 709.349 198.7H716.829C716.77 197.732 716.403 196.925 715.729 196.28ZM712.297 181.1H719.909L715.509 187.48H709.393L712.297 181.1ZM743.389 201.516C743.389 199.727 742.934 198.333 742.025 197.336C741.116 196.309 739.913 195.796 738.417 195.796C736.921 195.796 735.718 196.324 734.809 197.38C733.9 198.436 733.445 199.815 733.445 201.516C733.445 203.217 733.9 204.581 734.809 205.608C735.718 206.635 736.921 207.148 738.417 207.148C739.942 207.148 741.145 206.62 742.025 205.564C742.934 204.479 743.389 203.129 743.389 201.516ZM743.653 213V211.196C743.184 211.724 742.392 212.252 741.277 212.78C740.192 213.308 738.901 213.572 737.405 213.572C734.09 213.572 731.377 212.443 729.265 210.184C727.153 207.925 726.097 205.021 726.097 201.472C726.097 197.864 727.08 194.945 729.045 192.716C731.04 190.457 733.694 189.328 737.009 189.328C738.534 189.328 739.84 189.592 740.925 190.12C742.01 190.648 742.758 191.161 743.169 191.66V181.188H750.517V213H743.653ZM762.089 189.9V213H754.741V189.9H762.089ZM761.297 187.392C760.505 188.125 759.522 188.492 758.349 188.492C757.176 188.492 756.193 188.125 755.401 187.392C754.638 186.629 754.257 185.676 754.257 184.532C754.257 183.359 754.638 182.405 755.401 181.672C756.193 180.909 757.176 180.528 758.349 180.528C759.522 180.528 760.505 180.909 761.297 181.672C762.089 182.435 762.485 183.388 762.485 184.532C762.485 185.676 762.089 186.629 761.297 187.392ZM774.264 185.016V189.9H778.18V195.84H774.264V204.332C774.264 206.004 775.217 206.84 777.123 206.84C777.622 206.84 778.033 206.825 778.356 206.796V213.088C777.71 213.264 776.772 213.352 775.54 213.352C772.694 213.352 770.538 212.619 769.072 211.152C767.634 209.685 766.916 207.295 766.916 203.98V195.84H764.672V189.9H766.916V185.016H774.264ZM784.1 210.184C781.754 207.896 780.58 205.007 780.58 201.516C780.58 198.025 781.768 195.121 784.144 192.804C786.55 190.487 789.542 189.328 793.12 189.328C796.816 189.328 799.852 190.472 802.228 192.76C804.604 195.019 805.792 197.908 805.792 201.428C805.792 204.919 804.59 207.823 802.184 210.14C799.779 212.428 796.758 213.572 793.12 213.572C789.454 213.572 786.447 212.443 784.1 210.184ZM787.928 201.516C787.928 203.188 788.412 204.537 789.38 205.564C790.378 206.591 791.624 207.104 793.12 207.104C794.646 207.104 795.907 206.576 796.904 205.52C797.931 204.435 798.444 203.071 798.444 201.428C798.444 199.756 797.931 198.407 796.904 197.38C795.907 196.324 794.646 195.796 793.12 195.796C791.595 195.796 790.348 196.324 789.38 197.38C788.412 198.436 787.928 199.815 787.928 201.516ZM824.823 189.9V213H817.475V189.9H824.823ZM824.031 187.392C823.239 188.125 822.257 188.492 821.083 188.492C819.91 188.492 818.927 188.125 818.135 187.392C817.373 186.629 816.991 185.676 816.991 184.532C816.991 183.359 817.373 182.405 818.135 181.672C818.927 180.909 819.91 180.528 821.083 180.528C822.257 180.528 823.239 180.909 824.031 181.672C824.823 182.435 825.219 183.388 825.219 184.532C825.219 185.676 824.823 186.629 824.031 187.392ZM842.586 213V199.228C842.586 198.172 842.307 197.365 841.75 196.808C841.193 196.221 840.459 195.928 839.55 195.928C838.553 195.928 837.775 196.236 837.218 196.852C836.661 197.468 836.382 198.26 836.382 199.228V213H829.034V189.9H836.206V192.276C836.705 191.484 837.467 190.795 838.494 190.208C839.521 189.621 840.694 189.328 842.014 189.328C843.393 189.328 844.581 189.563 845.578 190.032C846.605 190.501 847.382 191.088 847.91 191.792C848.467 192.467 848.893 193.332 849.186 194.388C849.509 195.415 849.714 196.368 849.802 197.248C849.89 198.099 849.934 199.081 849.934 200.196V213H842.586ZM874.283 199.228V213H866.935V199.228C866.935 198.201 866.685 197.395 866.187 196.808C865.717 196.221 865.043 195.928 864.163 195.928C863.283 195.928 862.593 196.221 862.095 196.808C861.596 197.365 861.347 198.172 861.347 199.228V213H853.999V189.9H861.171V192.276C862.285 190.311 864.192 189.328 866.891 189.328C869.56 189.328 871.555 190.34 872.875 192.364C874.459 190.34 876.644 189.328 879.431 189.328C882.012 189.328 883.963 190.076 885.283 191.572C886.603 193.068 887.263 195.092 887.263 197.644V213H879.915V199.228C879.915 198.201 879.665 197.395 879.167 196.808C878.668 196.221 877.979 195.928 877.099 195.928C876.248 195.928 875.559 196.236 875.031 196.852C874.532 197.439 874.283 198.231 874.283 199.228ZM912.812 203.364H897.676C897.764 204.42 898.262 205.329 899.172 206.092C900.11 206.825 901.24 207.192 902.56 207.192C903.762 207.192 904.774 206.928 905.596 206.4C906.446 205.843 907.048 205.285 907.4 204.728L912.24 208.468C911.712 209.553 910.597 210.683 908.896 211.856C907.194 213 905.038 213.572 902.428 213.572C898.702 213.572 895.725 212.443 893.496 210.184C891.266 207.896 890.152 205.007 890.152 201.516C890.152 198.055 891.208 195.165 893.32 192.848C895.432 190.501 898.16 189.328 901.504 189.328C905.141 189.328 907.942 190.443 909.908 192.672C911.873 194.872 912.856 197.952 912.856 201.912C912.856 202.528 912.841 203.012 912.812 203.364ZM904.276 196.28C903.63 195.605 902.75 195.268 901.636 195.268C900.521 195.268 899.641 195.62 898.996 196.324C898.35 196.999 897.984 197.791 897.896 198.7H905.376C905.317 197.732 904.95 196.925 904.276 196.28ZM931.936 201.516C931.936 199.727 931.481 198.333 930.572 197.336C929.662 196.309 928.46 195.796 926.964 195.796C925.468 195.796 924.265 196.324 923.356 197.38C922.446 198.436 921.992 199.815 921.992 201.516C921.992 203.217 922.446 204.581 923.356 205.608C924.265 206.635 925.468 207.148 926.964 207.148C928.489 207.148 929.692 206.62 930.572 205.564C931.481 204.479 931.936 203.129 931.936 201.516ZM932.2 213V211.196C931.73 211.724 930.938 212.252 929.824 212.78C928.738 213.308 927.448 213.572 925.952 213.572C922.637 213.572 919.924 212.443 917.812 210.184C915.7 207.925 914.644 205.021 914.644 201.472C914.644 197.864 915.626 194.945 917.592 192.716C919.586 190.457 922.241 189.328 925.556 189.328C927.081 189.328 928.386 189.592 929.472 190.12C930.557 190.648 931.305 191.161 931.716 191.66V181.188H939.064V213H932.2ZM950.636 189.9V213H943.288V189.9H950.636ZM949.844 187.392C949.052 188.125 948.069 188.492 946.896 188.492C945.722 188.492 944.74 188.125 943.948 187.392C943.185 186.629 942.804 185.676 942.804 184.532C942.804 183.359 943.185 182.405 943.948 181.672C944.74 180.909 945.722 180.528 946.896 180.528C948.069 180.528 949.052 180.909 949.844 181.672C950.636 182.435 951.032 183.388 951.032 184.532C951.032 185.676 950.636 186.629 949.844 187.392ZM953.614 205.828C953.614 203.511 954.421 201.663 956.034 200.284C957.677 198.876 959.862 198.172 962.59 198.172C964.233 198.172 965.714 198.451 967.034 199.008V198.172C967.034 197.439 966.726 196.837 966.11 196.368C965.524 195.899 964.658 195.664 963.514 195.664C961.637 195.664 959.701 196.148 957.706 197.116L954.978 192.188C957.853 190.281 960.992 189.328 964.394 189.328C968.12 189.328 970.716 190.164 972.182 191.836C973.649 193.479 974.382 195.767 974.382 198.7V213H967.826L967.43 211.724C966.198 212.956 964.453 213.572 962.194 213.572C959.789 213.572 957.75 212.883 956.078 211.504C954.436 210.125 953.614 208.233 953.614 205.828ZM961.842 203.804C961.256 204.244 960.962 204.831 960.962 205.564C960.962 206.297 961.256 206.884 961.842 207.324C962.429 207.735 963.177 207.94 964.086 207.94C964.996 207.94 965.729 207.735 966.286 207.324C966.873 206.913 967.166 206.327 967.166 205.564C967.166 204.801 966.873 204.2 966.286 203.76C965.7 203.32 964.952 203.1 964.042 203.1C963.162 203.1 962.429 203.335 961.842 203.804ZM986.314 185.016V189.9H990.23V195.84H986.314V204.332C986.314 206.004 987.268 206.84 989.174 206.84C989.673 206.84 990.084 206.825 990.406 206.796V213.088C989.761 213.264 988.822 213.352 987.59 213.352C984.745 213.352 982.589 212.619 981.122 211.152C979.685 209.685 978.966 207.295 978.966 203.98V195.84H976.722V189.9H978.966V185.016H986.314ZM996.151 210.184C993.804 207.896 992.631 205.007 992.631 201.516C992.631 198.025 993.819 195.121 996.195 192.804C998.6 190.487 1001.59 189.328 1005.17 189.328C1008.87 189.328 1011.9 190.472 1014.28 192.76C1016.66 195.019 1017.84 197.908 1017.84 201.428C1017.84 204.919 1016.64 207.823 1014.24 210.14C1011.83 212.428 1008.81 213.572 1005.17 213.572C1001.5 213.572 998.498 212.443 996.151 210.184ZM999.979 201.516C999.979 203.188 1000.46 204.537 1001.43 205.564C1002.43 206.591 1003.68 207.104 1005.17 207.104C1006.7 207.104 1007.96 206.576 1008.96 205.52C1009.98 204.435 1010.5 203.071 1010.5 201.428C1010.5 199.756 1009.98 198.407 1008.96 197.38C1007.96 196.324 1006.7 195.796 1005.17 195.796C1003.65 195.796 1002.4 196.324 1001.43 197.38C1000.46 198.436 999.979 199.815 999.979 201.516Z" fill="#EFEFEF"/>
</svg>
