<svg width="22" height="20" viewBox="0 0 22 20" fill="none" xmlns="http://www.w3.org/2000/svg">
<path d="M11 10C10.4067 10 9.82664 10.1759 9.33329 10.5056C8.83994 10.8352 8.45542 11.3038 8.22836 11.8519C8.0013 12.4001 7.94189 13.0033 8.05764 13.5853C8.1734 14.1672 8.45912 14.7018 8.87868 15.1213C9.29824 15.5409 9.83279 15.8266 10.4147 15.9424C10.9967 16.0581 11.5999 15.9987 12.1481 15.7716C12.6962 15.5446 13.1648 15.1601 13.4944 14.6667C13.8241 14.1734 14 13.5933 14 13C14 12.2044 13.6839 11.4413 13.1213 10.8787C12.5587 10.3161 11.7956 10 11 10ZM11 14C10.8022 14 10.6089 13.9414 10.4444 13.8315C10.28 13.7216 10.1518 13.5654 10.0761 13.3827C10.0004 13.2 9.98063 12.9989 10.0192 12.8049C10.0578 12.6109 10.153 12.4327 10.2929 12.2929C10.4327 12.153 10.6109 12.0578 10.8049 12.0192C10.9989 11.9806 11.2 12.0004 11.3827 12.0761C11.5654 12.1518 11.7216 12.28 11.8315 12.4444C11.9414 12.6089 12 12.8022 12 13C12 13.2652 11.8946 13.5196 11.7071 13.7071C11.5196 13.8946 11.2652 14 11 14ZM10.29 7.71C10.3851 7.80104 10.4972 7.87241 10.62 7.92C10.7397 7.97291 10.8691 8.00023 11 8.00023C11.1309 8.00023 11.2603 7.97291 11.38 7.92C11.5028 7.87241 11.6149 7.80104 11.71 7.71L14 5.46C14.1936 5.26639 14.3024 5.0038 14.3024 4.73C14.3024 4.4562 14.1936 4.19361 14 4C13.8064 3.80639 13.5438 3.69762 13.27 3.69762C12.9962 3.69762 12.7336 3.80639 12.54 4L12 4.59V1C12 0.734784 11.8946 0.48043 11.7071 0.292893C11.5196 0.105357 11.2652 0 11 0C10.7348 0 10.4804 0.105357 10.2929 0.292893C10.1054 0.48043 10 0.734784 10 1V4.59L9.46 4C9.26639 3.80639 9.0038 3.69762 8.73 3.69762C8.4562 3.69762 8.19361 3.80639 8 4C7.80639 4.19361 7.69762 4.4562 7.69762 4.73C7.69762 5.0038 7.80639 5.26639 8 5.46L10.29 7.71ZM18 13C18 12.8022 17.9414 12.6089 17.8315 12.4444C17.7216 12.28 17.5654 12.1518 17.3827 12.0761C17.2 12.0004 16.9989 11.9806 16.8049 12.0192C16.6109 12.0578 16.4327 12.153 16.2929 12.2929C16.153 12.4327 16.0578 12.6109 16.0192 12.8049C15.9806 12.9989 16.0004 13.2 16.0761 13.3827C16.1518 13.5654 16.28 13.7216 16.4444 13.8315C16.6089 13.9414 16.8022 14 17 14C17.2652 14 17.5196 13.8946 17.7071 13.7071C17.8946 13.5196 18 13.2652 18 13ZM19 6H16C15.7348 6 15.4804 6.10536 15.2929 6.29289C15.1054 6.48043 15 6.73478 15 7C15 7.26522 15.1054 7.51957 15.2929 7.70711C15.4804 7.89464 15.7348 8 16 8H19C19.2652 8 19.5196 8.10536 19.7071 8.29289C19.8946 8.48043 20 8.73478 20 9V17C20 17.2652 19.8946 17.5196 19.7071 17.7071C19.5196 17.8946 19.2652 18 19 18H3C2.73478 18 2.48043 17.8946 2.29289 17.7071C2.10536 17.5196 2 17.2652 2 17V9C2 8.73478 2.10536 8.48043 2.29289 8.29289C2.48043 8.10536 2.73478 8 3 8H6C6.26522 8 6.51957 7.89464 6.70711 7.70711C6.89464 7.51957 7 7.26522 7 7C7 6.73478 6.89464 6.48043 6.70711 6.29289C6.51957 6.10536 6.26522 6 6 6H3C2.20435 6 1.44129 6.31607 0.87868 6.87868C0.31607 7.44129 0 8.20435 0 9V17C0 17.7956 0.31607 18.5587 0.87868 19.1213C1.44129 19.6839 2.20435 20 3 20H19C19.7956 20 20.5587 19.6839 21.1213 19.1213C21.6839 18.5587 22 17.7956 22 17V9C22 8.20435 21.6839 7.44129 21.1213 6.87868C20.5587 6.31607 19.7956 6 19 6ZM4 13C4 13.1978 4.05865 13.3911 4.16853 13.5556C4.27841 13.72 4.43459 13.8482 4.61732 13.9239C4.80004 13.9996 5.00111 14.0194 5.19509 13.9808C5.38907 13.9422 5.56725 13.847 5.70711 13.7071C5.84696 13.5673 5.9422 13.3891 5.98079 13.1951C6.01937 13.0011 5.99957 12.8 5.92388 12.6173C5.84819 12.4346 5.72002 12.2784 5.55557 12.1685C5.39112 12.0586 5.19778 12 5 12C4.73478 12 4.48043 12.1054 4.29289 12.2929C4.10536 12.4804 4 12.7348 4 13Z" fill="#9F66DB"/>
</svg>
