<svg width="350" height="179" viewBox="0 0 350 179" fill="none" xmlns="http://www.w3.org/2000/svg">
<rect width="350" height="179" rx="5.46875" fill="#00B1BB"/>
<mask id="mask0_768_10662" style="mask-type:alpha" maskUnits="userSpaceOnUse" x="0" y="0" width="350" height="179">
<rect width="350" height="179" rx="5.46875" fill="#DFCCF3"/>
</mask>
<g mask="url(#mask0_768_10662)">
<path d="M-10.8424 162.608C-9.41736 159.117 -6.98893 156.126 -3.86418 154.014C-0.739419 151.903 2.94132 150.765 6.71259 150.745C10.4839 150.726 14.1763 151.825 17.3229 153.904C20.4696 155.982 22.9291 158.948 24.3905 162.424C25.8519 165.901 26.2495 169.733 25.5331 173.436C24.8167 177.138 23.0184 180.545 20.3656 183.226C17.7128 185.907 14.3247 187.74 10.6298 188.495C6.93481 189.25 3.09892 188.893 -0.392814 187.468L3.18342 178.705C4.94201 179.423 6.87393 179.603 8.73488 179.222C10.5958 178.842 12.3022 177.919 13.6383 176.569C14.9743 175.218 15.88 173.503 16.2409 171.638C16.6017 169.773 16.4014 167.843 15.6654 166.092C14.9294 164.341 13.6906 162.848 12.1058 161.801C10.5211 160.754 8.66139 160.2 6.76201 160.21C4.86264 160.22 3.00885 160.793 1.43508 161.856C-0.138682 162.92 -1.36175 164.426 -2.07944 166.185L-10.8424 162.608Z" fill="#7EF9FF"/>
<path d="M40.8724 43.7672C37.3511 42.4171 34.3091 40.0531 32.1312 36.9742C29.9534 33.8953 28.7374 30.2397 28.6371 26.4697C28.5369 22.6997 29.5568 18.9846 31.5679 15.7943C33.579 12.604 36.491 10.0816 39.9357 8.5463C43.3803 7.01096 47.2029 6.53154 50.92 7.16868C54.6371 7.80582 58.0818 9.53092 60.8185 12.1258C63.5552 14.7207 65.461 18.0688 66.2948 21.7468C67.1286 25.4248 66.8531 29.2675 65.503 32.7888L56.6657 29.4007C57.3456 27.6271 57.4844 25.6918 57.0644 23.8394C56.6445 21.987 55.6847 20.3007 54.3063 18.9938C52.928 17.6869 51.1931 16.8181 49.321 16.4972C47.4489 16.1763 45.5237 16.4178 43.7888 17.191C42.0539 17.9643 40.5873 19.2347 39.5744 20.8415C38.5616 22.4483 38.0479 24.3193 38.0984 26.2181C38.1489 28.1168 38.7613 29.9579 39.8582 31.5086C40.955 33.0593 42.4871 34.2499 44.2606 34.9298L40.8724 43.7672Z" fill="#FFA666"/>
<path d="M31.7354 229.939C24.272 227.078 17.8246 222.068 13.2088 215.542C8.5929 209.016 6.01572 201.268 5.80321 193.278C5.59069 185.288 7.75236 177.414 12.0148 170.652C16.2773 163.89 22.4492 158.544 29.7499 155.29C37.0506 152.036 45.1525 151.02 53.0307 152.371C60.9089 153.721 68.2098 157.377 74.0101 162.877C79.8103 168.377 83.8495 175.473 85.6168 183.268C87.3841 191.063 86.8001 199.208 83.9386 206.671L65.2083 199.49C66.6495 195.731 66.9436 191.629 66.0535 187.703C65.1634 183.777 63.1291 180.203 60.2079 177.433C57.2866 174.664 53.6095 172.822 49.6417 172.142C45.6739 171.462 41.5934 171.974 37.9165 173.612C34.2395 175.251 31.1311 177.944 28.9843 181.349C26.8375 184.755 25.7488 188.721 25.8558 192.745C25.9629 196.769 27.2609 200.671 29.5856 203.958C31.9104 207.244 35.1575 209.768 38.9164 211.209L31.7354 229.939Z" fill="#FFA666"/>
<path d="M23.699 9.8275C43.5317 17.0265 53.7734 38.9401 46.5744 58.7728C39.3754 78.6055 17.4619 88.8472 -2.37089 81.6482C-22.2036 74.4492 -32.4453 52.5357 -25.2463 32.7029C-18.0473 12.8702 3.86624 2.6285 23.699 9.8275ZM5.98183 58.6371C13.1059 61.223 20.9773 57.5441 23.5632 50.4201C26.1492 43.296 22.4703 35.4246 15.3463 32.8387C8.22224 30.2527 0.350771 33.9316 -2.23515 41.0556C-4.82106 48.1797 -1.1422 56.0511 5.98183 58.6371Z" fill="#BF99E7"/>
<path d="M361.668 2.78258C381.5 9.98157 391.742 31.8951 384.543 51.7279C377.344 71.5606 355.431 81.8023 335.598 74.6033C315.765 67.4043 305.523 45.4907 312.722 25.658C319.921 5.82526 341.835 -4.41642 361.668 2.78258ZM343.951 51.5921C351.075 54.178 358.946 50.4992 361.532 43.3752C364.118 36.2511 360.439 28.3797 353.315 25.7937C346.191 23.2078 338.32 26.8867 335.734 34.0107C333.148 41.1347 336.827 49.0062 343.951 51.5921Z" fill="#DFCCF3"/>
<path d="M20.6763 8.93571C26.7081 10.5738 32.2458 13.6667 36.8038 17.9434C41.3619 22.22 44.801 27.5497 46.8197 33.465L23.6513 41.3713C22.9262 39.2465 21.6909 37.3321 20.0536 35.7959C18.4163 34.2597 16.4271 33.1487 14.2605 32.5603L20.6763 8.93571Z" fill="#DFCCF3"/>
<path d="M243.933 -47.4155C249.963 -53.5034 257.773 -57.5158 266.234 -58.8724C274.695 -60.2291 283.368 -58.8598 291 -54.9625C298.631 -51.0651 304.825 -44.8417 308.687 -37.1921C312.548 -29.5425 313.877 -20.863 312.48 -12.4085C311.084 -3.95407 307.035 3.8372 300.919 9.83883C294.802 15.8405 286.936 19.7414 278.457 20.9777C269.977 22.2141 261.325 20.7216 253.749 16.7162C246.174 12.7109 240.069 6.4001 236.317 -1.30364L245.215 -5.63778C248.048 0.178202 252.657 4.94255 258.376 7.96643C264.095 10.9903 270.627 12.117 277.029 11.1837C283.43 10.2503 289.369 7.30525 293.987 2.77429C298.604 -1.75667 301.661 -7.63874 302.715 -14.0215C303.769 -20.4042 302.766 -26.9568 299.851 -32.732C296.936 -38.5071 292.26 -43.2055 286.498 -46.1478C280.737 -49.0901 274.189 -50.1239 267.801 -49.0996C261.414 -48.0754 255.517 -45.0463 250.965 -40.4501L243.933 -47.4155Z" fill="#7EF9FF"/>
<path d="M323.528 72.79C352.703 65.889 381.948 83.9451 388.849 113.12C395.75 142.294 377.694 171.539 348.519 178.44C319.345 185.341 290.1 167.285 283.199 138.111C276.298 108.936 294.354 79.6911 323.528 72.79ZM341.487 148.711C354.242 145.693 362.137 132.907 359.119 120.152C356.102 107.397 343.316 99.5024 330.561 102.52C317.806 105.537 309.911 118.323 312.928 131.078C315.946 143.833 328.732 151.728 341.487 148.711Z" fill="#9F66DB"/>
</g>
</svg>
