<svg width="20" height="20" viewBox="0 0 20 20" fill="none" xmlns="http://www.w3.org/2000/svg">
<path d="M16.6667 6.66643L11.6667 2.28309C11.2084 1.87313 10.615 1.64648 10.0001 1.64648C9.38513 1.64648 8.79176 1.87313 8.33341 2.28309L3.33341 6.66643C3.06872 6.90316 2.8575 7.19356 2.71381 7.5183C2.57012 7.84304 2.49726 8.19466 2.50008 8.54976V15.8331C2.50008 16.4961 2.76347 17.132 3.23231 17.6009C3.70115 18.0697 4.33704 18.3331 5.00008 18.3331H15.0001C15.6631 18.3331 16.299 18.0697 16.7678 17.6009C17.2367 17.132 17.5001 16.4961 17.5001 15.8331V8.54143C17.5017 8.18773 17.4283 7.83771 17.2846 7.5145C17.141 7.19128 16.9304 6.90222 16.6667 6.66643V6.66643ZM11.6667 16.6664H8.33341V12.4998C8.33341 12.2787 8.42121 12.0668 8.57749 11.9105C8.73377 11.7542 8.94573 11.6664 9.16675 11.6664H10.8334C11.0544 11.6664 11.2664 11.7542 11.4227 11.9105C11.5789 12.0668 11.6667 12.2787 11.6667 12.4998V16.6664ZM15.8334 15.8331C15.8334 16.0541 15.7456 16.2661 15.5893 16.4223C15.4331 16.5786 15.2211 16.6664 15.0001 16.6664H13.3334V12.4998C13.3334 11.8367 13.07 11.2008 12.6012 10.732C12.1323 10.2632 11.4965 9.99976 10.8334 9.99976H9.16675C8.5037 9.99976 7.86782 10.2632 7.39898 10.732C6.93014 11.2008 6.66675 11.8367 6.66675 12.4998V16.6664H5.00008C4.77907 16.6664 4.5671 16.5786 4.41082 16.4223C4.25454 16.2661 4.16675 16.0541 4.16675 15.8331V8.54143C4.1669 8.42311 4.19224 8.30617 4.24109 8.19841C4.28995 8.09065 4.36119 7.99452 4.45008 7.91643L9.45008 3.54143C9.60215 3.40783 9.79766 3.33415 10.0001 3.33415C10.2025 3.33415 10.398 3.40783 10.5501 3.54143L15.5501 7.91643C15.639 7.99452 15.7102 8.09065 15.7591 8.19841C15.8079 8.30617 15.8333 8.42311 15.8334 8.54143V15.8331Z" fill="#676767" fill-opacity="0.36"/>
</svg>
