<svg width="16" height="16" viewBox="0 0 16 16" fill="none" xmlns="http://www.w3.org/2000/svg">
<path d="M12.6668 2.66669H3.3335C2.80306 2.66669 2.29436 2.8774 1.91928 3.25247C1.54421 3.62755 1.3335 4.13625 1.3335 4.66669V11.3334C1.3335 11.8638 1.54421 12.3725 1.91928 12.7476C2.29436 13.1226 2.80306 13.3334 3.3335 13.3334H12.6668C13.1973 13.3334 13.706 13.1226 14.081 12.7476C14.4561 12.3725 14.6668 11.8638 14.6668 11.3334V4.66669C14.6668 4.13625 14.4561 3.62755 14.081 3.25247C13.706 2.8774 13.1973 2.66669 12.6668 2.66669ZM12.3935 4.00002L8.4735 7.92002C8.41152 7.98251 8.33779 8.0321 8.25655 8.06595C8.17531 8.09979 8.08817 8.11722 8.00016 8.11722C7.91216 8.11722 7.82502 8.09979 7.74378 8.06595C7.66254 8.0321 7.5888 7.98251 7.52683 7.92002L3.60683 4.00002H12.3935ZM13.3335 11.3334C13.3335 11.5102 13.2633 11.6797 13.1382 11.8048C13.0132 11.9298 12.8436 12 12.6668 12H3.3335C3.15669 12 2.98712 11.9298 2.86209 11.8048C2.73707 11.6797 2.66683 11.5102 2.66683 11.3334V4.94002L6.58683 8.86002C6.96183 9.23455 7.47016 9.44493 8.00016 9.44493C8.53016 9.44493 9.0385 9.23455 9.4135 8.86002L13.3335 4.94002V11.3334Z" fill="#CDCDCD"/>
</svg>
