<svg width="74" height="74" viewBox="0 0 74 74" fill="none" xmlns="http://www.w3.org/2000/svg">
<path d="M38.0058 44.494C37.9361 44.4299 37.8602 44.373 37.7792 44.324C37.7068 44.2679 37.6254 44.2248 37.5383 44.1965C37.454 44.1534 37.363 44.1246 37.2692 44.1115C36.9978 44.0541 36.7152 44.0839 36.4617 44.1965C36.2859 44.2601 36.1262 44.3616 35.994 44.4938C35.8618 44.626 35.7603 44.7857 35.6967 44.9615C35.6174 45.1296 35.5785 45.314 35.5833 45.4998C35.5811 45.684 35.6148 45.8669 35.6825 46.0382C35.7646 46.2075 35.8695 46.3647 35.9942 46.5057C36.1265 46.637 36.2835 46.7408 36.4561 46.8113C36.6287 46.8818 36.8136 46.9176 37 46.9165C37.1858 46.9213 37.3702 46.8825 37.5383 46.8032C37.71 46.7314 37.8681 46.6308 38.0058 46.5057C38.1371 46.3733 38.241 46.2163 38.3115 46.0437C38.382 45.8711 38.4177 45.6863 38.4167 45.4998C38.4144 45.3147 38.3759 45.1318 38.3033 44.9615C38.2359 44.7876 38.1348 44.6287 38.0058 44.494V44.494ZM32.1125 38.6573C32.0402 38.6013 31.9587 38.5581 31.8717 38.5298C31.7892 38.4768 31.6981 38.4385 31.6025 38.4165C31.4208 38.3742 31.2317 38.3742 31.05 38.4165L30.795 38.5015L30.54 38.629L30.3275 38.799C30.0619 39.0776 29.9147 39.4483 29.9167 39.8332C29.9156 40.0196 29.9513 40.2044 30.0218 40.377C30.0923 40.5496 30.1962 40.7066 30.3275 40.839C30.4652 40.9641 30.6233 41.0648 30.795 41.1365C31.0096 41.2247 31.2426 41.2588 31.4735 41.2358C31.7044 41.2129 31.9261 41.1336 32.1192 41.0049C32.3122 40.8761 32.4707 40.702 32.5807 40.4977C32.6907 40.2934 32.7488 40.0652 32.75 39.8332C32.7448 39.4581 32.598 39.0988 32.3392 38.8273L32.1125 38.6573ZM32.3392 44.494C32.2044 44.365 32.0456 44.2639 31.8717 44.1965C31.6152 44.0776 31.3291 44.0381 31.05 44.0832L30.795 44.1682C30.7047 44.1992 30.619 44.2421 30.54 44.2957C30.4658 44.348 30.3948 44.4047 30.3275 44.4657C30.1985 44.6004 30.0974 44.7593 30.03 44.9332C29.9551 45.1027 29.9163 45.2861 29.9163 45.4715C29.9163 45.6569 29.9551 45.8403 30.03 46.0098C30.1017 46.1815 30.2024 46.3396 30.3275 46.4773C30.4575 46.6138 30.6134 46.7229 30.7862 46.7983C30.9589 46.8737 31.1449 46.9139 31.3333 46.9165C31.5192 46.9213 31.7035 46.8825 31.8717 46.8032C32.0433 46.7314 32.2015 46.6308 32.3392 46.5057C32.4643 46.368 32.5649 46.2098 32.6367 46.0382C32.7116 45.8686 32.7503 45.6852 32.7503 45.4998C32.7503 45.3144 32.7116 45.1311 32.6367 44.9615C32.5692 44.7876 32.4681 44.6287 32.3392 44.494V44.494ZM36.4617 38.5298C36.2878 38.5973 36.1289 38.6984 35.9942 38.8273C35.7353 39.0988 35.5886 39.4581 35.5833 39.8332C35.5845 40.0652 35.6426 40.2934 35.7526 40.4977C35.8626 40.702 36.0211 40.8761 36.2142 41.0049C36.4072 41.1336 36.6289 41.2129 36.8598 41.2358C37.0907 41.2588 37.3237 41.2247 37.5383 41.1365C37.71 41.0648 37.8681 40.9641 38.0058 40.839C38.1371 40.7066 38.241 40.5496 38.3115 40.377C38.382 40.2044 38.4177 40.0196 38.4167 39.8332C38.4114 39.4581 38.2647 39.0988 38.0058 38.8273C37.8066 38.6308 37.5536 38.4976 37.2788 38.4447C37.004 38.3917 36.7197 38.4213 36.4617 38.5298V38.5298ZM43.6725 44.494C43.5348 44.3689 43.3767 44.2682 43.205 44.1965C42.947 44.088 42.6627 44.0584 42.3878 44.1113C42.113 44.1643 41.86 44.2974 41.6608 44.494C41.5319 44.6287 41.4308 44.7876 41.3633 44.9615C41.2884 45.1311 41.2497 45.3144 41.2497 45.4998C41.2497 45.6852 41.2884 45.8686 41.3633 46.0382C41.4351 46.2098 41.5357 46.368 41.6608 46.5057C41.7932 46.637 41.9502 46.7408 42.1228 46.8113C42.2954 46.8818 42.4802 46.9176 42.6667 46.9165C42.8525 46.9213 43.0369 46.8825 43.205 46.8032C43.3767 46.7314 43.5348 46.6308 43.6725 46.5057C43.8691 46.3065 44.0022 46.0535 44.0552 45.7787C44.1081 45.5038 44.0785 45.2195 43.97 44.9615C43.9026 44.7876 43.8015 44.6287 43.6725 44.494ZM42.6667 27.0832H31.3333C30.9576 27.0832 30.5973 27.2324 30.3316 27.4981C30.0659 27.7638 29.9167 28.1241 29.9167 28.4998V34.1665C29.9167 34.5422 30.0659 34.9026 30.3316 35.1682C30.5973 35.4339 30.9576 35.5832 31.3333 35.5832H42.6667C43.0424 35.5832 43.4027 35.4339 43.6684 35.1682C43.9341 34.9026 44.0833 34.5422 44.0833 34.1665V28.4998C44.0833 28.1241 43.9341 27.7638 43.6684 27.4981C43.4027 27.2324 43.0424 27.0832 42.6667 27.0832ZM41.25 32.7498H32.75V29.9165H41.25V32.7498ZM45.5 21.4165H28.5C27.3728 21.4165 26.2918 21.8643 25.4948 22.6613C24.6978 23.4583 24.25 24.5393 24.25 25.6665V48.3332C24.25 49.4603 24.6978 50.5413 25.4948 51.3384C26.2918 52.1354 27.3728 52.5832 28.5 52.5832H45.5C46.6272 52.5832 47.7082 52.1354 48.5052 51.3384C49.3022 50.5413 49.75 49.4603 49.75 48.3332V25.6665C49.75 24.5393 49.3022 23.4583 48.5052 22.6613C47.7082 21.8643 46.6272 21.4165 45.5 21.4165V21.4165ZM46.9167 48.3332C46.9167 48.7089 46.7674 49.0692 46.5017 49.3349C46.2361 49.6006 45.8757 49.7498 45.5 49.7498H28.5C28.1243 49.7498 27.7639 49.6006 27.4983 49.3349C27.2326 49.0692 27.0833 48.7089 27.0833 48.3332V25.6665C27.0833 25.2908 27.2326 24.9304 27.4983 24.6648C27.7639 24.3991 28.1243 24.2498 28.5 24.2498H45.5C45.8757 24.2498 46.2361 24.3991 46.5017 24.6648C46.7674 24.9304 46.9167 25.2908 46.9167 25.6665V48.3332ZM43.4458 38.6573C43.3735 38.6013 43.292 38.5581 43.205 38.5298C43.1206 38.4867 43.0297 38.458 42.9358 38.4448C42.7541 38.4025 42.5651 38.4025 42.3833 38.4448L42.1283 38.5298L41.8733 38.6573L41.6608 38.8273C41.402 39.0988 41.2552 39.4581 41.25 39.8332C41.2512 40.0652 41.3093 40.2934 41.4193 40.4977C41.5293 40.702 41.6878 40.8761 41.8808 41.0049C42.0739 41.1336 42.2956 41.2129 42.5265 41.2358C42.7574 41.2588 42.9904 41.2247 43.205 41.1365C43.3767 41.0648 43.5348 40.9641 43.6725 40.839C43.8038 40.7066 43.9077 40.5496 43.9782 40.377C44.0487 40.2044 44.0844 40.0196 44.0833 39.8332C44.0781 39.4581 43.9314 39.0988 43.6725 38.8273L43.4458 38.6573Z" fill="#EFEFEF"/>
<circle cx="37" cy="37" r="36" stroke="#EFEFEF" stroke-width="2"/>
</svg>
