<svg width="11" height="11" viewBox="0 0 11 11" fill="none" xmlns="http://www.w3.org/2000/svg">
<path d="M8.88376 4.90861H8.49057V4.51541C8.49057 4.41113 8.44915 4.31112 8.37541 4.23738C8.30167 4.16364 8.20166 4.12222 8.09738 4.12222C7.9931 4.12222 7.89309 4.16364 7.81935 4.23738C7.74561 4.31112 7.70418 4.41113 7.70418 4.51541V4.90861H7.31099C7.20671 4.90861 7.1067 4.95003 7.03296 5.02377C6.95922 5.09751 6.9178 5.19752 6.9178 5.3018C6.9178 5.40608 6.95922 5.50609 7.03296 5.57983C7.1067 5.65357 7.20671 5.69499 7.31099 5.69499H7.70418V6.08819C7.70418 6.19247 7.74561 6.29248 7.81935 6.36622C7.89309 6.43995 7.9931 6.48138 8.09738 6.48138C8.20166 6.48138 8.30167 6.43995 8.37541 6.36622C8.44915 6.29248 8.49057 6.19247 8.49057 6.08819V5.69499H8.88376C8.98805 5.69499 9.08806 5.65357 9.16179 5.57983C9.23553 5.50609 9.27696 5.40608 9.27696 5.3018C9.27696 5.19752 9.23553 5.09751 9.16179 5.02377C9.08806 4.95003 8.98805 4.90861 8.88376 4.90861ZM5.85617 5.5849C6.06597 5.4033 6.23425 5.17868 6.34958 4.92631C6.46492 4.67393 6.52461 4.3997 6.5246 4.12222C6.5246 3.60081 6.31747 3.10076 5.94878 2.73207C5.58009 2.36338 5.08004 2.15625 4.55863 2.15625C4.03723 2.15625 3.53718 2.36338 3.16849 2.73207C2.79979 3.10076 2.59267 3.60081 2.59267 4.12222C2.59266 4.3997 2.65235 4.67393 2.76769 4.92631C2.88302 5.17868 3.0513 5.4033 3.2611 5.5849C2.71068 5.83414 2.24369 6.23663 1.91597 6.74425C1.58825 7.25187 1.41366 7.84313 1.41309 8.44735C1.41309 8.55163 1.45451 8.65164 1.52825 8.72538C1.60199 8.79912 1.702 8.84054 1.80628 8.84054C1.91056 8.84054 2.01057 8.79912 2.08431 8.72538C2.15805 8.65164 2.19947 8.55163 2.19947 8.44735C2.19947 7.82166 2.44803 7.2216 2.89046 6.77917C3.33288 6.33674 3.93295 6.08819 4.55863 6.08819C5.18432 6.08819 5.78439 6.33674 6.22681 6.77917C6.66924 7.2216 6.9178 7.82166 6.9178 8.44735C6.9178 8.55163 6.95922 8.65164 7.03296 8.72538C7.1067 8.79912 7.20671 8.84054 7.31099 8.84054C7.41527 8.84054 7.51528 8.79912 7.58902 8.72538C7.66276 8.65164 7.70418 8.55163 7.70418 8.44735C7.7036 7.84313 7.52902 7.25187 7.2013 6.74425C6.87358 6.23663 6.40659 5.83414 5.85617 5.5849V5.5849ZM4.55863 5.3018C4.32534 5.3018 4.09728 5.23262 3.90329 5.103C3.70931 4.97339 3.55812 4.78916 3.46884 4.57362C3.37956 4.35808 3.3562 4.12091 3.40172 3.89209C3.44723 3.66328 3.55958 3.4531 3.72455 3.28813C3.88951 3.12316 4.09969 3.01082 4.32851 2.9653C4.55733 2.91979 4.7945 2.94315 5.01004 3.03243C5.22558 3.12171 5.40981 3.2729 5.53942 3.46688C5.66903 3.66086 5.73822 3.88892 5.73822 4.12222C5.73822 4.43506 5.61394 4.73509 5.39272 4.95631C5.17151 5.17752 4.87148 5.3018 4.55863 5.3018Z" fill="white"/>
</svg>
