<svg width="17" height="17" viewBox="0 0 17 17" fill="none" xmlns="http://www.w3.org/2000/svg">
<g clip-path="url(#clip0_3669_51321)">
<path d="M14.1187 3.12326C13.7726 2.77706 13.3618 2.50243 12.9096 2.31506C12.4574 2.12769 11.9727 2.03125 11.4832 2.03125C10.9937 2.03125 10.509 2.12769 10.0568 2.31506C9.60462 2.50243 9.19377 2.77706 8.84773 3.12326L8.12958 3.84141L7.41143 3.12326C6.71246 2.42429 5.76445 2.03161 4.77595 2.03161C3.78746 2.03161 2.83945 2.42429 2.14048 3.12326C1.44151 3.82223 1.04883 4.77024 1.04883 5.75874C1.04883 6.74723 1.44151 7.69524 2.14048 8.39421L2.85863 9.11236L8.12958 14.3833L13.4005 9.11236L14.1187 8.39421C14.4649 8.04817 14.7395 7.63732 14.9269 7.18511C15.1142 6.73291 15.2107 6.24822 15.2107 5.75874C15.2107 5.26925 15.1142 4.78456 14.9269 4.33236C14.7395 3.88016 14.4649 3.4693 14.1187 3.12326V3.12326Z" stroke="#ACACAC" stroke-width="2" stroke-linecap="round" stroke-linejoin="round"/>
</g>
<defs>
<clipPath id="clip0_3669_51321">
<rect width="16.26" height="16.26" fill="white"/>
</clipPath>
</defs>
</svg>
