<svg width="45" height="45" viewBox="0 0 45 45" fill="none" xmlns="http://www.w3.org/2000/svg">
<path d="M23.8308 27.8052L31.7808 19.8552C31.9566 19.6809 32.0961 19.4735 32.1912 19.245C32.2864 19.0165 32.3354 18.7715 32.3354 18.5239C32.3354 18.2764 32.2864 18.0314 32.1912 17.8029C32.0961 17.5744 31.9566 17.367 31.7808 17.1927C31.4295 16.8435 30.9543 16.6475 30.459 16.6475C29.9636 16.6475 29.4884 16.8435 29.1371 17.1927L22.4996 23.8302L15.8621 17.1927C15.5108 16.8435 15.0355 16.6475 14.5402 16.6475C14.0449 16.6475 13.5696 16.8435 13.2183 17.1927C13.0445 17.3679 12.9071 17.5757 12.8138 17.8041C12.7204 18.0326 12.6732 18.2772 12.6746 18.5239C12.6732 18.7707 12.7204 19.0153 12.8138 19.2438C12.9071 19.4722 13.0445 19.68 13.2183 19.8552L21.1683 27.8052C21.3426 27.9809 21.55 28.1204 21.7785 28.2156C22.007 28.3108 22.2521 28.3598 22.4996 28.3598C22.7471 28.3598 22.9922 28.3108 23.2207 28.2156C23.4491 28.1204 23.6565 27.9809 23.8308 27.8052Z" fill="#ACACAC"/>
</svg>
