<svg width="140" height="140" viewBox="0 0 140 140" fill="none" xmlns="http://www.w3.org/2000/svg">
<g filter="url(#filter0_d_1935_33071)">
<g filter="url(#filter1_d_1935_33071)">
<circle cx="63.3546" cy="61.007" r="30.3546" fill="white"/>
</g>
</g>
<path d="M78.085 69.581L74.3589 65.8549C74.2157 65.7106 74.0454 65.596 73.8578 65.5179C73.6702 65.4397 73.4689 65.3995 73.2657 65.3995C73.0624 65.3995 72.8611 65.4397 72.6735 65.5179C72.4859 65.596 72.3156 65.7106 72.1724 65.8549L66.6602 71.3671C66.5175 71.511 66.4046 71.6816 66.328 71.8692C66.2514 72.0568 66.2125 72.2577 66.2137 72.4603V76.1865C66.2137 76.5948 66.3759 76.9865 66.6647 77.2752C66.9534 77.564 67.3451 77.7262 67.7534 77.7262H71.4796C71.6822 77.7274 71.8831 77.6885 72.0707 77.6119C72.2583 77.5353 72.4289 77.4224 72.5728 77.2797L78.085 71.7675C78.2293 71.6243 78.3439 71.454 78.422 71.2664C78.5002 71.0788 78.5405 70.8775 78.5405 70.6743C78.5405 70.471 78.5002 70.2697 78.422 70.0821C78.3439 69.8945 78.2293 69.7242 78.085 69.581ZM70.8329 74.6468H69.2932V73.107L73.2657 69.1345L74.8054 70.6743L70.8329 74.6468ZM61.5945 74.6468H55.4356C55.0272 74.6468 54.6356 74.4845 54.3468 74.1958C54.0581 73.907 53.8959 73.5154 53.8959 73.107V51.5508C53.8959 51.1425 54.0581 50.7508 54.3468 50.4621C54.6356 50.1733 55.0272 50.0111 55.4356 50.0111H63.1342V54.6303C63.1342 55.8554 63.6209 57.0303 64.4872 57.8965C65.3534 58.7628 66.5283 59.2495 67.7534 59.2495H72.3726V60.7892C72.3726 61.1976 72.5348 61.5892 72.8236 61.878C73.1123 62.1667 73.504 62.3289 73.9123 62.3289C74.3207 62.3289 74.7123 62.1667 75.0011 61.878C75.2898 61.5892 75.4521 61.1976 75.4521 60.7892V57.7097C75.4521 57.7097 75.4521 57.7097 75.4521 57.6174C75.436 57.4759 75.4051 57.3366 75.3597 57.2016V57.0631C75.2857 56.9047 75.1869 56.7592 75.0671 56.6319L65.8288 47.3936C65.7015 47.2738 65.556 47.175 65.3976 47.101C65.3517 47.0945 65.305 47.0945 65.2591 47.101L64.7663 46.9316H55.4356C54.2105 46.9316 53.0356 47.4183 52.1693 48.2846C51.3031 49.1508 50.8164 50.3257 50.8164 51.5508V73.107C50.8164 74.3321 51.3031 75.507 52.1693 76.3733C53.0356 77.2396 54.2105 77.7262 55.4356 77.7262H61.5945C62.0029 77.7262 62.3945 77.564 62.6833 77.2752C62.972 76.9865 63.1342 76.5948 63.1342 76.1865C63.1342 75.7781 62.972 75.3865 62.6833 75.0977C62.3945 74.809 62.0029 74.6468 61.5945 74.6468ZM66.2137 52.1821L70.2016 56.17H67.7534C67.3451 56.17 66.9534 56.0078 66.6647 55.719C66.3759 55.4303 66.2137 55.0386 66.2137 54.6303V52.1821ZM58.515 65.4084H67.7534C68.1618 65.4084 68.5534 65.2462 68.8422 64.9574C69.1309 64.6687 69.2932 64.277 69.2932 63.8687C69.2932 63.4603 69.1309 63.0687 68.8422 62.7799C68.5534 62.4911 68.1618 62.3289 67.7534 62.3289H58.515C58.1067 62.3289 57.7151 62.4911 57.4263 62.7799C57.1375 63.0687 56.9753 63.4603 56.9753 63.8687C56.9753 64.277 57.1375 64.6687 57.4263 64.9574C57.7151 65.2462 58.1067 65.4084 58.515 65.4084ZM58.515 59.2495H60.0548C60.4631 59.2495 60.8548 59.0872 61.1435 58.7985C61.4323 58.5097 61.5945 58.1181 61.5945 57.7097C61.5945 57.3014 61.4323 56.9097 61.1435 56.621C60.8548 56.3322 60.4631 56.17 60.0548 56.17H58.515C58.1067 56.17 57.7151 56.3322 57.4263 56.621C57.1375 56.9097 56.9753 57.3014 56.9753 57.7097C56.9753 58.1181 57.1375 58.5097 57.4263 58.7985C57.7151 59.0872 58.1067 59.2495 58.515 59.2495ZM61.5945 68.4878H58.515C58.1067 68.4878 57.7151 68.6501 57.4263 68.9388C57.1375 69.2276 56.9753 69.6192 56.9753 70.0276C56.9753 70.4359 57.1375 70.8276 57.4263 71.1163C57.7151 71.4051 58.1067 71.5673 58.515 71.5673H61.5945C62.0029 71.5673 62.3945 71.4051 62.6833 71.1163C62.972 70.8276 63.1342 70.4359 63.1342 70.0276C63.1342 69.6192 62.972 69.2276 62.6833 68.9388C62.3945 68.6501 62.0029 68.4878 61.5945 68.4878Z" fill="#FF8833" stroke="white" stroke-width="0.791861"/>
<defs>
<filter id="filter0_d_1935_33071" x="0.628349" y="0.870424" width="138.401" height="138.401" filterUnits="userSpaceOnUse" color-interpolation-filters="sRGB">
<feFlood flood-opacity="0" result="BackgroundImageFix"/>
<feColorMatrix in="SourceAlpha" type="matrix" values="0 0 0 0 0 0 0 0 0 0 0 0 0 0 0 0 0 0 127 0" result="hardAlpha"/>
<feOffset dx="6.47433" dy="9.06406"/>
<feGaussianBlur stdDeviation="19.423"/>
<feComposite in2="hardAlpha" operator="out"/>
<feColorMatrix type="matrix" values="0 0 0 0 1 0 0 0 0 0.411765 0 0 0 0 0 0 0 0 0.15 0"/>
<feBlend mode="normal" in2="BackgroundImageFix" result="effect1_dropShadow_1935_33071"/>
<feBlend mode="normal" in="SourceGraphic" in2="effect1_dropShadow_1935_33071" result="shape"/>
</filter>
<filter id="filter1_d_1935_33071" x="0.628349" y="0.870424" width="138.401" height="138.401" filterUnits="userSpaceOnUse" color-interpolation-filters="sRGB">
<feFlood flood-opacity="0" result="BackgroundImageFix"/>
<feColorMatrix in="SourceAlpha" type="matrix" values="0 0 0 0 0 0 0 0 0 0 0 0 0 0 0 0 0 0 127 0" result="hardAlpha"/>
<feOffset dx="6.47433" dy="9.06406"/>
<feGaussianBlur stdDeviation="19.423"/>
<feComposite in2="hardAlpha" operator="out"/>
<feColorMatrix type="matrix" values="0 0 0 0 1 0 0 0 0 0.411765 0 0 0 0 0 0 0 0 0.15 0"/>
<feBlend mode="normal" in2="BackgroundImageFix" result="effect1_dropShadow_1935_33071"/>
<feBlend mode="normal" in="SourceGraphic" in2="effect1_dropShadow_1935_33071" result="shape"/>
</filter>
</defs>
</svg>
