<svg width="140" height="139" viewBox="0 0 140 139" fill="none" xmlns="http://www.w3.org/2000/svg">
<g filter="url(#filter0_d_2005_29134)">
<g filter="url(#filter1_d_2005_29134)">
<circle cx="63.3546" cy="60.3546" r="30.3546" fill="#FF8833"/>
</g>
</g>
<path d="M78.085 68.9277L74.3589 65.2016C74.2157 65.0573 74.0454 64.9427 73.8578 64.8646C73.6702 64.7864 73.4689 64.7461 73.2657 64.7461C73.0624 64.7461 72.8611 64.7864 72.6735 64.8646C72.4859 64.9427 72.3156 65.0573 72.1724 65.2016L66.6602 70.7138C66.5175 70.8577 66.4046 71.0283 66.328 71.2159C66.2514 71.4035 66.2125 71.6044 66.2137 71.807V75.5332C66.2137 75.9415 66.3759 76.3332 66.6647 76.6219C66.9534 76.9107 67.3451 77.0729 67.7534 77.0729H71.4796C71.6822 77.0741 71.8831 77.0352 72.0707 76.9586C72.2583 76.882 72.4289 76.7691 72.5728 76.6264L78.085 71.1141C78.2293 70.971 78.3439 70.8007 78.422 70.6131C78.5002 70.4254 78.5405 70.2242 78.5405 70.0209C78.5405 69.8177 78.5002 69.6164 78.422 69.4288C78.3439 69.2412 78.2293 69.0709 78.085 68.9277V68.9277ZM70.8329 73.9934H69.2932V72.4537L73.2657 68.4812L74.8054 70.0209L70.8329 73.9934ZM61.5945 73.9934H55.4356C55.0272 73.9934 54.6356 73.8312 54.3468 73.5425C54.0581 73.2537 53.8959 72.8621 53.8959 72.4537V50.8975C53.8959 50.4891 54.0581 50.0975 54.3468 49.8088C54.6356 49.52 55.0272 49.3578 55.4356 49.3578H63.1342V53.977C63.1342 55.202 63.6209 56.377 64.4872 57.2432C65.3534 58.1095 66.5283 58.5961 67.7534 58.5961H72.3726V60.1359C72.3726 60.5442 72.5348 60.9359 72.8236 61.2246C73.1123 61.5134 73.504 61.6756 73.9123 61.6756C74.3207 61.6756 74.7123 61.5134 75.0011 61.2246C75.2898 60.9359 75.4521 60.5442 75.4521 60.1359V57.0564C75.4521 57.0564 75.4521 57.0564 75.4521 56.964C75.436 56.8226 75.4051 56.6832 75.3597 56.5483V56.4097C75.2857 56.2514 75.1869 56.1059 75.0671 55.9786L65.8288 46.7402C65.7015 46.6205 65.556 46.5217 65.3976 46.4477C65.3517 46.4412 65.305 46.4412 65.2591 46.4477L64.7663 46.2783H55.4356C54.2105 46.2783 53.0356 46.765 52.1693 47.6312C51.3031 48.4975 50.8164 49.6724 50.8164 50.8975V72.4537C50.8164 73.6788 51.3031 74.8537 52.1693 75.72C53.0356 76.5862 54.2105 77.0729 55.4356 77.0729H61.5945C62.0029 77.0729 62.3945 76.9107 62.6833 76.6219C62.972 76.3332 63.1342 75.9415 63.1342 75.5332C63.1342 75.1248 62.972 74.7332 62.6833 74.4444C62.3945 74.1557 62.0029 73.9934 61.5945 73.9934ZM66.2137 51.5288L70.2016 55.5167H67.7534C67.3451 55.5167 66.9534 55.3545 66.6647 55.0657C66.3759 54.777 66.2137 54.3853 66.2137 53.977V51.5288ZM58.5151 64.7551H67.7534C68.1618 64.7551 68.5534 64.5928 68.8422 64.3041C69.1309 64.0153 69.2932 63.6237 69.2932 63.2153C69.2932 62.807 69.1309 62.4153 68.8422 62.1266C68.5534 61.8378 68.1618 61.6756 67.7534 61.6756H58.5151C58.1067 61.6756 57.7151 61.8378 57.4263 62.1266C57.1375 62.4153 56.9753 62.807 56.9753 63.2153C56.9753 63.6237 57.1375 64.0153 57.4263 64.3041C57.7151 64.5928 58.1067 64.7551 58.5151 64.7551ZM58.5151 58.5961H60.0548C60.4631 58.5961 60.8548 58.4339 61.1435 58.1452C61.4323 57.8564 61.5945 57.4648 61.5945 57.0564C61.5945 56.6481 61.4323 56.2564 61.1435 55.9677C60.8548 55.6789 60.4631 55.5167 60.0548 55.5167H58.5151C58.1067 55.5167 57.7151 55.6789 57.4263 55.9677C57.1375 56.2564 56.9753 56.6481 56.9753 57.0564C56.9753 57.4648 57.1375 57.8564 57.4263 58.1452C57.7151 58.4339 58.1067 58.5961 58.5151 58.5961ZM61.5945 67.8345H58.5151C58.1067 67.8345 57.7151 67.9967 57.4263 68.2855C57.1375 68.5743 56.9753 68.9659 56.9753 69.3742C56.9753 69.7826 57.1375 70.1742 57.4263 70.463C57.7151 70.7518 58.1067 70.914 58.5151 70.914H61.5945C62.0029 70.914 62.3945 70.7518 62.6833 70.463C62.972 70.1742 63.1342 69.7826 63.1342 69.3742C63.1342 68.9659 62.972 68.5743 62.6833 68.2855C62.3945 67.9967 62.0029 67.8345 61.5945 67.8345Z" fill="#F3F3F3" stroke="#FF8833" stroke-width="0.791861"/>
<defs>
<filter id="filter0_d_2005_29134" x="0.628349" y="0.218081" width="138.401" height="138.401" filterUnits="userSpaceOnUse" color-interpolation-filters="sRGB">
<feFlood flood-opacity="0" result="BackgroundImageFix"/>
<feColorMatrix in="SourceAlpha" type="matrix" values="0 0 0 0 0 0 0 0 0 0 0 0 0 0 0 0 0 0 127 0" result="hardAlpha"/>
<feOffset dx="6.47433" dy="9.06406"/>
<feGaussianBlur stdDeviation="19.423"/>
<feComposite in2="hardAlpha" operator="out"/>
<feColorMatrix type="matrix" values="0 0 0 0 1 0 0 0 0 0.411765 0 0 0 0 0 0 0 0 0.15 0"/>
<feBlend mode="normal" in2="BackgroundImageFix" result="effect1_dropShadow_2005_29134"/>
<feBlend mode="normal" in="SourceGraphic" in2="effect1_dropShadow_2005_29134" result="shape"/>
</filter>
<filter id="filter1_d_2005_29134" x="0.628349" y="0.218081" width="138.401" height="138.401" filterUnits="userSpaceOnUse" color-interpolation-filters="sRGB">
<feFlood flood-opacity="0" result="BackgroundImageFix"/>
<feColorMatrix in="SourceAlpha" type="matrix" values="0 0 0 0 0 0 0 0 0 0 0 0 0 0 0 0 0 0 127 0" result="hardAlpha"/>
<feOffset dx="6.47433" dy="9.06406"/>
<feGaussianBlur stdDeviation="19.423"/>
<feComposite in2="hardAlpha" operator="out"/>
<feColorMatrix type="matrix" values="0 0 0 0 1 0 0 0 0 0.411765 0 0 0 0 0 0 0 0 0.15 0"/>
<feBlend mode="normal" in2="BackgroundImageFix" result="effect1_dropShadow_2005_29134"/>
<feBlend mode="normal" in="SourceGraphic" in2="effect1_dropShadow_2005_29134" result="shape"/>
</filter>
</defs>
</svg>
