<svg width="354" height="290" viewBox="0 0 354 290" fill="none" xmlns="http://www.w3.org/2000/svg">
<g filter="url(#filter0_d_2005_29131)">
<rect x="101" y="93" width="210" height="48" rx="24" fill="#FF8833"/>
</g>
<path d="M123.684 115.281C123.684 112.944 124.221 111.189 125.295 110.018C126.369 108.846 127.919 108.26 129.943 108.26C131.089 108.26 132.066 108.458 132.873 108.855C133.687 109.246 134.315 109.767 134.758 110.418C134.908 110.652 134.982 110.874 134.982 111.082C134.982 111.368 134.875 111.616 134.66 111.824C134.452 112.033 134.198 112.137 133.898 112.137C133.599 112.137 133.326 112.003 133.078 111.736C132.642 111.261 132.183 110.91 131.701 110.682C131.226 110.454 130.64 110.34 129.943 110.34C128.622 110.34 127.645 110.75 127.014 111.57C126.389 112.384 126.076 113.621 126.076 115.281C126.076 117.013 126.385 118.266 127.004 119.041C127.622 119.816 128.602 120.203 129.943 120.203C130.679 120.203 131.281 120.109 131.75 119.92C132.219 119.725 132.694 119.38 133.176 118.885C133.475 118.585 133.762 118.436 134.035 118.436C134.335 118.436 134.589 118.543 134.797 118.758C135.012 118.966 135.119 119.22 135.119 119.52C135.119 119.741 135.054 119.939 134.924 120.115C134.436 120.766 133.745 121.29 132.854 121.688C131.962 122.085 130.992 122.283 129.943 122.283C125.77 122.283 123.684 119.949 123.684 115.281ZM136.789 121.121V108.836C136.789 108.536 136.893 108.283 137.102 108.074C137.316 107.866 137.574 107.762 137.873 107.762C138.173 107.762 138.426 107.866 138.635 108.074C138.85 108.283 138.957 108.536 138.957 108.836V113.836C139.178 113.504 139.504 113.224 139.934 112.996C140.37 112.762 140.897 112.645 141.516 112.645C143.755 112.645 144.875 113.803 144.875 116.121V121.121C144.875 121.414 144.768 121.661 144.553 121.863C144.344 122.059 144.09 122.156 143.791 122.156C143.472 122.156 143.212 122.059 143.01 121.863C142.814 121.668 142.717 121.421 142.717 121.121V116.521C142.717 115.239 142.128 114.598 140.949 114.598C139.621 114.598 138.957 115.285 138.957 116.658V121.121C138.957 121.421 138.853 121.668 138.645 121.863C138.436 122.059 138.179 122.156 137.873 122.156C137.567 122.156 137.31 122.059 137.102 121.863C136.893 121.668 136.789 121.421 136.789 121.121ZM146.311 119.236C146.311 118.351 146.62 117.661 147.238 117.166C147.863 116.671 148.635 116.424 149.553 116.424H152.17V116.062C152.17 115.607 152.01 115.242 151.691 114.969C151.372 114.695 150.926 114.559 150.354 114.559C149.963 114.559 149.611 114.627 149.299 114.764C148.986 114.9 148.671 115.086 148.352 115.32C148.163 115.451 147.964 115.516 147.756 115.516C147.495 115.516 147.271 115.424 147.082 115.242C146.9 115.06 146.809 114.839 146.809 114.578C146.809 114.337 146.896 114.119 147.072 113.924C147.847 113.071 148.941 112.645 150.354 112.645C151.597 112.645 152.567 112.938 153.264 113.523C153.96 114.109 154.309 114.93 154.309 115.984V121.102C154.309 121.388 154.204 121.635 153.996 121.844C153.788 122.052 153.54 122.156 153.254 122.156C152.967 122.156 152.717 122.052 152.502 121.844C152.294 121.635 152.189 121.388 152.189 121.102C151.708 121.876 150.835 122.264 149.572 122.264C148.596 122.264 147.808 121.984 147.209 121.424C146.61 120.864 146.311 120.135 146.311 119.236ZM148.469 119.236C148.469 119.627 148.605 119.93 148.879 120.145C149.159 120.353 149.576 120.457 150.129 120.457C150.689 120.457 151.167 120.294 151.564 119.969C151.968 119.637 152.17 119.201 152.17 118.66V118.104H149.836C149.4 118.104 149.061 118.201 148.82 118.396C148.586 118.592 148.469 118.872 148.469 119.236ZM155.812 114.461C155.637 114.279 155.549 114.064 155.549 113.816C155.549 113.569 155.637 113.357 155.812 113.182C155.988 113.006 156.2 112.918 156.447 112.918H156.906V111.238C156.906 110.952 157.01 110.704 157.219 110.496C157.434 110.288 157.684 110.184 157.971 110.184C158.257 110.184 158.505 110.288 158.713 110.496C158.921 110.704 159.025 110.952 159.025 111.238V112.918H159.924C160.171 112.918 160.383 113.006 160.559 113.182C160.734 113.357 160.822 113.569 160.822 113.816C160.822 114.064 160.734 114.279 160.559 114.461C160.383 114.637 160.171 114.725 159.924 114.725H159.025V119.559C159.025 119.773 159.104 119.949 159.26 120.086C159.416 120.216 159.592 120.281 159.787 120.281C160.048 120.281 160.269 120.372 160.451 120.555C160.633 120.737 160.725 120.958 160.725 121.219C160.725 121.479 160.633 121.701 160.451 121.883C160.269 122.065 160.048 122.156 159.787 122.156C158.908 122.156 158.208 121.906 157.688 121.404C157.167 120.896 156.906 120.242 156.906 119.441V114.725H156.447C156.2 114.725 155.988 114.637 155.812 114.461ZM161.916 117.42C161.916 115.896 162.294 114.721 163.049 113.895C163.811 113.061 164.875 112.645 166.242 112.645C166.887 112.645 167.456 112.742 167.951 112.938C168.446 113.126 168.833 113.361 169.113 113.641C169.393 113.921 169.621 114.249 169.797 114.627C169.973 115.005 170.09 115.353 170.148 115.672C170.207 115.991 170.236 116.307 170.236 116.619C170.236 116.821 170.233 116.977 170.227 117.088C170.22 117.192 170.194 117.329 170.148 117.498C170.109 117.667 170.051 117.798 169.973 117.889C169.895 117.973 169.774 118.051 169.611 118.123C169.449 118.188 169.25 118.221 169.016 118.221H164.084C164.084 118.911 164.299 119.435 164.729 119.793C165.158 120.145 165.721 120.32 166.418 120.32C167.121 120.32 167.782 120.112 168.4 119.695C168.635 119.552 168.85 119.48 169.045 119.48C169.305 119.48 169.527 119.572 169.709 119.754C169.891 119.936 169.982 120.158 169.982 120.418C169.982 120.711 169.868 120.958 169.641 121.16C169.484 121.31 169.289 121.456 169.055 121.6C168.827 121.743 168.469 121.889 167.98 122.039C167.492 122.189 166.971 122.264 166.418 122.264C164.986 122.264 163.876 121.863 163.088 121.062C162.307 120.262 161.916 119.048 161.916 117.42ZM164.143 116.424H168.098C168.098 115.883 167.938 115.424 167.619 115.047C167.307 114.669 166.848 114.48 166.242 114.48C165.643 114.48 165.155 114.65 164.777 114.988C164.4 115.32 164.188 115.799 164.143 116.424ZM171.271 119.236C171.271 118.351 171.581 117.661 172.199 117.166C172.824 116.671 173.596 116.424 174.514 116.424H177.131V116.062C177.131 115.607 176.971 115.242 176.652 114.969C176.333 114.695 175.887 114.559 175.314 114.559C174.924 114.559 174.572 114.627 174.26 114.764C173.947 114.9 173.632 115.086 173.312 115.32C173.124 115.451 172.925 115.516 172.717 115.516C172.456 115.516 172.232 115.424 172.043 115.242C171.861 115.06 171.77 114.839 171.77 114.578C171.77 114.337 171.857 114.119 172.033 113.924C172.808 113.071 173.902 112.645 175.314 112.645C176.558 112.645 177.528 112.938 178.225 113.523C178.921 114.109 179.27 114.93 179.27 115.984V121.102C179.27 121.388 179.165 121.635 178.957 121.844C178.749 122.052 178.501 122.156 178.215 122.156C177.928 122.156 177.678 122.052 177.463 121.844C177.255 121.635 177.15 121.388 177.15 121.102C176.669 121.876 175.796 122.264 174.533 122.264C173.557 122.264 172.769 121.984 172.17 121.424C171.571 120.864 171.271 120.135 171.271 119.236ZM173.43 119.236C173.43 119.627 173.566 119.93 173.84 120.145C174.12 120.353 174.536 120.457 175.09 120.457C175.65 120.457 176.128 120.294 176.525 119.969C176.929 119.637 177.131 119.201 177.131 118.66V118.104H174.797C174.361 118.104 174.022 118.201 173.781 118.396C173.547 118.592 173.43 118.872 173.43 119.236ZM186.389 121.053C185.633 120.245 185.256 119.041 185.256 117.439C185.256 115.838 185.63 114.64 186.379 113.846C187.134 113.045 188.208 112.645 189.602 112.645C190.161 112.645 190.686 112.732 191.174 112.908C191.662 113.084 192.027 113.266 192.268 113.455C192.508 113.637 192.707 113.826 192.863 114.021C193.007 114.23 193.078 114.435 193.078 114.637C193.078 114.904 192.984 115.132 192.795 115.32C192.613 115.509 192.388 115.604 192.121 115.604C191.835 115.604 191.587 115.49 191.379 115.262C190.897 114.741 190.305 114.48 189.602 114.48C188.905 114.48 188.371 114.738 188 115.252C187.629 115.766 187.443 116.495 187.443 117.439C187.443 118.403 187.629 119.142 188 119.656C188.371 120.164 188.905 120.418 189.602 120.418C189.882 120.418 190.158 120.369 190.432 120.271C190.712 120.174 190.917 120.083 191.047 119.998C191.184 119.907 191.363 119.78 191.584 119.617C191.773 119.487 191.971 119.422 192.18 119.422C192.447 119.422 192.671 119.516 192.854 119.705C193.042 119.887 193.137 120.112 193.137 120.379C193.137 120.665 193.023 120.913 192.795 121.121C192.482 121.408 192.053 121.671 191.506 121.912C190.959 122.146 190.324 122.264 189.602 122.264C188.215 122.264 187.144 121.86 186.389 121.053ZM194.279 117.459C194.279 115.857 194.663 114.656 195.432 113.855C196.2 113.048 197.277 112.645 198.664 112.645C200.051 112.645 201.125 113.048 201.887 113.855C202.655 114.656 203.039 115.857 203.039 117.459C203.039 119.054 202.655 120.255 201.887 121.062C201.118 121.863 200.044 122.264 198.664 122.264C197.284 122.264 196.206 121.863 195.432 121.062C194.663 120.255 194.279 119.054 194.279 117.459ZM196.467 117.459C196.467 118.436 196.652 119.174 197.023 119.676C197.395 120.171 197.941 120.418 198.664 120.418C199.387 120.418 199.934 120.171 200.305 119.676C200.676 119.174 200.861 118.436 200.861 117.459C200.861 115.473 200.129 114.48 198.664 114.48C197.199 114.48 196.467 115.473 196.467 117.459ZM204.621 121.121V113.836C204.621 113.536 204.725 113.283 204.934 113.074C205.148 112.866 205.406 112.762 205.705 112.762C206.005 112.762 206.258 112.866 206.467 113.074C206.682 113.283 206.789 113.536 206.789 113.836C207.01 113.504 207.336 113.224 207.766 112.996C208.202 112.762 208.729 112.645 209.348 112.645C211.587 112.645 212.707 113.803 212.707 116.121V121.121C212.707 121.414 212.6 121.661 212.385 121.863C212.176 122.059 211.923 122.156 211.623 122.156C211.304 122.156 211.044 122.059 210.842 121.863C210.646 121.668 210.549 121.421 210.549 121.121V116.521C210.549 115.239 209.96 114.598 208.781 114.598C207.453 114.598 206.789 115.285 206.789 116.658V121.121C206.789 121.421 206.685 121.668 206.477 121.863C206.268 122.059 206.011 122.156 205.705 122.156C205.399 122.156 205.142 122.059 204.934 121.863C204.725 121.668 204.621 121.421 204.621 121.121ZM219.113 121.121V113.836C219.113 113.536 219.217 113.283 219.426 113.074C219.641 112.866 219.898 112.762 220.197 112.762C220.497 112.762 220.751 112.866 220.959 113.074C221.174 113.283 221.281 113.536 221.281 113.836C221.503 113.504 221.828 113.224 222.258 112.996C222.694 112.762 223.221 112.645 223.84 112.645C226.079 112.645 227.199 113.803 227.199 116.121V121.121C227.199 121.414 227.092 121.661 226.877 121.863C226.669 122.059 226.415 122.156 226.115 122.156C225.796 122.156 225.536 122.059 225.334 121.863C225.139 121.668 225.041 121.421 225.041 121.121V116.521C225.041 115.239 224.452 114.598 223.273 114.598C221.945 114.598 221.281 115.285 221.281 116.658V121.121C221.281 121.421 221.177 121.668 220.969 121.863C220.76 122.059 220.503 122.156 220.197 122.156C219.891 122.156 219.634 122.059 219.426 121.863C219.217 121.668 219.113 121.421 219.113 121.121ZM228.674 117.459C228.674 115.857 229.058 114.656 229.826 113.855C230.594 113.048 231.672 112.645 233.059 112.645C234.445 112.645 235.52 113.048 236.281 113.855C237.049 114.656 237.434 115.857 237.434 117.459C237.434 119.054 237.049 120.255 236.281 121.062C235.513 121.863 234.439 122.264 233.059 122.264C231.678 122.264 230.601 121.863 229.826 121.062C229.058 120.255 228.674 119.054 228.674 117.459ZM230.861 117.459C230.861 118.436 231.047 119.174 231.418 119.676C231.789 120.171 232.336 120.418 233.059 120.418C233.781 120.418 234.328 120.171 234.699 119.676C235.07 119.174 235.256 118.436 235.256 117.459C235.256 115.473 234.523 114.48 233.059 114.48C231.594 114.48 230.861 115.473 230.861 117.459ZM238.537 120.203C238.537 119.943 238.632 119.718 238.82 119.529C239.016 119.334 239.243 119.236 239.504 119.236C239.706 119.236 239.911 119.318 240.119 119.48C240.79 120.027 241.522 120.301 242.316 120.301C243.306 120.301 243.801 120.034 243.801 119.5C243.801 119.311 243.729 119.145 243.586 119.002C243.449 118.852 243.264 118.735 243.029 118.65C242.801 118.559 242.541 118.465 242.248 118.367C241.955 118.263 241.656 118.169 241.35 118.084C241.044 117.993 240.744 117.869 240.451 117.713C240.158 117.55 239.895 117.371 239.66 117.176C239.432 116.98 239.247 116.723 239.104 116.404C238.967 116.085 238.898 115.724 238.898 115.32C238.898 114.461 239.211 113.8 239.836 113.338C240.467 112.876 241.268 112.645 242.238 112.645C242.928 112.645 243.57 112.762 244.162 112.996C244.755 113.23 245.194 113.527 245.48 113.885C245.611 114.061 245.676 114.259 245.676 114.48C245.676 114.741 245.581 114.965 245.393 115.154C245.204 115.343 244.979 115.438 244.719 115.438C244.523 115.438 244.296 115.346 244.035 115.164C243.449 114.734 242.85 114.52 242.238 114.52C241.861 114.52 241.568 114.585 241.359 114.715C241.158 114.845 241.057 115.034 241.057 115.281C241.057 115.477 241.148 115.649 241.33 115.799C241.512 115.949 241.747 116.076 242.033 116.18C242.32 116.277 242.639 116.378 242.99 116.482C243.342 116.58 243.693 116.704 244.045 116.854C244.396 117.003 244.715 117.179 245.002 117.381C245.288 117.583 245.523 117.856 245.705 118.201C245.887 118.54 245.979 118.934 245.979 119.383C245.979 120.294 245.637 120.997 244.953 121.492C244.27 121.98 243.391 122.225 242.316 122.225C241.529 122.225 240.816 122.081 240.178 121.795C239.54 121.502 239.074 121.176 238.781 120.818C238.618 120.617 238.537 120.411 238.537 120.203ZM247.092 117.459C247.092 115.857 247.476 114.656 248.244 113.855C249.012 113.048 250.09 112.645 251.477 112.645C252.863 112.645 253.938 113.048 254.699 113.855C255.467 114.656 255.852 115.857 255.852 117.459C255.852 119.054 255.467 120.255 254.699 121.062C253.931 121.863 252.857 122.264 251.477 122.264C250.096 122.264 249.019 121.863 248.244 121.062C247.476 120.255 247.092 119.054 247.092 117.459ZM249.279 117.459C249.279 118.436 249.465 119.174 249.836 119.676C250.207 120.171 250.754 120.418 251.477 120.418C252.199 120.418 252.746 120.171 253.117 119.676C253.488 119.174 253.674 118.436 253.674 117.459C253.674 115.473 252.941 114.48 251.477 114.48C250.012 114.48 249.279 115.473 249.279 117.459ZM257.043 114.461C256.867 114.279 256.779 114.064 256.779 113.816C256.779 113.569 256.867 113.357 257.043 113.182C257.219 113.006 257.43 112.918 257.678 112.918H258.137V111.238C258.137 110.952 258.241 110.704 258.449 110.496C258.664 110.288 258.915 110.184 259.201 110.184C259.488 110.184 259.735 110.288 259.943 110.496C260.152 110.704 260.256 110.952 260.256 111.238V112.918H261.154C261.402 112.918 261.613 113.006 261.789 113.182C261.965 113.357 262.053 113.569 262.053 113.816C262.053 114.064 261.965 114.279 261.789 114.461C261.613 114.637 261.402 114.725 261.154 114.725H260.256V119.559C260.256 119.773 260.334 119.949 260.49 120.086C260.646 120.216 260.822 120.281 261.018 120.281C261.278 120.281 261.499 120.372 261.682 120.555C261.864 120.737 261.955 120.958 261.955 121.219C261.955 121.479 261.864 121.701 261.682 121.883C261.499 122.065 261.278 122.156 261.018 122.156C260.139 122.156 259.439 121.906 258.918 121.404C258.397 120.896 258.137 120.242 258.137 119.441V114.725H257.678C257.43 114.725 257.219 114.637 257.043 114.461ZM263.547 121.082V113.836C263.547 113.536 263.651 113.283 263.859 113.074C264.074 112.866 264.331 112.762 264.631 112.762C264.93 112.762 265.184 112.866 265.393 113.074C265.607 113.283 265.715 113.536 265.715 113.836V113.943C265.904 113.559 266.203 113.25 266.613 113.016C267.023 112.781 267.443 112.664 267.873 112.664C268.153 112.664 268.391 112.765 268.586 112.967C268.788 113.162 268.889 113.4 268.889 113.68C268.889 113.96 268.788 114.201 268.586 114.402C268.391 114.598 268.153 114.695 267.873 114.695C267.196 114.695 266.665 114.897 266.281 115.301C265.904 115.704 265.715 116.245 265.715 116.922V121.082C265.715 121.382 265.607 121.635 265.393 121.844C265.184 122.052 264.93 122.156 264.631 122.156C264.331 122.156 264.074 122.052 263.859 121.844C263.651 121.635 263.547 121.382 263.547 121.082ZM269.514 117.459C269.514 115.857 269.898 114.656 270.666 113.855C271.434 113.048 272.512 112.645 273.898 112.645C275.285 112.645 276.359 113.048 277.121 113.855C277.889 114.656 278.273 115.857 278.273 117.459C278.273 119.054 277.889 120.255 277.121 121.062C276.353 121.863 275.279 122.264 273.898 122.264C272.518 122.264 271.441 121.863 270.666 121.062C269.898 120.255 269.514 119.054 269.514 117.459ZM271.701 117.459C271.701 118.436 271.887 119.174 272.258 119.676C272.629 120.171 273.176 120.418 273.898 120.418C274.621 120.418 275.168 120.171 275.539 119.676C275.91 119.174 276.096 118.436 276.096 117.459C276.096 115.473 275.363 114.48 273.898 114.48C272.434 114.48 271.701 115.473 271.701 117.459ZM279.377 120.203C279.377 119.943 279.471 119.718 279.66 119.529C279.855 119.334 280.083 119.236 280.344 119.236C280.546 119.236 280.751 119.318 280.959 119.48C281.63 120.027 282.362 120.301 283.156 120.301C284.146 120.301 284.641 120.034 284.641 119.5C284.641 119.311 284.569 119.145 284.426 119.002C284.289 118.852 284.104 118.735 283.869 118.65C283.641 118.559 283.381 118.465 283.088 118.367C282.795 118.263 282.495 118.169 282.189 118.084C281.883 117.993 281.584 117.869 281.291 117.713C280.998 117.55 280.734 117.371 280.5 117.176C280.272 116.98 280.087 116.723 279.943 116.404C279.807 116.085 279.738 115.724 279.738 115.32C279.738 114.461 280.051 113.8 280.676 113.338C281.307 112.876 282.108 112.645 283.078 112.645C283.768 112.645 284.41 112.762 285.002 112.996C285.594 113.23 286.034 113.527 286.32 113.885C286.451 114.061 286.516 114.259 286.516 114.48C286.516 114.741 286.421 114.965 286.232 115.154C286.044 115.343 285.819 115.438 285.559 115.438C285.363 115.438 285.135 115.346 284.875 115.164C284.289 114.734 283.69 114.52 283.078 114.52C282.701 114.52 282.408 114.585 282.199 114.715C281.997 114.845 281.896 115.034 281.896 115.281C281.896 115.477 281.988 115.649 282.17 115.799C282.352 115.949 282.587 116.076 282.873 116.18C283.16 116.277 283.479 116.378 283.83 116.482C284.182 116.58 284.533 116.704 284.885 116.854C285.236 117.003 285.555 117.179 285.842 117.381C286.128 117.583 286.363 117.856 286.545 118.201C286.727 118.54 286.818 118.934 286.818 119.383C286.818 120.294 286.477 120.997 285.793 121.492C285.109 121.98 284.23 122.225 283.156 122.225C282.368 122.225 281.656 122.081 281.018 121.795C280.38 121.502 279.914 121.176 279.621 120.818C279.458 120.617 279.377 120.411 279.377 120.203Z" fill="white"/>
<defs>
<filter id="filter0_d_2005_29131" x="0.834837" y="0.848049" width="450.396" height="288.396" filterUnits="userSpaceOnUse" color-interpolation-filters="sRGB">
<feFlood flood-opacity="0" result="BackgroundImageFix"/>
<feColorMatrix in="SourceAlpha" type="matrix" values="0 0 0 0 0 0 0 0 0 0 0 0 0 0 0 0 0 0 127 0" result="hardAlpha"/>
<feOffset dx="20.033" dy="28.0462"/>
<feGaussianBlur stdDeviation="60.0991"/>
<feComposite in2="hardAlpha" operator="out"/>
<feColorMatrix type="matrix" values="0 0 0 0 1 0 0 0 0 0.411765 0 0 0 0 0 0 0 0 0.15 0"/>
<feBlend mode="normal" in2="BackgroundImageFix" result="effect1_dropShadow_2005_29131"/>
<feBlend mode="normal" in="SourceGraphic" in2="effect1_dropShadow_2005_29131" result="shape"/>
</filter>
</defs>
</svg>
