<svg width="165" height="56" viewBox="0 0 165 56" fill="none" xmlns="http://www.w3.org/2000/svg">
<path d="M28.0019 4.66797C23.4764 4.67657 19.051 6.00103 15.2648 8.48003C11.4786 10.959 8.49499 14.4856 6.67743 18.6301C4.85987 22.7746 4.28678 27.3583 5.02797 31.8227C5.76915 36.2872 7.79262 40.4398 10.8519 43.7746V43.7746C13.0369 46.1431 15.6888 48.0333 18.6404 49.3261C21.5921 50.619 24.7795 51.2864 28.0019 51.2864C31.2243 51.2864 34.4117 50.619 37.3634 49.3261C40.315 48.0333 42.9669 46.1431 45.1519 43.7746V43.7746C48.2112 40.4398 50.2347 36.2872 50.9758 31.8227C51.717 27.3583 51.1439 22.7746 49.3264 18.6301C47.5088 14.4856 44.5252 10.959 40.739 8.48003C36.9528 6.00103 32.5275 4.67657 28.0019 4.66797V4.66797ZM28.0019 46.668C23.1683 46.6606 18.526 44.7786 15.0519 41.418C16.1067 38.8502 17.901 36.654 20.2068 35.1084C22.5127 33.5628 25.226 32.7375 28.0019 32.7375C30.7778 32.7375 33.4911 33.5628 35.797 35.1084C38.1028 36.654 39.8971 38.8502 40.9519 41.418C37.4778 44.7786 32.8355 46.6606 28.0019 46.668ZM23.3352 23.3346C23.3352 22.4117 23.6089 21.5094 24.1217 20.742C24.6345 19.9745 25.3633 19.3764 26.216 19.0232C27.0688 18.67 28.0071 18.5776 28.9123 18.7576C29.8176 18.9377 30.6491 19.3822 31.3017 20.0348C31.9544 20.6874 32.3988 21.519 32.5789 22.4242C32.759 23.3295 32.6666 24.2678 32.3133 25.1205C31.9601 25.9732 31.362 26.702 30.5946 27.2148C29.8271 27.7276 28.9249 28.0013 28.0019 28.0013C26.7642 28.0013 25.5772 27.5096 24.7021 26.6345C23.8269 25.7593 23.3352 24.5723 23.3352 23.3346ZM44.1252 37.3346C42.0405 33.7687 38.8318 30.995 35.0019 29.448C36.19 28.1008 36.9641 26.4395 37.2313 24.6633C37.4986 22.8871 37.2477 21.0716 36.5087 19.4345C35.7696 17.7974 34.5739 16.4083 33.065 15.4339C31.5561 14.4595 29.7981 13.9412 28.0019 13.9412C26.2057 13.9412 24.4477 14.4595 22.9388 15.4339C21.4299 16.4083 20.2342 17.7974 19.4952 19.4345C18.7561 21.0716 18.5052 22.8871 18.7725 24.6633C19.0397 26.4395 19.8138 28.1008 21.0019 29.448C17.172 30.995 13.9633 33.7687 11.8786 37.3346C10.2171 34.5045 9.33925 31.2831 9.33524 28.0013C9.33524 23.0506 11.3019 18.3027 14.8026 14.802C18.3033 11.3013 23.0512 9.33464 28.0019 9.33464C32.9526 9.33464 37.7006 11.3013 41.2012 14.802C44.7019 18.3027 46.6686 23.0506 46.6686 28.0013C46.6646 31.2831 45.7867 34.5045 44.1252 37.3346V37.3346Z" fill="#FF8833"/>
<path d="M65.6325 19.436L65.8885 17.436C66.4005 17.5 66.7098 17.532 66.8165 17.532C67.5738 17.532 67.9525 17.1267 67.9525 16.316V8.3H70.2085V16.716C70.2085 17.6973 69.9205 18.4227 69.3445 18.892C68.7792 19.3613 68.0325 19.596 67.1045 19.596C66.6245 19.596 66.1338 19.5427 65.6325 19.436ZM71.7129 15.34C71.7129 14.0707 72.0969 13.02 72.8649 12.188C73.6435 11.3453 74.6249 10.924 75.8089 10.924C77.0889 10.924 78.0862 11.324 78.8009 12.124C79.5155 12.9133 79.8729 14.0013 79.8729 15.388C79.8729 15.6013 79.8675 15.7613 79.8569 15.868H73.9689C73.9902 16.4333 74.2035 16.8973 74.6089 17.26C75.0142 17.612 75.5262 17.788 76.1449 17.788C77.0302 17.788 77.7075 17.4467 78.1769 16.764L79.6329 17.868C79.3982 18.2947 78.9822 18.7107 78.3849 19.116C77.7875 19.5107 77.0302 19.708 76.1129 19.708C74.7902 19.708 73.7235 19.3027 72.9129 18.492C72.1129 17.6707 71.7129 16.62 71.7129 15.34ZM74.0329 14.428H77.6329C77.6115 13.916 77.4355 13.5053 77.1049 13.196C76.7742 12.8867 76.3529 12.732 75.8409 12.732C75.3289 12.732 74.9129 12.892 74.5929 13.212C74.2729 13.532 74.0862 13.9373 74.0329 14.428ZM83.6584 19.708C82.901 19.708 82.2557 19.5587 81.7224 19.26C81.1997 18.9507 80.805 18.5827 80.5384 18.156L81.8344 17.004C82.357 17.612 82.997 17.916 83.7544 17.916C84.0744 17.916 84.325 17.852 84.5064 17.724C84.6877 17.5853 84.7784 17.3987 84.7784 17.164C84.7784 16.94 84.6397 16.748 84.3624 16.588C84.0957 16.4173 83.765 16.268 83.3704 16.14C82.9864 16.0013 82.6024 15.8413 82.2184 15.66C81.8344 15.468 81.5037 15.1853 81.2264 14.812C80.9597 14.428 80.8264 13.9587 80.8264 13.404C80.8264 12.6467 81.1144 12.044 81.6904 11.596C82.2664 11.148 82.9917 10.924 83.8664 10.924C85.1677 10.924 86.1224 11.42 86.7304 12.412L85.2744 13.5C84.8477 12.9667 84.3464 12.7 83.7704 12.7C83.5144 12.7 83.3064 12.764 83.1464 12.892C82.9864 13.0093 82.9064 13.1693 82.9064 13.372C82.9064 13.6067 83.0397 13.804 83.3064 13.964C83.5837 14.124 83.9144 14.268 84.2984 14.396C84.693 14.5133 85.0824 14.6627 85.4664 14.844C85.861 15.0147 86.1917 15.2867 86.4584 15.66C86.7357 16.0333 86.8744 16.4973 86.8744 17.052C86.8744 17.852 86.5704 18.4973 85.9624 18.988C85.3544 19.468 84.5864 19.708 83.6584 19.708ZM90.6115 19.708C89.8542 19.708 89.2088 19.5587 88.6755 19.26C88.1528 18.9507 87.7582 18.5827 87.4915 18.156L88.7875 17.004C89.3102 17.612 89.9502 17.916 90.7075 17.916C91.0275 17.916 91.2782 17.852 91.4595 17.724C91.6408 17.5853 91.7315 17.3987 91.7315 17.164C91.7315 16.94 91.5928 16.748 91.3155 16.588C91.0488 16.4173 90.7182 16.268 90.3235 16.14C89.9395 16.0013 89.5555 15.8413 89.1715 15.66C88.7875 15.468 88.4568 15.1853 88.1795 14.812C87.9128 14.428 87.7795 13.9587 87.7795 13.404C87.7795 12.6467 88.0675 12.044 88.6435 11.596C89.2195 11.148 89.9448 10.924 90.8195 10.924C92.1208 10.924 93.0755 11.42 93.6835 12.412L92.2275 13.5C91.8008 12.9667 91.2995 12.7 90.7235 12.7C90.4675 12.7 90.2595 12.764 90.0995 12.892C89.9395 13.0093 89.8595 13.1693 89.8595 13.372C89.8595 13.6067 89.9928 13.804 90.2595 13.964C90.5368 14.124 90.8675 14.268 91.2515 14.396C91.6462 14.5133 92.0355 14.6627 92.4195 14.844C92.8142 15.0147 93.1448 15.2867 93.4115 15.66C93.6888 16.0333 93.8275 16.4973 93.8275 17.052C93.8275 17.852 93.5235 18.4973 92.9155 18.988C92.3075 19.468 91.5395 19.708 90.6115 19.708ZM95.0046 19.5V11.132H97.2126V19.5H95.0046ZM95.1806 10.028C94.9353 9.78267 94.8126 9.47867 94.8126 9.116C94.8126 8.75333 94.9353 8.45467 95.1806 8.22C95.426 7.97467 95.73 7.852 96.0926 7.852C96.466 7.852 96.7753 7.97467 97.0206 8.22C97.266 8.45467 97.3886 8.75333 97.3886 9.116C97.3886 9.47867 97.266 9.78267 97.0206 10.028C96.7753 10.2627 96.466 10.38 96.0926 10.38C95.73 10.38 95.426 10.2627 95.1806 10.028ZM103.086 17.756C103.736 17.756 104.366 17.5053 104.974 17.004L105.566 18.812C104.819 19.4093 103.95 19.708 102.958 19.708C101.656 19.708 100.584 19.2973 99.7418 18.476C98.9098 17.6547 98.4938 16.6093 98.4938 15.34C98.4938 14.0707 98.9151 13.02 99.7578 12.188C100.611 11.3453 101.672 10.924 102.942 10.924C103.923 10.924 104.803 11.2227 105.582 11.82L104.958 13.676C104.371 13.1427 103.72 12.876 103.006 12.876C102.312 12.876 101.752 13.1107 101.326 13.58C100.91 14.0493 100.702 14.6307 100.702 15.324C100.702 16.0387 100.926 16.6253 101.374 17.084C101.822 17.532 102.392 17.756 103.086 17.756ZM106.322 16.908C106.322 16.0867 106.62 15.42 107.218 14.908C107.815 14.396 108.599 14.14 109.57 14.14C110.327 14.14 110.93 14.2947 111.378 14.604V14.06C111.378 13.6867 111.244 13.388 110.978 13.164C110.711 12.94 110.338 12.828 109.858 12.828C109.143 12.828 108.402 13.0253 107.634 13.42L106.802 11.916C107.207 11.6387 107.703 11.404 108.289 11.212C108.887 11.02 109.49 10.924 110.098 10.924C111.356 10.924 112.252 11.2173 112.786 11.804C113.319 12.38 113.586 13.18 113.586 14.204V19.5H111.634L111.49 18.956C111.02 19.4573 110.343 19.708 109.458 19.708C108.572 19.708 107.826 19.4573 107.218 18.956C106.62 18.444 106.322 17.7613 106.322 16.908ZM108.93 16.012C108.663 16.2253 108.53 16.5027 108.53 16.844C108.53 17.1853 108.668 17.4627 108.946 17.676C109.223 17.8893 109.57 17.996 109.986 17.996C110.412 17.996 110.759 17.8947 111.026 17.692C111.292 17.4787 111.426 17.196 111.426 16.844C111.426 16.4813 111.292 16.1987 111.026 15.996C110.759 15.7827 110.407 15.676 109.97 15.676C109.543 15.676 109.196 15.788 108.93 16.012ZM124.616 8.092C125.661 8.092 126.563 8.28933 127.32 8.684C128.077 9.068 128.648 9.48933 129.032 9.948L127.608 11.42C126.861 10.5987 125.896 10.188 124.712 10.188C123.635 10.188 122.771 10.54 122.12 11.244C121.48 11.948 121.16 12.8333 121.16 13.9C121.16 15.02 121.491 15.916 122.152 16.588C122.824 17.26 123.677 17.596 124.712 17.596C125.395 17.596 125.965 17.5 126.424 17.308C126.883 17.1053 127.208 16.908 127.4 16.716V15.34H125.272V13.436H129.512V17.868C128.819 18.4653 128.099 18.924 127.352 19.244C126.605 19.5533 125.693 19.708 124.616 19.708C122.984 19.708 121.608 19.1747 120.488 18.108C119.368 17.0307 118.808 15.628 118.808 13.9C118.808 12.268 119.352 10.892 120.44 9.772C121.539 8.652 122.931 8.092 124.616 8.092ZM130.665 16.908C130.665 16.0867 130.964 15.42 131.561 14.908C132.159 14.396 132.943 14.14 133.913 14.14C134.671 14.14 135.273 14.2947 135.721 14.604V14.06C135.721 13.6867 135.588 13.388 135.321 13.164C135.055 12.94 134.681 12.828 134.201 12.828C133.487 12.828 132.745 13.0253 131.977 13.42L131.145 11.916C131.551 11.6387 132.047 11.404 132.633 11.212C133.231 11.02 133.833 10.924 134.441 10.924C135.7 10.924 136.596 11.2173 137.129 11.804C137.663 12.38 137.929 13.18 137.929 14.204V19.5H135.977L135.833 18.956C135.364 19.4573 134.687 19.708 133.801 19.708C132.916 19.708 132.169 19.4573 131.561 18.956C130.964 18.444 130.665 17.7613 130.665 16.908ZM133.273 16.012C133.007 16.2253 132.873 16.5027 132.873 16.844C132.873 17.1853 133.012 17.4627 133.289 17.676C133.567 17.8893 133.913 17.996 134.329 17.996C134.756 17.996 135.103 17.8947 135.369 17.692C135.636 17.4787 135.769 17.196 135.769 16.844C135.769 16.4813 135.636 16.1987 135.369 15.996C135.103 15.7827 134.751 15.676 134.313 15.676C133.887 15.676 133.54 15.788 133.273 16.012ZM144.031 10.924V13.164C142.527 13.164 141.775 14.06 141.775 15.852V19.5H139.567V11.132H141.727V12.348C141.919 11.9213 142.218 11.58 142.623 11.324C143.028 11.0573 143.498 10.924 144.031 10.924ZM149.461 17.756C150.111 17.756 150.741 17.5053 151.349 17.004L151.941 18.812C151.194 19.4093 150.325 19.708 149.333 19.708C148.031 19.708 146.959 19.2973 146.117 18.476C145.285 17.6547 144.869 16.6093 144.869 15.34C144.869 14.0707 145.29 13.02 146.133 12.188C146.986 11.3453 148.047 10.924 149.317 10.924C150.298 10.924 151.178 11.2227 151.957 11.82L151.333 13.676C150.746 13.1427 150.095 12.876 149.381 12.876C148.687 12.876 148.127 13.1107 147.701 13.58C147.285 14.0493 147.077 14.6307 147.077 15.324C147.077 16.0387 147.301 16.6253 147.749 17.084C148.197 17.532 148.767 17.756 149.461 17.756ZM153.081 10.204L154.153 7.9H156.473L154.921 10.204H153.081ZM153.177 19.5V11.132H155.385V19.5H153.177ZM156.65 16.908C156.65 16.0867 156.948 15.42 157.546 14.908C158.143 14.396 158.927 14.14 159.898 14.14C160.655 14.14 161.258 14.2947 161.706 14.604V14.06C161.706 13.6867 161.572 13.388 161.306 13.164C161.039 12.94 160.666 12.828 160.186 12.828C159.471 12.828 158.73 13.0253 157.962 13.42L157.13 11.916C157.535 11.6387 158.031 11.404 158.618 11.212C159.215 11.02 159.818 10.924 160.426 10.924C161.684 10.924 162.58 11.2173 163.114 11.804C163.647 12.38 163.914 13.18 163.914 14.204V19.5H161.962L161.818 18.956C161.348 19.4573 160.671 19.708 159.786 19.708C158.9 19.708 158.154 19.4573 157.546 18.956C156.948 18.444 156.65 17.7613 156.65 16.908ZM159.258 16.012C158.991 16.2253 158.858 16.5027 158.858 16.844C158.858 17.1853 158.996 17.4627 159.274 17.676C159.551 17.8893 159.898 17.996 160.314 17.996C160.74 17.996 161.087 17.8947 161.354 17.692C161.62 17.4787 161.754 17.196 161.754 16.844C161.754 16.4813 161.62 16.1987 161.354 15.996C161.087 15.7827 160.735 15.676 160.298 15.676C159.871 15.676 159.524 15.788 159.258 16.012Z" fill="#676767"/>
<path d="M71.0264 44.5H69.6344L65.3784 33.3H66.8024L70.3224 42.964L73.8584 33.3H75.2824L71.0264 44.5ZM75.4815 40.372C75.4815 39.0707 75.8708 38.0147 76.6495 37.204C77.4282 36.3827 78.3828 35.972 79.5135 35.972C80.7188 35.972 81.6788 36.3667 82.3935 37.156C83.1082 37.9347 83.4655 38.9587 83.4655 40.228C83.4655 40.3773 83.4602 40.5053 83.4495 40.612H76.7775C76.7882 41.5293 77.0708 42.2547 77.6255 42.788C78.1802 43.3213 78.8948 43.588 79.7695 43.588C80.8788 43.588 81.7428 43.156 82.3615 42.292L83.1935 42.9C82.9055 43.38 82.4735 43.8013 81.8975 44.164C81.3215 44.5267 80.6068 44.708 79.7535 44.708C78.4948 44.708 77.4655 44.308 76.6655 43.508C75.8762 42.6973 75.4815 41.652 75.4815 40.372ZM76.8415 39.668H82.1695C82.1268 38.836 81.8548 38.196 81.3535 37.748C80.8522 37.2893 80.2388 37.06 79.5135 37.06C78.8202 37.06 78.2122 37.3053 77.6895 37.796C77.1668 38.276 76.8842 38.9 76.8415 39.668ZM88.8004 35.972V37.236C87.1577 37.236 86.3364 38.3293 86.3364 40.516V44.5H85.0724V36.18H86.3204V37.572C86.4697 37.124 86.7684 36.7453 87.2164 36.436C87.675 36.1267 88.203 35.972 88.8004 35.972ZM94.2755 47.492V36.18H95.4915V37.492C96.1848 36.4787 97.1502 35.972 98.3875 35.972C99.5715 35.972 100.542 36.3827 101.3 37.204C102.068 38.0147 102.452 39.0547 102.452 40.324C102.452 41.6147 102.084 42.6707 101.348 43.492C100.612 44.3027 99.6568 44.708 98.4835 44.708C97.7262 44.708 97.0968 44.5373 96.5955 44.196C96.0942 43.8547 95.7422 43.508 95.5395 43.156V47.492H94.2755ZM95.4915 40.324C95.4915 41.316 95.7635 42.1053 96.3075 42.692C96.8515 43.268 97.5288 43.556 98.3395 43.556C99.1608 43.556 99.8328 43.2573 100.356 42.66C100.889 42.052 101.156 41.2733 101.156 40.324C101.156 39.364 100.884 38.5907 100.34 38.004C99.8062 37.4173 99.1288 37.124 98.3075 37.124C97.4648 37.124 96.7822 37.4333 96.2595 38.052C95.7475 38.6707 95.4915 39.428 95.4915 40.324ZM103.544 40.372C103.544 39.0707 103.933 38.0147 104.712 37.204C105.491 36.3827 106.445 35.972 107.576 35.972C108.781 35.972 109.741 36.3667 110.456 37.156C111.171 37.9347 111.528 38.9587 111.528 40.228C111.528 40.3773 111.523 40.5053 111.512 40.612H104.84C104.851 41.5293 105.133 42.2547 105.688 42.788C106.243 43.3213 106.957 43.588 107.832 43.588C108.941 43.588 109.805 43.156 110.424 42.292L111.256 42.9C110.968 43.38 110.536 43.8013 109.96 44.164C109.384 44.5267 108.669 44.708 107.816 44.708C106.557 44.708 105.528 44.308 104.728 43.508C103.939 42.6973 103.544 41.652 103.544 40.372ZM104.904 39.668H110.232C110.189 38.836 109.917 38.196 109.416 37.748C108.915 37.2893 108.301 37.06 107.576 37.06C106.883 37.06 106.275 37.3053 105.752 37.796C105.229 38.276 104.947 38.9 104.904 39.668ZM116.863 35.972V37.236C115.22 37.236 114.399 38.3293 114.399 40.516V44.5H113.135V36.18H114.383V37.572C114.532 37.124 114.831 36.7453 115.279 36.436C115.738 36.1267 116.266 35.972 116.863 35.972ZM118.532 44.5V37.252H117.604V36.18H118.532V35.748C118.532 34.7773 118.777 34.0733 119.268 33.636C119.758 33.1987 120.382 32.98 121.14 32.98L121.668 33.012V34.116C121.529 34.0947 121.396 34.084 121.268 34.084C120.297 34.084 119.812 34.6387 119.812 35.748V36.18H121.588V37.252H119.812V44.5H118.532ZM122.979 44.5V36.18H124.243V44.5H122.979ZM122.739 34.036C122.739 33.8013 122.819 33.5987 122.979 33.428C123.149 33.2573 123.357 33.172 123.603 33.172C123.848 33.172 124.056 33.2573 124.227 33.428C124.397 33.588 124.483 33.7907 124.483 34.036C124.483 34.2813 124.397 34.4893 124.227 34.66C124.056 34.8307 123.848 34.916 123.603 34.916C123.357 34.916 123.149 34.8307 122.979 34.66C122.819 34.4893 122.739 34.2813 122.739 34.036ZM126.416 44.5V32.932H127.68V44.5H126.416Z" fill="#ACACAC"/>
<path d="M142 44.5L146 40.5L142 36.5" stroke="#ACACAC" stroke-width="1.5" stroke-linecap="round" stroke-linejoin="round"/>
</svg>
