<svg width="350" height="353" viewBox="0 0 350 353" fill="none" xmlns="http://www.w3.org/2000/svg">
<rect width="350" height="353" rx="5.46875" fill="#9F66DB"/>
<mask id="mask0_678_6786" style="mask-type:alpha" maskUnits="userSpaceOnUse" x="0" y="0" width="350" height="353">
<rect width="350" height="353" rx="5.46875" fill="#9F66DB"/>
</mask>
<g mask="url(#mask0_678_6786)">
<path d="M40.8724 43.7677C37.3511 42.4177 34.3091 40.0537 32.1312 36.9748C29.9534 33.8959 28.7374 30.2402 28.6371 26.4703C28.5369 22.7003 29.5568 18.9852 31.5679 15.7949C33.579 12.6045 36.491 10.0822 39.9357 8.54685C43.3803 7.0115 47.2029 6.53209 50.92 7.16923C54.6371 7.80637 58.0818 9.53147 60.8185 12.1263C63.5552 14.7212 65.461 18.0694 66.2948 21.7473C67.1286 25.4253 66.8531 29.268 65.503 32.7894L56.6657 29.4012C57.3456 27.6277 57.4844 25.6923 57.0644 23.8399C56.6445 21.9876 55.6847 20.3013 54.3063 18.9944C52.928 17.6875 51.1931 16.8187 49.321 16.4978C47.4489 16.1769 45.5237 16.4183 43.7888 17.1916C42.0539 17.9649 40.5873 19.2352 39.5744 20.842C38.5616 22.4488 38.0479 24.3199 38.0984 26.2186C38.1489 28.1173 38.7613 29.9585 39.8582 31.5092C40.955 33.0598 42.4871 34.2504 44.2606 34.9304L40.8724 43.7677Z" fill="#FFA666"/>
<path d="M23.699 9.82762C43.5317 17.0266 53.7734 38.9402 46.5744 58.7729C39.3754 78.6057 17.4619 88.8473 -2.37089 81.6483C-22.2036 74.4493 -32.4453 52.5358 -25.2463 32.703C-18.0473 12.8703 3.86624 2.62862 23.699 9.82762ZM5.98183 58.6372C13.1059 61.2231 20.9773 57.5442 23.5632 50.4202C26.1492 43.2962 22.4703 35.4247 15.3463 32.8388C8.22224 30.2529 0.350771 33.9317 -2.23515 41.0558C-4.82106 48.1798 -1.1422 56.0513 5.98183 58.6372Z" fill="#BF99E7"/>
<path d="M361.668 2.78258C381.5 9.98157 391.742 31.8951 384.543 51.7279C377.344 71.5606 355.431 81.8023 335.598 74.6033C315.765 67.4043 305.523 45.4907 312.722 25.658C319.921 5.82526 341.835 -4.41642 361.668 2.78258ZM343.951 51.5921C351.075 54.178 358.946 50.4992 361.532 43.3752C364.118 36.2511 360.439 28.3797 353.315 25.7937C346.191 23.2078 338.32 26.8867 335.734 34.0107C333.148 41.1347 336.827 49.0062 343.951 51.5921Z" fill="#BF99E7"/>
<path d="M31.1481 252.105C76.9533 268.731 100.607 319.342 83.9806 365.148C67.3539 410.953 16.7429 434.607 -29.0623 417.98C-74.8675 401.354 -98.5215 350.743 -81.8948 304.937C-65.2682 259.132 -14.6572 235.478 31.1481 252.105ZM-9.77106 364.834C6.68242 370.807 24.8622 362.31 30.8345 345.856C36.8069 329.403 28.3103 311.223 11.8568 305.251C-4.59667 299.278 -22.7764 307.775 -28.7488 324.229C-34.7212 340.682 -26.2245 358.862 -9.77106 364.834Z" fill="#BF99E7"/>
<path d="M20.6763 8.93565C26.7081 10.5737 32.2458 13.6667 36.8038 17.9433C41.3619 22.22 44.801 27.5496 46.8197 33.4649L23.6513 41.3712C22.9262 39.2464 21.6909 37.332 20.0536 35.7958C18.4163 34.2596 16.4271 33.1486 14.2605 32.5602L20.6763 8.93565Z" fill="#DFCCF3"/>
<path d="M-5.02037 128.833C-1.2665 128.471 2.51053 129.23 5.83308 131.014C9.15563 132.798 11.8745 135.527 13.6458 138.857C15.4171 142.186 16.1614 145.966 15.7845 149.719C15.4075 153.471 13.9263 157.028 11.5282 159.938C9.13002 162.849 5.92262 164.983 2.31157 166.071C-1.29948 167.158 -5.15199 167.151 -8.75879 166.049C-12.3656 164.947 -15.5647 162.801 -17.9515 159.881C-20.3384 156.961 -21.8057 153.399 -22.1681 149.645L-12.7473 148.736C-12.5648 150.626 -11.8258 152.42 -10.6237 153.891C-9.42154 155.362 -7.81034 156.443 -5.99379 156.998C-4.17725 157.552 -2.23695 157.556 -0.418269 157.008C1.40042 156.46 3.0158 155.386 4.22362 153.92C5.43144 152.454 6.17744 150.663 6.36728 148.773C6.55712 146.883 6.18228 144.979 5.29016 143.302C4.39804 141.625 3.0287 140.251 1.35532 139.352C-0.318067 138.453 -2.22035 138.071 -4.11096 138.254L-5.02037 128.833Z" fill="#7EF9FF"/>
<path d="M326.98 282.833C330.733 282.471 334.511 283.23 337.833 285.014C341.156 286.798 343.874 289.527 345.646 292.857C347.417 296.186 348.161 299.966 347.784 303.719C347.408 307.471 345.926 311.028 343.528 313.938C341.13 316.849 337.923 318.983 334.312 320.071C330.701 321.158 326.848 321.151 323.241 320.049C319.634 318.947 316.435 316.801 314.048 313.881C311.662 310.961 310.194 307.399 309.832 303.645L319.253 302.736C319.435 304.626 320.174 306.42 321.376 307.891C322.578 309.362 324.19 310.443 326.006 310.998C327.823 311.552 329.763 311.556 331.582 311.008C333.4 310.46 335.016 309.386 336.224 307.92C337.431 306.454 338.177 304.663 338.367 302.773C338.557 300.883 338.182 298.979 337.29 297.302C336.398 295.625 335.029 294.251 333.355 293.352C331.682 292.453 329.78 292.071 327.889 292.254L326.98 282.833Z" fill="#7EF9FF"/>
<path d="M243.933 -47.4156C249.963 -53.5035 257.773 -57.5159 266.234 -58.8726C274.695 -60.2292 283.368 -58.8599 291 -54.9626C298.631 -51.0652 304.825 -44.8419 308.687 -37.1922C312.548 -29.5426 313.877 -20.8631 312.48 -12.4086C311.084 -3.9542 307.035 3.83708 300.919 9.83871C294.802 15.8403 286.936 19.7413 278.457 20.9776C269.977 22.2139 261.325 20.7215 253.749 16.7161C246.174 12.7107 240.069 6.39998 236.317 -1.30377L245.215 -5.6379C248.048 0.178079 252.657 4.94243 258.376 7.96631C264.095 10.9902 270.627 12.1169 277.029 11.1836C283.43 10.2502 289.369 7.30513 293.987 2.77417C298.604 -1.7568 301.661 -7.63886 302.715 -14.0216C303.769 -20.4043 302.766 -26.9569 299.851 -32.7321C296.936 -38.5072 292.26 -43.2056 286.498 -46.1479C280.737 -49.0902 274.189 -50.124 267.801 -49.0998C261.414 -48.0755 255.517 -45.0464 250.965 -40.4503L243.933 -47.4156Z" fill="#7EF9FF"/>
<path d="M348.825 53.4951C377.999 46.594 407.244 64.6502 414.145 93.8247C421.046 122.999 402.99 152.244 373.816 159.145C344.641 166.046 315.396 147.99 308.495 118.816C301.594 89.6411 319.65 60.3961 348.825 53.4951ZM366.783 129.416C379.539 126.398 387.433 113.612 384.416 100.857C381.399 88.1017 368.613 80.2075 355.857 83.2246C343.102 86.2418 335.208 99.0279 338.225 111.783C341.242 124.539 354.028 132.433 366.783 129.416Z" fill="#FFA666"/>
<path d="M288.588 353.961C295.541 319.189 329.365 296.637 364.137 303.589C398.909 310.541 421.461 344.366 414.508 379.138C407.556 413.909 373.732 436.462 338.96 429.509C304.188 422.557 281.636 388.732 288.588 353.961ZM379.075 372.053C382.115 356.85 372.255 342.062 357.052 339.022C341.85 335.983 327.061 345.843 324.022 361.045C320.982 376.248 330.842 391.036 346.045 394.076C361.247 397.115 376.035 387.255 379.075 372.053Z" fill="#FFC499"/>
<path d="M288.588 353.961C290.413 344.833 294.201 336.211 299.69 328.692C305.178 321.174 312.236 314.939 320.374 310.419L337.919 342.009C334.361 343.985 331.275 346.711 328.875 349.998C326.476 353.285 324.82 357.055 324.022 361.045L288.588 353.961Z" fill="#FFE1CC"/>
</g>
</svg>
