<svg width="1290" height="501" viewBox="0 0 1290 501" fill="none" xmlns="http://www.w3.org/2000/svg">
<rect width="1290" height="501" rx="5.46875" fill="#9F66DB"/>
<mask id="mask0_1420_16095" style="mask-type:alpha" maskUnits="userSpaceOnUse" x="0" y="0" width="1290" height="501">
<rect width="1290" height="501" rx="5.47" fill="#9F66DB"/>
</mask>
<g mask="url(#mask0_1420_16095)">
<circle cx="45.4607" cy="-15.0393" r="142.461" fill="#BF99E7"/>
<circle cx="1210.5" cy="45.5" r="208.5" fill="#BF99E7"/>
<path d="M187.921 -15.0393C187.921 63.6396 124.14 127.421 45.4607 127.421C-33.2182 127.421 -97 63.6396 -97 -15.0393C-97 -93.7182 -33.2182 -157.5 45.4607 -157.5C124.14 -157.5 187.921 -93.7182 187.921 -15.0393ZM-71.062 -15.0393C-71.062 49.3145 -18.893 101.483 45.4607 101.483C109.814 101.483 161.983 49.3145 161.983 -15.0393C161.983 -79.393 109.814 -131.562 45.4607 -131.562C-18.893 -131.562 -71.062 -79.393 -71.062 -15.0393Z" fill="#DFCCF3"/>
<path d="M1419 45.5C1419 160.651 1325.65 254 1210.5 254C1095.35 254 1002 160.651 1002 45.5C1002 -69.6514 1095.35 -163 1210.5 -163C1325.65 -163 1419 -69.6514 1419 45.5ZM1039.96 45.5C1039.96 139.686 1116.31 216.038 1210.5 216.038C1304.69 216.038 1381.04 139.686 1381.04 45.5C1381.04 -48.6856 1304.69 -125.038 1210.5 -125.038C1116.31 -125.038 1039.96 -48.6856 1039.96 45.5Z" fill="#DFCCF3"/>
<circle cx="672.461" cy="429.461" r="142.461" fill="#7F33CF"/>
<path d="M1309 41.5C1309 72.7041 1283.93 98 1253 98C1222.07 98 1197 72.7041 1197 41.5C1197 10.2959 1222.07 -15 1253 -15C1283.93 -15 1309 10.2959 1309 41.5ZM1232.06 41.5C1232.06 53.1689 1241.43 62.6283 1253 62.6283C1264.57 62.6283 1273.94 53.1689 1273.94 41.5C1273.94 29.8311 1264.57 20.3717 1253 20.3717C1241.43 20.3717 1232.06 29.8311 1232.06 41.5Z" fill="#FFA666"/>
<path d="M1251 349.808C1251 369.032 1235.55 384.616 1216.5 384.616C1197.45 384.616 1182 369.032 1182 349.808C1182 330.584 1197.45 315 1216.5 315C1235.55 315 1251 330.584 1251 349.808ZM1203.6 349.808C1203.6 356.997 1209.37 362.825 1216.5 362.825C1223.63 362.825 1229.4 356.997 1229.4 349.808C1229.4 342.619 1223.63 336.791 1216.5 336.791C1209.37 336.791 1203.6 342.619 1203.6 349.808Z" fill="#FFA666"/>
<path d="M349 381.5C349 411.047 325.047 435 295.5 435C265.953 435 242 411.047 242 381.5C242 351.953 265.953 328 295.5 328C325.047 328 349 351.953 349 381.5ZM275.494 381.5C275.494 392.549 284.451 401.506 295.5 401.506C306.549 401.506 315.506 392.549 315.506 381.5C315.506 370.451 306.549 361.494 295.5 361.494C284.451 361.494 275.494 370.451 275.494 381.5Z" fill="#FFA666"/>
<path d="M1309 41.5C1309 72.7041 1283.93 98 1253 98C1222.07 98 1197 72.7041 1197 41.5C1197 10.2959 1222.07 -15 1253 -15C1283.93 -15 1309 10.2959 1309 41.5ZM1211.5 41.5C1211.5 64.622 1230.08 83.366 1253 83.366C1275.92 83.366 1294.5 64.622 1294.5 41.5C1294.5 18.378 1275.92 -0.366001 1253 -0.366001C1230.08 -0.366001 1211.5 18.378 1211.5 41.5Z" fill="#FFC499"/>
<path d="M1251 349.808C1251 369.032 1235.55 384.616 1216.5 384.616C1197.45 384.616 1182 369.032 1182 349.808C1182 330.584 1197.45 315 1216.5 315C1235.55 315 1251 330.584 1251 349.808ZM1190.94 349.808C1190.94 364.053 1202.38 375.6 1216.5 375.6C1230.62 375.6 1242.06 364.053 1242.06 349.808C1242.06 335.563 1230.62 324.016 1216.5 324.016C1202.38 324.016 1190.94 335.563 1190.94 349.808Z" fill="#FFC499"/>
<path d="M349 381.5C349 411.047 325.047 435 295.5 435C265.953 435 242 411.047 242 381.5C242 351.953 265.953 328 295.5 328C325.047 328 349 351.953 349 381.5ZM255.857 381.5C255.857 403.394 273.606 421.143 295.5 421.143C317.394 421.143 335.143 403.394 335.143 381.5C335.143 359.606 317.394 341.857 295.5 341.857C273.606 341.857 255.857 359.606 255.857 381.5Z" fill="#FFC499"/>
<path d="M1234 97.5C1234 111.031 1223.03 122 1209.5 122C1195.97 122 1185 111.031 1185 97.5C1185 83.969 1195.97 73 1209.5 73C1223.03 73 1234 83.969 1234 97.5ZM1197.69 97.5C1197.69 104.025 1202.97 109.315 1209.5 109.315C1216.03 109.315 1221.31 104.025 1221.31 97.5C1221.31 90.975 1216.03 85.6854 1209.5 85.6854C1202.97 85.6854 1197.69 90.975 1197.69 97.5Z" fill="#1ACBD5"/>
<path d="M275 422.5C275 531.576 186.576 620 77.5 620C-31.5762 620 -120 531.576 -120 422.5C-120 313.424 -31.5762 225 77.5 225C186.576 225 275 313.424 275 422.5ZM-17.7399 422.5C-17.7399 475.1 24.9004 517.74 77.5 517.74C130.1 517.74 172.74 475.1 172.74 422.5C172.74 369.9 130.1 327.26 77.5 327.26C24.9004 327.26 -17.7399 369.9 -17.7399 422.5Z" fill="#1ACBD5"/>
<path d="M284.706 -0.147026C284.706 41.7454 250.745 75.7059 208.853 75.7059C166.961 75.7059 133 41.7454 133 -0.147026C133 -42.0395 166.961 -76 208.853 -76C250.745 -76 284.706 -42.0395 284.706 -0.147026ZM180.192 -0.147026C180.192 15.6822 193.024 28.5143 208.853 28.5143C224.682 28.5143 237.514 15.6822 237.514 -0.147026C237.514 -15.9762 224.682 -28.8083 208.853 -28.8083C193.024 -28.8083 180.192 -15.9762 180.192 -0.147026Z" fill="#79E0E5"/>
<path d="M1376.71 473.853C1376.71 536.733 1325.73 587.706 1262.85 587.706C1199.97 587.706 1149 536.733 1149 473.853C1149 410.974 1199.97 360 1262.85 360C1325.73 360 1376.71 410.974 1376.71 473.853ZM1219.83 473.853C1219.83 497.612 1239.09 516.873 1262.85 516.873C1286.61 516.873 1305.87 497.612 1305.87 473.853C1305.87 450.094 1286.61 430.833 1262.85 430.833C1239.09 430.833 1219.83 450.094 1219.83 473.853Z" fill="#1ACBD5"/>
<path d="M1234 97.5C1234 111.031 1223.03 122 1209.5 122C1195.97 122 1185 111.031 1185 97.5C1185 83.969 1195.97 73 1209.5 73C1223.03 73 1234 83.969 1234 97.5ZM1191.17 97.5C1191.17 107.622 1199.38 115.827 1209.5 115.827C1219.62 115.827 1227.83 107.622 1227.83 97.5C1227.83 87.3785 1219.62 79.1734 1209.5 79.1734C1199.38 79.1734 1191.17 87.3785 1191.17 97.5Z" fill="#79E0E6"/>
<path d="M275 418.5C275 527.576 186.576 616 77.5 616C-31.5762 616 -120 527.576 -120 418.5C-120 309.424 -31.5762 221 77.5 221C186.576 221 275 309.424 275 418.5ZM-70.235 418.5C-70.235 500.092 -4.09176 566.235 77.5 566.235C159.092 566.235 225.235 500.092 225.235 418.5C225.235 336.908 159.092 270.765 77.5 270.765C-4.09176 270.765 -70.235 336.908 -70.235 418.5Z" fill="#79E0E6"/>
<path d="M284.706 -0.147026C284.706 41.7454 250.745 75.7059 208.853 75.7059C166.961 75.7059 133 41.7454 133 -0.147026C133 -42.0395 166.961 -76 208.853 -76C250.745 -76 284.706 -42.0395 284.706 -0.147026ZM148.367 -0.147026C148.367 33.2584 175.448 60.3388 208.853 60.3388C242.258 60.3388 269.339 33.2584 269.339 -0.147026C269.339 -33.5524 242.258 -60.6328 208.853 -60.6328C175.448 -60.6328 148.367 -33.5524 148.367 -0.147026Z" fill="#1ACAD4"/>
<path d="M1376.71 473.853C1376.71 536.733 1325.73 587.706 1262.85 587.706C1199.97 587.706 1149 536.733 1149 473.853C1149 410.974 1199.97 360 1262.85 360C1325.73 360 1376.71 410.974 1376.71 473.853ZM1172.07 473.853C1172.07 523.994 1212.71 564.641 1262.85 564.641C1312.99 564.641 1353.64 523.994 1353.64 473.853C1353.64 423.713 1312.99 383.066 1262.85 383.066C1212.71 383.066 1172.07 423.713 1172.07 473.853Z" fill="#79E0E6"/>
</g>
<path d="M919 286.5C919 314.39 896.39 337 868.5 337C840.61 337 818 314.39 818 286.5C818 258.61 840.61 236 868.5 236C896.39 236 919 258.61 919 286.5ZM849.418 286.5C849.418 297.038 857.962 305.582 868.5 305.582C879.038 305.582 887.582 297.038 887.582 286.5C887.582 275.962 879.038 267.418 868.5 267.418C857.962 267.418 849.418 275.962 849.418 286.5Z" fill="#1ACBD5"/>
<path d="M919 286.5C919 314.39 896.39 337 868.5 337C840.61 337 818 314.39 818 286.5C818 258.61 840.61 236 868.5 236C896.39 236 919 258.61 919 286.5ZM828.231 286.5C828.231 308.74 846.26 326.769 868.5 326.769C890.74 326.769 908.769 308.74 908.769 286.5C908.769 264.26 890.74 246.231 868.5 246.231C846.26 246.231 828.231 264.26 828.231 286.5Z" fill="#79E0E6"/>
</svg>
