<svg width="122" height="121" viewBox="0 0 122 121" fill="none" xmlns="http://www.w3.org/2000/svg">
<g filter="url(#filter0_d_1935_31557)">
<g filter="url(#filter1_d_1935_31557)">
<circle cx="55.9953" cy="53.6222" r="30.3546" fill="white"/>
</g>
</g>
<path d="M63.9086 49.993L52.2221 43.2908C51.5897 42.9256 50.872 42.7343 50.1417 42.7363C49.4115 42.7383 48.6948 42.9336 48.0644 43.3022C47.4341 43.6708 46.9125 44.1997 46.5527 44.8352C46.1929 45.4706 46.0077 46.19 46.0159 46.9202V60.373C46.0159 61.4703 46.4518 62.5227 47.2277 63.2986C48.0036 64.0745 49.056 64.5105 50.1534 64.5105C50.8798 64.5092 51.5931 64.3173 52.2221 63.954L63.9086 57.2517C64.5366 56.8883 65.0579 56.3661 65.4204 55.7376C65.7828 55.1091 65.9736 54.3963 65.9736 53.6708C65.9736 52.9452 65.7828 52.2324 65.4204 51.6039C65.0579 50.9754 64.5366 50.4532 63.9086 50.0898V49.993ZM62.6988 55.062L51.0123 61.861C50.7504 62.0095 50.4544 62.0875 50.1534 62.0875C49.8523 62.0875 49.5563 62.0095 49.2944 61.861C49.0332 61.7102 48.8163 61.4933 48.6655 61.2321C48.5148 60.9709 48.4354 60.6746 48.4355 60.373V46.8718C48.4354 46.5702 48.5148 46.2739 48.6655 46.0126C48.8163 45.7514 49.0332 45.5345 49.2944 45.3837C49.5574 45.2375 49.8525 45.1586 50.1534 45.1539C50.454 45.16 50.7487 45.2389 51.0123 45.3837L62.6988 52.1343C62.9601 52.2851 63.1771 52.502 63.328 52.7632C63.4789 53.0244 63.5583 53.3207 63.5583 53.6224C63.5583 53.924 63.4789 54.2204 63.328 54.4816C63.1771 54.7428 62.9601 54.9597 62.6988 55.1104V55.062Z" fill="#FF8833"/>
<defs>
<filter id="filter0_d_1935_31557" x="0.640625" y="0.267578" width="120.709" height="120.709" filterUnits="userSpaceOnUse" color-interpolation-filters="sRGB">
<feFlood flood-opacity="0" result="BackgroundImageFix"/>
<feColorMatrix in="SourceAlpha" type="matrix" values="0 0 0 0 0 0 0 0 0 0 0 0 0 0 0 0 0 0 127 0" result="hardAlpha"/>
<feOffset dx="5" dy="7"/>
<feGaussianBlur stdDeviation="15"/>
<feComposite in2="hardAlpha" operator="out"/>
<feColorMatrix type="matrix" values="0 0 0 0 1 0 0 0 0 0.411765 0 0 0 0 0 0 0 0 0.15 0"/>
<feBlend mode="normal" in2="BackgroundImageFix" result="effect1_dropShadow_1935_31557"/>
<feBlend mode="normal" in="SourceGraphic" in2="effect1_dropShadow_1935_31557" result="shape"/>
</filter>
<filter id="filter1_d_1935_31557" x="0.640625" y="0.267578" width="120.709" height="120.709" filterUnits="userSpaceOnUse" color-interpolation-filters="sRGB">
<feFlood flood-opacity="0" result="BackgroundImageFix"/>
<feColorMatrix in="SourceAlpha" type="matrix" values="0 0 0 0 0 0 0 0 0 0 0 0 0 0 0 0 0 0 127 0" result="hardAlpha"/>
<feOffset dx="5" dy="7"/>
<feGaussianBlur stdDeviation="15"/>
<feComposite in2="hardAlpha" operator="out"/>
<feColorMatrix type="matrix" values="0 0 0 0 1 0 0 0 0 0.411765 0 0 0 0 0 0 0 0 0.15 0"/>
<feBlend mode="normal" in2="BackgroundImageFix" result="effect1_dropShadow_1935_31557"/>
<feBlend mode="normal" in="SourceGraphic" in2="effect1_dropShadow_1935_31557" result="shape"/>
</filter>
</defs>
</svg>
