<svg width="1440" height="279" viewBox="0 0 1440 279" fill="none" xmlns="http://www.w3.org/2000/svg">
<rect width="1440" height="279" rx="5.46875" fill="#00B1BB"/>
<mask id="mask0_1887_23792" style="mask-type:alpha" maskUnits="userSpaceOnUse" x="0" y="0" width="1440" height="279">
<rect width="1440" height="279" fill="#9F66DB"/>
</mask>
<g mask="url(#mask0_1887_23792)">
<path d="M251.12 124.38C237.379 147.918 207.158 155.861 183.62 142.12C160.082 128.379 152.139 98.1584 165.88 74.62C179.621 51.0816 209.841 43.1391 233.38 56.8799C256.918 70.6207 264.861 100.841 251.12 124.38ZM192.407 90.1056C187.219 98.9934 190.218 110.404 199.106 115.593C207.993 120.781 219.404 117.782 224.593 108.894C229.781 100.006 226.782 88.5955 217.894 83.4072C209.006 78.2188 197.595 81.2178 192.407 90.1056Z" fill="#FFA666"/>
<path d="M251.12 124.38C237.379 147.918 207.158 155.861 183.62 142.12C160.082 128.379 152.139 98.1584 165.88 74.62C179.621 51.0816 209.841 43.1391 233.38 56.8799C256.918 70.6207 264.861 100.841 251.12 124.38ZM173.678 79.1725C162.452 98.4039 168.941 123.095 188.173 134.321C207.404 145.548 232.095 139.059 243.321 119.827C254.548 100.596 248.059 75.905 228.827 64.6785C209.596 53.4519 184.905 59.9412 173.678 79.1725Z" fill="#FFC499"/>
<path d="M280.56 445.966C209.615 567.497 53.5821 608.505 -67.949 537.56C-189.48 466.615 -230.488 310.583 -159.543 189.051C-88.5982 67.5204 67.4345 26.5123 188.966 97.4573C310.497 168.402 351.505 324.435 280.56 445.966ZM-22.5803 269.005C-49.3682 314.894 -33.8841 373.809 12.0045 400.597C57.893 427.385 116.809 411.901 143.597 366.013C170.385 320.124 154.901 261.208 109.012 234.42C63.1235 207.632 4.20761 223.116 -22.5803 269.005Z" fill="#BF99E7"/>
<path d="M280.56 445.966C209.615 567.497 53.5821 608.505 -67.949 537.56C-189.48 466.615 -230.488 310.583 -159.543 189.051C-88.5982 67.5204 67.4345 26.5123 188.966 97.4573C310.497 168.402 351.505 324.435 280.56 445.966ZM-119.278 212.556C-177.242 311.85 -143.737 439.332 -44.444 497.295C54.8494 555.259 182.331 521.754 240.295 422.461C298.259 323.168 264.754 195.686 165.461 137.722C66.1671 79.7585 -61.3149 113.263 -119.278 212.556Z" fill="#DFCCF3"/>
<path d="M1424 -18C1424 69.261 1353.26 140 1266 140C1178.74 140 1108 69.261 1108 -18C1108 -105.261 1178.74 -176 1266 -176C1353.26 -176 1424 -105.261 1424 -18ZM1146.63 -18C1146.63 47.9272 1200.07 101.372 1266 101.372C1331.93 101.372 1385.37 47.9272 1385.37 -18C1385.37 -83.9272 1331.93 -137.372 1266 -137.372C1200.07 -137.372 1146.63 -83.9272 1146.63 -18Z" fill="#FFC499"/>
<path d="M1124.45 313.16C1154.89 380.626 1124.88 460 1057.41 490.446C989.948 520.893 910.574 490.882 880.128 423.415C849.681 355.948 879.692 276.574 947.159 246.128C1014.63 215.682 1094 245.693 1124.45 313.16ZM901.632 413.71C926.719 469.3 992.12 494.028 1047.71 468.942C1103.3 443.855 1128.03 378.454 1102.94 322.864C1077.85 267.275 1012.45 242.547 956.864 267.633C901.274 292.72 876.546 358.12 901.632 413.71Z" fill="#62DEE5"/>
</g>
</svg>
