<svg width="74" height="74" viewBox="0 0 74 74" fill="none" xmlns="http://www.w3.org/2000/svg">
<path d="M38.0058 44.4945C37.9361 44.4304 37.8602 44.3734 37.7792 44.3245C37.7068 44.2684 37.6254 44.2253 37.5383 44.197C37.454 44.1539 37.363 44.1251 37.2692 44.112C36.9978 44.0546 36.7152 44.0844 36.4617 44.197C36.2859 44.2606 36.1262 44.3621 35.994 44.4943C35.8618 44.6265 35.7603 44.7862 35.6967 44.962C35.6174 45.1301 35.5785 45.3145 35.5833 45.5003C35.5811 45.6845 35.6148 45.8674 35.6825 46.0387C35.7646 46.2079 35.8695 46.3652 35.9942 46.5062C36.1265 46.6375 36.2835 46.7413 36.4561 46.8118C36.6287 46.8823 36.8136 46.9181 37 46.917C37.1858 46.9218 37.3702 46.883 37.5383 46.8037C37.71 46.7319 37.8681 46.6313 38.0058 46.5062C38.1371 46.3738 38.241 46.2168 38.3115 46.0442C38.382 45.8716 38.4177 45.6868 38.4167 45.5003C38.4144 45.3152 38.3759 45.1323 38.3033 44.962C38.2359 44.7881 38.1348 44.6292 38.0058 44.4945V44.4945ZM32.1125 38.6578C32.0402 38.6018 31.9587 38.5586 31.8717 38.5303C31.7892 38.4773 31.6981 38.439 31.6025 38.417C31.4208 38.3747 31.2317 38.3747 31.05 38.417L30.795 38.502L30.54 38.6295L30.3275 38.7995C30.0619 39.0781 29.9147 39.4488 29.9167 39.8337C29.9156 40.0201 29.9513 40.2049 30.0218 40.3775C30.0923 40.5501 30.1962 40.7071 30.3275 40.8395C30.4652 40.9646 30.6233 41.0652 30.795 41.137C31.0096 41.2252 31.2426 41.2593 31.4735 41.2363C31.7044 41.2134 31.9261 41.134 32.1192 41.0053C32.3122 40.8766 32.4707 40.7025 32.5807 40.4982C32.6907 40.2939 32.7488 40.0657 32.75 39.8337C32.7448 39.4586 32.598 39.0993 32.3392 38.8278L32.1125 38.6578ZM32.3392 44.4945C32.2044 44.3655 32.0456 44.2644 31.8717 44.197C31.6152 44.0781 31.3291 44.0386 31.05 44.0837L30.795 44.1687C30.7047 44.1997 30.619 44.2425 30.54 44.2962C30.4658 44.3485 30.3948 44.4052 30.3275 44.4662C30.1985 44.6009 30.0974 44.7598 30.03 44.9337C29.9551 45.1032 29.9163 45.2866 29.9163 45.472C29.9163 45.6574 29.9551 45.8408 30.03 46.0103C30.1017 46.182 30.2024 46.3401 30.3275 46.4778C30.4575 46.6142 30.6134 46.7234 30.7862 46.7988C30.9589 46.8742 31.1449 46.9144 31.3333 46.917C31.5192 46.9218 31.7035 46.883 31.8717 46.8037C32.0433 46.7319 32.2015 46.6313 32.3392 46.5062C32.4643 46.3685 32.5649 46.2103 32.6367 46.0387C32.7116 45.8691 32.7503 45.6857 32.7503 45.5003C32.7503 45.3149 32.7116 45.1316 32.6367 44.962C32.5692 44.7881 32.4681 44.6292 32.3392 44.4945V44.4945ZM36.4617 38.5303C36.2878 38.5978 36.1289 38.6989 35.9942 38.8278C35.7353 39.0993 35.5886 39.4586 35.5833 39.8337C35.5845 40.0657 35.6426 40.2939 35.7526 40.4982C35.8626 40.7025 36.0211 40.8766 36.2142 41.0053C36.4072 41.134 36.6289 41.2134 36.8598 41.2363C37.0907 41.2593 37.3237 41.2252 37.5383 41.137C37.71 41.0652 37.8681 40.9646 38.0058 40.8395C38.1371 40.7071 38.241 40.5501 38.3115 40.3775C38.382 40.2049 38.4177 40.0201 38.4167 39.8337C38.4114 39.4586 38.2647 39.0993 38.0058 38.8278C37.8066 38.6313 37.5536 38.4981 37.2788 38.4451C37.004 38.3922 36.7197 38.4218 36.4617 38.5303V38.5303ZM43.6725 44.4945C43.5348 44.3694 43.3767 44.2687 43.205 44.197C42.947 44.0885 42.6627 44.0589 42.3878 44.1118C42.113 44.1648 41.86 44.2979 41.6608 44.4945C41.5319 44.6292 41.4308 44.7881 41.3633 44.962C41.2884 45.1316 41.2497 45.3149 41.2497 45.5003C41.2497 45.6857 41.2884 45.8691 41.3633 46.0387C41.4351 46.2103 41.5357 46.3685 41.6608 46.5062C41.7932 46.6375 41.9502 46.7413 42.1228 46.8118C42.2954 46.8823 42.4802 46.9181 42.6667 46.917C42.8525 46.9218 43.0369 46.883 43.205 46.8037C43.3767 46.7319 43.5348 46.6313 43.6725 46.5062C43.8691 46.3069 44.0022 46.054 44.0552 45.7791C44.1081 45.5043 44.0785 45.22 43.97 44.962C43.9026 44.7881 43.8015 44.6292 43.6725 44.4945ZM42.6667 27.0837H31.3333C30.9576 27.0837 30.5973 27.2329 30.3316 27.4986C30.0659 27.7643 29.9167 28.1246 29.9167 28.5003V34.167C29.9167 34.5427 30.0659 34.903 30.3316 35.1687C30.5973 35.4344 30.9576 35.5837 31.3333 35.5837H42.6667C43.0424 35.5837 43.4027 35.4344 43.6684 35.1687C43.9341 34.903 44.0833 34.5427 44.0833 34.167V28.5003C44.0833 28.1246 43.9341 27.7643 43.6684 27.4986C43.4027 27.2329 43.0424 27.0837 42.6667 27.0837ZM41.25 32.7503H32.75V29.917H41.25V32.7503ZM45.5 21.417H28.5C27.3728 21.417 26.2918 21.8648 25.4948 22.6618C24.6978 23.4588 24.25 24.5398 24.25 25.667V48.3337C24.25 49.4608 24.6978 50.5418 25.4948 51.3389C26.2918 52.1359 27.3728 52.5837 28.5 52.5837H45.5C46.6272 52.5837 47.7082 52.1359 48.5052 51.3389C49.3022 50.5418 49.75 49.4608 49.75 48.3337V25.667C49.75 24.5398 49.3022 23.4588 48.5052 22.6618C47.7082 21.8648 46.6272 21.417 45.5 21.417V21.417ZM46.9167 48.3337C46.9167 48.7094 46.7674 49.0697 46.5017 49.3354C46.2361 49.6011 45.8757 49.7503 45.5 49.7503H28.5C28.1243 49.7503 27.7639 49.6011 27.4983 49.3354C27.2326 49.0697 27.0833 48.7094 27.0833 48.3337V25.667C27.0833 25.2913 27.2326 24.9309 27.4983 24.6653C27.7639 24.3996 28.1243 24.2503 28.5 24.2503H45.5C45.8757 24.2503 46.2361 24.3996 46.5017 24.6653C46.7674 24.9309 46.9167 25.2913 46.9167 25.667V48.3337ZM43.4458 38.6578C43.3735 38.6018 43.292 38.5586 43.205 38.5303C43.1206 38.4872 43.0297 38.4585 42.9358 38.4453C42.7541 38.403 42.5651 38.403 42.3833 38.4453L42.1283 38.5303L41.8733 38.6578L41.6608 38.8278C41.402 39.0993 41.2552 39.4586 41.25 39.8337C41.2512 40.0657 41.3093 40.2939 41.4193 40.4982C41.5293 40.7025 41.6878 40.8766 41.8808 41.0053C42.0739 41.134 42.2956 41.2134 42.5265 41.2363C42.7574 41.2593 42.9904 41.2252 43.205 41.137C43.3767 41.0652 43.5348 40.9646 43.6725 40.8395C43.8038 40.7071 43.9077 40.5501 43.9782 40.3775C44.0487 40.2049 44.0844 40.0201 44.0833 39.8337C44.0781 39.4586 43.9314 39.0993 43.6725 38.8278L43.4458 38.6578Z" fill="#EFEFEF"/>
<circle cx="37" cy="37" r="36" stroke="#EFEFEF" stroke-width="2"/>
</svg>
